<svg width="137" height="119" viewBox="0 0 137 119" fill="none" xmlns="http://www.w3.org/2000/svg">
<g clip-path="url(#clip0_560_1423)">
<path d="M0 72.0036C1.34032 69.6329 2.71488 67.2803 4.00497 64.8846C4.59407 63.7913 5.37268 63.0662 6.54632 62.6025C10.428 61.0614 14.2777 59.434 18.1388 57.8429C18.5156 57.6883 18.9014 57.5496 19.4038 57.3564C23.2991 66.7212 27.158 75.9949 31.0488 85.346C27.6694 86.7462 24.3883 88.1463 21.0774 89.4647C15.6477 91.6286 17.7072 91.5831 11.9761 89.9875C10.6221 89.6101 9.28175 89.1805 7.9186 88.8441C6.86827 88.585 6.22208 88.0236 5.8088 87.003C4.09173 82.7594 2.30845 78.5407 0.54115 74.3152C0.401867 73.9811 0.182667 73.6833 0 73.3674C0 72.9128 0 72.4582 0 72.0036Z" fill="#FEFEFE"/>
<path d="M137 27.4528C136.333 28.5257 135.317 29.0871 134.166 29.5554C127.661 32.1988 121.179 34.8946 114.687 37.5722C114.301 37.7313 113.918 37.8972 113.53 38.0495C111.781 38.7269 110.157 38.145 109.513 36.613C108.846 35.0264 109.586 33.4535 111.395 32.7057C117.112 30.3395 122.834 27.9893 128.554 25.6322C129.746 25.1412 130.94 24.648 132.134 24.1593C134.559 23.1683 135.409 23.3865 137.005 25.4094V27.4551L137 27.4528Z" fill="#FEFEFE"/>
<path d="M89.3765 85.3504C86.7666 85.3504 84.3075 85.4004 81.8506 85.339C77.7475 85.239 73.6466 85.064 69.5434 84.9276C60.8074 84.639 52.0691 84.3525 43.3331 84.0684C40.7506 83.9843 38.1659 83.8843 35.5834 83.8411C34.9601 83.8298 34.6518 83.632 34.4121 83.0501C30.7839 74.2719 27.1397 65.5027 23.4681 56.7426C23.1484 55.9766 23.3356 55.522 23.8722 54.9537C35.8026 42.325 47.7125 29.6781 59.6201 17.0289C59.8758 16.7562 60.0562 16.4129 60.4603 15.8311C70.2056 39.2587 79.7819 62.2818 89.3765 85.3504Z" fill="#FEFEFE"/>
<path d="M68.7238 7.6709C71.2149 7.86865 72.6717 9.14834 73.5507 11.2736C75.9962 17.1834 78.4576 23.084 80.9145 28.987C87.9357 45.8594 94.9501 62.7363 101.985 79.6041C102.787 81.5248 102.88 83.3546 101.581 85.0798C99.325 88.0733 94.6716 87.5096 93.1737 84.0137C90.8653 78.6222 88.6436 73.1943 86.3922 67.7801C79.081 50.2076 71.772 32.6351 64.4653 15.0604C63.3945 12.4851 63.9447 10.0439 66.0294 8.71647C66.824 8.2096 67.8196 8.01185 68.7215 7.67317L68.7238 7.6709Z" fill="#FEFEFE"/>
<path d="M20.6045 93.0087C24.461 91.4221 28.2765 89.8515 32.1719 88.249C32.3568 88.6082 32.5258 88.89 32.6514 89.1878C35.9645 97.1455 39.273 105.106 42.5816 113.066C43.125 114.375 43.0565 114.547 41.7345 115.095C38.7182 116.341 35.6928 117.564 32.6833 118.825C31.7997 119.196 31.2882 119.003 30.9115 118.093C27.507 109.847 24.0729 101.61 20.6524 93.3701C20.625 93.3064 20.6319 93.2269 20.6045 93.0087Z" fill="#FEFEFE"/>
<path d="M86.5498 33.8904C88.1527 33.4017 89.5981 32.8289 91.0982 32.538C92.7605 32.2175 94.2332 32.9517 95.2562 34.195C98.6309 38.3 100.663 43.0096 101.115 48.3148C101.314 50.6355 100.14 52.2925 98.0464 53.2881C97.1559 53.7109 96.2448 54.0882 95.1534 54.5678C92.3084 47.7284 89.477 40.9208 86.5521 33.8904H86.5498Z" fill="#FEFEFE"/>
<path d="M113.27 2.59769C112.993 3.42961 112.893 4.03877 112.605 4.54564C109.262 10.4372 105.901 16.3197 102.524 22.1908C101.602 23.7933 99.9304 24.2524 98.4485 23.3842C97.0328 22.5523 96.6401 20.9112 97.542 19.3292C100.892 13.4421 104.25 7.55963 107.625 1.6885C108.584 0.0201253 110.641 -0.536757 111.957 0.597464C112.557 1.11571 112.868 1.9658 113.27 2.59997V2.59769Z" fill="#FEFEFE"/>
<path d="M136.776 59.8999C136.781 62.0433 135.157 63.1753 132.817 62.557C128.67 61.4614 124.54 60.309 120.403 59.1748C118.06 58.5338 115.715 57.8974 113.379 57.236C111.545 56.7154 110.632 55.2857 111.064 53.6742C111.507 52.0126 113.052 51.2194 114.941 51.7331C121.423 53.4946 127.903 55.2676 134.379 57.0473C136.071 57.5133 136.772 58.3725 136.776 59.8999Z" fill="#FEFEFE"/>
</g>
<defs>
<clipPath id="clip0_560_1423">
<rect width="137" height="119" fill="white"/>
</clipPath>
</defs>
</svg>
