<svg width="353" height="353" viewBox="0 0 353 353" fill="none" xmlns="http://www.w3.org/2000/svg">
<g clip-path="url(#clip0_568_1229)">
<path d="M249.846 353H103.154C103.107 352.882 103.092 352.733 103.005 352.647C91.1525 340.767 79.2995 328.89 67.4348 317.021C49.1533 298.732 30.8679 280.443 12.5668 262.169C8.41318 258.023 4.18895 253.952 -0.00390625 249.846C-0.00390625 200.947 -0.00390625 152.053 -0.00390625 103.154C0.478527 102.715 0.976649 102.295 1.43555 101.833C26.5927 76.6755 51.7459 51.5223 76.8952 26.3534C85.6613 17.5833 94.404 8.78578 103.154 0C152.053 0 200.947 0 249.846 0C250.253 0.498122 250.626 1.03154 251.081 1.48652C266.205 16.6302 281.341 31.7622 296.473 46.898C313.911 64.3401 331.345 81.7822 348.795 99.2165C350.152 100.574 351.6 101.844 353.004 103.158V249.849C352.506 250.234 351.957 250.571 351.514 251.014C321.003 281.502 290.495 311.993 260.008 342.5C256.564 345.944 253.234 349.497 249.85 353.004L249.846 353ZM176.598 13.3316C155.355 13.3316 134.113 13.3865 112.87 13.265C109.971 13.2493 107.979 14.0416 105.908 16.1243C76.3696 45.8116 46.7647 75.4322 17.0538 104.947C14.3475 107.638 13.2297 110.242 13.2414 114.09C13.3866 156.771 13.3277 199.453 13.3787 242.131C13.3787 243.119 13.7317 244.382 14.3867 245.057C20.0465 250.854 25.8161 256.545 31.5425 262.271C56.8605 287.593 82.1784 312.915 107.473 338.26C108.473 339.26 109.493 339.676 110.917 339.66C117.647 339.59 124.382 339.625 131.112 339.625C168.106 339.625 205.101 339.625 242.095 339.574C243.084 339.574 244.354 339.221 245.017 338.558C276.109 307.549 307.141 276.485 338.217 245.46C339.233 244.445 339.649 243.48 339.645 242.06C339.613 198.335 339.617 154.606 339.664 110.881C339.664 109.348 339.115 108.328 338.092 107.304C307.251 76.5069 276.423 45.7017 245.637 14.8495C244.515 13.7278 243.441 13.2963 241.891 13.2963C220.127 13.3395 198.362 13.3238 176.594 13.3238L176.598 13.3316Z" fill="#EC1B24"/>
<path d="M176.599 13.3316C198.363 13.3316 220.128 13.3472 241.896 13.3041C243.445 13.3041 244.52 13.7316 245.642 14.8573C276.427 45.7056 307.256 76.5146 338.096 107.312C339.12 108.336 339.673 109.355 339.669 110.889C339.622 154.614 339.618 198.343 339.65 242.068C339.65 243.488 339.238 244.452 338.222 245.468C307.146 276.489 276.113 307.557 245.022 338.566C244.355 339.229 243.088 339.582 242.1 339.582C205.106 339.633 168.111 339.629 131.117 339.633C124.386 339.633 117.652 339.598 110.921 339.668C109.498 339.684 108.478 339.268 107.478 338.268C82.1832 312.923 56.8652 287.601 31.5473 262.279C25.8169 256.549 20.0473 250.861 14.3915 245.064C13.7325 244.39 13.3835 243.131 13.3835 242.138C13.3325 199.457 13.3913 156.775 13.2462 114.097C13.2344 110.25 14.3523 107.645 17.0586 104.955C46.7655 75.4321 76.3704 45.8115 105.909 16.1242C107.98 14.0415 109.972 13.2492 112.871 13.2649C134.113 13.3865 155.356 13.3316 176.599 13.3316ZM176.544 21.9683C155.89 21.9683 135.235 21.9801 114.581 21.9408C113.169 21.9408 112.161 22.3174 111.153 23.3293C81.838 52.6989 52.4841 82.0293 23.1851 111.411C22.5066 112.093 22.0241 113.313 22.0202 114.282C21.9653 155.72 21.9614 197.158 22.028 238.597C22.028 239.616 22.5772 240.887 23.3028 241.613C52.5978 270.998 81.94 300.344 111.321 329.643C112.051 330.369 113.326 330.922 114.349 330.922C155.788 330.984 197.226 330.984 238.664 330.93C239.629 330.93 240.841 330.412 241.527 329.725C270.948 300.383 300.325 271.006 329.664 241.581C330.389 240.856 330.93 239.577 330.934 238.557C330.997 197.186 330.993 155.81 330.934 114.439C330.934 113.411 330.436 112.113 329.719 111.391C300.467 82.0528 271.156 52.7695 241.892 23.443C240.77 22.3174 239.66 21.9369 238.119 21.9408C217.594 21.9879 197.073 21.9722 176.548 21.9722L176.544 21.9683Z" fill="#FDF9F8"/>
<path d="M176.543 21.9679C197.068 21.9679 217.589 21.9836 238.114 21.9366C239.655 21.9366 240.761 22.3131 241.887 23.4388C271.15 52.7652 300.461 82.0485 329.713 111.387C330.431 112.108 330.929 113.407 330.929 114.434C330.992 155.806 330.992 197.181 330.929 238.553C330.929 239.573 330.384 240.851 329.658 241.577C300.324 271.002 270.943 300.383 241.522 329.721C240.836 330.408 239.624 330.925 238.659 330.925C197.221 330.984 155.782 330.984 114.344 330.917C113.32 330.917 112.046 330.364 111.316 329.639C81.9347 300.34 52.5925 270.994 23.2974 241.608C22.5757 240.883 22.0266 239.612 22.0227 238.592C21.96 197.154 21.96 155.716 22.0149 114.277C22.0149 113.309 22.4973 112.089 23.1798 111.406C52.4788 82.0211 81.8327 52.6907 111.147 23.325C112.159 22.3131 113.163 21.9326 114.575 21.9366C135.23 21.9797 155.884 21.964 176.539 21.964L176.543 21.9679Z" fill="#EC1B24"/>
</g>
<defs>
<clipPath id="clip0_568_1229">
<rect width="353" height="353" fill="white"/>
</clipPath>
</defs>
</svg>
