<svg width="586" height="586" viewBox="0 0 586 586" fill="none" xmlns="http://www.w3.org/2000/svg">
<path d="M293 0L546.745 439.5H39.2546L293 0Z" fill="#073799"/>
<g clip-path="url(#clip0_679_6244)">
<path d="M149.896 320.194C149.786 317.628 150.931 315.217 148.185 313.537C147.682 313.227 147.555 311.443 147.948 310.695C149.775 307.197 151.763 303.688 155.959 302.508C159.115 301.622 161.271 299.724 162.873 296.922C165.503 292.325 169.699 290.582 174.89 290.294C194.889 289.184 214.883 287.958 234.865 286.635C236.264 286.543 237.987 285.611 238.877 284.518C244.744 277.286 250.495 269.956 256.125 262.534C258.42 259.514 261.212 258.162 264.986 258.116C308.43 257.552 351.869 256.925 395.313 256.303C400.515 256.229 405.712 256.05 410.914 255.981C416.278 255.912 418.492 257.811 419.001 263.138C420.781 281.733 422.486 300.339 424.255 319.273C425.867 319.348 427.457 319.389 429.041 319.492C433.382 319.78 435.624 322.616 434.856 326.897C434.445 329.158 433.983 331.407 433.463 333.645C431.856 340.566 427.226 344.088 420.128 344.502C416.515 344.715 414.428 343.714 412.665 340.405C408.66 332.874 404.076 325.654 399.862 318.226C398.163 315.235 395.914 313.86 392.406 313.911C383.157 314.049 373.909 314.032 364.661 313.917C361.395 313.877 359.221 315.143 357.597 317.916C352.898 325.947 348.042 333.887 343.372 341.93C342.343 343.702 341.256 344.467 339.106 344.467C302.014 344.398 264.928 344.398 227.837 344.456C225.894 344.456 224.675 343.857 223.513 342.321C216.924 333.576 210.201 324.94 203.612 316.201C201.837 313.848 199.733 312.761 196.751 312.784C186.537 312.882 176.329 312.813 166.115 312.824C161.919 312.83 160.231 313.998 158.786 317.939C156.046 325.401 153.254 332.846 150.682 340.365C149.977 342.431 148.896 342.92 146.908 342.845C141.809 342.661 139.122 340.072 139.035 334.951C138.989 332.264 139 329.583 139.035 326.897C139.087 322.328 141.185 320.263 145.775 320.194C147.017 320.177 148.266 320.194 149.902 320.194H149.896ZM311.419 266.832C311.419 274.524 311.494 282.067 311.373 289.609C311.338 291.75 311.968 292.429 314.13 292.406C322.887 292.302 331.667 291.974 340.389 292.503C346.314 292.86 350.921 291.456 354.239 286.572C355.088 285.317 355.956 283.787 356.025 282.349C356.25 277.763 356.036 273.155 356.14 268.564C356.187 266.567 355.51 265.917 353.482 265.963C340.401 266.234 327.314 266.389 314.234 266.596C313.396 266.608 312.558 266.74 311.419 266.844V266.832ZM409.163 292.359C408.608 284.034 408.024 276.233 407.608 268.42C407.475 265.871 406.544 265.014 403.908 265.083C392.568 265.399 381.221 265.492 369.874 265.687C369.238 265.699 368.608 265.877 367.765 266.009C367.765 273.897 367.857 281.641 367.712 289.385C367.666 291.859 368.568 292.423 370.88 292.4C382.036 292.302 393.192 292.354 404.342 292.359C405.77 292.359 407.197 292.359 409.168 292.359H409.163ZM257.194 281.819C257.194 284.863 257.27 287.446 257.166 290.024C257.096 291.767 257.744 292.388 259.495 292.382C269.512 292.331 279.529 292.382 289.552 292.319C290.396 292.319 291.541 291.957 292.032 291.347C297.934 284.103 298.159 275.681 297.113 267.356C285.593 267.356 274.24 267.344 262.888 267.384C262.264 267.384 261.397 267.58 261.056 268.011C257.564 272.396 254.166 276.843 250.316 281.819H257.194Z" fill="white"/>
<path d="M183.704 317.058C200.877 316.587 215.299 330.613 215.675 348.149C216.033 364.926 202.068 379.637 184.93 379.913C167.352 380.195 153.104 367.153 152.491 348.644C151.93 331.77 166.121 317.542 183.704 317.058ZM175.537 336.378C175.346 336.718 175.161 337.063 174.97 337.402C176.392 338.501 177.785 339.646 179.254 340.687C180.6 341.648 181.693 341.303 181.866 339.634C182.051 337.88 181.907 336.085 181.907 333.76C179.473 334.761 177.502 335.567 175.537 336.378ZM198.901 350.727C196.669 350.727 194.97 350.658 193.276 350.767C192.727 350.802 191.866 351.21 191.751 351.613C191.589 352.188 191.831 353.017 192.184 353.557C193.115 354.979 194.201 356.302 195.224 357.665C195.583 357.464 195.941 357.257 196.3 357.055C197.103 355.094 197.912 353.126 198.895 350.727H198.901ZM169.219 346.383C171.572 346.383 173.19 346.487 174.78 346.331C175.404 346.274 176.202 345.773 176.496 345.244C176.705 344.87 176.335 344.001 175.988 343.524C174.994 342.143 173.884 340.848 172.369 338.967C171.132 341.878 170.329 343.765 169.213 346.389L169.219 346.383ZM172.225 357.625C173.78 355.968 175.127 354.829 176.034 353.414C176.387 352.861 175.838 350.94 175.537 350.899C173.647 350.664 171.71 350.779 169.213 350.779C170.335 353.333 171.156 355.203 172.225 357.625ZM181.918 363.263C181.918 360.899 181.982 359.288 181.901 357.683C181.803 355.721 180.71 355.352 179.248 356.451C177.843 357.504 176.612 358.781 174.872 360.358C177.548 361.463 179.444 362.245 181.918 363.263ZM193.415 360.289C191.606 358.712 190.421 357.406 188.97 356.543C188.398 356.204 186.502 356.762 186.462 357.078C186.219 358.937 186.34 360.841 186.34 363.298C188.924 362.199 190.739 361.428 193.415 360.289ZM193.745 336.81C190.722 335.59 188.727 334.784 186.271 333.789C186.271 336.079 186.173 337.69 186.323 339.272C186.381 339.882 186.878 340.659 187.41 340.952C187.785 341.165 188.647 340.843 189.115 340.509C190.496 339.514 191.791 338.392 193.75 336.81H193.745ZM195.872 339.025C194.311 340.912 193.219 342.223 192.144 343.547C190.988 344.979 191.305 346.107 193.109 346.349C194.837 346.579 196.623 346.4 198.953 346.4C197.889 343.852 197.074 341.907 195.872 339.019V339.025Z" fill="white"/>
<path d="M378.782 317.042C396.14 316.927 410.446 331.12 410.434 348.466C410.428 365.45 396.261 379.828 379.365 380C361.846 380.179 347.239 365.79 347.21 348.328C347.181 331.252 361.395 317.168 378.776 317.047L378.782 317.042ZM370.377 336.344C370.25 336.684 370.129 337.023 370.001 337.362C371.314 338.456 372.591 339.583 373.938 340.63C375.227 341.631 376.389 341.413 376.608 339.733C376.839 337.932 376.66 336.074 376.66 333.732C374.169 334.768 372.273 335.556 370.377 336.344ZM390.677 357.959C391.862 355.083 392.672 353.121 393.654 350.733C391.354 350.733 389.55 350.601 387.776 350.773C386.128 350.934 385.66 351.976 386.701 353.328C387.793 354.743 389.024 356.055 390.672 357.965L390.677 357.959ZM364.013 346.378C366.424 346.378 368.042 346.458 369.643 346.338C370.21 346.297 371.094 345.854 371.198 345.44C371.348 344.847 371.088 343.979 370.689 343.461C369.684 342.138 368.504 340.941 366.996 339.238C365.869 341.936 365.082 343.823 364.013 346.378ZM367.019 357.729C368.545 356.043 369.695 354.893 370.678 353.616C371.082 353.092 371.447 352.143 371.233 351.648C371.019 351.165 370.059 350.814 369.4 350.762C367.822 350.635 366.227 350.722 364.002 350.722C365.077 353.219 365.909 355.152 367.019 357.729ZM376.678 363.287C376.678 360.968 376.747 359.352 376.643 357.752C376.608 357.177 376.25 356.262 375.863 356.158C375.261 355.997 374.389 356.228 373.851 356.601C372.47 357.562 371.204 358.696 369.331 360.22C372.273 361.446 374.163 362.24 376.683 363.287H376.678ZM381.001 363.321C383.614 362.194 385.545 361.359 388.128 360.243C386.406 358.742 385.232 357.603 383.932 356.636C383.406 356.245 382.533 355.986 381.932 356.135C381.521 356.233 381.082 357.119 381.042 357.683C380.92 359.277 381.001 360.882 381.001 363.321ZM380.995 333.732C380.995 336.108 380.891 337.713 381.047 339.301C381.105 339.905 381.643 340.676 382.18 340.958C382.568 341.16 383.412 340.82 383.886 340.486C385.279 339.491 386.579 338.381 388.521 336.833C385.516 335.596 383.556 334.785 381.001 333.732H380.995ZM393.683 346.418C392.672 343.921 391.874 341.948 391.076 339.969C390.753 339.79 390.423 339.606 390.099 339.428C389.047 340.78 387.938 342.097 386.984 343.513C386.625 344.048 386.383 344.893 386.545 345.469C386.666 345.895 387.51 346.332 388.065 346.372C389.666 346.493 391.284 346.412 393.683 346.412V346.418Z" fill="white"/>
<path d="M282.448 356.878C266.668 356.878 250.888 356.884 235.102 356.866C233.859 356.866 232.588 356.826 231.374 356.579C229.102 356.113 227.894 354.548 227.877 352.287C227.859 349.905 229.096 348.282 231.507 347.805C232.628 347.58 233.801 347.557 234.952 347.557C266.512 347.546 298.078 347.546 329.638 347.557C330.88 347.557 332.164 347.557 333.366 347.834C335.591 348.334 336.817 349.83 336.857 352.131C336.898 354.433 335.73 355.992 333.51 356.538C332.221 356.855 330.84 356.861 329.499 356.861C313.811 356.884 298.13 356.872 282.442 356.872L282.448 356.878Z" fill="white"/>
<path d="M323.47 251.304C310.188 251.304 296.905 251.304 283.622 251.304C282.755 251.304 281.882 251.356 281.026 251.275C278.483 251.022 276.888 249.589 276.679 247.081C276.466 244.555 277.876 242.91 280.327 242.283C281.24 242.047 282.229 242.035 283.188 242.024C309.945 241.667 336.701 241.328 363.458 241C364.51 240.988 365.585 241.006 366.608 241.201C369.14 241.69 370.47 243.307 370.371 245.861C370.267 248.433 368.735 249.848 366.204 250.171C365.348 250.28 364.475 250.286 363.608 250.286C350.227 250.291 336.852 250.286 323.47 250.286C323.47 250.619 323.47 250.959 323.47 251.292V251.304Z" fill="white"/>
</g>
<defs>
<clipPath id="clip0_679_6244">
<rect width="296" height="139" fill="white" transform="translate(139 241)"/>
</clipPath>
</defs>
</svg>
