<svg width="442" height="442" viewBox="0 0 442 442" fill="none" xmlns="http://www.w3.org/2000/svg">
<circle cx="221" cy="221" r="217" fill="#FEFEFE" stroke="#CC3132" stroke-width="8"/>
<g clip-path="url(#clip0_565_3649)">
<path d="M39.7341 231.95C39.5966 228.717 41.0289 225.68 37.5929 223.564C36.9635 223.173 36.8044 220.926 37.2963 219.983C39.5822 215.576 42.0706 211.155 47.3224 209.669C51.2721 208.553 53.9703 206.161 55.9741 202.631C59.2655 196.84 64.5172 194.644 71.0132 194.281C96.0424 192.882 121.064 191.338 146.072 189.671C147.822 189.555 149.978 188.381 151.092 187.004C158.434 177.893 165.632 168.659 172.678 159.309C175.55 155.503 179.044 153.8 183.767 153.742C238.137 153.032 292.499 152.242 346.869 151.459C353.379 151.365 359.883 151.14 366.393 151.053C373.106 150.966 375.877 153.358 376.513 160.07C378.741 183.496 380.875 206.937 383.089 230.79C385.107 230.885 387.096 230.935 389.078 231.066C394.511 231.428 397.318 235.002 396.356 240.394C395.842 243.243 395.263 246.077 394.612 248.896C392.601 257.616 386.807 262.052 377.924 262.574C373.403 262.842 370.791 261.581 368.585 257.413C363.572 247.925 357.835 238.829 352.562 229.471C350.435 225.702 347.621 223.97 343.23 224.035C331.656 224.209 320.082 224.187 308.508 224.042C304.421 223.992 301.701 225.586 299.668 229.08C293.787 239.198 287.71 249.201 281.865 259.334C280.578 261.566 279.218 262.53 276.527 262.53C230.107 262.443 183.695 262.443 137.275 262.516C134.845 262.516 133.318 261.762 131.864 259.827C123.618 248.809 115.205 237.93 106.958 226.92C104.737 223.955 102.104 222.585 98.3717 222.614C85.5895 222.738 72.8145 222.651 60.0323 222.665C54.7805 222.672 52.6682 224.144 50.8597 229.109C47.4309 238.51 43.937 247.889 40.7179 257.362C39.8354 259.964 38.4826 260.58 35.9942 260.486C29.6139 260.254 26.2502 256.993 26.1417 250.542C26.0838 247.157 26.0983 243.779 26.1417 240.394C26.2068 234.639 28.8327 232.037 34.5764 231.95C36.1316 231.928 37.6941 231.95 39.7413 231.95H39.7341ZM241.877 164.723C241.877 174.414 241.971 183.916 241.819 193.419C241.775 196.115 242.564 196.97 245.269 196.941C256.229 196.811 267.217 196.398 278.133 197.065C285.547 197.514 291.313 195.745 295.465 189.592C296.528 188.012 297.614 186.084 297.7 184.272C297.982 178.495 297.715 172.689 297.845 166.905C297.903 164.39 297.057 163.571 294.517 163.629C278.147 163.969 261.77 164.165 245.4 164.426C244.351 164.44 243.302 164.607 241.877 164.738V164.723ZM364.201 196.883C363.507 186.395 362.776 176.567 362.255 166.724C362.089 163.513 360.924 162.433 357.626 162.52C343.433 162.918 329.233 163.034 315.033 163.281C314.237 163.295 313.448 163.52 312.392 163.687C312.392 173.624 312.508 183.38 312.327 193.136C312.269 196.253 313.398 196.963 316.291 196.934C330.253 196.811 344.214 196.876 358.168 196.883C359.955 196.883 361.742 196.883 364.208 196.883H364.201ZM174.016 183.605C174.016 187.439 174.11 190.693 173.98 193.941C173.893 196.137 174.703 196.92 176.895 196.912C189.431 196.847 201.968 196.912 214.511 196.833C215.567 196.833 217 196.376 217.614 195.608C225 186.482 225.282 175.871 223.973 165.383C209.556 165.383 195.349 165.368 181.141 165.419C180.36 165.419 179.275 165.665 178.848 166.209C174.479 171.732 170.225 177.335 165.408 183.605H174.016Z" fill="#CC3132"/>
<path d="M82.0448 228C103.537 227.406 121.585 245.077 122.055 267.169C122.504 288.305 105.027 306.838 83.5784 307.186C61.5802 307.542 43.7488 291.11 42.982 267.792C42.2803 246.534 60.0394 228.609 82.0448 228ZM71.8234 252.339C71.5846 252.767 71.3532 253.202 71.1144 253.63C72.894 255.014 74.6373 256.456 76.4747 257.768C78.1602 258.979 79.5274 258.544 79.7444 256.442C79.9759 254.231 79.7951 251.97 79.7951 249.041C76.7496 250.303 74.2829 251.317 71.8234 252.339ZM101.063 270.416C98.2703 270.416 96.1436 270.329 94.024 270.467C93.3368 270.511 92.259 271.025 92.1143 271.533C91.9118 272.257 92.2156 273.301 92.6568 273.982C93.8215 275.773 95.1815 277.44 96.4618 279.158C96.9103 278.904 97.3588 278.643 97.8073 278.389C98.8128 275.918 99.8256 273.439 101.055 270.416H101.063ZM63.9168 264.944C66.8609 264.944 68.8864 265.074 70.8757 264.879C71.657 264.806 72.6553 264.176 73.0242 263.509C73.2846 263.038 72.8216 261.943 72.3876 261.342C71.1434 259.602 69.7545 257.971 67.8592 255.601C66.3112 259.269 65.3057 261.646 63.9095 264.951L63.9168 264.944ZM67.6784 279.107C69.6243 277.019 71.3098 275.584 72.4455 273.801C72.8867 273.105 72.1995 270.684 71.8234 270.634C69.4579 270.337 67.0346 270.482 63.9095 270.482C65.3129 273.7 66.3401 276.055 67.6784 279.107ZM79.8095 286.21C79.8095 283.231 79.8891 281.202 79.7878 279.179C79.6649 276.708 78.2977 276.244 76.4675 277.628C74.7097 278.955 73.1689 280.564 70.9915 282.55C74.3407 283.941 76.7134 284.927 79.8095 286.21ZM94.1977 282.463C91.9335 280.477 90.4505 278.831 88.6348 277.744C87.9187 277.317 85.546 278.02 85.4953 278.418C85.1915 280.759 85.3434 283.159 85.3434 286.254C88.577 284.869 90.8484 283.898 94.1977 282.463ZM94.61 252.883C90.8267 251.346 88.331 250.332 85.2566 249.078C85.2566 251.962 85.1336 253.992 85.3217 255.985C85.3941 256.753 86.0162 257.732 86.6817 258.102C87.1519 258.37 88.2297 257.964 88.8157 257.544C90.5446 256.29 92.1649 254.876 94.6172 252.883H94.61ZM97.272 255.674C95.3189 258.051 93.9517 259.703 92.6062 261.371C91.1594 263.175 91.5573 264.596 93.8143 264.9C95.9772 265.19 98.2124 264.966 101.128 264.966C99.7966 261.755 98.7767 259.305 97.272 255.666V255.674Z" fill="#CC3132"/>
<path d="M326.18 227.978C347.904 227.833 365.807 245.715 365.793 267.568C365.786 288.965 348.055 307.078 326.911 307.295C304.985 307.52 286.705 289.392 286.669 267.394C286.633 245.881 304.421 228.138 326.173 227.986L326.18 227.978ZM315.662 252.296C315.503 252.724 315.351 253.151 315.192 253.579C316.834 254.956 318.433 256.377 320.118 257.696C321.731 258.957 323.185 258.682 323.46 256.565C323.75 254.297 323.525 251.955 323.525 249.005C320.408 250.31 318.035 251.303 315.662 252.296ZM341.068 279.528C342.55 275.903 343.563 273.432 344.793 270.424C341.914 270.424 339.657 270.257 337.436 270.475C335.375 270.677 334.789 271.989 336.091 273.693C337.458 275.476 338.999 277.128 341.06 279.535L341.068 279.528ZM307.698 264.937C310.714 264.937 312.74 265.038 314.744 264.886C315.452 264.835 316.559 264.277 316.689 263.755C316.878 263.009 316.552 261.914 316.053 261.262C314.794 259.595 313.319 258.087 311.43 255.942C310.02 259.341 309.036 261.719 307.698 264.937ZM311.459 279.238C313.369 277.114 314.809 275.664 316.038 274.055C316.545 273.396 317.001 272.2 316.733 271.576C316.465 270.967 315.264 270.525 314.44 270.46C312.465 270.301 310.468 270.409 307.683 270.409C309.029 273.555 310.071 275.99 311.459 279.238ZM323.547 286.239C323.547 283.318 323.634 281.282 323.504 279.267C323.46 278.542 323.012 277.389 322.527 277.259C321.775 277.056 320.683 277.346 320.01 277.817C318.281 279.027 316.697 280.455 314.353 282.376C318.035 283.92 320.4 284.92 323.554 286.239H323.547ZM328.958 286.283C332.228 284.862 334.644 283.811 337.877 282.405C335.722 280.513 334.253 279.078 332.626 277.86C331.967 277.368 330.875 277.041 330.123 277.23C329.609 277.353 329.059 278.469 329.009 279.18C328.857 281.187 328.958 283.21 328.958 286.283ZM328.951 249.005C328.951 251.999 328.821 254.021 329.016 256.022C329.088 256.783 329.761 257.754 330.434 258.109C330.918 258.363 331.975 257.935 332.568 257.515C334.311 256.261 335.939 254.862 338.369 252.912C334.608 251.354 332.155 250.332 328.958 249.005H328.951ZM344.829 264.988C343.563 261.842 342.565 259.356 341.567 256.862C341.162 256.638 340.749 256.406 340.344 256.181C339.028 257.884 337.639 259.544 336.445 261.327C335.997 262.001 335.693 263.067 335.895 263.792C336.047 264.328 337.103 264.879 337.798 264.93C339.802 265.082 341.827 264.98 344.829 264.98V264.988Z" fill="#CC3132"/>
<path d="M205.621 278.164C185.873 278.164 166.124 278.171 146.369 278.15C144.813 278.15 143.222 278.099 141.703 277.787C138.86 277.2 137.348 275.229 137.326 272.38C137.305 269.379 138.853 267.335 141.869 266.734C143.273 266.451 144.741 266.422 146.181 266.422C185.677 266.408 225.181 266.408 264.678 266.422C266.234 266.422 267.839 266.422 269.344 266.77C272.129 267.401 273.663 269.285 273.713 272.184C273.764 275.084 272.303 277.048 269.525 277.736C267.912 278.135 266.183 278.142 264.505 278.142C244.872 278.171 225.247 278.157 205.614 278.157L205.621 278.164Z" fill="#CC3132"/>
<path d="M256.96 145.16C240.336 145.16 223.713 145.16 207.089 145.16C206.004 145.16 204.912 145.225 203.842 145.124C200.659 144.805 198.662 143 198.402 139.84C198.134 136.658 199.899 134.585 202.966 133.795C204.109 133.497 205.346 133.483 206.547 133.468C240.032 133.019 273.518 132.591 307.003 132.178C308.32 132.164 309.665 132.185 310.946 132.432C314.114 133.048 315.778 135.085 315.655 138.303C315.525 141.543 313.608 143.326 310.439 143.732C309.369 143.87 308.277 143.877 307.191 143.877C290.445 143.884 273.706 143.877 256.96 143.877C256.96 144.297 256.96 144.725 256.96 145.145V145.16Z" fill="#CC3132"/>
</g>
<defs>
<clipPath id="clip0_565_3649">
<rect width="370.438" height="175.116" fill="white" transform="translate(26.0986 132.179)"/>
</clipPath>
</defs>
</svg>
