<svg width="1429" height="217" viewBox="0 0 1429 217" fill="none" xmlns="http://www.w3.org/2000/svg">
<g clip-path="url(#clip0_144_4024)">
<path d="M0 0L0 220L1429 220V0L0 0Z" fill="#1A1A1A"/>
<path d="M0 204.069L0 210.897L1429 210.897V204.069L0 204.069Z" fill="#D6A55A"/>
<path d="M0 9.10344L0 15.931L1429 15.931V9.10344L0 9.10344Z" fill="#D6A55A"/>
<path d="M14.6016 102.414V106.966C14.6016 107.385 14.9129 107.724 15.2969 107.724L65.3641 107.724C65.7481 107.724 66.0595 107.385 66.0595 106.966V102.414C66.0595 101.995 65.7481 101.655 65.3641 101.655L15.2969 101.655C14.9129 101.655 14.6016 101.995 14.6016 102.414Z" fill="#FEFEFE"/>
<path d="M91.0938 102.414V106.966C91.0938 107.385 91.4051 107.724 91.7891 107.724L141.856 107.724C142.24 107.724 142.552 107.385 142.552 106.966V102.414C142.552 101.995 142.24 101.655 141.856 101.655L91.7891 101.655C91.4051 101.655 91.0938 101.995 91.0938 102.414Z" fill="#FEFEFE"/>
<path d="M167.586 102.414V106.966C167.586 107.385 167.897 107.724 168.281 107.724L218.348 107.724C218.733 107.724 219.044 107.385 219.044 106.966V102.414C219.044 101.995 218.733 101.655 218.348 101.655L168.281 101.655C167.897 101.655 167.586 101.995 167.586 102.414Z" fill="#FEFEFE"/>
<path d="M244.078 102.414V106.966C244.078 107.385 244.389 107.724 244.774 107.724L294.841 107.724C295.225 107.724 295.536 107.385 295.536 106.966V102.414C295.536 101.995 295.225 101.655 294.841 101.655L244.774 101.655C244.389 101.655 244.078 101.995 244.078 102.414Z" fill="#FEFEFE"/>
<path d="M320.57 102.414V106.966C320.57 107.385 320.882 107.724 321.266 107.724L371.333 107.724C371.717 107.724 372.028 107.385 372.028 106.966V102.414C372.028 101.995 371.717 101.655 371.333 101.655L321.266 101.655C320.882 101.655 320.57 101.995 320.57 102.414Z" fill="#FEFEFE"/>
<path d="M397.059 102.414V106.966C397.059 107.385 397.37 107.724 397.754 107.724L447.821 107.724C448.205 107.724 448.517 107.385 448.517 106.966V102.414C448.517 101.995 448.205 101.655 447.821 101.655L397.754 101.655C397.37 101.655 397.059 101.995 397.059 102.414Z" fill="#FEFEFE"/>
<path d="M473.551 102.414V106.966C473.551 107.385 473.862 107.724 474.246 107.724L524.313 107.724C524.697 107.724 525.009 107.385 525.009 106.966V102.414C525.009 101.995 524.697 101.655 524.313 101.655L474.246 101.655C473.862 101.655 473.551 101.995 473.551 102.414Z" fill="#FEFEFE"/>
<path d="M550.043 102.414V106.966C550.043 107.385 550.354 107.724 550.738 107.724L600.806 107.724C601.19 107.724 601.501 107.385 601.501 106.966V102.414C601.501 101.995 601.19 101.655 600.806 101.655L550.738 101.655C550.354 101.655 550.043 101.995 550.043 102.414Z" fill="#FEFEFE"/>
<path d="M626.535 102.414V106.966C626.535 107.385 626.846 107.724 627.231 107.724L677.298 107.724C677.682 107.724 677.993 107.385 677.993 106.966V102.414C677.993 101.995 677.682 101.655 677.298 101.655L627.231 101.655C626.846 101.655 626.535 101.995 626.535 102.414Z" fill="#FEFEFE"/>
<path d="M703.027 102.414V106.966C703.027 107.385 703.339 107.724 703.723 107.724L753.79 107.724C754.174 107.724 754.485 107.385 754.485 106.966V102.414C754.485 101.995 754.174 101.655 753.79 101.655L703.723 101.655C703.339 101.655 703.027 101.995 703.027 102.414Z" fill="#FEFEFE"/>
<path d="M779.52 102.414V106.966C779.52 107.385 779.831 107.724 780.215 107.724L830.282 107.724C830.666 107.724 830.977 107.385 830.977 106.966V102.414C830.977 101.995 830.666 101.655 830.282 101.655L780.215 101.655C779.831 101.655 779.52 101.995 779.52 102.414Z" fill="#FEFEFE"/>
<path d="M856.008 102.414V106.966C856.008 107.385 856.319 107.724 856.703 107.724L906.77 107.724C907.154 107.724 907.466 107.385 907.466 106.966V102.414C907.466 101.995 907.154 101.655 906.77 101.655L856.703 101.655C856.319 101.655 856.008 101.995 856.008 102.414Z" fill="#FEFEFE"/>
<path d="M932.5 102.414V106.966C932.5 107.385 932.811 107.724 933.195 107.724L983.263 107.724C983.647 107.724 983.958 107.385 983.958 106.966V102.414C983.958 101.995 983.647 101.655 983.263 101.655L933.195 101.655C932.811 101.655 932.5 101.995 932.5 102.414Z" fill="#FEFEFE"/>
<path d="M1008.99 102.414V106.966C1008.99 107.385 1009.3 107.724 1009.69 107.724L1059.75 107.724C1060.14 107.724 1060.45 107.385 1060.45 106.966V102.414C1060.45 101.995 1060.14 101.655 1059.75 101.655L1009.69 101.655C1009.3 101.655 1008.99 101.995 1008.99 102.414Z" fill="#FEFEFE"/>
<path d="M1085.48 102.414V106.966C1085.48 107.385 1085.8 107.724 1086.18 107.724L1136.25 107.724C1136.63 107.724 1136.94 107.385 1136.94 106.966V102.414C1136.94 101.995 1136.63 101.655 1136.25 101.655L1086.18 101.655C1085.8 101.655 1085.48 101.995 1085.48 102.414Z" fill="#FEFEFE"/>
<path d="M1161.98 102.414V106.966C1161.98 107.385 1162.29 107.724 1162.67 107.724L1212.74 107.724C1213.12 107.724 1213.43 107.385 1213.43 106.966V102.414C1213.43 101.995 1213.12 101.655 1212.74 101.655L1162.67 101.655C1162.29 101.655 1161.98 101.995 1161.98 102.414Z" fill="#FEFEFE"/>
<path d="M1238.46 102.414V106.966C1238.46 107.385 1238.78 107.724 1239.16 107.724L1289.23 107.724C1289.61 107.724 1289.92 107.385 1289.92 106.966V102.414C1289.92 101.995 1289.61 101.655 1289.23 101.655L1239.16 101.655C1238.78 101.655 1238.46 101.995 1238.46 102.414Z" fill="#FEFEFE"/>
<path d="M1314.96 102.414V106.966C1314.96 107.385 1315.27 107.724 1315.65 107.724L1365.72 107.724C1366.1 107.724 1366.41 107.385 1366.41 106.966V102.414C1366.41 101.995 1366.1 101.655 1365.72 101.655L1315.65 101.655C1315.27 101.655 1314.96 101.995 1314.96 102.414Z" fill="#FEFEFE"/>
<path d="M1391.45 102.414V106.966C1391.45 107.385 1391.76 107.724 1392.14 107.724H1428.3C1428.69 107.724 1429 107.385 1429 106.966V102.414C1429 101.995 1428.69 101.655 1428.3 101.655H1392.14C1391.76 101.655 1391.45 101.995 1391.45 102.414Z" fill="#FEFEFE"/>
<path d="M1424.83 101.655V107.724H1429V101.655H1424.83Z" fill="#FEFEFE"/>
</g>
<defs>
<clipPath id="clip0_144_4024">
<rect width="220" height="1429" fill="white" transform="matrix(0 -1 1 0 0 220)"/>
</clipPath>
</defs>
</svg>
