<svg width="586" height="586" viewBox="0 0 586 586" fill="none" xmlns="http://www.w3.org/2000/svg">
<path d="M293 0L546.745 439.5H39.2546L293 0Z" fill="#CC3132"/>
<path d="M314.199 159C315.511 159.713 306.308 171.378 305.215 187.264C303.041 218.76 326.956 251.544 347.501 273.377C349.031 252.28 344.66 230.976 337.424 211.593C369.737 256.203 405.938 304.436 371.382 359.928C334.445 419.262 245.812 416.939 211.866 355.983C188.434 313.915 202.928 271.617 227.418 234.381C228.603 254.305 231.03 282.672 249.988 293.761C247.894 277.426 244.11 261.794 245.168 245.114C247.733 204.806 280 175.576 314.188 159H314.199Z" fill="url(#paint0_linear_565_3377)"/>
<path d="M305.871 269.432C306.227 269.397 306.791 269.316 306.964 269.65C292.746 290.379 308.919 318.815 325.15 333.85C327.589 332.987 323.252 307.151 321.423 303.826C339.737 324.578 354.38 352.888 337.194 379.196C319.675 406.022 277.469 408.76 255.682 385.764C235.425 364.391 242.396 335.668 257.649 313.673C257.592 322.749 260.145 336.703 266.196 343.697C275.939 354.959 269.658 340.729 268.83 332.309C266.725 311.016 273.397 293.704 289.651 279.946C291.768 278.151 304.237 269.604 305.871 269.432Z" fill="#FFF2B4"/>
<defs>
<linearGradient id="paint0_linear_565_3377" x1="367.033" y1="247.167" x2="225.492" y2="359.937" gradientUnits="userSpaceOnUse">
<stop stop-color="#E74939"/>
<stop offset="0.56" stop-color="#ED9536"/>
<stop offset="1" stop-color="#E7583B"/>
</linearGradient>
</defs>
</svg>
