<svg width="315" height="416" viewBox="0 0 315 416" fill="none" xmlns="http://www.w3.org/2000/svg">
<path d="M194.012 0C196.24 1.21166 180.606 21.0281 178.749 48.0168C175.056 101.525 215.685 157.222 250.589 194.315C253.188 158.473 245.762 122.28 233.469 89.35C288.365 165.137 349.866 247.08 291.16 341.355C228.408 442.157 77.8298 438.21 20.1588 334.652C-19.65 263.184 4.97404 191.325 46.5808 128.064C48.5937 161.913 52.7172 210.105 84.9239 228.945C81.3671 201.194 74.9375 174.635 76.7354 146.298C81.0935 77.8197 135.911 28.1613 193.993 0H194.012Z" fill="#CC3132"/>
<path d="M190.859 28.9316C192.935 30.0608 178.365 48.5272 176.635 73.6773C173.193 123.54 211.055 175.443 243.581 210.009C246.003 176.609 239.083 142.881 227.628 112.195C278.784 182.819 336.095 259.18 281.388 347.032C222.911 440.967 82.5912 437.288 28.849 340.786C-8.24785 274.186 14.6987 207.222 53.471 148.272C55.3468 179.814 59.1894 224.724 89.2019 242.279C85.8875 216.419 79.8959 191.67 81.5713 165.263C85.6325 101.45 136.716 55.1744 190.84 28.9316H190.859Z" fill="url(#paint0_linear_560_2438)"/>
<defs>
<linearGradient id="paint0_linear_560_2438" x1="274.502" y1="168.514" x2="50.4205" y2="347.046" gradientUnits="userSpaceOnUse">
<stop stop-color="#E74939"/>
<stop offset="0.56" stop-color="#ED9536"/>
<stop offset="1" stop-color="#E7583B"/>
</linearGradient>
</defs>
</svg>
