<svg width="100" height="121" viewBox="0 0 100 121" fill="none" xmlns="http://www.w3.org/2000/svg">
<g clip-path="url(#clip0_560_1576)">
<path d="M100 86.0049H84.0316C84.0316 83.7945 84.1262 81.6908 84.0118 79.5971C83.7712 75.1288 82.0552 71.4019 78.2584 68.8158C78.1558 68.7466 78.0671 68.6537 77.8264 68.4481H83.1124C81.6292 58.3371 76.9645 50.2645 68.5404 44.7404C57.3195 37.3815 45.5089 36.8655 33.7574 43.3346C24.0079 48.7006 18.6016 57.2991 16.8797 68.4243C18.7377 68.4243 20.4398 68.4006 22.14 68.4441C22.4615 68.452 22.9389 68.6359 23.0671 68.883C25.0572 72.7305 30.0473 74.7927 34.8442 71.7321C35.2525 75.6171 37.1558 78.3633 40.9961 79.346C44.2623 80.1823 46.9842 79.0237 49.2032 76.4436C50.6548 78.132 52.4063 79.2728 54.6765 79.5299C56.9645 79.7908 58.925 79.0692 60.7258 77.6634C62.5957 79.3084 64.4596 80.9119 66.2663 82.5746C66.568 82.8534 66.6252 83.3991 66.8422 83.9388C64.2387 84.5221 61.8363 85.1172 59.4103 85.5838C58.1026 85.8349 56.7534 85.9832 55.4241 85.9852C36.9487 86.0109 18.4753 86.003 0 86.003V68.4065H5.65483C5.94675 66.6865 6.13215 65.0494 6.5069 63.4578C10.6667 45.7882 21.5286 34.4633 38.8363 29.299C39.4734 29.1092 39.6667 28.8937 39.6647 28.2571C39.645 18.8381 39.6469 9.41707 39.645 -0.00195312H60.355C60.355 9.38543 60.355 18.7708 60.3452 28.1582C60.3452 28.7158 60.3452 29.0954 61.073 29.2852C68.9527 31.3374 75.7791 35.2541 81.5148 41.057C87.2702 46.8796 91.1874 53.7541 93.1085 61.7298C93.6351 63.9165 93.9783 66.1467 94.4162 68.4085H100V86.0049Z" fill="#FEFEFE"/>
<path d="M30.1778 121C30.1778 115.862 30.1778 110.723 30.1778 105.585C30.1778 102.269 28.6433 100.084 25.4736 98.9356V89.2299H48.9332C46.7458 91.0014 45.0259 93.0082 43.8839 95.4618C42.7261 97.951 42.306 100.573 42.4579 103.386H45.519C45.6275 102.129 45.5742 100.824 45.8721 99.6039C47.2192 94.1114 50.661 90.7365 56.2251 89.5581C60.5072 88.6506 64.7754 87.6818 69.0476 86.7348C69.2961 86.6794 69.5348 86.5845 69.8208 86.4936C69.8208 84.9653 69.8464 83.4508 69.7991 81.9403C69.7892 81.6358 69.5683 81.2661 69.3316 81.0525C67.4322 79.3324 65.4519 77.6974 63.6038 75.9259C62.45 74.8187 61.3612 73.6027 60.45 72.2919C58.7655 69.866 58.7399 67.2186 59.8129 64.415C64.9569 66.497 70.0594 68.5018 75.1009 70.6509C76.2409 71.1373 77.2764 72.0092 78.1738 72.8949C80.0121 74.7099 80.7912 77.0765 80.8425 79.5914C80.9529 85.0562 80.8997 90.5269 80.9608 95.9937C80.9687 96.7489 80.5091 97.0198 80.0476 97.3618C75.805 100.505 71.5663 103.655 67.308 106.777C66.8385 107.121 66.6452 107.457 66.6492 108.054C66.6788 112.368 66.665 116.684 66.665 121H30.1758H30.1778Z" fill="#FEFEFE"/>
<path d="M47.5973 64.3854C47.5973 66.7224 47.5322 69.0593 47.6131 71.3923C47.7137 74.3066 45.3192 76.4617 42.8123 76.4024C40.0529 76.3371 38.0766 74.2434 38.0746 71.3113C38.0687 66.5405 38.1022 61.7697 38.0529 56.9989C38.0372 55.4686 38.9425 54.0115 40.8774 54.1419C42.2817 54.2349 43.6999 54.1499 45.1101 54.1617C46.694 54.1756 47.5815 55.0534 47.5993 56.6865C47.6249 59.2528 47.6052 61.8191 47.6052 64.3854H47.5973Z" fill="#FEFEFE"/>
<path d="M60.3436 61.1956C59.6454 60.9406 59.0477 60.7211 58.4659 60.5076C55.4777 64.6892 54.6493 70.0551 58.5842 75.2688C57.2213 76.4215 55.6848 76.7042 54.03 76.1328C52.243 75.5159 51.0813 74.2387 50.9077 72.3407C50.7499 70.6107 50.8327 68.857 50.8288 67.1132C50.8209 63.7244 50.8189 60.3356 50.8327 56.9468C50.8406 54.9202 51.6099 54.1689 53.6454 54.159C55.0892 54.1531 56.5329 54.1452 57.9787 54.165C59.2489 54.1828 60.2667 55.0685 60.3298 56.3418C60.4047 57.9096 60.3475 59.4854 60.3475 61.1956H60.3436Z" fill="#FEFEFE"/>
<path d="M25.4398 62.679C25.4398 61.6924 25.428 60.7058 25.4398 59.7192C25.4576 58.2561 26.3728 57.3506 27.8481 57.3388C29.4221 57.3269 30.998 57.3249 32.572 57.3388C33.8856 57.3506 34.8797 58.2996 34.9014 59.6144C34.931 61.6212 34.9526 63.628 34.8974 65.6328C34.8284 68.12 32.643 70.0378 30.0098 70.0062C27.5444 69.9746 25.4793 67.9618 25.4418 65.5399C25.428 64.5869 25.4398 63.6319 25.4379 62.679H25.4398Z" fill="#FEFEFE"/>
<path d="M72.9705 66.2593C69.86 65.0236 66.8581 63.8433 63.8719 62.6234C63.6884 62.5483 63.5346 62.1647 63.5307 61.9215C63.5011 60.0788 63.4912 58.2342 63.5208 56.3915C63.5405 55.1953 64.4478 54.2167 65.6036 54.183C67.3748 54.1336 69.15 54.1396 70.9212 54.1771C71.9094 54.1969 72.9291 55.0451 72.9468 56.004C73.006 59.3809 72.9705 62.7618 72.9705 66.2573V66.2593Z" fill="#FEFEFE"/>
</g>
<defs>
<clipPath id="clip0_560_1576">
<rect width="100" height="121" fill="white"/>
</clipPath>
</defs>
</svg>
