<svg width="399" height="521" viewBox="0 0 399 521" fill="none" xmlns="http://www.w3.org/2000/svg">
<g clip-path="url(#clip0_614_1056)">
<path d="M198.318 521.001C194.529 517.028 190.753 513.091 187.004 509.127C162.028 482.752 138.317 455.275 115.804 426.765C90.0779 394.184 66.0073 360.445 45.2422 324.437C32.2596 301.933 20.7279 278.727 11.9781 254.215C6.65376 239.292 2.53181 224.045 0.406493 208.323C-1.53247 193.959 -1.27956 179.59 0.632779 165.213C4.80798 133.84 16.8677 105.769 36.0355 80.7471C54.2981 56.9063 77.0154 38.2855 103.531 24.2545C123.409 13.7389 144.413 6.51701 166.571 2.74403C182.296 0.0674324 198.123 -0.718235 214.047 0.684426C252.982 4.11562 288.145 17.614 319.678 40.5316C348.576 61.5315 370.69 88.1333 384.631 121.225C392.298 139.428 396.514 158.435 397.774 178.161C399.278 201.713 394.925 224.356 387.724 246.59C379.4 272.295 367.687 296.473 354.451 319.954C340.568 344.59 325.229 368.31 308.351 390.966C293.514 410.879 278.17 430.423 262.583 449.754C244.618 472.036 225.366 493.218 205.621 513.939C203.385 516.287 200.963 518.453 198.318 520.996V521.001ZM198.478 277.377C247.391 277.404 287.351 237.583 287.413 188.752C287.475 139.668 247.742 99.7185 198.766 99.6298C149.777 99.541 109.769 139.41 109.729 188.357C109.689 237.379 149.538 277.351 198.478 277.377Z" fill="#073799"/>
<path d="M204.23 288.393C258.876 288.393 303.175 243.579 303.175 188.298C303.175 133.017 258.876 88.2031 204.23 88.2031C149.584 88.2031 105.285 133.017 105.285 188.298C105.285 243.579 149.584 288.393 204.23 288.393Z" fill="#073799"/>
</g>
<defs>
<clipPath id="clip0_614_1056">
<rect width="399" height="521" fill="white"/>
</clipPath>
</defs>
</svg>
