<svg width="423" height="552" viewBox="0 0 423 552" fill="none" xmlns="http://www.w3.org/2000/svg">
<g clip-path="url(#clip0_687_13423)">
<path d="M210.249 552.001C206.232 547.792 202.229 543.62 198.254 539.421C171.776 511.476 146.638 482.365 122.771 452.158C95.4979 417.639 69.9794 381.892 47.9653 343.742C34.2018 319.898 21.9764 295.311 12.7004 269.342C7.05574 253.53 2.68585 237.376 0.432694 220.718C-1.6229 205.5 -1.35478 190.276 0.672592 175.043C5.09893 141.803 17.884 112.062 38.2048 85.5516C57.5659 60.2923 81.6497 40.5635 109.76 25.6976C130.833 14.5564 153.101 6.90478 176.593 2.9073C193.263 0.0714446 210.042 -0.760971 226.924 0.72515C268.2 4.3605 305.479 18.6621 338.909 42.9432C369.545 65.1927 392.989 93.3773 407.769 128.438C415.897 147.724 420.366 167.862 421.702 188.762C423.296 213.715 418.682 237.705 411.047 261.262C402.223 288.497 389.805 314.113 375.773 338.992C361.055 365.093 344.793 390.225 326.9 414.229C311.17 435.326 294.904 456.033 278.38 476.514C259.334 500.123 238.923 522.565 217.991 544.519C215.621 547.006 213.052 549.301 210.249 551.996V552.001ZM210.418 293.881C262.273 293.91 304.637 251.72 304.702 199.983C304.768 147.978 262.645 105.652 210.724 105.558C158.788 105.464 116.374 147.705 116.331 199.564C116.289 251.503 158.534 293.853 210.418 293.881Z" fill="#F44336"/>
<path d="M216.513 305.553C274.446 305.553 321.41 258.072 321.41 199.502C321.41 140.932 274.446 93.4512 216.513 93.4512C158.581 93.4512 111.617 140.932 111.617 199.502C111.617 258.072 158.581 305.553 216.513 305.553Z" fill="#F44336"/>
</g>
<defs>
<clipPath id="clip0_687_13423">
<rect width="423" height="552" fill="white"/>
</clipPath>
</defs>
</svg>
