<svg width="1426" height="151" viewBox="0 0 1426 151" fill="none" xmlns="http://www.w3.org/2000/svg">
<g clip-path="url(#clip0_561_3198)">
<path d="M1439 161V0L0 0V161L1439 161Z" fill="#1A1A1A"/>
<path d="M1439 11.6587V6.66211L0 6.66211V11.6587L1439 11.6587Z" fill="#D6A55A"/>
<path d="M1439 154.338V149.342L0 149.342V154.338L1439 154.338Z" fill="#D6A55A"/>
<path d="M1424.29 86.0512V82.7202C1424.29 82.4136 1423.98 82.165 1423.59 82.165H1373.18C1372.79 82.165 1372.48 82.4136 1372.48 82.7202V86.0512C1372.48 86.3579 1372.79 86.6064 1373.18 86.6064H1423.59C1423.98 86.6064 1424.29 86.3579 1424.29 86.0512Z" fill="#FEFEFE"/>
<path d="M1359.9 109.045V105.714C1359.9 105.408 1359.58 105.159 1359.2 105.159H1308.78C1308.39 105.159 1308.08 105.408 1308.08 105.714V109.045C1308.08 109.352 1308.39 109.601 1308.78 109.601H1359.2C1359.58 109.601 1359.9 109.352 1359.9 109.045Z" fill="#FEFEFE"/>
<path d="M1270.24 86.0512V82.7202C1270.24 82.4136 1269.93 82.165 1269.54 82.165H1219.12C1218.74 82.165 1218.42 82.4136 1218.42 82.7202V86.0512C1218.42 86.3579 1218.74 86.6064 1219.12 86.6064H1269.54C1269.93 86.6064 1270.24 86.3579 1270.24 86.0512Z" fill="#FEFEFE"/>
<path d="M1193.21 86.0512V82.7202C1193.21 82.4136 1192.9 82.165 1192.51 82.165H1142.1C1141.71 82.165 1141.4 82.4136 1141.4 82.7202V86.0512C1141.4 86.3579 1141.71 86.6064 1142.1 86.6064H1192.51C1192.9 86.6064 1193.21 86.3579 1193.21 86.0512Z" fill="#FEFEFE"/>
<path d="M1116.19 86.0512V82.7202C1116.19 82.4136 1115.87 82.165 1115.49 82.165H1065.07C1064.68 82.165 1064.37 82.4136 1064.37 82.7202V86.0512C1064.37 86.3579 1064.68 86.6064 1065.07 86.6064H1115.49C1115.87 86.6064 1116.19 86.3579 1116.19 86.0512Z" fill="#FEFEFE"/>
<path d="M1039.16 86.0512V82.7202C1039.16 82.4136 1038.85 82.165 1038.46 82.165H988.043C987.657 82.165 987.343 82.4136 987.343 82.7202V86.0512C987.343 86.3579 987.657 86.6064 988.043 86.6064H1038.46C1038.85 86.6064 1039.16 86.3579 1039.16 86.0512Z" fill="#FEFEFE"/>
<path d="M962.135 86.0512V82.7202C962.135 82.4136 961.821 82.165 961.435 82.165H911.017C910.63 82.165 910.317 82.4136 910.317 82.7202V86.0512C910.317 86.3579 910.63 86.6064 911.017 86.6064H961.435C961.821 86.6064 962.135 86.3579 962.135 86.0512Z" fill="#FEFEFE"/>
<path d="M885.107 86.0512V82.7202C885.107 82.4136 884.794 82.165 884.407 82.165H833.99C833.603 82.165 833.289 82.4136 833.289 82.7202V86.0512C833.289 86.3579 833.603 86.6064 833.99 86.6064H884.407C884.794 86.6064 885.107 86.3579 885.107 86.0512Z" fill="#FEFEFE"/>
<path d="M808.081 86.0512V82.7202C808.081 82.4136 807.768 82.165 807.381 82.165H756.963C756.577 82.165 756.263 82.4136 756.263 82.7202V86.0512C756.263 86.3579 756.577 86.6064 756.963 86.6064H807.381C807.768 86.6064 808.081 86.3579 808.081 86.0512Z" fill="#FEFEFE"/>
<path d="M731.054 86.0512V82.7202C731.054 82.4136 730.74 82.165 730.354 82.165H679.936C679.549 82.165 679.236 82.4136 679.236 82.7202V86.0512C679.236 86.3579 679.549 86.6064 679.936 86.6064H730.354C730.74 86.6064 731.054 86.3579 731.054 86.0512Z" fill="#FEFEFE"/>
<path d="M654.027 86.0512V82.7202C654.027 82.4136 653.714 82.165 653.327 82.165H602.91C602.523 82.165 602.209 82.4136 602.209 82.7202V86.0512C602.209 86.3579 602.523 86.6064 602.91 86.6064H653.327C653.714 86.6064 654.027 86.3579 654.027 86.0512Z" fill="#FEFEFE"/>
<path d="M577 86.0512V82.7202C577 82.4136 576.687 82.165 576.3 82.165H525.882C525.496 82.165 525.182 82.4136 525.182 82.7202V86.0512C525.182 86.3579 525.496 86.6064 525.882 86.6064H576.3C576.687 86.6064 577 86.3579 577 86.0512Z" fill="#FEFEFE"/>
<path d="M499.974 86.0512V82.7202C499.974 82.4136 499.66 82.165 499.273 82.165H448.856C448.469 82.165 448.156 82.4136 448.156 82.7202V86.0512C448.156 86.3579 448.469 86.6064 448.856 86.6064H499.273C499.66 86.6064 499.974 86.3579 499.974 86.0512Z" fill="#FEFEFE"/>
<path d="M422.947 86.0512V82.7202C422.947 82.4136 422.634 82.165 422.247 82.165H371.83C371.443 82.165 371.129 82.4136 371.129 82.7202V86.0512C371.129 86.3579 371.443 86.6064 371.83 86.6064H422.247C422.634 86.6064 422.947 86.3579 422.947 86.0512Z" fill="#FEFEFE"/>
<path d="M345.92 86.0512V82.7202C345.92 82.4136 345.606 82.165 345.22 82.165H294.802C294.415 82.165 294.102 82.4136 294.102 82.7202V86.0512C294.102 86.3579 294.415 86.6064 294.802 86.6064H345.22C345.606 86.6064 345.92 86.3579 345.92 86.0512Z" fill="#FEFEFE"/>
<path d="M268.894 86.0512V82.7202C268.894 82.4136 268.58 82.165 268.193 82.165H217.776C217.389 82.165 217.076 82.4136 217.076 82.7202V86.0512C217.076 86.3579 217.389 86.6064 217.776 86.6064H268.193C268.58 86.6064 268.894 86.3579 268.894 86.0512Z" fill="#FEFEFE"/>
<path d="M191.866 86.0512V82.7202C191.866 82.4136 191.553 82.165 191.166 82.165H140.748C140.362 82.165 140.048 82.4136 140.048 82.7202V86.0512C140.048 86.3579 140.362 86.6064 140.748 86.6064H191.166C191.553 86.6064 191.866 86.3579 191.866 86.0512Z" fill="#FEFEFE"/>
<path d="M114.84 86.0512V82.7202C114.84 82.4136 114.526 82.165 114.14 82.165H63.7221C63.3354 82.165 63.0219 82.4136 63.0219 82.7202V86.0512C63.0219 86.3579 63.3354 86.6064 63.7221 86.6064H114.14C114.526 86.6064 114.84 86.3579 114.84 86.0512Z" fill="#FEFEFE"/>
<path d="M37.8135 86.0512V82.7202C37.8135 82.4136 37.5 82.165 37.1133 82.165H0.700619C0.313885 82.165 0.000374246 82.4136 0.000374246 82.7202V86.0512C0.000374246 86.3579 0.313885 86.6064 0.700619 86.6064H37.1133C37.5 86.6064 37.8135 86.3579 37.8135 86.0512Z" fill="#FEFEFE"/>
<path d="M4.20121 86.6064V82.165H-0.000423598V86.6064H4.20121Z" fill="#FEFEFE"/>
</g>
<defs>
<clipPath id="clip0_561_3198">
<rect width="161" height="1439" fill="white" transform="matrix(0 1 -1 0 1439 0)"/>
</clipPath>
</defs>
</svg>
