<svg width="880" height="634" viewBox="0 0 880 634" fill="none" xmlns="http://www.w3.org/2000/svg">
<rect x="27" y="4" width="802" height="629" fill="white"/>
<g clip-path="url(#clip0_329_784)">
<path d="M89 0H0V630H89V0Z" fill="#1A1A1A"/>
<path d="M6.44566 0H3.68359V630H6.44566V0Z" fill="#D6A55A"/>
<path d="M85.3168 0H82.5547V630H85.3168V0Z" fill="#D6A55A"/>
<path d="M47.5682 6.43799H45.7268C45.5573 6.43799 45.4199 6.57524 45.4199 6.74456V28.8176C45.4199 28.9869 45.5573 29.1241 45.7268 29.1241H47.5682C47.7377 29.1241 47.8751 28.9869 47.8751 28.8176V6.74456C47.8751 6.57524 47.7377 6.43799 47.5682 6.43799Z" fill="#FEFEFE"/>
<path d="M47.5682 40.1606H45.7268C45.5573 40.1606 45.4199 40.2979 45.4199 40.4672V62.5402C45.4199 62.7095 45.5573 62.8468 45.7268 62.8468H47.5682C47.7377 62.8468 47.8751 62.7095 47.8751 62.5402V40.4672C47.8751 40.2979 47.7377 40.1606 47.5682 40.1606Z" fill="#FEFEFE"/>
<path d="M47.5682 73.8832H45.7268C45.5573 73.8832 45.4199 74.0204 45.4199 74.1897V96.2627C45.4199 96.4321 45.5573 96.5693 45.7268 96.5693H47.5682C47.7377 96.5693 47.8751 96.4321 47.8751 96.2627V74.1897C47.8751 74.0204 47.7377 73.8832 47.5682 73.8832Z" fill="#FEFEFE"/>
<path d="M47.5682 107.606H45.7268C45.5573 107.606 45.4199 107.743 45.4199 107.912V129.985C45.4199 130.155 45.5573 130.292 45.7268 130.292H47.5682C47.7377 130.292 47.8751 130.155 47.8751 129.985V107.912C47.8751 107.743 47.7377 107.606 47.5682 107.606Z" fill="#FEFEFE"/>
<path d="M47.5682 141.328H45.7268C45.5573 141.328 45.4199 141.466 45.4199 141.635V163.708C45.4199 163.877 45.5573 164.015 45.7268 164.015H47.5682C47.7377 164.015 47.8751 163.877 47.8751 163.708V141.635C47.8751 141.466 47.7377 141.328 47.5682 141.328Z" fill="#FEFEFE"/>
<path d="M47.5682 175.051H45.7268C45.5573 175.051 45.4199 175.188 45.4199 175.358V197.431C45.4199 197.6 45.5573 197.737 45.7268 197.737H47.5682C47.7377 197.737 47.8751 197.6 47.8751 197.431V175.358C47.8751 175.188 47.7377 175.051 47.5682 175.051Z" fill="#FEFEFE"/>
<path d="M47.5682 208.774H45.7268C45.5573 208.774 45.4199 208.911 45.4199 209.08V231.153C45.4199 231.323 45.5573 231.46 45.7268 231.46H47.5682C47.7377 231.46 47.8751 231.323 47.8751 231.153V209.08C47.8751 208.911 47.7377 208.774 47.5682 208.774Z" fill="#FEFEFE"/>
<path d="M47.5682 242.496H45.7268C45.5573 242.496 45.4199 242.634 45.4199 242.803V264.876C45.4199 265.045 45.5573 265.182 45.7268 265.182H47.5682C47.7377 265.182 47.8751 265.045 47.8751 264.876V242.803C47.8751 242.634 47.7377 242.496 47.5682 242.496Z" fill="#FEFEFE"/>
<path d="M47.5682 276.219H45.7268C45.5573 276.219 45.4199 276.356 45.4199 276.526V298.599C45.4199 298.768 45.5573 298.905 45.7268 298.905H47.5682C47.7377 298.905 47.8751 298.768 47.8751 298.599V276.526C47.8751 276.356 47.7377 276.219 47.5682 276.219Z" fill="#FEFEFE"/>
<path d="M47.5682 309.942H45.7268C45.5573 309.942 45.4199 310.079 45.4199 310.248V332.321C45.4199 332.491 45.5573 332.628 45.7268 332.628H47.5682C47.7377 332.628 47.8751 332.491 47.8751 332.321V310.248C47.8751 310.079 47.7377 309.942 47.5682 309.942Z" fill="#FEFEFE"/>
<path d="M47.5682 343.664H45.7268C45.5573 343.664 45.4199 343.802 45.4199 343.971V366.044C45.4199 366.213 45.5573 366.35 45.7268 366.35H47.5682C47.7377 366.35 47.8751 366.213 47.8751 366.044V343.971C47.8751 343.802 47.7377 343.664 47.5682 343.664Z" fill="#FEFEFE"/>
<path d="M47.5682 377.387H45.7268C45.5573 377.387 45.4199 377.524 45.4199 377.693V399.766C45.4199 399.936 45.5573 400.073 45.7268 400.073H47.5682C47.7377 400.073 47.8751 399.936 47.8751 399.766V377.693C47.8751 377.524 47.7377 377.387 47.5682 377.387Z" fill="#FEFEFE"/>
<path d="M47.5682 411.109H45.7268C45.5573 411.109 45.4199 411.247 45.4199 411.416V433.489C45.4199 433.658 45.5573 433.796 45.7268 433.796H47.5682C47.7377 433.796 47.8751 433.658 47.8751 433.489V411.416C47.8751 411.247 47.7377 411.109 47.5682 411.109Z" fill="#FEFEFE"/>
<path d="M47.5682 444.832H45.7268C45.5573 444.832 45.4199 444.969 45.4199 445.139V467.212C45.4199 467.381 45.5573 467.518 45.7268 467.518H47.5682C47.7377 467.518 47.8751 467.381 47.8751 467.212V445.139C47.8751 444.969 47.7377 444.832 47.5682 444.832Z" fill="#FEFEFE"/>
<path d="M47.5682 478.555H45.7268C45.5573 478.555 45.4199 478.692 45.4199 478.861V500.934C45.4199 501.104 45.5573 501.241 45.7268 501.241H47.5682C47.7377 501.241 47.8751 501.104 47.8751 500.934V478.861C47.8751 478.692 47.7377 478.555 47.5682 478.555Z" fill="#FEFEFE"/>
<path d="M47.5682 512.277H45.7268C45.5573 512.277 45.4199 512.415 45.4199 512.584V534.657C45.4199 534.826 45.5573 534.963 45.7268 534.963H47.5682C47.7377 534.963 47.8751 534.826 47.8751 534.657V512.584C47.8751 512.415 47.7377 512.277 47.5682 512.277Z" fill="#FEFEFE"/>
<path d="M47.5682 546H45.7268C45.5573 546 45.4199 546.137 45.4199 546.307V568.38C45.4199 568.549 45.5573 568.686 45.7268 568.686H47.5682C47.7377 568.686 47.8751 568.549 47.8751 568.38V546.307C47.8751 546.137 47.7377 546 47.5682 546Z" fill="#FEFEFE"/>
<path d="M47.5682 579.723H45.7268C45.5573 579.723 45.4199 579.86 45.4199 580.029V602.102C45.4199 602.271 45.5573 602.409 45.7268 602.409H47.5682C47.7377 602.409 47.8751 602.271 47.8751 602.102V580.029C47.8751 579.86 47.7377 579.723 47.5682 579.723Z" fill="#FEFEFE"/>
<path d="M47.5682 613.445H45.7268C45.5573 613.445 45.4199 613.583 45.4199 613.752V629.693C45.4199 629.863 45.5573 630 45.7268 630H47.5682C47.7377 630 47.8751 629.863 47.8751 629.693V613.752C47.8751 613.583 47.7377 613.445 47.5682 613.445Z" fill="#FEFEFE"/>
<path d="M47.8751 628.161H45.4199V630H47.8751V628.161Z" fill="#FEFEFE"/>
</g>
<g clip-path="url(#clip1_329_784)">
<path d="M880 0H791V630H880V0Z" fill="#1A1A1A"/>
<path d="M797.446 0H794.684V630H797.446V0Z" fill="#D6A55A"/>
<path d="M876.317 0H873.555V630H876.317V0Z" fill="#D6A55A"/>
<path d="M838.568 6.43799H836.727C836.557 6.43799 836.42 6.57524 836.42 6.74456V28.8176C836.42 28.9869 836.557 29.1241 836.727 29.1241H838.568C838.738 29.1241 838.875 28.9869 838.875 28.8176V6.74456C838.875 6.57524 838.738 6.43799 838.568 6.43799Z" fill="#FEFEFE"/>
<path d="M838.568 40.1606H836.727C836.557 40.1606 836.42 40.2979 836.42 40.4672V62.5402C836.42 62.7095 836.557 62.8468 836.727 62.8468H838.568C838.738 62.8468 838.875 62.7095 838.875 62.5402V40.4672C838.875 40.2979 838.738 40.1606 838.568 40.1606Z" fill="#FEFEFE"/>
<path d="M838.568 73.8832H836.727C836.557 73.8832 836.42 74.0204 836.42 74.1897V96.2627C836.42 96.4321 836.557 96.5693 836.727 96.5693H838.568C838.738 96.5693 838.875 96.4321 838.875 96.2627V74.1897C838.875 74.0204 838.738 73.8832 838.568 73.8832Z" fill="#FEFEFE"/>
<path d="M838.568 107.606H836.727C836.557 107.606 836.42 107.743 836.42 107.912V129.985C836.42 130.155 836.557 130.292 836.727 130.292H838.568C838.738 130.292 838.875 130.155 838.875 129.985V107.912C838.875 107.743 838.738 107.606 838.568 107.606Z" fill="#FEFEFE"/>
<path d="M838.568 141.328H836.727C836.557 141.328 836.42 141.466 836.42 141.635V163.708C836.42 163.877 836.557 164.015 836.727 164.015H838.568C838.738 164.015 838.875 163.877 838.875 163.708V141.635C838.875 141.466 838.738 141.328 838.568 141.328Z" fill="#FEFEFE"/>
<path d="M838.568 175.051H836.727C836.557 175.051 836.42 175.188 836.42 175.358V197.431C836.42 197.6 836.557 197.737 836.727 197.737H838.568C838.738 197.737 838.875 197.6 838.875 197.431V175.358C838.875 175.188 838.738 175.051 838.568 175.051Z" fill="#FEFEFE"/>
<path d="M838.568 208.774H836.727C836.557 208.774 836.42 208.911 836.42 209.08V231.153C836.42 231.323 836.557 231.46 836.727 231.46H838.568C838.738 231.46 838.875 231.323 838.875 231.153V209.08C838.875 208.911 838.738 208.774 838.568 208.774Z" fill="#FEFEFE"/>
<path d="M838.568 242.496H836.727C836.557 242.496 836.42 242.634 836.42 242.803V264.876C836.42 265.045 836.557 265.182 836.727 265.182H838.568C838.738 265.182 838.875 265.045 838.875 264.876V242.803C838.875 242.634 838.738 242.496 838.568 242.496Z" fill="#FEFEFE"/>
<path d="M838.568 276.219H836.727C836.557 276.219 836.42 276.356 836.42 276.526V298.599C836.42 298.768 836.557 298.905 836.727 298.905H838.568C838.738 298.905 838.875 298.768 838.875 298.599V276.526C838.875 276.356 838.738 276.219 838.568 276.219Z" fill="#FEFEFE"/>
<path d="M838.568 309.942H836.727C836.557 309.942 836.42 310.079 836.42 310.248V332.321C836.42 332.491 836.557 332.628 836.727 332.628H838.568C838.738 332.628 838.875 332.491 838.875 332.321V310.248C838.875 310.079 838.738 309.942 838.568 309.942Z" fill="#FEFEFE"/>
<path d="M838.568 343.664H836.727C836.557 343.664 836.42 343.802 836.42 343.971V366.044C836.42 366.213 836.557 366.35 836.727 366.35H838.568C838.738 366.35 838.875 366.213 838.875 366.044V343.971C838.875 343.802 838.738 343.664 838.568 343.664Z" fill="#FEFEFE"/>
<path d="M838.568 377.387H836.727C836.557 377.387 836.42 377.524 836.42 377.693V399.766C836.42 399.936 836.557 400.073 836.727 400.073H838.568C838.738 400.073 838.875 399.936 838.875 399.766V377.693C838.875 377.524 838.738 377.387 838.568 377.387Z" fill="#FEFEFE"/>
<path d="M838.568 411.109H836.727C836.557 411.109 836.42 411.247 836.42 411.416V433.489C836.42 433.658 836.557 433.796 836.727 433.796H838.568C838.738 433.796 838.875 433.658 838.875 433.489V411.416C838.875 411.247 838.738 411.109 838.568 411.109Z" fill="#FEFEFE"/>
<path d="M838.568 444.832H836.727C836.557 444.832 836.42 444.969 836.42 445.139V467.212C836.42 467.381 836.557 467.518 836.727 467.518H838.568C838.738 467.518 838.875 467.381 838.875 467.212V445.139C838.875 444.969 838.738 444.832 838.568 444.832Z" fill="#FEFEFE"/>
<path d="M838.568 478.555H836.727C836.557 478.555 836.42 478.692 836.42 478.861V500.934C836.42 501.104 836.557 501.241 836.727 501.241H838.568C838.738 501.241 838.875 501.104 838.875 500.934V478.861C838.875 478.692 838.738 478.555 838.568 478.555Z" fill="#FEFEFE"/>
<path d="M838.568 512.277H836.727C836.557 512.277 836.42 512.415 836.42 512.584V534.657C836.42 534.826 836.557 534.963 836.727 534.963H838.568C838.738 534.963 838.875 534.826 838.875 534.657V512.584C838.875 512.415 838.738 512.277 838.568 512.277Z" fill="#FEFEFE"/>
<path d="M838.568 546H836.727C836.557 546 836.42 546.137 836.42 546.307V568.38C836.42 568.549 836.557 568.686 836.727 568.686H838.568C838.738 568.686 838.875 568.549 838.875 568.38V546.307C838.875 546.137 838.738 546 838.568 546Z" fill="#FEFEFE"/>
<path d="M838.568 579.723H836.727C836.557 579.723 836.42 579.86 836.42 580.029V602.102C836.42 602.271 836.557 602.409 836.727 602.409H838.568C838.738 602.409 838.875 602.271 838.875 602.102V580.029C838.875 579.86 838.738 579.723 838.568 579.723Z" fill="#FEFEFE"/>
<path d="M838.568 613.445H836.727C836.557 613.445 836.42 613.583 836.42 613.752V629.693C836.42 629.863 836.557 630 836.727 630H838.568C838.738 630 838.875 629.863 838.875 629.693V613.752C838.875 613.583 838.738 613.445 838.568 613.445Z" fill="#FEFEFE"/>
<path d="M838.875 628.161H836.42V630H838.875V628.161Z" fill="#FEFEFE"/>
</g>
<g clip-path="url(#clip2_329_784)">
<path d="M791 89V0H89V89H791Z" fill="#1A1A1A"/>
<path d="M791 6.44481V3.68274H89V6.44481H791Z" fill="#D6A55A"/>
<path d="M791 85.3172V82.5552H89V85.3172H791Z" fill="#D6A55A"/>
<path d="M783.826 47.5689V45.7276C783.826 45.5581 783.673 45.4207 783.485 45.4207H758.889C758.7 45.4207 758.547 45.5581 758.547 45.7276V47.5689C758.547 47.7384 758.7 47.8758 758.889 47.8758H783.485C783.673 47.8758 783.826 47.7384 783.826 47.5689Z" fill="#FEFEFE"/>
<path d="M746.25 47.5689V45.7276C746.25 45.5581 746.097 45.4207 745.908 45.4207H721.313C721.124 45.4207 720.971 45.5581 720.971 45.7276V47.5689C720.971 47.7384 721.124 47.8758 721.313 47.8758H745.908C746.097 47.8758 746.25 47.7384 746.25 47.5689Z" fill="#FEFEFE"/>
<path d="M708.674 47.5689V45.7276C708.674 45.5581 708.521 45.4207 708.332 45.4207H683.737C683.548 45.4207 683.395 45.5581 683.395 45.7276V47.5689C683.395 47.7384 683.548 47.8758 683.737 47.8758H708.332C708.521 47.8758 708.674 47.7384 708.674 47.5689Z" fill="#FEFEFE"/>
<path d="M671.096 47.5689V45.7276C671.096 45.5581 670.943 45.4207 670.754 45.4207H646.158C645.97 45.4207 645.817 45.5581 645.817 45.7276V47.5689C645.817 47.7384 645.97 47.8758 646.158 47.8758H670.754C670.943 47.8758 671.096 47.7384 671.096 47.5689Z" fill="#FEFEFE"/>
<path d="M633.52 47.5689V45.7276C633.52 45.5581 633.367 45.4207 633.178 45.4207H608.582C608.394 45.4207 608.241 45.5581 608.241 45.7276V47.5689C608.241 47.7384 608.394 47.8758 608.582 47.8758H633.178C633.367 47.8758 633.52 47.7384 633.52 47.5689Z" fill="#FEFEFE"/>
<path d="M595.943 47.5689V45.7276C595.943 45.5581 595.79 45.4207 595.602 45.4207H571.006C570.817 45.4207 570.665 45.5581 570.665 45.7276V47.5689C570.665 47.7384 570.817 47.8758 571.006 47.8758H595.602C595.79 47.8758 595.943 47.7384 595.943 47.5689Z" fill="#FEFEFE"/>
<path d="M558.367 47.5689V45.7276C558.367 45.5581 558.214 45.4207 558.026 45.4207H533.43C533.241 45.4207 533.088 45.5581 533.088 45.7276V47.5689C533.088 47.7384 533.241 47.8758 533.43 47.8758H558.026C558.214 47.8758 558.367 47.7384 558.367 47.5689Z" fill="#FEFEFE"/>
<path d="M520.789 47.5689V45.7276C520.789 45.5581 520.636 45.4207 520.447 45.4207H495.852C495.663 45.4207 495.51 45.5581 495.51 45.7276V47.5689C495.51 47.7384 495.663 47.8758 495.852 47.8758H520.447C520.636 47.8758 520.789 47.7384 520.789 47.5689Z" fill="#FEFEFE"/>
<path d="M483.213 47.5689V45.7276C483.213 45.5581 483.06 45.4207 482.871 45.4207H458.276C458.087 45.4207 457.934 45.5581 457.934 45.7276V47.5689C457.934 47.7384 458.087 47.8758 458.276 47.8758H482.871C483.06 47.8758 483.213 47.7384 483.213 47.5689Z" fill="#FEFEFE"/>
<path d="M445.637 47.5689V45.7276C445.637 45.5581 445.484 45.4207 445.295 45.4207H420.699C420.511 45.4207 420.358 45.5581 420.358 45.7276V47.5689C420.358 47.7384 420.511 47.8758 420.699 47.8758H445.295C445.484 47.8758 445.637 47.7384 445.637 47.5689Z" fill="#FEFEFE"/>
<path d="M408.061 47.5689V45.7276C408.061 45.5581 407.908 45.4207 407.719 45.4207H383.123C382.935 45.4207 382.782 45.5581 382.782 45.7276V47.5689C382.782 47.7384 382.935 47.8758 383.123 47.8758H407.719C407.908 47.8758 408.061 47.7384 408.061 47.5689Z" fill="#FEFEFE"/>
<path d="M370.482 47.5689V45.7276C370.482 45.5581 370.329 45.4207 370.141 45.4207H345.545C345.357 45.4207 345.204 45.5581 345.204 45.7276V47.5689C345.204 47.7384 345.357 47.8758 345.545 47.8758H370.141C370.329 47.8758 370.482 47.7384 370.482 47.5689Z" fill="#FEFEFE"/>
<path d="M332.906 47.5689V45.7276C332.906 45.5581 332.753 45.4207 332.565 45.4207H307.969C307.78 45.4207 307.627 45.5581 307.627 45.7276V47.5689C307.627 47.7384 307.78 47.8758 307.969 47.8758H332.565C332.753 47.8758 332.906 47.7384 332.906 47.5689Z" fill="#FEFEFE"/>
<path d="M295.33 47.5689V45.7276C295.33 45.5581 295.177 45.4207 294.988 45.4207H270.393C270.204 45.4207 270.051 45.5581 270.051 45.7276V47.5689C270.051 47.7384 270.204 47.8758 270.393 47.8758H294.988C295.177 47.8758 295.33 47.7384 295.33 47.5689Z" fill="#FEFEFE"/>
<path d="M257.754 47.5689V45.7276C257.754 45.5581 257.601 45.4207 257.412 45.4207H232.817C232.628 45.4207 232.475 45.5581 232.475 45.7276V47.5689C232.475 47.7384 232.628 47.8758 232.817 47.8758H257.412C257.601 47.8758 257.754 47.7384 257.754 47.5689Z" fill="#FEFEFE"/>
<path d="M220.176 47.5689V45.7276C220.176 45.5581 220.023 45.4207 219.834 45.4207H195.239C195.05 45.4207 194.897 45.5581 194.897 45.7276V47.5689C194.897 47.7384 195.05 47.8758 195.239 47.8758H219.834C220.023 47.8758 220.176 47.7384 220.176 47.5689Z" fill="#FEFEFE"/>
<path d="M182.6 47.5689V45.7276C182.6 45.5581 182.447 45.4207 182.258 45.4207H157.662C157.474 45.4207 157.321 45.5581 157.321 45.7276V47.5689C157.321 47.7384 157.474 47.8758 157.662 47.8758H182.258C182.447 47.8758 182.6 47.7384 182.6 47.5689Z" fill="#FEFEFE"/>
<path d="M145.023 47.5689V45.7276C145.023 45.5581 144.87 45.4207 144.682 45.4207H120.086C119.898 45.4207 119.745 45.5581 119.745 45.7276V47.5689C119.745 47.7384 119.898 47.8758 120.086 47.8758H144.682C144.87 47.8758 145.023 47.7384 145.023 47.5689Z" fill="#FEFEFE"/>
<path d="M107.447 47.5689V45.7276C107.447 45.5581 107.294 45.4207 107.106 45.4207H89.3422C89.1535 45.4207 89.0005 45.5581 89.0005 45.7276V47.5689C89.0005 47.7384 89.1535 47.8758 89.3422 47.8758H107.106C107.294 47.8758 107.447 47.7384 107.447 47.5689Z" fill="#FEFEFE"/>
<path d="M91.0488 47.8758V45.4207H88.9992V47.8758H91.0488Z" fill="#FEFEFE"/>
</g>
<g clip-path="url(#clip3_329_784)">
<path d="M791 634V545H91V634H791Z" fill="#1A1A1A"/>
<path d="M791 551.445V548.683H91V551.445H791Z" fill="#D6A55A"/>
<path d="M791 630.317V627.555H91V630.317H791Z" fill="#D6A55A"/>
<path d="M783.848 592.569V590.728C783.848 590.558 783.695 590.421 783.507 590.421H758.981C758.793 590.421 758.641 590.558 758.641 590.728V592.569C758.641 592.738 758.793 592.876 758.981 592.876H783.507C783.695 592.876 783.848 592.738 783.848 592.569Z" fill="#FEFEFE"/>
<path d="M746.377 592.569V590.728C746.377 590.558 746.224 590.421 746.036 590.421H721.511C721.323 590.421 721.17 590.558 721.17 590.728V592.569C721.17 592.738 721.323 592.876 721.511 592.876H746.036C746.224 592.876 746.377 592.738 746.377 592.569Z" fill="#FEFEFE"/>
<path d="M708.908 592.569V590.728C708.908 590.558 708.756 590.421 708.568 590.421H684.042C683.854 590.421 683.701 590.558 683.701 590.728V592.569C683.701 592.738 683.854 592.876 684.042 592.876H708.568C708.756 592.876 708.908 592.738 708.908 592.569Z" fill="#FEFEFE"/>
<path d="M671.438 592.569V590.728C671.438 590.558 671.285 590.421 671.097 590.421H646.571C646.383 590.421 646.231 590.558 646.231 590.728V592.569C646.231 592.738 646.383 592.876 646.571 592.876H671.097C671.285 592.876 671.438 592.738 671.438 592.569Z" fill="#FEFEFE"/>
<path d="M633.969 592.569V590.728C633.969 590.558 633.816 590.421 633.628 590.421H609.103C608.914 590.421 608.762 590.558 608.762 590.728V592.569C608.762 592.738 608.914 592.876 609.103 592.876H633.628C633.816 592.876 633.969 592.738 633.969 592.569Z" fill="#FEFEFE"/>
<path d="M596.498 592.569V590.728C596.498 590.558 596.346 590.421 596.157 590.421H571.632C571.444 590.421 571.291 590.558 571.291 590.728V592.569C571.291 592.738 571.444 592.876 571.632 592.876H596.157C596.346 592.876 596.498 592.738 596.498 592.569Z" fill="#FEFEFE"/>
<path d="M559.029 592.569V590.728C559.029 590.558 558.877 590.421 558.689 590.421H534.163C533.975 590.421 533.822 590.558 533.822 590.728V592.569C533.822 592.738 533.975 592.876 534.163 592.876H558.689C558.877 592.876 559.029 592.738 559.029 592.569Z" fill="#FEFEFE"/>
<path d="M521.561 592.569V590.728C521.561 590.558 521.408 590.421 521.22 590.421H496.694C496.506 590.421 496.354 590.558 496.354 590.728V592.569C496.354 592.738 496.506 592.876 496.694 592.876H521.22C521.408 592.876 521.561 592.738 521.561 592.569Z" fill="#FEFEFE"/>
<path d="M484.09 592.569V590.728C484.09 590.558 483.937 590.421 483.749 590.421H459.224C459.036 590.421 458.883 590.558 458.883 590.728V592.569C458.883 592.738 459.036 592.876 459.224 592.876H483.749C483.937 592.876 484.09 592.738 484.09 592.569Z" fill="#FEFEFE"/>
<path d="M446.621 592.569V590.728C446.621 590.558 446.469 590.421 446.28 590.421H421.755C421.567 590.421 421.414 590.558 421.414 590.728V592.569C421.414 592.738 421.567 592.876 421.755 592.876H446.28C446.469 592.876 446.621 592.738 446.621 592.569Z" fill="#FEFEFE"/>
<path d="M409.15 592.569V590.728C409.15 590.558 408.998 590.421 408.81 590.421H384.284C384.096 590.421 383.944 590.558 383.944 590.728V592.569C383.944 592.738 384.096 592.876 384.284 592.876H408.81C408.998 592.876 409.15 592.738 409.15 592.569Z" fill="#FEFEFE"/>
<path d="M371.682 592.569V590.728C371.682 590.558 371.529 590.421 371.341 590.421H346.815C346.627 590.421 346.475 590.558 346.475 590.728V592.569C346.475 592.738 346.627 592.876 346.815 592.876H371.341C371.529 592.876 371.682 592.738 371.682 592.569Z" fill="#FEFEFE"/>
<path d="M334.211 592.569V590.728C334.211 590.558 334.058 590.421 333.87 590.421H309.345C309.157 590.421 309.004 590.558 309.004 590.728V592.569C309.004 592.738 309.157 592.876 309.345 592.876H333.87C334.058 592.876 334.211 592.738 334.211 592.569Z" fill="#FEFEFE"/>
<path d="M296.742 592.569V590.728C296.742 590.558 296.59 590.421 296.402 590.421H271.876C271.688 590.421 271.535 590.558 271.535 590.728V592.569C271.535 592.738 271.688 592.876 271.876 592.876H296.402C296.59 592.876 296.742 592.738 296.742 592.569Z" fill="#FEFEFE"/>
<path d="M259.273 592.569V590.728C259.273 590.558 259.121 590.421 258.933 590.421H234.407C234.219 590.421 234.067 590.558 234.067 590.728V592.569C234.067 592.738 234.219 592.876 234.407 592.876H258.933C259.121 592.876 259.273 592.738 259.273 592.569Z" fill="#FEFEFE"/>
<path d="M221.803 592.569V590.728C221.803 590.558 221.65 590.421 221.462 590.421H196.937C196.748 590.421 196.596 590.558 196.596 590.728V592.569C196.596 592.738 196.748 592.876 196.937 592.876H221.462C221.65 592.876 221.803 592.738 221.803 592.569Z" fill="#FEFEFE"/>
<path d="M184.334 592.569V590.728C184.334 590.558 184.181 590.421 183.993 590.421H159.468C159.28 590.421 159.127 590.558 159.127 590.728V592.569C159.127 592.738 159.28 592.876 159.468 592.876H183.993C184.181 592.876 184.334 592.738 184.334 592.569Z" fill="#FEFEFE"/>
<path d="M146.863 592.569V590.728C146.863 590.558 146.711 590.421 146.523 590.421H121.997C121.809 590.421 121.656 590.558 121.656 590.728V592.569C121.656 592.738 121.809 592.876 121.997 592.876H146.523C146.711 592.876 146.863 592.738 146.863 592.569Z" fill="#FEFEFE"/>
<path d="M109.395 592.569V590.728C109.395 590.558 109.242 590.421 109.054 590.421H91.341C91.1529 590.421 91.0004 590.558 91.0004 590.728V592.569C91.0004 592.738 91.1529 592.876 91.341 592.876H109.054C109.242 592.876 109.395 592.738 109.395 592.569Z" fill="#FEFEFE"/>
<path d="M93.043 592.876V590.421H90.9992V592.876H93.043Z" fill="#FEFEFE"/>
</g>
<defs>
<clipPath id="clip0_329_784">
<rect width="89" height="630" fill="white"/>
</clipPath>
<clipPath id="clip1_329_784">
<rect width="89" height="630" fill="white" transform="translate(791)"/>
</clipPath>
<clipPath id="clip2_329_784">
<rect width="89" height="702" fill="white" transform="matrix(0 1 -1 0 791 0)"/>
</clipPath>
<clipPath id="clip3_329_784">
<rect width="89" height="700" fill="white" transform="matrix(0 1 -1 0 791 545)"/>
</clipPath>
</defs>
</svg>
