<svg width="433" height="1023" viewBox="0 0 433 1023" fill="none" xmlns="http://www.w3.org/2000/svg">
<g clip-path="url(#clip0_569_2939)">
<path d="M256.24 1023H106.864C123.386 948.159 131.029 869.107 130.017 785.734C129.162 714.9 119.536 652.079 96.1748 602.222C84.316 576.924 71.7435 553.288 59.3702 529.227C44.6815 500.679 29.9763 472.15 19.4287 434.997C11.5449 407.224 7.01385 377.365 9.46196 343.961C12.5657 301.6 23.1216 269.452 37.9098 243.489C52.2914 218.228 68.9054 202.44 85.926 188.461C98.7308 177.936 111.602 167.742 124.249 156.312C128.963 152.047 133.552 144.9 133.345 131.42C133.137 117.756 128.199 112.401 123.336 108.486C112.581 99.8256 101.627 92.3655 90.9052 83.5019C86.5567 79.9196 82.316 74.8784 78.5401 68.8955C73.2622 60.5121 73.1958 49.4696 78.258 40.5692C81.2372 35.3434 84.6895 30.413 88.2828 28.1233C99.5275 20.977 110.963 15.3265 122.266 8.67888C126.058 6.42606 129.701 2.91758 133.419 0C150.017 0 166.614 0 183.211 0C181.079 4.4133 179.261 11.024 176.747 12.8337C166.025 20.5339 155.071 26.646 144.249 33.6999C140.88 35.8973 136.457 37.6146 136.382 47.3645C136.299 57.0036 140.606 59.6442 143.967 61.8786C153.203 68.0092 162.548 73.3089 171.826 79.0886C183.261 86.2348 194.622 93.8612 204.597 108.929C220.091 132.344 220.688 163.2 205.394 186.799C196.829 200.002 187.186 209.77 177.983 220.887C167.577 233.443 156.797 244.634 146.78 258.575C139.643 268.51 137.013 285.332 137.535 304.296C138.125 325.495 142.772 342.243 150.116 354.154C159.236 368.945 168.888 382.222 178.639 394.889C201.269 424.286 224.63 451.062 246.729 482.287C278.447 527.122 305.351 584.44 328.455 650.454C353.035 720.698 372.828 797.331 388.728 878.764C397.956 926.037 405.566 974.86 413.906 1023H269.509C268.389 984.462 267.302 945.924 266.057 907.423C265.974 904.764 264.87 900.443 263.966 900.055C260.688 898.615 257.294 898.523 253.75 897.895C254.364 915.345 255.169 931.484 255.451 947.697C255.891 972.792 255.982 997.905 256.223 1023.02L256.24 1023ZM247.402 736.505C242.306 713.293 237.327 690.063 232.107 667.129C228.995 653.483 227.219 652.689 221.277 659.706C225.676 681.274 230.198 702.675 234.414 724.354C237.75 741.49 237.584 741.657 245.941 738.554C246.065 738.499 246.173 738.24 247.402 736.505ZM192.356 558.274C191.145 555.301 190.249 552.531 189.112 550.407C183.419 539.826 177.394 530.04 172.008 518.757C168.639 511.703 166.191 513.291 162.921 519.256C164.199 521.693 165.294 523.854 166.423 525.94C171.734 535.745 177.352 544.849 182.274 555.559C185.502 562.576 188.323 564.016 192.356 558.292V558.274ZM103.503 429.235C109.652 438.819 115.602 447.646 121.312 457.174C124.448 462.4 127.121 462.861 130.125 456.195C124.025 446.852 117.876 438.099 112.092 428.294C109.046 423.123 106.706 424.083 103.503 429.235ZM86.1915 375.759C84.4654 368.151 82.4073 361.392 81.3617 353.914C79.9924 344.108 77.5443 344.644 73.7186 347.986C75.2705 355.705 76.7725 362.888 78.1584 370.145C79.7932 378.695 82.3326 380.8 86.1915 375.74V375.759ZM73.7933 306.014C76.2912 303.539 78.7061 302.893 79.4115 300.105C80.9799 293.863 81.7019 286.532 82.7725 279.608C77.287 277.115 75.7186 281.325 73.8016 306.014H73.7933ZM92.2412 244.874C98.5648 247.071 101.818 234.145 106.772 229.252C100.382 226.611 96.7806 237.82 92.2412 244.874ZM142.672 193.724C136.921 193.705 132.141 200.002 127.228 205.523C133.013 206.096 137.759 199.19 142.672 193.724ZM159.917 173.264C164.631 176.624 166.963 167.946 170.88 163.274C165.112 158.565 163.46 170.679 159.917 173.264ZM171.17 132.178C172.473 136.462 173.485 139.822 174.506 143.183C175.095 141.558 176.133 140.007 176.182 138.327C176.332 133.119 175.626 129.02 171.17 132.178ZM162.514 103.5C162.265 104.682 162.017 105.845 161.768 107.027C164.149 109.871 166.539 112.696 168.921 115.54C169.178 114.377 169.427 113.213 169.684 112.05C167.294 109.206 164.904 106.344 162.514 103.5Z" fill="black"/>
<path d="M422.213 1023C417.557 994.766 413.292 966.2 408.188 938.372C390.894 844.105 369.5 754.767 342.33 672.577C311.069 578.014 272.206 502.581 226.248 445.264C208.904 423.64 191.062 403.993 173.867 381.816C165.104 370.515 156.589 357.293 149.195 341.967C139.519 321.894 138.257 290.059 145.544 269.932C148.664 261.308 152.88 253.756 157.27 248.512C168.091 235.604 179.452 224.968 190.298 212.153C197.452 203.695 204.555 194.352 210.821 183.069C221.883 163.126 221.916 138.419 211.543 116.87C208.589 110.739 205.12 105.809 202.058 99.9551C210.414 109.022 218.115 120.12 221.095 141.171C223.078 155.168 220.879 167.798 216.348 178.342C208.049 197.657 197.41 208.829 186.838 220.259C177.917 229.898 168.904 239.205 160.158 249.583C137.552 276.395 142.722 326.4 156.838 348.817C168.904 367.985 181.883 384.622 194.995 400.078C221.725 431.599 248.331 463.305 272.787 503.338C302.845 552.549 328.762 610.809 350.977 677.378C384.454 777.739 409.657 887.979 429.657 1004.42C430.636 1010.11 431.873 1015.56 432.993 1021.14C429.4 1021.74 425.798 1022.37 422.205 1022.98L422.213 1023Z" fill="black"/>
<path d="M86.1153 1023C101.153 965.442 110.679 903.97 113.634 837.401C115.219 801.725 115.592 766.29 113.053 730.854C109.177 676.805 96.4389 633.854 78.7793 597.402C66.1238 571.273 53.1198 545.975 40.4145 519.994C28.7964 496.229 17.9915 470.912 9.79243 440.518C-6.51446 380.042 -1.60994 320.657 18.2405 269.95C31.1698 236.915 47.958 216.27 65.8002 199.669C74.9453 191.157 84.4058 184.306 93.7335 176.772C94.5634 176.107 95.4596 175.904 96.4223 176.347C87.161 184.214 77.7918 191.489 68.6632 200.039C50.8211 216.75 34.2486 237.801 21.3442 271.021C1.2448 322.762 -0.788376 383.551 15.8256 441.053C26.1906 476.932 40.3233 504.926 54.4227 533.123C68.1819 560.637 82.2399 587.615 95.0779 617.161C115.833 664.95 122.754 724.742 122.953 789.741C123.202 869.402 115.343 944.576 98.9451 1015.37C98.3974 1017.76 98.1318 1020.45 97.7335 1023H86.1153Z" fill="black"/>
<path d="M118.977 106.492C121.989 110.37 125.267 113.528 127.964 118.31C131.873 125.253 132.138 137.404 128.147 144.864C124.528 151.641 120.18 156.867 115.856 161.28C110.811 166.432 105.425 169.94 99.9062 172.396C105.342 167.743 110.844 163.44 116.18 158.288C119.184 155.389 122.213 151.862 124.686 147.191C130.196 136.813 129.549 123.13 123.441 114.525C121.848 112.272 120.163 110.37 118.52 108.302C118.67 107.692 118.819 107.083 118.977 106.492Z" fill="black"/>
<path d="M76.1554 38.0576C70.9853 56.6895 71.3173 60.0872 78.977 75.3399C75.3006 72.1822 72.0144 67.6212 71.0766 58.333C70.1887 49.5433 72.504 43.782 76.1554 38.0576Z" fill="black"/>
</g>
<defs>
<clipPath id="clip0_569_2939">
<rect width="433" height="1023" fill="white"/>
</clipPath>
</defs>
</svg>
