<svg width="241" height="563" viewBox="0 0 241 563" fill="none" xmlns="http://www.w3.org/2000/svg">
<path d="M153.156 561.563C153.137 497.128 158.145 455.326 127.752 396.232C98.6753 339.696 46.3673 307.079 23.6553 258.462C-28.8445 146.105 41.0695 12.3265 167.762 5.98553C189.982 4.87202 216.976 6.8972 239.783 6.07248C239.772 5.79639 240.892 2.14867 240.018 0.587155C206.046 2.07059 171.038 -2.96514 137.588 4.12457C128.511 6.04618 119.852 9.79283 110.823 11.8705C110.762 11.8945 111.014 12.603 110.593 12.7825C109.14 13.405 106.138 14.1336 105.106 14.6004C20.3733 53.8697 -18.0421 146.719 9.03806 236.034C30.3077 306.172 85.2286 331.986 118.599 391.179C152.257 450.902 147.942 495.381 147.658 561.785C149.217 562.663 152.867 561.551 153.144 561.563L153.156 561.563Z" fill="#5C5969"/>
<path d="M233.626 561.66C233.902 561.649 237.55 562.77 239.111 561.895C238.601 517.337 241.971 479.83 232.866 435.683C224.858 396.841 207.825 356.717 185.442 324.052C164.677 293.73 114.933 244.924 104.165 225.645C70.556 165.431 109.111 96.0253 169.026 91.5123C185.641 90.26 220.268 92.5225 239.907 91.5979C240.751 88.37 239.662 85.9439 239.686 85.6559C194.214 87.7736 151.46 75.8265 115.048 109.741C81.1722 141.293 77.7844 193.348 101.409 232.04C112.478 250.179 158.252 295.871 177.21 322.218C199.451 353.13 217.54 393.496 226.006 430.657C236.465 476.607 233.274 515.158 233.626 561.672L233.626 561.66Z" fill="#5C5969"/>
<path d="M153.154 561.563C154.151 561.612 155.015 561.541 155.903 561.566C156.152 495.055 160.669 451.512 128.213 391.203C99.0854 337.056 46.8977 304.283 24.5725 253.433C-24.2197 142.257 45.3749 14.552 169.138 8.73564C191.754 7.67062 216.887 9.60953 239.791 8.82094C239.768 7.93265 239.841 7.08049 239.794 6.07213C216.987 6.89685 189.993 4.87167 167.773 5.98518C41.0683 12.3261 -28.8337 146.105 23.6541 258.461C46.3661 307.079 98.6741 339.696 127.75 396.232C158.144 455.338 153.136 497.128 153.154 561.563Z" fill="#F8BE5D"/>
<path d="M230.891 561.657C231.779 561.634 232.631 561.707 233.639 561.66C233.288 515.146 236.491 476.594 226.019 430.644C217.554 393.483 199.465 353.117 177.224 322.205C158.266 295.859 112.504 250.166 101.422 232.027C77.7982 193.336 81.1861 141.28 115.062 109.728C151.474 75.814 194.228 87.7611 239.7 85.6433C239.7 85.5713 240.372 85.8482 240.158 84.2755C240.375 83.5195 239.679 83.3266 239.703 82.9065C194.423 84.9885 152.581 73.4146 115.523 105.623C79.8833 136.585 74.3341 189.262 96.8519 229.753C107.069 248.119 144.822 286.24 160.775 305.741C225.966 385.391 234.541 460.819 230.891 561.669L230.891 561.657Z" fill="#F8BE5D"/>
<path d="M155.891 561.566C160.26 561.704 187.65 562.877 189.5 562.063C191.037 561.393 189.338 557.249 190.875 556.579C197.072 553.862 195.478 561.782 195.898 562.071C197.325 563.081 226.699 561.784 230.877 561.657C234.527 460.808 225.964 385.379 160.761 305.729C144.796 286.228 107.055 248.107 96.8377 229.741C74.308 189.25 79.8692 136.586 115.509 105.612C152.567 73.4028 194.409 84.9767 239.689 82.8947C240.159 71.54 240.329 60.2088 240.186 48.8293C233.898 47.6694 222.214 51.2563 225.56 43.7822C226.366 41.9706 239.387 44.243 240.194 42.4315C240.436 31.2084 240.113 20.0208 239.778 8.82107C216.875 9.60966 191.754 7.67077 169.126 8.73577C45.3623 14.5641 -24.2323 142.258 24.5599 253.433C46.8731 304.283 99.0608 337.056 128.2 391.203C160.645 451.524 156.139 495.067 155.891 561.566Z" fill="#5C5969"/>
<path d="M117.176 56.915C117.032 57.323 118.396 60.8777 118.54 61.0339C120.014 62.6441 126.021 58.3181 132.038 56.2488C143.614 52.2536 152.099 53.1761 146.226 46.2069C142.624 46.8028 117.815 55.0793 117.176 56.915Z" fill="#E6EAEE"/>
<path d="M170.692 43.7156C170.451 44.2675 170.495 48.1327 171.371 48.5178C172.798 49.1558 201.786 49.5989 202.7 48.3276C202.856 48.1117 202.778 43.2742 202.478 43.0698C201.183 42.144 171.342 42.264 170.692 43.7156Z" fill="#E6EAEE"/>
<path d="M73.2392 91.6121C73.2629 91.8883 77.3042 95.0861 77.5803 95.0504C78.5407 94.9315 83.8191 87.6037 90.8613 80.8903C91.9309 79.8713 99.2596 74.3945 99.3323 73.8184C99.393 73.2783 96.9847 69.6503 95.4479 69.9246C93.9231 70.2108 73.097 90.0755 73.2392 91.6242L73.2392 91.6121Z" fill="#E6EAEE"/>
<path d="M47.563 140.052C47.4638 142.692 52.4325 143.311 53.0459 142.339C54.1865 132.149 64.2165 116.389 64.0502 114.912C63.9789 114.312 59.9727 111.894 59.7086 111.93C58.0158 112.18 47.6376 137.963 47.551 140.04L47.563 140.052Z" fill="#E6EAEE"/>
<path d="M190.256 501.47C189.379 502.705 189.61 530.266 190.22 531.647C190.603 532.524 194.468 532.576 195.021 532.337C196.414 531.714 196.364 503.314 195.742 501.933C195.251 500.816 190.473 501.158 190.256 501.47Z" fill="#E6EAEE"/>
<path d="M49.3023 221.449C48.6401 223.153 59.8203 248.914 61.8486 249.133C62.1127 249.157 66.137 246.545 66.1975 246.161C66.4032 244.745 53.8118 224.648 54.8016 220.087C54.5629 218.935 49.507 220.945 49.3143 221.449L49.3023 221.449Z" fill="#E6EAEE"/>
<path d="M42.4947 174.34C42.3473 177.124 43.0803 196.367 44.0639 196.98C44.2558 197.1 48.4336 196.637 48.6378 196.529C49.7429 195.895 48.0165 184.201 47.971 182.124C47.7097 169.856 51.2462 163.643 42.9603 166.574C43.3412 169.179 42.6298 171.807 42.4947 174.352L42.4947 174.34Z" fill="#E6EAEE"/>
<path d="M74.3943 269.037C74.2364 270.586 93.6202 292.023 95.1685 292.157C95.5526 292.194 99.0615 288.993 99.0618 288.729C99.0636 287.181 80.4066 270.209 78.2876 265.609C77.6507 266.209 74.4549 268.509 74.3943 269.037Z" fill="#E6EAEE"/>
<path d="M110.472 309.317C110.315 310.817 129.031 328.341 130.335 331.98L134.684 328.552C132.07 326.148 115.878 306.023 114.366 305.889C113.958 305.852 110.497 309.053 110.472 309.317Z" fill="white"/>
<path d="M144.264 350.975C144.046 352.355 158.404 371.002 158.867 374.771C159.369 376.884 164.306 374.034 164.355 372.953C164.429 371.465 149.645 348.028 148.156 348.014C147.916 348.014 144.3 350.735 144.264 350.987L144.264 350.975Z" fill="#E6EAEE"/>
<path d="M185.749 447.965C185.364 448.649 188.169 461.52 188.479 463.513C189.872 472.565 187.728 479.104 193.263 477.467C193.491 477.395 194.824 476.856 194.86 476.784C195.883 474.925 191.626 451.837 191.235 447.515C190.732 446.17 186.001 447.509 185.749 447.965Z" fill="#E6EAEE"/>
<path d="M169.81 397.651C169.46 399.019 179.686 420.23 179.381 424.19C182.969 425.119 184.974 424.665 184.414 420.991C184.212 419.695 176.197 397.251 175.297 396.289C173.919 394.811 169.883 397.351 169.81 397.651Z" fill="#E6EAEE"/>
</svg>
