<svg width="398" height="390" viewBox="0 0 398 390" fill="none" xmlns="http://www.w3.org/2000/svg">
<g clip-path="url(#clip0_569_3108)">
<path d="M198.922 389.946C146.151 389.946 93.3847 389.849 40.6141 390C22.2719 390.054 6.21279 377.878 1.44211 360.175C-1.22284 350.291 -0.17383 340.707 4.41945 331.499C10.189 319.937 15.8429 308.321 21.5623 296.736C29.7268 280.193 37.9106 263.658 46.0829 247.115C58.2043 222.565 70.3219 198.012 82.4396 173.458C98.059 141.806 113.675 110.154 129.298 78.5059C138.292 60.2898 147.355 42.1085 156.264 23.8538C162.195 11.7007 171.413 3.69781 184.718 0.911681C202.937 -2.9062 220.28 5.55652 229 22.0607C242.699 47.9822 256.513 73.8379 270.274 99.7246C284.401 126.299 298.52 152.881 312.651 179.456C327.233 206.876 341.834 234.286 356.416 261.71C368.731 284.869 381.068 308.02 393.324 331.213C406.036 355.268 390.953 385.339 364.137 389.459C361.989 389.787 359.791 389.934 357.62 389.934C304.722 389.961 251.824 389.953 198.926 389.957L198.922 389.946ZM198.976 367.989V367.977C248.92 367.977 298.863 367.989 348.807 367.943C351.225 367.943 353.69 367.66 356.054 367.139C368.426 364.422 377.416 350.89 375.499 338.338C374.72 333.226 372.283 328.886 369.93 324.47C354.23 294.951 338.51 265.439 322.806 235.92C309.793 211.456 296.796 186.979 283.792 162.511C271.57 139.515 259.348 116.522 247.119 93.5302C236.791 74.12 226.567 54.6519 216.061 35.3383C211.105 26.2303 203.002 21.8444 192.694 22.0917C182.284 22.3428 174.598 27.3548 169.92 36.6676C163.31 49.8254 156.861 63.0682 150.34 76.2724C132.75 111.893 115.156 147.518 97.5615 183.138C85.8296 206.892 74.0976 230.642 62.3618 254.395C49.9472 279.525 37.5365 304.654 25.122 329.787C22.1601 335.788 21.2769 342.067 23.1165 348.532C26.5605 360.627 36.3873 367.985 48.9561 367.989C98.9653 368.004 148.971 367.997 198.98 367.997L198.976 367.989Z" fill="#CC3132"/>
<path d="M198.974 367.989C148.965 367.989 98.9598 367.997 48.9506 367.981C36.3856 367.978 26.555 360.62 23.111 348.525C21.2714 342.064 22.1545 335.781 25.1164 329.779C37.5272 304.65 49.9417 279.517 62.3563 254.388C74.0882 230.634 85.824 206.884 97.556 183.131C115.15 147.51 132.74 111.889 150.334 76.2649C156.856 63.0607 163.3 49.8179 169.915 36.6601C174.596 27.3472 182.279 22.3353 192.688 22.0841C202.997 21.8368 211.1 26.2227 216.056 35.3308C226.561 54.6443 236.785 74.1125 247.113 93.5226C259.346 116.511 271.564 139.507 283.786 162.503C296.791 186.972 309.788 211.448 322.8 235.913C338.5 265.432 354.224 294.943 369.924 324.462C372.273 328.879 374.711 333.222 375.493 338.331C377.41 350.882 368.42 364.415 356.048 367.131C353.684 367.649 351.22 367.931 348.802 367.935C298.858 367.981 248.914 367.97 198.971 367.97V367.981L198.974 367.989ZM198.758 359.967C247.669 359.967 296.582 359.967 345.493 359.967C347.101 359.967 348.709 360.009 350.313 359.928C363.6 359.268 371.745 345.148 365.563 333.396C358.918 320.764 352.176 308.186 345.473 295.585C332.854 271.854 320.231 248.124 307.609 224.397C294.901 200.505 282.189 176.612 269.482 152.715C256.924 129.101 244.375 105.482 231.818 81.868C224.301 67.7326 216.773 53.6049 209.245 39.4771C207.633 36.4514 205.342 34.0556 202.345 32.394C193.135 27.2931 182.009 30.6357 177.173 40.0993C173.05 48.1678 169.147 56.3523 165.132 64.4789C151.665 91.7412 138.19 119 124.718 146.262C108.655 178.772 92.5925 211.278 76.5372 243.792C61.7354 273.763 46.9374 303.738 32.1548 333.717C30.2381 337.604 29.6442 341.735 30.7549 345.924C33.1151 354.827 39.9414 359.967 49.1357 359.967C99.0099 359.967 148.888 359.967 198.762 359.967H198.758Z" fill="#FDFEFE"/>
<path d="M198.759 359.967C148.885 359.967 99.0072 359.967 49.1329 359.967C39.9386 359.967 33.1124 354.827 30.7521 345.924C29.6414 341.735 30.2353 337.604 32.1521 333.717C46.9385 303.738 61.7364 273.763 76.5344 243.792C92.5897 211.278 108.653 178.772 124.716 146.262C138.187 119 151.662 91.7411 165.129 64.4788C169.144 56.3523 173.047 48.1678 177.17 40.0992C182.006 30.6357 193.136 27.2892 202.342 32.3939C205.339 34.0555 207.63 36.4514 209.242 39.4771C216.77 53.6048 224.298 67.7325 231.815 81.868C244.372 105.482 256.922 129.101 269.479 152.715C282.187 176.612 294.898 200.504 307.606 224.397C320.229 248.128 332.848 271.854 345.47 295.584C352.173 308.186 358.915 320.764 365.56 333.396C371.742 345.147 363.597 359.267 350.311 359.928C348.706 360.009 347.098 359.967 345.49 359.967C296.58 359.967 247.666 359.967 198.756 359.967H198.759ZM198.81 269.304V269.311C200.48 269.311 202.153 269.311 203.823 269.311C206.6 269.311 206.569 269.308 206.909 266.498C207.869 258.58 208.833 250.663 209.844 242.752C211.822 227.249 213.851 211.753 215.833 196.25C218.371 176.407 220.912 156.568 223.365 136.717C223.731 133.742 224.082 130.639 223.658 127.71C222.624 120.592 217.973 116.271 211.394 114.223C202.558 111.476 193.615 111.65 184.914 114.853C177.286 117.663 173.201 124.166 174.019 131.841C174.794 139.132 175.774 146.401 176.699 153.677C178.049 164.265 179.453 174.85 180.799 185.442C182.442 198.395 184.019 211.355 185.666 224.308C187.483 238.602 189.399 252.884 191.127 267.19C191.351 269.029 191.976 269.443 193.607 269.335C195.335 269.223 197.074 269.308 198.81 269.308V269.304ZM199.06 277.446C185.836 276.835 173.884 288.803 174.146 302.366C174.412 316.065 185.034 326.757 198.748 327.078C211.942 327.387 223.955 316.053 223.947 302.474C223.943 288.494 212.998 277.461 199.06 277.442V277.446Z" fill="#CC3132"/>
<rect x="168.621" y="109.339" width="64.1674" height="218.913" fill="#CC3132"/>
</g>
<defs>
<clipPath id="clip0_569_3108">
<rect width="397.899" height="390" fill="white"/>
</clipPath>
</defs>
</svg>
