<svg width="551" height="551" viewBox="0 0 551 551" fill="none" xmlns="http://www.w3.org/2000/svg">
<g clip-path="url(#clip0_684_8326)">
<path d="M389.985 551H161.014C160.94 550.816 160.916 550.584 160.781 550.449C142.28 531.905 123.778 513.367 105.259 494.841C76.723 466.293 48.1812 437.745 19.6149 409.222C13.1315 402.75 6.53782 396.396 -0.00683594 389.986C-0.00683594 313.66 -0.00683594 237.34 -0.00683594 161.014C0.746197 160.329 1.52372 159.674 2.24002 158.951C41.508 119.683 80.7698 80.4215 120.025 41.1352C133.709 27.4459 147.355 13.7138 161.014 0C237.339 0 313.659 0 389.985 0C390.622 0.777522 391.203 1.61014 391.913 2.32032C415.521 25.9582 439.146 49.5778 462.766 73.2034C489.985 100.429 517.199 127.654 544.436 154.868C546.555 156.986 548.814 158.97 551.005 161.021V389.992C550.228 390.592 549.371 391.118 548.679 391.81C501.054 439.398 453.436 486.992 405.848 534.611C400.472 539.986 395.274 545.533 389.991 551.006L389.985 551ZM275.652 20.8094C242.494 20.8094 209.336 20.8951 176.178 20.7054C171.654 20.6809 168.544 21.9176 165.312 25.1685C119.205 71.5076 72.9945 117.743 26.6187 163.812C22.3944 168.012 20.6495 172.077 20.6679 178.083C20.8944 244.705 20.8026 311.327 20.8822 377.943C20.8822 379.486 21.4332 381.457 22.4556 382.51C31.29 391.559 40.2958 400.442 49.2342 409.381C88.7532 448.906 128.272 488.431 167.754 527.993C169.315 529.554 170.907 530.203 173.13 530.178C183.635 530.068 194.147 530.123 204.653 530.123C262.398 530.123 320.143 530.123 377.887 530.044C379.43 530.044 381.414 529.493 382.448 528.458C430.979 480.056 479.418 431.568 527.925 383.141C529.51 381.555 530.159 380.049 530.153 377.833C530.104 309.582 530.11 241.326 530.184 173.075C530.184 170.681 529.327 169.09 527.729 167.492C479.59 119.42 431.469 71.3361 383.416 23.1787C381.665 21.4278 379.987 20.7543 377.569 20.7543C343.597 20.8217 309.625 20.7972 275.646 20.7972L275.652 20.8094Z" fill="#EC1B24"/>
<path d="M275.653 20.8095C309.625 20.8095 343.598 20.834 377.576 20.7667C379.994 20.7667 381.672 21.434 383.423 23.1911C431.476 71.3423 479.597 119.432 527.736 167.504C529.334 169.102 530.197 170.694 530.191 173.088C530.117 241.338 530.111 309.595 530.16 377.845C530.16 380.061 529.517 381.568 527.932 383.153C479.425 431.574 430.986 480.068 382.455 528.47C381.415 529.505 379.437 530.056 377.894 530.056C320.15 530.136 262.405 530.129 204.66 530.136C194.154 530.136 183.642 530.08 173.137 530.191C170.914 530.215 169.322 529.566 167.761 528.005C128.279 488.443 88.7602 448.918 49.2412 409.393C40.2967 400.449 31.2909 391.571 22.4626 382.523C21.4341 381.47 20.8892 379.504 20.8892 377.955C20.8096 311.333 20.9015 244.711 20.6749 178.096C20.6566 172.09 22.4014 168.024 26.6257 163.825C72.9955 117.743 119.206 71.5076 165.312 25.1685C168.545 21.9176 171.655 20.6809 176.179 20.7054C209.337 20.8952 242.495 20.8095 275.653 20.8095ZM275.568 34.2906C243.328 34.2906 211.088 34.309 178.849 34.2478C176.645 34.2478 175.071 34.8355 173.498 36.4151C127.74 82.2583 81.9217 128.04 36.1887 173.902C35.1295 174.967 34.3765 176.871 34.3704 178.383C34.2846 243.065 34.2785 307.746 34.3826 372.427C34.3826 374.019 35.2397 376.002 36.3723 377.135C82.0992 423.003 127.9 468.809 173.761 514.542C174.9 515.675 176.89 516.538 178.487 516.538C243.169 516.636 307.85 516.636 372.531 516.55C374.037 516.55 375.929 515.742 377 514.671C422.923 468.87 468.779 423.015 514.573 377.086C515.706 375.953 516.55 373.958 516.557 372.366C516.655 307.789 516.648 243.205 516.557 178.628C516.557 177.024 515.779 174.998 514.659 173.871C468.999 128.077 423.248 82.3685 377.57 36.5926C375.819 34.8355 374.086 34.2417 371.68 34.2478C339.643 34.3213 307.611 34.2968 275.574 34.2968L275.568 34.2906Z" fill="#FDF9F8"/>
<path d="M275.567 34.2902C307.604 34.2902 339.636 34.3147 371.674 34.2413C374.08 34.2413 375.806 34.829 377.563 36.5861C423.241 82.3619 468.992 128.07 514.652 173.865C515.772 174.991 516.55 177.018 516.55 178.622C516.648 243.199 516.648 307.782 516.55 372.359C516.55 373.951 515.699 375.947 514.566 377.08C468.778 423.008 422.917 468.87 376.994 514.664C375.922 515.736 374.031 516.544 372.525 516.544C307.843 516.636 243.162 516.636 178.481 516.532C176.883 516.532 174.893 515.668 173.754 514.536C127.893 468.803 82.0925 422.996 36.3656 377.129C35.2391 375.996 34.382 374.012 34.3759 372.421C34.2779 307.739 34.2779 243.058 34.3636 178.377C34.3636 176.865 35.1166 174.961 36.1819 173.895C81.9149 128.028 127.734 82.2456 173.491 36.4085C175.071 34.829 176.638 34.2351 178.842 34.2413C211.082 34.3086 243.321 34.2841 275.561 34.2841L275.567 34.2902Z" fill="#EC1B24"/>
<path d="M192.816 87.916C191.929 87.916 191.169 87.5993 190.536 86.966C189.928 86.3073 189.624 85.5093 189.624 84.572C189.624 83.6093 189.928 82.8113 190.536 82.178C191.169 81.5447 191.929 81.228 192.816 81.228C193.753 81.228 194.513 81.5447 195.096 82.178C195.704 82.8113 196.008 83.6093 196.008 84.572C196.008 85.5093 195.704 86.3073 195.096 86.966C194.513 87.5993 193.753 87.916 192.816 87.916ZM192.816 100.456C191.929 100.456 191.169 100.139 190.536 99.506C189.928 98.8473 189.624 98.0493 189.624 97.112C189.624 96.1493 189.928 95.3513 190.536 94.718C191.169 94.0847 191.929 93.768 192.816 93.768C193.753 93.768 194.513 94.0847 195.096 94.718C195.704 95.3513 196.008 96.1493 196.008 97.112C196.008 98.0493 195.704 98.8473 195.096 99.506C194.513 100.139 193.753 100.456 192.816 100.456ZM199.503 100.646L199.047 96.922C200.035 96.7953 200.77 96.6053 201.251 96.352C201.733 96.0733 202.049 95.668 202.201 95.136C202.379 94.604 202.455 93.92 202.429 93.084V78.302H213.943C215.21 78.302 216.325 78.5427 217.287 79.024C218.275 79.5053 219.048 80.2653 219.605 81.304C220.188 82.3427 220.479 83.7233 220.479 85.446V100H215.007V85.18C215.007 84.192 214.779 83.4827 214.323 83.052C213.867 82.6213 213.234 82.406 212.423 82.406H207.939V92.362C207.939 94.3127 207.635 95.858 207.027 96.998C206.445 98.138 205.533 98.9867 204.291 99.544C203.05 100.101 201.454 100.469 199.503 100.646ZM224.802 100V82.748L224.346 78.302H229.818L230.274 82.748V100H224.802ZM247.48 100V85.37C247.48 83.394 246.632 82.406 244.934 82.406H234.37V78.302H246.416C247.708 78.302 248.848 78.5553 249.836 79.062C250.824 79.5687 251.597 80.3667 252.154 81.456C252.712 82.52 252.99 83.9133 252.99 85.636V100H247.48ZM234.37 100V80.772H239.842V100H234.37ZM257.236 92.02V88.676V82.748L256.78 78.302H262.252L262.708 82.748V88.676L262.67 91.07L257.236 92.02ZM268.818 100.38L266.272 78.302H271.782L273.644 95.516C275.012 95.3893 276.165 95.1233 277.102 94.718C278.039 94.2873 278.787 93.7427 279.344 93.084C279.901 92.4 280.294 91.602 280.522 90.69C280.775 89.778 280.889 88.752 280.864 87.612V86.434C280.864 85.7247 280.737 85.066 280.484 84.458C280.231 83.85 279.825 83.3433 279.268 82.938C278.711 82.5073 278.001 82.2667 277.14 82.216L275.278 82.102L275.696 77.884L278.014 77.998C279.509 78.074 280.851 78.4033 282.042 78.986C283.258 79.5687 284.233 80.43 284.968 81.57C285.728 82.6847 286.133 84.116 286.184 85.864L286.222 86.928C286.298 89.2333 285.943 91.222 285.158 92.894C284.398 94.5407 283.245 95.896 281.7 96.96C280.18 98.024 278.331 98.8347 276.152 99.392C273.973 99.924 271.529 100.253 268.818 100.38ZM298.679 100V85.18C298.679 84.192 298.451 83.4827 297.995 83.052C297.564 82.6213 296.931 82.406 296.095 82.406H288.647V78.302H297.615C298.882 78.302 300.009 78.5427 300.997 79.024C301.985 79.5053 302.758 80.2653 303.315 81.304C303.872 82.3427 304.151 83.7233 304.151 85.446V100H298.679ZM288.647 100V95.896H306.697V100H288.647ZM317.761 92.02V88.676V82.748L317.305 78.302H322.777L323.233 82.748V88.676L323.195 91.07L317.761 92.02ZM329.647 100.38L326.797 78.302H332.003L334.093 95.858C335.993 95.7313 337.589 95.3893 338.881 94.832C340.173 94.2493 341.199 93.4893 341.959 92.552C342.745 91.6147 343.302 90.5 343.631 89.208C343.961 87.916 344.125 86.4973 344.125 84.952L344.049 78.302H349.559L349.597 84.648C349.623 88.144 348.939 91.0827 347.545 93.464C346.152 95.8453 343.986 97.6187 341.047 98.784C338.109 99.9493 334.309 100.481 329.647 100.38ZM332.801 91.716L331.509 88.296C332.675 87.992 333.549 87.5613 334.131 87.004C334.739 86.4213 335.145 85.636 335.347 84.648C335.575 83.66 335.677 82.3933 335.651 80.848V78.34H340.857V80.734C340.832 82.5327 340.579 84.154 340.097 85.598C339.641 87.0167 338.831 88.2327 337.665 89.246C336.525 90.2593 334.904 91.0827 332.801 91.716ZM360.379 100L358.897 91.374V84.876C358.897 83.9387 358.758 83.28 358.479 82.9C358.201 82.52 357.732 82.292 357.073 82.216L354.679 81.874L355.363 77.846L359.847 78.454C361.393 78.6313 362.533 79.2013 363.267 80.164C364.002 81.1267 364.369 82.4947 364.369 84.268V91.488L365.585 100H360.379ZM353.691 100.684L351.677 96.39C353.552 95.782 355.085 95.022 356.275 94.11C357.491 93.198 358.403 92.1087 359.011 90.842L360.835 93.692C360.354 94.8067 359.809 95.82 359.201 96.732C358.593 97.6187 357.846 98.3913 356.959 99.05C356.073 99.7087 354.983 100.253 353.691 100.684ZM377.131 100V86.852C377.131 85.864 377.219 84.99 377.397 84.23C377.599 83.47 377.865 82.862 378.195 82.406H368.467V78.302H386.289V82.406H383.325C383.046 83.0393 382.856 83.774 382.755 84.61C382.653 85.4207 382.603 86.168 382.603 86.852V100H377.131ZM133.33 150V135.56C133.33 134.141 133.026 133.153 132.418 132.596C131.81 132.039 130.974 131.76 129.91 131.76H122.462V128.644H130.936C132.203 128.644 133.318 128.885 134.28 129.366C135.268 129.822 136.028 130.569 136.56 131.608C137.118 132.647 137.396 134.027 137.396 135.75V147.188V150H133.33ZM120.866 150V146.884H135.99L135.8 150H120.866ZM119.916 150V131.228V128.644H123.982V131.418V150H119.916ZM142.335 142.02V138.866V133.09L141.879 128.644H145.907L146.401 133.09V138.866L146.363 141.26L142.335 142.02ZM150.058 151.254L149.488 148.062L157.164 146.58C158.557 146.327 159.672 145.921 160.508 145.364C161.369 144.807 162.028 144.085 162.484 143.198C162.965 142.286 163.307 141.159 163.51 139.816C163.712 138.473 163.826 136.877 163.852 135.028C163.877 133.179 163.89 131.051 163.89 128.644H167.918C167.918 131.253 167.867 133.597 167.766 135.674C167.69 137.751 167.474 139.588 167.12 141.184C166.765 142.78 166.208 144.148 165.448 145.288C164.688 146.428 163.636 147.378 162.294 148.138C160.976 148.873 159.279 149.443 157.202 149.848L150.058 151.254ZM156.024 147.188L151.236 128.644H155.302L159.9 147.188H156.024ZM174.027 150.38L171.823 131.76L175.661 129.822L177.599 146.694C178.663 146.618 179.639 146.453 180.525 146.2C181.437 145.947 182.235 145.605 182.919 145.174C183.603 144.718 184.173 144.148 184.629 143.464C185.111 142.755 185.465 141.919 185.693 140.956C185.921 139.993 186.01 138.866 185.959 137.574V136.548C185.959 135.611 185.807 134.787 185.503 134.078C185.199 133.369 184.756 132.811 184.173 132.406C183.616 131.975 182.919 131.76 182.083 131.76H171.823L171.443 128.644H182.387C184.769 128.644 186.605 129.353 187.897 130.772C189.189 132.191 189.873 134.078 189.949 136.434L189.987 137.65C190.063 139.981 189.721 141.944 188.961 143.54C188.201 145.111 187.099 146.39 185.655 147.378C184.211 148.341 182.501 149.063 180.525 149.544C178.549 150 176.383 150.279 174.027 150.38ZM194.548 150V133.09L194.092 128.644H198.12L198.614 133.09V150H194.548ZM202.689 150V146.884H208.845V134.952C208.845 133.812 208.617 133.001 208.161 132.52C207.705 132.039 207.071 131.747 206.261 131.646L203.677 131.266L204.209 128.188L208.161 128.758C209.681 128.961 210.846 129.594 211.657 130.658C212.493 131.722 212.911 133.128 212.911 134.876V150H202.689ZM243.851 150H239.519L231.539 137.878L227.777 150H223.901L228.081 136.928L229.145 134.23L225.649 128.644H229.791L232.983 133.774L236.175 138.562L237.125 135.256L239.063 128.644H242.977L238.569 142.096L243.851 150ZM250.879 150L257.985 131.76H246.547V128.644H262.051V132.026L254.945 150H250.879ZM246.547 131.76V122.754H250.233V131.76H246.547ZM287.074 150V135.56C287.074 134.141 286.77 133.153 286.162 132.596C285.554 132.039 284.718 131.76 283.654 131.76H276.206V128.644H284.68C285.947 128.644 287.062 128.885 288.024 129.366C289.012 129.822 289.772 130.569 290.304 131.608C290.862 132.647 291.14 134.027 291.14 135.75V147.188V150H287.074ZM274.61 150V146.884H289.734L289.544 150H274.61ZM273.66 150V131.228V128.644H277.726V131.418V150H273.66ZM296.079 142.02V138.866V133.09L295.623 128.644H299.651L300.145 133.09V138.866L300.107 141.26L296.079 142.02ZM323.562 150H319.23L311.25 137.878L307.488 150H303.612L307.792 136.928L308.856 134.23L305.36 128.644H309.502L312.694 133.774L315.886 138.562L316.836 135.256L318.774 128.644H322.688L318.28 142.096L323.562 150ZM327.473 150V133.09L327.017 128.644H331.045L331.539 133.09V150H327.473ZM345.722 150V135.56C345.722 134.141 345.418 133.153 344.81 132.596C344.202 132.039 343.366 131.76 342.302 131.76H335.272V128.644H343.328C344.595 128.644 345.71 128.885 346.672 129.366C347.66 129.822 348.42 130.569 348.952 131.608C349.51 132.647 349.788 134.027 349.788 135.75V150H345.722ZM380.822 150H376.49L368.51 137.878L364.748 150H360.872L365.052 136.928L366.116 134.23L362.62 128.644H366.762L369.954 133.774L373.146 138.562L374.096 135.256L376.034 128.644H379.948L375.54 142.096L380.822 150ZM387.849 150L394.955 131.76H383.517V128.644H399.021V132.026L391.915 150H387.849ZM383.517 131.76V122.754H387.203V131.76H383.517ZM429.046 144.794C428.235 144.794 427.488 144.591 426.804 144.186C426.145 143.755 425.601 143.185 425.17 142.476C424.765 141.767 424.562 140.943 424.562 140.006C424.562 139.069 424.765 138.245 425.17 137.536C425.601 136.801 426.145 136.231 426.804 135.826C427.488 135.421 428.235 135.218 429.046 135.218C429.857 135.218 430.604 135.421 431.288 135.826C431.972 136.231 432.517 136.801 432.922 137.536C433.327 138.245 433.53 139.069 433.53 140.006C433.53 140.943 433.327 141.767 432.922 142.476C432.517 143.185 431.972 143.755 431.288 144.186C430.604 144.591 429.857 144.794 429.046 144.794ZM85.7746 200V185.56C85.7746 184.141 85.4706 183.153 84.8626 182.596C84.2546 182.039 83.4186 181.76 82.3546 181.76H74.9066V178.644H83.3806C84.6473 178.644 85.762 178.885 86.7246 179.366C87.7126 179.822 88.4726 180.569 89.0046 181.608C89.562 182.647 89.8406 184.027 89.8406 185.75V197.188V200H85.7746ZM73.3106 200V196.884H88.4346L88.2446 200H73.3106ZM72.3606 200V181.228V178.644H76.4266V181.418V200H72.3606ZM94.7791 192.02V188.866V183.09L94.3231 178.644H98.3511L98.8451 183.09V188.866L98.8071 191.26L94.7791 192.02ZM113.028 200V185.56C113.028 184.141 112.724 183.153 112.116 182.596C111.508 182.039 110.672 181.76 109.608 181.76H102.578V178.644H110.634C111.901 178.644 113.015 178.885 113.978 179.366C114.966 179.822 115.726 180.569 116.258 181.608C116.815 182.647 117.094 184.027 117.094 185.75V200H113.028ZM122.166 200V183.09L121.71 178.644H125.738L126.232 183.09V200H122.166ZM140.415 200V185.56C140.415 184.141 140.111 183.153 139.503 182.596C138.895 182.039 138.059 181.76 136.995 181.76H129.965V178.644H138.021C139.287 178.644 140.402 178.885 141.365 179.366C142.353 179.822 143.113 180.569 143.645 181.608C144.202 182.647 144.481 184.027 144.481 185.75V200H140.415ZM159.167 200V185.56C159.167 184.141 158.85 183.153 158.217 182.596C157.609 182.039 156.785 181.76 155.747 181.76H148.603V178.644H156.773C158.039 178.644 159.154 178.885 160.117 179.366C161.079 179.822 161.839 180.569 162.397 181.608C162.954 182.647 163.233 184.027 163.233 185.75V200H159.167ZM148.603 200V196.884H165.855V200H148.603ZM190.683 200V185.56C190.683 184.141 190.379 183.153 189.771 182.596C189.163 182.039 188.327 181.76 187.263 181.76H179.815V178.644H188.289C189.555 178.644 190.67 178.885 191.633 179.366C192.621 179.822 193.381 180.569 193.913 181.608C194.47 182.647 194.749 184.027 194.749 185.75V197.188V200H190.683ZM178.219 200V196.884H193.343L193.153 200H178.219ZM177.269 200V181.228V178.644H181.335V181.418V200H177.269ZM199.687 192.02V188.866V183.09L199.231 178.644H203.259L203.753 183.09V188.866L203.715 191.26L199.687 192.02ZM207.828 200V196.884H213.984V184.952C213.984 183.812 213.756 183.001 213.3 182.52C212.844 182.039 212.211 181.747 211.4 181.646L208.816 181.266L209.348 178.188L213.3 178.758C214.82 178.961 215.986 179.594 216.796 180.658C217.632 181.722 218.05 183.128 218.05 184.876V200H207.828ZM223.029 200V183.09L222.573 178.644H226.601L227.095 183.09V200H223.029ZM239.074 200.038L239.492 196.96C241.493 197.391 243.077 197.353 244.242 196.846C245.433 196.339 246.281 195.402 246.788 194.034C247.32 192.666 247.561 190.931 247.51 188.828C247.485 187.029 247.257 185.611 246.826 184.572C246.421 183.508 245.851 182.748 245.116 182.292C244.407 181.836 243.571 181.608 242.608 181.608C241.721 181.608 240.961 181.798 240.328 182.178C239.695 182.533 239.188 183.027 238.808 183.66C238.428 184.293 238.162 185.003 238.01 185.788L236.984 183.85C237.44 181.925 238.263 180.531 239.454 179.67C240.645 178.783 241.937 178.34 243.33 178.34C244.521 178.34 245.597 178.543 246.56 178.948C247.548 179.328 248.397 179.949 249.106 180.81C249.815 181.646 250.36 182.735 250.74 184.078C251.145 185.395 251.361 186.979 251.386 188.828C251.437 191.691 250.981 194.059 250.018 195.934C249.081 197.809 247.687 199.113 245.838 199.848C243.989 200.583 241.734 200.646 239.074 200.038ZM231.474 200L234.21 185.294L231.246 178.644H235.464L238.086 185.446L235.54 200H231.474ZM255.76 192.02V188.866V183.09L255.304 178.644H259.332L259.826 183.09V188.866L259.788 191.26L255.76 192.02ZM266.523 200.38L264.319 181.76L268.157 179.822L270.095 196.694C271.159 196.618 272.134 196.453 273.021 196.2C273.933 195.947 274.731 195.605 275.415 195.174C276.099 194.718 276.669 194.148 277.125 193.464C277.606 192.755 277.961 191.919 278.189 190.956C278.417 189.993 278.505 188.866 278.455 187.574V186.548C278.455 185.611 278.303 184.787 277.999 184.078C277.695 183.369 277.251 182.811 276.669 182.406C276.111 181.975 275.415 181.76 274.579 181.76H264.319L263.939 178.644H274.883C277.264 178.644 279.101 179.353 280.393 180.772C281.685 182.191 282.369 184.078 282.445 186.434L282.483 187.65C282.559 189.981 282.217 191.944 281.457 193.54C280.697 195.111 279.595 196.39 278.151 197.378C276.707 198.341 274.997 199.063 273.021 199.544C271.045 200 268.879 200.279 266.523 200.38ZM297.766 200L304.872 181.76H293.434V178.644H308.938V182.026L301.832 200H297.766ZM293.434 181.76V172.754H297.12V181.76H293.434ZM314.955 200.38L312.181 178.644H316.057L318.261 196.922C320.211 196.795 321.883 196.453 323.277 195.896C324.695 195.313 325.848 194.515 326.735 193.502C327.647 192.463 328.318 191.209 328.749 189.74C329.179 188.271 329.395 186.586 329.395 184.686L329.319 178.644H333.385L333.423 184.496C333.448 188.043 332.789 190.994 331.447 193.35C330.129 195.706 328.103 197.479 325.367 198.67C322.631 199.835 319.16 200.405 314.955 200.38ZM317.007 191.982L316.057 189.284C317.323 188.803 318.299 188.245 318.983 187.612C319.692 186.953 320.186 186.105 320.465 185.066C320.769 184.027 320.933 182.685 320.959 181.038V178.682H324.835L324.797 180.962C324.771 182.837 324.518 184.471 324.037 185.864C323.555 187.257 322.745 188.448 321.605 189.436C320.49 190.424 318.957 191.273 317.007 191.982ZM357.839 200V185.56C357.839 184.141 357.523 183.153 356.889 182.596C356.281 182.039 355.458 181.76 354.419 181.76H345.071V178.644H355.445C356.712 178.644 357.827 178.885 358.789 179.366C359.752 179.822 360.512 180.569 361.069 181.608C361.627 182.647 361.905 184.027 361.905 185.75V200H357.839ZM344.957 200V189.664L345.527 187.118H349.023V189.664V200H344.957ZM374.963 200V186.206C374.963 185.218 375.051 184.357 375.229 183.622C375.431 182.862 375.697 182.241 376.027 181.76H365.767V178.644H382.715V181.76H379.865C379.51 182.393 379.282 183.128 379.181 183.964C379.079 184.775 379.029 185.522 379.029 186.206V200H374.963ZM387.049 200V196.884H393.927C394.763 196.884 395.523 196.77 396.207 196.542C396.891 196.289 397.486 195.909 397.993 195.402C398.5 194.895 398.892 194.249 399.171 193.464C399.45 192.653 399.589 191.691 399.589 190.576V188.03C399.589 186.713 399.412 185.585 399.057 184.648C398.728 183.711 398.196 183.001 397.461 182.52C396.752 182.013 395.84 181.76 394.725 181.76H391.305L390.469 185.522C390.216 186.738 390.254 187.675 390.583 188.334C390.938 188.967 391.761 189.423 393.053 189.702L392.331 192.324C390.684 192.223 389.418 191.868 388.531 191.26C387.644 190.627 387.074 189.791 386.821 188.752C386.593 187.713 386.606 186.523 386.859 185.18L388.341 178.644H395.599C397.296 178.644 398.74 179.024 399.931 179.784C401.122 180.519 402.034 181.595 402.667 183.014C403.326 184.433 403.655 186.155 403.655 188.182V190.386C403.655 192.033 403.427 193.464 402.971 194.68C402.54 195.896 401.92 196.897 401.109 197.682C400.324 198.467 399.386 199.05 398.297 199.43C397.208 199.81 396.03 200 394.763 200H387.049ZM414.517 200L414.137 196.884C414.999 196.808 415.784 196.643 416.493 196.39C417.203 196.111 417.823 195.693 418.355 195.136C418.887 194.579 419.318 193.806 419.647 192.818C419.977 191.83 420.192 190.589 420.293 189.094L420.863 181.76H407.411V178.644H425.233L425.081 181.38L424.549 188.144C424.473 189.968 424.207 191.602 423.751 193.046C423.295 194.49 422.649 195.731 421.813 196.77C421.003 197.783 419.989 198.569 418.773 199.126C417.557 199.683 416.139 199.975 414.517 200ZM407.335 207.6V189.284L407.905 186.7H411.401V189.246V207.6H407.335ZM441.892 200V185.56C441.892 184.141 441.575 183.153 440.942 182.596C440.334 182.039 439.511 181.76 438.472 181.76H429.124V178.644H439.498C440.765 178.644 441.879 178.885 442.842 179.366C443.805 179.822 444.565 180.569 445.122 181.608C445.679 182.647 445.958 184.027 445.958 185.75V200H441.892ZM429.01 200V189.664L429.58 187.118H433.076V189.664V200H429.01ZM476.602 194.794C475.791 194.794 475.044 194.591 474.36 194.186C473.701 193.755 473.156 193.185 472.726 192.476C472.32 191.767 472.118 190.943 472.118 190.006C472.118 189.069 472.32 188.245 472.726 187.536C473.156 186.801 473.701 186.231 474.36 185.826C475.044 185.421 475.791 185.218 476.602 185.218C477.412 185.218 478.16 185.421 478.844 185.826C479.528 186.231 480.072 186.801 480.478 187.536C480.883 188.245 481.086 189.069 481.086 190.006C481.086 190.943 480.883 191.767 480.478 192.476C480.072 193.185 479.528 193.755 478.844 194.186C478.16 194.591 477.412 194.794 476.602 194.794ZM77.4402 250V235.56C77.4402 234.141 77.1362 233.153 76.5282 232.596C75.9202 232.039 75.0842 231.76 74.0202 231.76H66.9902V228.644H75.0462C76.3128 228.644 77.4275 228.885 78.3902 229.366C79.3782 229.822 80.1382 230.569 80.6702 231.608C81.2275 232.647 81.5062 234.027 81.5062 235.75V250H77.4402ZM98.282 250L85.856 228.644H89.998L102.424 250H98.282ZM85.248 250V246.884H100.03L101.208 250H85.248ZM96.876 241.298L94.596 237.802L98.434 228.644H102.5L96.876 241.298ZM106.951 250V233.09L106.495 228.644H110.523L111.017 233.09V250H106.951ZM114.674 251.254L114.104 248.062L121.78 246.58C123.173 246.327 124.288 245.921 125.124 245.364C125.985 244.807 126.644 244.085 127.1 243.198C127.581 242.286 127.923 241.159 128.126 239.816C128.329 238.473 128.443 236.877 128.468 235.028C128.493 233.179 128.506 231.051 128.506 228.644H132.534C132.534 231.253 132.483 233.597 132.382 235.674C132.306 237.751 132.091 239.588 131.736 241.184C131.381 242.78 130.824 244.148 130.064 245.288C129.304 246.428 128.253 247.378 126.91 248.138C125.593 248.873 123.895 249.443 121.818 249.848L114.674 251.254ZM120.64 247.188L115.852 228.644H119.918L124.516 247.188H120.64ZM144.617 257.6V233.09L144.161 228.644H148.189L148.683 233.09V257.6H144.617ZM153.746 242.02V238.866V233.09L153.29 228.644H157.318L157.812 233.09V238.866L157.774 241.26L153.746 242.02ZM162.875 250V233.09L162.419 228.644H166.447L166.941 233.09V250H162.875ZM172.004 250V233.09L171.548 228.644H175.576L176.07 233.09V250H172.004ZM179.917 250V246.884H185.389C186.63 246.884 187.643 246.631 188.429 246.124C189.214 245.617 189.797 244.895 190.177 243.958C190.557 243.021 190.747 241.906 190.747 240.614V238.03C190.747 236.713 190.557 235.585 190.177 234.648C189.797 233.711 189.214 233.001 188.429 232.52C187.643 232.013 186.63 231.76 185.389 231.76H179.917V228.644H186.377C188.226 228.644 189.771 229.024 191.013 229.784C192.254 230.519 193.191 231.608 193.825 233.052C194.483 234.471 194.813 236.193 194.813 238.22V240.424C194.813 242.425 194.483 244.148 193.825 245.592C193.191 247.011 192.254 248.1 191.013 248.86C189.771 249.62 188.226 250 186.377 250H179.917ZM206.195 250.038L206.613 246.96C208.614 247.391 210.198 247.353 211.363 246.846C212.554 246.339 213.402 245.402 213.909 244.034C214.441 242.666 214.682 240.931 214.631 238.828C214.606 237.029 214.378 235.611 213.947 234.572C213.542 233.508 212.972 232.748 212.237 232.292C211.528 231.836 210.692 231.608 209.729 231.608C208.842 231.608 208.082 231.798 207.449 232.178C206.816 232.533 206.309 233.027 205.929 233.66C205.549 234.293 205.283 235.003 205.131 235.788L204.105 233.85C204.561 231.925 205.384 230.531 206.575 229.67C207.766 228.783 209.058 228.34 210.451 228.34C211.642 228.34 212.718 228.543 213.681 228.948C214.669 229.328 215.518 229.949 216.227 230.81C216.936 231.646 217.481 232.735 217.861 234.078C218.266 235.395 218.482 236.979 218.507 238.828C218.558 241.691 218.102 244.059 217.139 245.934C216.202 247.809 214.808 249.113 212.959 249.848C211.11 250.583 208.855 250.646 206.195 250.038ZM198.595 250L201.331 235.294L198.367 228.644H202.585L205.207 235.446L202.661 250H198.595ZM232.495 250V235.56C232.495 234.141 232.178 233.153 231.545 232.596C230.937 232.039 230.113 231.76 229.075 231.76H221.931V228.644H230.101C231.367 228.644 232.482 228.885 233.445 229.366C234.407 229.822 235.167 230.569 235.725 231.608C236.282 232.647 236.561 234.027 236.561 235.75V250H232.495ZM221.931 250V246.884H239.183V250H221.931ZM263.707 250V235.94C263.707 233.153 262.567 231.76 260.287 231.76H250.369V228.644H261.313C262.63 228.644 263.77 228.91 264.733 229.442C265.696 229.974 266.443 230.797 266.975 231.912C267.507 233.001 267.773 234.407 267.773 236.13V250H263.707ZM250.369 250V230.278H254.435V250H250.369ZM274.352 250.38L271.806 228.644H275.872L277.924 246.694C279.266 246.567 280.47 246.301 281.534 245.896C282.598 245.465 283.497 244.883 284.232 244.148C284.992 243.413 285.562 242.501 285.942 241.412C286.322 240.297 286.486 238.993 286.436 237.498V236.434C286.436 235.547 286.284 234.749 285.98 234.04C285.676 233.331 285.194 232.761 284.536 232.33C283.902 231.874 283.079 231.621 282.066 231.57L280.166 231.456L280.47 228.264L282.712 228.378C284.156 228.454 285.448 228.783 286.588 229.366C287.728 229.923 288.627 230.747 289.286 231.836C289.97 232.925 290.337 234.293 290.388 235.94L290.426 237.004C290.502 239.309 290.16 241.298 289.4 242.97C288.665 244.617 287.576 245.972 286.132 247.036C284.688 248.075 282.965 248.86 280.964 249.392C278.962 249.924 276.758 250.253 274.352 250.38ZM294.428 250V233.09L293.972 228.644H298L298.494 233.09V250H294.428ZM313.17 250V235.56C313.17 234.141 312.854 233.153 312.22 232.596C311.612 232.039 310.789 231.76 309.75 231.76H302.606V228.644H310.776C312.043 228.644 313.158 228.885 314.12 229.366C315.083 229.822 315.843 230.569 316.4 231.608C316.958 232.647 317.236 234.027 317.236 235.75V250H313.17ZM302.606 250V246.884H319.858V250H302.606ZM349.817 250H345.485L337.505 237.878L333.743 250H329.867L334.047 236.928L335.111 234.23L331.615 228.644H335.757L338.949 233.774L342.141 238.562L343.091 235.256L345.029 228.644H348.943L344.535 242.096L349.817 250ZM356.844 250L363.95 231.76H352.512V228.644H368.016V232.026L360.91 250H356.844ZM352.512 231.76V222.754H356.198V231.76H352.512ZM374.033 250.38L371.259 228.644H375.135L377.339 246.922C379.289 246.795 380.961 246.453 382.355 245.896C383.773 245.313 384.926 244.515 385.813 243.502C386.725 242.463 387.396 241.209 387.827 239.74C388.257 238.271 388.473 236.586 388.473 234.686L388.397 228.644H392.463L392.501 234.496C392.526 238.043 391.867 240.994 390.525 243.35C389.207 245.706 387.181 247.479 384.445 248.67C381.709 249.835 378.238 250.405 374.033 250.38ZM376.085 241.982L375.135 239.284C376.401 238.803 377.377 238.245 378.061 237.612C378.77 236.953 379.264 236.105 379.543 235.066C379.847 234.027 380.011 232.685 380.037 231.038V228.682H383.913L383.875 230.962C383.849 232.837 383.596 234.471 383.115 235.864C382.633 237.257 381.823 238.448 380.683 239.436C379.568 240.424 378.035 241.273 376.085 241.982ZM411.445 250L409.963 241.754V234.952C409.963 233.863 409.811 233.065 409.507 232.558C409.229 232.051 408.684 231.735 407.873 231.608L405.479 231.266L406.011 228.188L409.773 228.72C411.293 228.948 412.383 229.543 413.041 230.506C413.7 231.443 414.029 232.786 414.029 234.534V241.83L415.321 250H411.445ZM404.263 250.608L402.781 247.378C404.605 246.745 406.113 245.934 407.303 244.946C408.519 243.958 409.469 242.704 410.153 241.184L411.483 243.502C411.002 244.667 410.432 245.706 409.773 246.618C409.115 247.53 408.329 248.315 407.417 248.974C406.531 249.633 405.479 250.177 404.263 250.608ZM431.91 250V235.56C431.91 234.141 431.593 233.153 430.96 232.596C430.352 232.039 429.528 231.76 428.49 231.76H419.142V228.644H429.516C430.782 228.644 431.897 228.885 432.86 229.366C433.822 229.822 434.582 230.569 435.14 231.608C435.697 232.647 435.976 234.027 435.976 235.75V250H431.91ZM419.028 250V239.664L419.598 237.118H423.094V239.664V250H419.028ZM439.799 250V246.884H445.955V234.952C445.955 233.812 445.727 233.001 445.271 232.52C444.815 232.039 444.182 231.747 443.371 231.646L440.787 231.266L441.319 228.188L445.271 228.758C446.791 228.961 447.956 229.594 448.767 230.658C449.603 231.722 450.021 233.128 450.021 234.876V250H439.799ZM480.832 244.794C480.021 244.794 479.274 244.591 478.59 244.186C477.931 243.755 477.387 243.185 476.956 242.476C476.551 241.767 476.348 240.943 476.348 240.006C476.348 239.069 476.551 238.245 476.956 237.536C477.387 236.801 477.931 236.231 478.59 235.826C479.274 235.421 480.021 235.218 480.832 235.218C481.643 235.218 482.39 235.421 483.074 235.826C483.758 236.231 484.303 236.801 484.708 237.536C485.113 238.245 485.316 239.069 485.316 240.006C485.316 240.943 485.113 241.767 484.708 242.476C484.303 243.185 483.758 243.755 483.074 244.186C482.39 244.591 481.643 244.794 480.832 244.794ZM87.4949 300V286.206C87.4949 285.218 87.5835 284.357 87.7609 283.622C87.9635 282.862 88.2295 282.241 88.5589 281.76H78.2989V278.644H95.2469V281.76H92.3969C92.0422 282.393 91.8142 283.128 91.7129 283.964C91.6115 284.775 91.5609 285.522 91.5609 286.206V300H87.4949ZM99.7332 300V283.09L99.2772 278.644H103.305L103.799 283.09V300H99.7332ZM115.778 300.038L116.196 296.96C118.197 297.391 119.781 297.353 120.946 296.846C122.137 296.339 122.985 295.402 123.492 294.034C124.024 292.666 124.265 290.931 124.214 288.828C124.189 287.029 123.961 285.611 123.53 284.572C123.125 283.508 122.555 282.748 121.82 282.292C121.111 281.836 120.275 281.608 119.312 281.608C118.425 281.608 117.665 281.798 117.032 282.178C116.399 282.533 115.892 283.027 115.512 283.66C115.132 284.293 114.866 285.003 114.714 285.788L113.688 283.85C114.144 281.925 114.967 280.531 116.158 279.67C117.349 278.783 118.641 278.34 120.034 278.34C121.225 278.34 122.301 278.543 123.264 278.948C124.252 279.328 125.101 279.949 125.81 280.81C126.519 281.646 127.064 282.735 127.444 284.078C127.849 285.395 128.065 286.979 128.09 288.828C128.141 291.691 127.685 294.059 126.722 295.934C125.785 297.809 124.391 299.113 122.542 299.848C120.693 300.583 118.438 300.646 115.778 300.038ZM108.178 300L110.914 285.294L107.95 278.644H112.168L114.79 285.446L112.244 300H108.178ZM144.168 300L131.742 278.644H135.884L148.31 300H144.168ZM131.134 300V296.884H145.916L147.094 300H131.134ZM142.762 291.298L140.482 287.802L144.32 278.644H148.386L142.762 291.298ZM158.924 300.57L158.544 297.758C159.558 297.657 160.33 297.441 160.862 297.112C161.394 296.783 161.762 296.327 161.964 295.744C162.167 295.161 162.268 294.414 162.268 293.502V278.644H172.528C173.795 278.644 174.91 278.885 175.872 279.366C176.86 279.822 177.62 280.569 178.152 281.608C178.71 282.647 178.988 284.027 178.988 285.75V300H174.922V285.56C174.922 284.141 174.618 283.153 174.01 282.596C173.402 282.039 172.566 281.76 171.502 281.76H166.334V293.046C166.334 294.718 166.068 296.086 165.536 297.15C165.03 298.214 164.232 299.012 163.142 299.544C162.053 300.076 160.647 300.418 158.924 300.57ZM183.934 300V283.09L183.478 278.644H187.506L188 283.09V300H183.934ZM193.063 292.02V288.866V283.09L192.607 278.644H196.635L197.129 283.09V288.866L197.091 291.26L193.063 292.02ZM214.504 300V285.56C214.504 284.141 214.188 283.153 213.554 282.596C212.946 282.039 212.123 281.76 211.084 281.76H201.736V278.644H212.11C213.377 278.644 214.492 278.885 215.454 279.366C216.417 279.822 217.177 280.569 217.734 281.608C218.292 282.647 218.57 284.027 218.57 285.75V300H214.504ZM201.622 300V289.664L202.192 287.118H205.688V289.664V300H201.622ZM226.498 300L233.604 281.76H222.166V278.644H237.67V282.026L230.564 300H226.498ZM222.166 281.76V272.754H225.852V281.76H222.166ZM249.47 307.6V283.09L249.014 278.644H253.042L253.536 283.09V307.6H249.47ZM258.598 292.02V288.866V283.09L258.142 278.644H262.17L262.664 283.09V288.866L262.626 291.26L258.598 292.02ZM267.727 300V283.09L267.271 278.644H271.299L271.793 283.09V300H267.727ZM276.856 300V283.09L276.4 278.644H280.428L280.922 283.09V300H276.856ZM284.769 300V296.884H290.241C291.483 296.884 292.496 296.631 293.281 296.124C294.067 295.617 294.649 294.895 295.029 293.958C295.409 293.021 295.599 291.906 295.599 290.614V288.03C295.599 286.713 295.409 285.585 295.029 284.648C294.649 283.711 294.067 283.001 293.281 282.52C292.496 282.013 291.483 281.76 290.241 281.76H284.769V278.644H291.229C293.079 278.644 294.624 279.024 295.865 279.784C297.107 280.519 298.044 281.608 298.677 283.052C299.336 284.471 299.665 286.193 299.665 288.22V290.424C299.665 292.425 299.336 294.148 298.677 295.592C298.044 297.011 297.107 298.1 295.865 298.86C294.624 299.62 293.079 300 291.229 300H284.769ZM311.048 300.038L311.466 296.96C313.467 297.391 315.05 297.353 316.216 296.846C317.406 296.339 318.255 295.402 318.762 294.034C319.294 292.666 319.534 290.931 319.484 288.828C319.458 287.029 319.23 285.611 318.8 284.572C318.394 283.508 317.824 282.748 317.09 282.292C316.38 281.836 315.544 281.608 314.582 281.608C313.695 281.608 312.935 281.798 312.302 282.178C311.668 282.533 311.162 283.027 310.782 283.66C310.402 284.293 310.136 285.003 309.984 285.788L308.958 283.85C309.414 281.925 310.237 280.531 311.428 279.67C312.618 278.783 313.91 278.34 315.304 278.34C316.494 278.34 317.571 278.543 318.534 278.948C319.522 279.328 320.37 279.949 321.08 280.81C321.789 281.646 322.334 282.735 322.714 284.078C323.119 285.395 323.334 286.979 323.36 288.828C323.41 291.691 322.954 294.059 321.992 295.934C321.054 297.809 319.661 299.113 317.812 299.848C315.962 300.583 313.708 300.646 311.048 300.038ZM303.448 300L306.184 285.294L303.22 278.644H307.438L310.06 285.446L307.514 300H303.448ZM340.045 300V285.56C340.045 284.141 339.729 283.153 339.095 282.596C338.487 282.039 337.664 281.76 336.625 281.76H327.277V278.644H337.651C338.918 278.644 340.033 278.885 340.995 279.366C341.958 279.822 342.718 280.569 343.275 281.608C343.833 282.647 344.111 284.027 344.111 285.75V300H340.045ZM327.163 300V289.664L327.733 287.118H331.229V289.664V300H327.163ZM359.646 300L366.752 281.76H355.314V278.644H370.818V282.026L363.712 300H359.646ZM355.314 281.76V272.754H359V281.76H355.314ZM373.605 301.254L373.035 298.062L380.711 296.58C382.104 296.327 383.219 295.921 384.055 295.364C384.916 294.807 385.575 294.085 386.031 293.198C386.512 292.286 386.854 291.159 387.057 289.816C387.259 288.473 387.373 286.877 387.399 285.028C387.424 283.179 387.437 281.051 387.437 278.644H391.465C391.465 281.253 391.414 283.597 391.313 285.674C391.237 287.751 391.021 289.588 390.667 291.184C390.312 292.78 389.755 294.148 388.995 295.288C388.235 296.428 387.183 297.378 385.841 298.138C384.523 298.873 382.826 299.443 380.749 299.848L373.605 301.254ZM379.571 297.188L374.783 278.644H378.849L383.447 297.188H379.571ZM403.548 307.6V283.09L403.092 278.644H407.12L407.614 283.09V307.6H403.548ZM412.677 292.02V288.866V283.09L412.221 278.644H416.249L416.743 283.09V288.866L416.705 291.26L412.677 292.02ZM440.16 300H435.828L427.848 287.878L424.086 300H420.21L424.39 286.928L425.454 284.23L421.958 278.644H426.1L429.292 283.774L432.484 288.562L433.434 285.256L435.372 278.644H439.286L434.878 292.096L440.16 300ZM469.903 294.794C469.093 294.794 468.345 294.591 467.661 294.186C467.003 293.755 466.458 293.185 466.027 292.476C465.622 291.767 465.419 290.943 465.419 290.006C465.419 289.069 465.622 288.245 466.027 287.536C466.458 286.801 467.003 286.231 467.661 285.826C468.345 285.421 469.093 285.218 469.903 285.218C470.714 285.218 471.461 285.421 472.145 285.826C472.829 286.231 473.374 286.801 473.779 287.536C474.185 288.245 474.387 289.069 474.387 290.006C474.387 290.943 474.185 291.767 473.779 292.476C473.374 293.185 472.829 293.755 472.145 294.186C471.461 294.591 470.714 294.794 469.903 294.794ZM120.072 350V335.56C120.072 334.141 119.755 333.153 119.122 332.596C118.514 332.039 117.691 331.76 116.652 331.76H109.508V328.644H117.678C118.945 328.644 120.059 328.885 121.022 329.366C121.985 329.822 122.745 330.569 123.302 331.608C123.859 332.647 124.138 334.027 124.138 335.75V350H120.072ZM109.508 350V346.884H126.76V350H109.508ZM129.541 350V346.884H135.013C136.254 346.884 137.267 346.631 138.053 346.124C138.838 345.617 139.421 344.895 139.801 343.958C140.181 343.021 140.371 341.906 140.371 340.614V338.03C140.371 336.713 140.181 335.585 139.801 334.648C139.421 333.711 138.838 333.001 138.053 332.52C137.267 332.013 136.254 331.76 135.013 331.76H129.541V328.644H136.001C137.85 328.644 139.395 329.024 140.637 329.784C141.878 330.519 142.815 331.608 143.449 333.052C144.107 334.471 144.437 336.193 144.437 338.22V340.424C144.437 342.425 144.107 344.148 143.449 345.592C142.815 347.011 141.878 348.1 140.637 348.86C139.395 349.62 137.85 350 136.001 350H129.541ZM158.023 350V335.56C158.023 334.141 157.719 333.153 157.111 332.596C156.503 332.039 155.667 331.76 154.603 331.76H147.573V328.644H155.629C156.896 328.644 158.01 328.885 158.973 329.366C159.961 329.822 160.721 330.569 161.253 331.608C161.81 332.647 162.089 334.027 162.089 335.75V350H158.023ZM179.473 350V335.56C179.473 334.141 179.156 333.153 178.523 332.596C177.915 332.039 177.092 331.76 176.053 331.76H166.705V328.644H177.079C178.346 328.644 179.46 328.885 180.423 329.366C181.386 329.822 182.146 330.569 182.703 331.608C183.26 332.647 183.539 334.027 183.539 335.75V350H179.473ZM166.591 350V339.664L167.161 337.118H170.657V339.664V350H166.591ZM199.074 350L206.18 331.76H194.742V328.644H210.246V332.026L203.14 350H199.074ZM194.742 331.76V322.754H198.428V331.76H194.742ZM216.262 350.38L213.488 328.644H217.364L219.568 346.922C221.519 346.795 223.191 346.453 224.584 345.896C226.003 345.313 227.156 344.515 228.042 343.502C228.954 342.463 229.626 341.209 230.056 339.74C230.487 338.271 230.702 336.586 230.702 334.686L230.626 328.644H234.692L234.73 334.496C234.756 338.043 234.097 340.994 232.754 343.35C231.437 345.706 229.41 347.479 226.674 348.67C223.938 349.835 220.468 350.405 216.262 350.38ZM218.314 341.982L217.364 339.284C218.631 338.803 219.606 338.245 220.29 337.612C221 336.953 221.494 336.105 221.772 335.066C222.076 334.027 222.241 332.685 222.266 331.038V328.682H226.142L226.104 330.962C226.079 332.837 225.826 334.471 225.344 335.864C224.863 337.257 224.052 338.448 222.912 339.436C221.798 340.424 220.265 341.273 218.314 341.982ZM260.059 350V335.56C260.059 334.141 259.755 333.153 259.147 332.596C258.539 332.039 257.703 331.76 256.639 331.76H249.191V328.644H257.665C258.931 328.644 260.046 328.885 261.009 329.366C261.997 329.822 262.757 330.569 263.289 331.608C263.846 332.647 264.125 334.027 264.125 335.75V347.188V350H260.059ZM247.595 350V346.884H262.719L262.529 350H247.595ZM246.645 350V331.228V328.644H250.711V331.418V350H246.645ZM269.063 342.02V338.866V333.09L268.607 328.644H272.635L273.129 333.09V338.866L273.091 341.26L269.063 342.02ZM281.308 350L288.414 331.76H276.976V328.644H292.48V332.026L285.374 350H281.308ZM276.976 331.76V322.754H280.662V331.76H276.976ZM303.513 350L302.031 341.754V334.952C302.031 333.863 301.879 333.065 301.575 332.558C301.296 332.051 300.751 331.735 299.941 331.608L297.547 331.266L298.079 328.188L301.841 328.72C303.361 328.948 304.45 329.543 305.109 330.506C305.767 331.443 306.097 332.786 306.097 334.534V341.83L307.389 350H303.513ZM296.331 350.608L294.849 347.378C296.673 346.745 298.18 345.934 299.371 344.946C300.587 343.958 301.537 342.704 302.221 341.184L303.551 343.502C303.069 344.667 302.499 345.706 301.841 346.618C301.182 347.53 300.397 348.315 299.485 348.974C298.598 349.633 297.547 350.177 296.331 350.608ZM314.781 350L321.887 331.76H310.449V328.644H325.953V332.026L318.847 350H314.781ZM310.449 331.76V322.754H314.135V331.76H310.449ZM336.985 350L335.503 341.754V334.952C335.503 333.863 335.351 333.065 335.047 332.558C334.769 332.051 334.224 331.735 333.413 331.608L331.019 331.266L331.551 328.188L335.313 328.72C336.833 328.948 337.923 329.543 338.581 330.506C339.24 331.443 339.569 332.786 339.569 334.534V341.83L340.861 350H336.985ZM329.803 350.608L328.321 347.378C330.145 346.745 331.653 345.934 332.843 344.946C334.059 343.958 335.009 342.704 335.693 341.184L337.023 343.502C336.542 344.667 335.972 345.706 335.313 346.618C334.655 347.53 333.869 348.315 332.957 348.974C332.071 349.633 331.019 350.177 329.803 350.608ZM352.745 350V333.09L352.289 328.644H356.317L356.811 333.09V350H352.745ZM368.372 350L367.992 346.884C368.853 346.808 369.639 346.643 370.348 346.39C371.057 346.111 371.678 345.693 372.21 345.136C372.742 344.579 373.173 343.806 373.502 342.818C373.831 341.83 374.047 340.589 374.148 339.094L374.718 331.76H361.266V328.644H379.088L378.936 331.38L378.404 338.144C378.328 339.968 378.062 341.602 377.606 343.046C377.15 344.49 376.504 345.731 375.668 346.77C374.857 347.783 373.844 348.569 372.628 349.126C371.412 349.683 369.993 349.975 368.372 350ZM361.19 357.6V339.284L361.76 336.7H365.256V339.246V357.6H361.19ZM393.048 350V335.56C393.048 334.141 392.732 333.153 392.098 332.596C391.49 332.039 390.667 331.76 389.628 331.76H382.484V328.644H390.654C391.921 328.644 393.036 328.885 393.998 329.366C394.961 329.822 395.721 330.569 396.278 331.608C396.836 332.647 397.114 334.027 397.114 335.75V350H393.048ZM382.484 350V346.884H399.736V350H382.484ZM403.733 350V333.09L403.277 328.644H407.305L407.799 333.09V350H403.733ZM167.746 400V385.56C167.746 384.141 167.43 383.153 166.796 382.596C166.188 382.039 165.365 381.76 164.326 381.76H154.978V378.644H165.352C166.619 378.644 167.734 378.885 168.696 379.366C169.659 379.822 170.419 380.569 170.976 381.608C171.534 382.647 171.812 384.027 171.812 385.75V400H167.746ZM154.864 400V389.664L155.434 387.118H158.93V389.664V400H154.864ZM178.258 400.38L176.054 381.76L179.892 379.822L181.83 396.694C182.894 396.618 183.869 396.453 184.756 396.2C185.668 395.947 186.466 395.605 187.15 395.174C187.834 394.718 188.404 394.148 188.86 393.464C189.341 392.755 189.696 391.919 189.924 390.956C190.152 389.993 190.241 388.866 190.19 387.574V386.548C190.19 385.611 190.038 384.787 189.734 384.078C189.43 383.369 188.987 382.811 188.404 382.406C187.847 381.975 187.15 381.76 186.314 381.76H176.054L175.674 378.644H186.618C188.999 378.644 190.836 379.353 192.128 380.772C193.42 382.191 194.104 384.078 194.18 386.434L194.218 387.65C194.294 389.981 193.952 391.944 193.192 393.54C192.432 395.111 191.33 396.39 189.886 397.378C188.442 398.341 186.732 399.063 184.756 399.544C182.78 400 180.614 400.279 178.258 400.38ZM198.778 392.02V388.866V383.09L198.322 378.644H202.35L202.844 383.09V388.866L202.806 391.26L198.778 392.02ZM217.027 400V385.56C217.027 384.141 216.723 383.153 216.115 382.596C215.507 382.039 214.671 381.76 213.607 381.76H206.577V378.644H214.633C215.9 378.644 217.014 378.885 217.977 379.366C218.965 379.822 219.725 380.569 220.257 381.608C220.814 382.647 221.093 384.027 221.093 385.75V400H217.027ZM234.411 400V386.206C234.411 385.218 234.5 384.357 234.677 383.622C234.88 382.862 235.146 382.241 235.475 381.76H225.215V378.644H242.163V381.76H239.313C238.958 382.393 238.73 383.128 238.629 383.964C238.528 384.775 238.477 385.522 238.477 386.206V400H234.411ZM249.765 400L256.871 381.76H245.433V378.644H260.937V382.026L253.831 400H249.765ZM245.433 381.76V372.754H249.119V381.76H245.433ZM274.561 400.38L271.787 378.644H275.663L277.867 396.922C279.818 396.795 281.49 396.453 282.883 395.896C284.302 395.313 285.454 394.515 286.341 393.502C287.253 392.463 287.924 391.209 288.355 389.74C288.786 388.271 289.001 386.586 289.001 384.686L288.925 378.644H292.991L293.029 384.496C293.054 388.043 292.396 390.994 291.053 393.35C289.736 395.706 287.709 397.479 284.973 398.67C282.237 399.835 278.766 400.405 274.561 400.38ZM276.613 391.982L275.663 389.284C276.93 388.803 277.905 388.245 278.589 387.612C279.298 386.953 279.792 386.105 280.071 385.066C280.375 384.027 280.54 382.685 280.565 381.038V378.682H284.441L284.403 380.962C284.378 382.837 284.124 384.471 283.643 385.864C283.162 387.257 282.351 388.448 281.211 389.436C280.096 390.424 278.564 391.273 276.613 391.982ZM299.35 400.38L296.576 378.644H300.452L302.656 396.922C304.607 396.795 306.279 396.453 307.672 395.896C309.091 395.313 310.244 394.515 311.13 393.502C312.042 392.463 312.714 391.209 313.144 389.74C313.575 388.271 313.79 386.586 313.79 384.686L313.714 378.644H317.78L317.818 384.496C317.844 388.043 317.185 390.994 315.842 393.35C314.525 395.706 312.498 397.479 309.762 398.67C307.026 399.835 303.556 400.405 299.35 400.38ZM301.402 391.982L300.452 389.284C301.719 388.803 302.694 388.245 303.378 387.612C304.088 386.953 304.582 386.105 304.86 385.066C305.164 384.027 305.329 382.685 305.354 381.038V378.682H309.23L309.192 380.962C309.167 382.837 308.914 384.471 308.432 385.864C307.951 387.257 307.14 388.448 306 389.436C304.886 390.424 303.353 391.273 301.402 391.982ZM335.235 400V385.94C335.235 383.153 334.095 381.76 331.815 381.76H321.897V378.644H332.841C334.159 378.644 335.299 378.91 336.261 379.442C337.224 379.974 337.971 380.797 338.503 381.912C339.035 383.001 339.301 384.407 339.301 386.13V400H335.235ZM321.897 400V380.278H325.963V400H321.897ZM351.2 400.038L351.618 396.96C353.619 397.391 355.203 397.353 356.368 396.846C357.559 396.339 358.407 395.402 358.914 394.034C359.446 392.666 359.687 390.931 359.636 388.828C359.611 387.029 359.383 385.611 358.952 384.572C358.547 383.508 357.977 382.748 357.242 382.292C356.533 381.836 355.697 381.608 354.734 381.608C353.847 381.608 353.087 381.798 352.454 382.178C351.821 382.533 351.314 383.027 350.934 383.66C350.554 384.293 350.288 385.003 350.136 385.788L349.11 383.85C349.566 381.925 350.389 380.531 351.58 379.67C352.771 378.783 354.063 378.34 355.456 378.34C356.647 378.34 357.723 378.543 358.686 378.948C359.674 379.328 360.523 379.949 361.232 380.81C361.941 381.646 362.486 382.735 362.866 384.078C363.271 385.395 363.487 386.979 363.512 388.828C363.563 391.691 363.107 394.059 362.144 395.934C361.207 397.809 359.813 399.113 357.964 399.848C356.115 400.583 353.86 400.646 351.2 400.038ZM343.6 400L346.336 385.294L343.372 378.644H347.59L350.212 385.446L347.666 400H343.6ZM116.301 450L123.407 431.76H111.969V428.644H127.473V432.026L120.367 450H116.301ZM111.969 431.76V422.754H115.655V431.76H111.969ZM130.26 451.254L129.69 448.062L137.366 446.58C138.759 446.327 139.874 445.921 140.71 445.364C141.571 444.807 142.23 444.085 142.686 443.198C143.167 442.286 143.509 441.159 143.712 439.816C143.915 438.473 144.029 436.877 144.054 435.028C144.079 433.179 144.092 431.051 144.092 428.644H148.12C148.12 431.253 148.069 433.597 147.968 435.674C147.892 437.751 147.677 439.588 147.322 441.184C146.967 442.78 146.41 444.148 145.65 445.288C144.89 446.428 143.839 447.378 142.496 448.138C141.179 448.873 139.481 449.443 137.404 449.848L130.26 451.254ZM136.226 447.188L131.438 428.644H135.504L140.102 447.188H136.226ZM178.557 450H174.225L166.245 437.878L162.483 450H158.607L162.787 436.928L163.851 434.23L160.355 428.644H164.497L167.689 433.774L170.881 438.562L171.831 435.256L173.769 428.644H177.683L173.275 442.096L178.557 450ZM182.469 442.02V438.866V433.09L182.013 428.644H186.041L186.535 433.09V438.866L186.497 441.26L182.469 442.02ZM203.91 450V435.56C203.91 434.141 203.593 433.153 202.96 432.596C202.352 432.039 201.528 431.76 200.49 431.76H191.142V428.644H201.516C202.782 428.644 203.897 428.885 204.86 429.366C205.822 429.822 206.582 430.569 207.14 431.608C207.697 432.647 207.976 434.027 207.976 435.75V450H203.91ZM191.028 450V439.664L191.598 437.118H195.094V439.664V450H191.028ZM230.008 450V435.56C230.008 434.141 229.692 433.153 229.058 432.596C228.45 432.039 227.627 431.76 226.588 431.76H219.444V428.644H227.614C228.881 428.644 229.996 428.885 230.958 429.366C231.921 429.822 232.681 430.569 233.238 431.608C233.796 432.647 234.074 434.027 234.074 435.75V450H230.008ZM219.444 450V446.884H236.696V450H219.444ZM239.477 450V446.884H244.949C246.191 446.884 247.204 446.631 247.989 446.124C248.775 445.617 249.357 444.895 249.737 443.958C250.117 443.021 250.307 441.906 250.307 440.614V438.03C250.307 436.713 250.117 435.585 249.737 434.648C249.357 433.711 248.775 433.001 247.989 432.52C247.204 432.013 246.191 431.76 244.949 431.76H239.477V428.644H245.937C247.787 428.644 249.332 429.024 250.573 429.784C251.815 430.519 252.752 431.608 253.385 433.052C254.044 434.471 254.373 436.193 254.373 438.22V440.424C254.373 442.425 254.044 444.148 253.385 445.592C252.752 447.011 251.815 448.1 250.573 448.86C249.332 449.62 247.787 450 245.937 450H239.477ZM267.96 450V435.56C267.96 434.141 267.656 433.153 267.048 432.596C266.44 432.039 265.604 431.76 264.54 431.76H257.51V428.644H265.566C266.832 428.644 267.947 428.885 268.91 429.366C269.898 429.822 270.658 430.569 271.19 431.608C271.747 432.647 272.026 434.027 272.026 435.75V450H267.96ZM289.41 450V435.56C289.41 434.141 289.093 433.153 288.46 432.596C287.852 432.039 287.028 431.76 285.99 431.76H276.642V428.644H287.016C288.282 428.644 289.397 428.885 290.36 429.366C291.322 429.822 292.082 430.569 292.64 431.608C293.197 432.647 293.476 434.027 293.476 435.75V450H289.41ZM276.528 450V439.664L277.098 437.118H280.594V439.664V450H276.528ZM304.374 450.57L303.994 447.758C305.008 447.657 305.78 447.441 306.312 447.112C306.844 446.783 307.212 446.327 307.414 445.744C307.617 445.161 307.718 444.414 307.718 443.502V428.644H317.978C319.245 428.644 320.36 428.885 321.322 429.366C322.31 429.822 323.07 430.569 323.602 431.608C324.16 432.647 324.438 434.027 324.438 435.75V450H320.372V435.56C320.372 434.141 320.068 433.153 319.46 432.596C318.852 432.039 318.016 431.76 316.952 431.76H311.784V443.046C311.784 444.718 311.518 446.086 310.986 447.15C310.48 448.214 309.682 449.012 308.592 449.544C307.503 450.076 306.097 450.418 304.374 450.57ZM329.385 450V433.09L328.929 428.644H332.957L333.451 433.09V450H329.385ZM338.514 442.02V438.866V433.09L338.058 428.644H342.086L342.58 433.09V438.866L342.542 441.26L338.514 442.02ZM356.762 450V435.56C356.762 434.141 356.458 433.153 355.85 432.596C355.242 432.039 354.406 431.76 353.342 431.76H346.312V428.644H354.368C355.635 428.644 356.75 428.885 357.712 429.366C358.7 429.822 359.46 430.569 359.992 431.608C360.55 432.647 360.828 434.027 360.828 435.75V450H356.762ZM378.82 450V435.94C378.82 433.153 377.68 431.76 375.4 431.76H365.482V428.644H376.426C377.744 428.644 378.884 428.91 379.846 429.442C380.809 429.974 381.556 430.797 382.088 431.912C382.62 433.001 382.886 434.407 382.886 436.13V450H378.82ZM365.482 450V430.278H369.548V450H365.482ZM406.223 450H401.891L393.911 437.878L390.149 450H386.273L390.453 436.928L391.517 434.23L388.021 428.644H392.163L395.355 433.774L398.547 438.562L399.497 435.256L401.435 428.644H405.349L400.941 442.096L406.223 450ZM435.967 444.794C435.156 444.794 434.409 444.591 433.725 444.186C433.066 443.755 432.522 443.185 432.091 442.476C431.686 441.767 431.483 440.943 431.483 440.006C431.483 439.069 431.686 438.245 432.091 437.536C432.522 436.801 433.066 436.231 433.725 435.826C434.409 435.421 435.156 435.218 435.967 435.218C436.778 435.218 437.525 435.421 438.209 435.826C438.893 436.231 439.438 436.801 439.843 437.536C440.248 438.245 440.451 439.069 440.451 440.006C440.451 440.943 440.248 441.767 439.843 442.476C439.438 443.185 438.893 443.755 438.209 444.186C437.525 444.591 436.778 444.794 435.967 444.794ZM211.933 507.6V483.09L211.477 478.644H215.505L215.999 483.09V507.6H211.933ZM221.062 492.02V488.866V483.09L220.606 478.644H224.634L225.128 483.09V488.866L225.09 491.26L221.062 492.02ZM230.191 500V483.09L229.735 478.644H233.763L234.257 483.09V500H230.191ZM239.32 500V483.09L238.864 478.644H242.892L243.386 483.09V500H239.32ZM247.233 500V496.884H252.705C253.946 496.884 254.96 496.631 255.745 496.124C256.53 495.617 257.113 494.895 257.493 493.958C257.873 493.021 258.063 491.906 258.063 490.614V488.03C258.063 486.713 257.873 485.585 257.493 484.648C257.113 483.711 256.53 483.001 255.745 482.52C254.96 482.013 253.946 481.76 252.705 481.76H247.233V478.644H253.693C255.542 478.644 257.088 479.024 258.329 479.784C259.57 480.519 260.508 481.608 261.141 483.052C261.8 484.471 262.129 486.193 262.129 488.22V490.424C262.129 492.425 261.8 494.148 261.141 495.592C260.508 497.011 259.57 498.1 258.329 498.86C257.088 499.62 255.542 500 253.693 500H247.233ZM273.512 500.038L273.93 496.96C275.931 497.391 277.514 497.353 278.68 496.846C279.87 496.339 280.719 495.402 281.226 494.034C281.758 492.666 281.998 490.931 281.948 488.828C281.922 487.029 281.694 485.611 281.264 484.572C280.858 483.508 280.288 482.748 279.554 482.292C278.844 481.836 278.008 481.608 277.046 481.608C276.159 481.608 275.399 481.798 274.766 482.178C274.132 482.533 273.626 483.027 273.246 483.66C272.866 484.293 272.6 485.003 272.448 485.788L271.422 483.85C271.878 481.925 272.701 480.531 273.892 479.67C275.082 478.783 276.374 478.34 277.768 478.34C278.958 478.34 280.035 478.543 280.998 478.948C281.986 479.328 282.834 479.949 283.544 480.81C284.253 481.646 284.798 482.735 285.178 484.078C285.583 485.395 285.798 486.979 285.824 488.828C285.874 491.691 285.418 494.059 284.456 495.934C283.518 497.809 282.125 499.113 280.276 499.848C278.426 500.583 276.172 500.646 273.512 500.038ZM265.912 500L268.648 485.294L265.684 478.644H269.902L272.524 485.446L269.978 500H265.912ZM302.509 500V485.56C302.509 484.141 302.192 483.153 301.559 482.596C300.951 482.039 300.128 481.76 299.089 481.76H289.741V478.644H300.115C301.382 478.644 302.496 478.885 303.459 479.366C304.422 479.822 305.182 480.569 305.739 481.608C306.296 482.647 306.575 484.027 306.575 485.75V500H302.509ZM289.627 500V489.664L290.197 487.118H293.693V489.664V500H289.627Z" fill="white"/>
</g>
<defs>
<clipPath id="clip0_684_8326">
<rect width="551" height="551" fill="white"/>
</clipPath>
</defs>
</svg>
