<svg width="551" height="551" viewBox="0 0 551 551" fill="none" xmlns="http://www.w3.org/2000/svg">
<g clip-path="url(#clip0_579_1553)">
<path d="M389.984 551H161.013C160.939 550.816 160.915 550.584 160.78 550.449C142.279 531.905 123.777 513.367 105.258 494.841C76.722 466.293 48.1802 437.745 19.6139 409.222C13.1305 402.75 6.53684 396.396 -0.0078125 389.986C-0.0078125 313.66 -0.0078125 237.34 -0.0078125 161.014C0.745221 160.329 1.52274 159.674 2.23904 158.951C41.507 119.683 80.7688 80.4215 120.024 41.1352C133.708 27.4459 147.354 13.7138 161.013 0C237.339 0 313.658 0 389.984 0C390.621 0.777522 391.202 1.61014 391.912 2.32032C415.52 25.9582 439.145 49.5778 462.765 73.2034C489.984 100.429 517.198 127.654 544.435 154.868C546.554 156.986 548.813 158.97 551.004 161.021V389.992C550.227 390.592 549.37 391.118 548.678 391.81C501.053 439.398 453.435 486.992 405.847 534.611C400.471 539.986 395.273 545.533 389.99 551.006L389.984 551ZM275.651 20.8094C242.493 20.8094 209.335 20.8951 176.178 20.7054C171.653 20.6809 168.543 21.9176 165.311 25.1685C119.204 71.5076 72.9936 117.743 26.6177 163.812C22.3934 168.012 20.6486 172.077 20.6669 178.083C20.8935 244.705 20.8016 311.327 20.8812 377.943C20.8812 379.486 21.4322 381.457 22.4546 382.51C31.289 391.559 40.2948 400.442 49.2332 409.381C88.7522 448.906 128.271 488.431 167.753 527.993C169.315 529.554 170.906 530.203 173.129 530.178C183.634 530.068 194.146 530.123 204.652 530.123C262.397 530.123 320.142 530.123 377.886 530.044C379.429 530.044 381.413 529.493 382.447 528.458C430.978 480.056 479.417 431.568 527.924 383.141C529.509 381.555 530.158 380.049 530.152 377.833C530.103 309.582 530.109 241.326 530.183 173.075C530.183 170.681 529.326 169.09 527.728 167.492C479.589 119.42 431.468 71.3361 383.415 23.1787C381.664 21.4278 379.986 20.7543 377.568 20.7543C343.596 20.8217 309.624 20.7972 275.645 20.7972L275.651 20.8094Z" fill="#EC1B24"/>
<path d="M275.654 20.8095C309.626 20.8095 343.599 20.834 377.577 20.7667C379.995 20.7667 381.673 21.434 383.424 23.1911C431.477 71.3423 479.598 119.432 527.737 167.504C529.335 169.102 530.198 170.694 530.192 173.088C530.118 241.338 530.112 309.595 530.161 377.845C530.161 380.061 529.518 381.568 527.933 383.153C479.426 431.574 430.987 480.068 382.456 528.47C381.416 529.505 379.438 530.056 377.895 530.056C320.151 530.136 262.406 530.129 204.661 530.136C194.155 530.136 183.643 530.08 173.138 530.191C170.915 530.215 169.323 529.566 167.762 528.005C128.28 488.443 88.7612 448.918 49.2422 409.393C40.2976 400.449 31.2919 391.571 22.4636 382.523C21.4351 381.47 20.8902 379.504 20.8902 377.955C20.8106 311.333 20.9024 244.711 20.6759 178.096C20.6576 172.09 22.4024 168.024 26.6267 163.825C72.9964 117.743 119.207 71.5076 165.313 25.1685C168.546 21.9176 171.656 20.6809 176.18 20.7054C209.338 20.8952 242.496 20.8095 275.654 20.8095ZM275.568 34.2906C243.329 34.2906 211.089 34.309 178.85 34.2478C176.646 34.2478 175.072 34.8355 173.499 36.4151C127.741 82.2583 81.9226 128.04 36.1896 173.902C35.1305 174.967 34.3775 176.871 34.3713 178.383C34.2856 243.065 34.2795 307.746 34.3836 372.427C34.3836 374.019 35.2407 376.002 36.3733 377.135C82.1002 423.003 127.901 468.809 173.762 514.542C174.901 515.675 176.891 516.538 178.488 516.538C243.17 516.636 307.851 516.636 372.532 516.55C374.038 516.55 375.93 515.742 377.001 514.671C422.924 468.87 468.78 423.015 514.574 377.086C515.707 375.953 516.551 373.958 516.558 372.366C516.655 307.789 516.649 243.205 516.558 178.628C516.558 177.024 515.78 174.998 514.66 173.871C469 128.077 423.249 82.3685 377.571 36.5926C375.82 34.8355 374.087 34.2417 371.681 34.2478C339.644 34.3213 307.612 34.2968 275.575 34.2968L275.568 34.2906Z" fill="#FDF9F8"/>
<path d="M275.567 34.2902C307.604 34.2902 339.636 34.3147 371.674 34.2413C374.08 34.2413 375.806 34.829 377.563 36.5861C423.241 82.3619 468.992 128.07 514.652 173.865C515.772 174.991 516.55 177.018 516.55 178.622C516.648 243.199 516.648 307.782 516.55 372.359C516.55 373.951 515.699 375.947 514.566 377.08C468.778 423.008 422.917 468.87 376.994 514.664C375.922 515.736 374.031 516.544 372.525 516.544C307.843 516.636 243.162 516.636 178.481 516.532C176.883 516.532 174.893 515.668 173.754 514.536C127.893 468.803 82.0925 422.996 36.3656 377.129C35.2391 375.996 34.382 374.012 34.3759 372.421C34.2779 307.739 34.2779 243.058 34.3636 178.377C34.3636 176.865 35.1166 174.961 36.1819 173.895C81.9149 128.028 127.734 82.2456 173.491 36.4085C175.071 34.829 176.638 34.2351 178.842 34.2413C211.082 34.3086 243.321 34.2841 275.561 34.2841L275.567 34.2902Z" fill="#EC1B24"/>
<path d="M87.9281 251.159L87.0131 243.717C88.5585 243.514 89.6768 243.229 90.3681 242.863C91.0595 242.497 91.5068 241.948 91.7101 241.216C91.9135 240.484 92.0151 239.467 92.0151 238.166V214.681H112.389C114.422 214.681 116.232 215.067 117.818 215.84C119.445 216.613 120.726 217.853 121.661 219.561C122.596 221.228 123.064 223.445 123.064 226.21V250H111.962V225.6C111.962 224.665 111.738 223.973 111.291 223.526C110.844 223.079 110.152 222.855 109.217 222.855H103.117V236.702C103.117 240.199 102.568 242.944 101.47 244.937C100.413 246.93 98.7658 248.394 96.5291 249.329C94.2925 250.224 91.4255 250.834 87.9281 251.159ZM128.943 250V221.818L128.272 214.681H139.313L140.045 221.818V250H128.943ZM166.538 250V225.6C166.538 223.77 165.623 222.855 163.793 222.855H145.737V214.681H166.965C168.998 214.681 170.808 215.067 172.394 215.84C174.021 216.613 175.302 217.853 176.237 219.561C177.172 221.228 177.64 223.445 177.64 226.21V250H166.538ZM145.737 250V219.927H156.839V250H145.737ZM183.33 237.19V231.517V221.818L182.659 214.681H193.7L194.432 221.818V231.517L194.371 235.36L183.33 237.19ZM203.419 250.61L199.332 214.681H210.434L213.118 240.85C215.395 240.647 217.164 240.22 218.425 239.569C219.726 238.918 220.682 238.125 221.292 237.19C221.902 236.214 222.288 235.157 222.451 234.018C222.613 232.839 222.695 231.619 222.695 230.358V228.223C222.695 227.369 222.532 226.535 222.207 225.722C221.881 224.868 221.353 224.136 220.621 223.526C219.889 222.916 218.933 222.57 217.754 222.489L214.765 222.306L215.619 213.888L219.584 214.071C221.983 214.152 224.22 214.681 226.294 215.657C228.368 216.633 230.055 218.077 231.357 219.988C232.699 221.859 233.41 224.238 233.492 227.125L233.553 228.833C233.675 232.534 233.085 235.726 231.784 238.41C230.523 241.094 228.591 243.31 225.989 245.059C223.386 246.767 220.173 248.068 216.351 248.963C212.569 249.858 208.258 250.407 203.419 250.61ZM251.688 250V225.6C251.688 224.665 251.465 223.973 251.017 223.526C250.57 223.079 249.879 222.855 248.943 222.855H236.377V214.681H252.115C254.149 214.681 255.958 215.067 257.544 215.84C259.171 216.613 260.452 217.853 261.387 219.561C262.323 221.228 262.79 223.445 262.79 226.21V250H251.688ZM236.377 250V241.826H266.694V250H236.377ZM282.247 251.159L281.332 243.717C282.877 243.514 283.995 243.229 284.687 242.863C285.378 242.497 285.825 241.948 286.029 241.216C286.232 240.484 286.334 239.467 286.334 238.166V214.681H306.708C308.741 214.681 310.551 215.067 312.137 215.84C313.763 216.613 315.044 217.853 315.98 219.561C316.915 221.228 317.383 223.445 317.383 226.21V250H306.281V225.6C306.281 224.665 306.057 223.973 305.61 223.526C305.162 223.079 304.471 222.855 303.536 222.855H297.436V236.702C297.436 240.199 296.887 242.944 295.789 244.937C294.731 246.93 293.084 248.394 290.848 249.329C288.611 250.224 285.744 250.834 282.247 251.159ZM323.261 250V221.818L322.59 214.681H333.631L334.363 221.818V250H323.261ZM375.191 250H363.479L353.353 233.957L348.534 250H338.042L344.874 229.077L346.826 224.075L341.153 214.681H352.255L356.83 222.245L360.429 227.857L362.198 222.001L363.967 214.681H374.459L366.895 237.434L375.191 250ZM393.212 250V225.6C393.212 224.665 392.988 223.973 392.541 223.526C392.093 223.079 391.402 222.855 390.467 222.855H377.962V214.681H393.639C395.672 214.681 397.482 215.067 399.068 215.84C400.694 216.613 401.975 217.853 402.911 219.561C403.846 221.228 404.314 223.445 404.314 226.21V250H393.212ZM410.174 250V221.818L409.503 214.681H420.544L421.276 221.818V250H410.174ZM446.672 250V225.6C446.672 224.665 446.448 223.973 446.001 223.526C445.553 223.079 444.862 222.855 443.927 222.855H427.091V214.681H447.099C449.132 214.681 450.942 215.067 452.528 215.84C454.154 216.613 455.435 217.853 456.371 219.561C457.306 221.228 457.774 223.445 457.774 226.21V250H446.672ZM426.603 250V233.225L428.128 229.138H437.705V233.225V250H426.603ZM59.6177 315.116L58.1537 298.158L57.7877 289.13H68.2797L67.9137 298.158L66.4497 315.116H59.6177ZM63.0337 330.732C61.285 330.732 59.821 330.122 58.6417 328.902C57.503 327.641 56.9337 326.137 56.9337 324.388C56.9337 322.599 57.503 321.094 58.6417 319.874C59.821 318.654 61.285 318.044 63.0337 318.044C64.823 318.044 66.287 318.654 67.4257 319.874C68.5644 321.094 69.1337 322.599 69.1337 324.388C69.1337 326.137 68.5644 327.641 67.4257 328.902C66.287 330.122 64.823 330.732 63.0337 330.732ZM81.5992 315.116L80.1352 298.158L79.7692 289.13H90.2612L89.8952 298.158L88.4312 315.116H81.5992ZM85.0152 330.732C83.2665 330.732 81.8025 330.122 80.6232 328.902C79.4845 327.641 78.9152 326.137 78.9152 324.388C78.9152 322.599 79.4845 321.094 80.6232 319.874C81.8025 318.654 83.2665 318.044 85.0152 318.044C86.8045 318.044 88.2685 318.654 89.4072 319.874C90.5458 321.094 91.1152 322.599 91.1152 324.388C91.1152 326.137 90.5458 327.641 89.4072 328.902C88.2685 330.122 86.8045 330.732 85.0152 330.732ZM118.953 330V305.6C118.953 304.665 118.729 303.973 118.282 303.526C117.834 303.079 117.143 302.855 116.208 302.855H105.594V294.681H119.38C121.413 294.681 123.223 295.067 124.809 295.84C126.435 296.613 127.716 297.853 128.652 299.561C129.587 301.228 130.055 303.445 130.055 306.21V323.229V330H118.953ZM100.714 330V321.826H126.029V330H100.714ZM98.4566 330V301.208V294.681H109.559V301.818V330H98.4566ZM147.053 330V309.992C147.053 308.325 147.215 306.881 147.541 305.661C147.866 304.441 148.293 303.506 148.822 302.855H133.999V294.681H163.95V302.855H159.131C158.724 303.872 158.46 305.051 158.338 306.393C158.216 307.694 158.155 308.894 158.155 309.992V330H147.053ZM182.914 330V305.6C182.914 304.665 182.691 303.973 182.243 303.526C181.796 303.079 181.105 302.855 180.169 302.855H167.603V294.681H183.341C185.375 294.681 187.184 295.067 188.77 295.84C190.397 296.613 191.678 297.853 192.613 299.561C193.549 301.228 194.016 303.445 194.016 306.21V330H182.914ZM167.603 330V321.826H197.92V330H167.603ZM214.754 330V301.818L214.083 294.681H225.124L225.856 301.818V330H214.754ZM245.761 330V305.6C245.761 304.665 245.537 303.973 245.09 303.526C244.643 303.079 243.951 302.855 243.016 302.855H230.45V294.681H246.188C248.221 294.681 250.031 295.067 251.617 295.84C253.244 296.613 254.525 297.853 255.46 299.561C256.395 301.228 256.863 303.445 256.863 306.21V330H245.761ZM230.45 330V321.826H260.767V330H230.45ZM264.107 331.159L263.192 323.717C264.738 323.514 265.856 323.229 266.547 322.863C267.239 322.497 267.686 321.948 267.889 321.216C268.093 320.484 268.194 319.467 268.194 318.166V294.681H288.568C290.602 294.681 292.411 295.067 293.997 295.84C295.624 296.613 296.905 297.853 297.84 299.561C298.776 301.228 299.243 303.445 299.243 306.21V330H288.141V305.6C288.141 304.665 287.918 303.973 287.47 303.526C287.023 303.079 286.332 302.855 285.396 302.855H279.296V316.702C279.296 320.199 278.747 322.944 277.649 324.937C276.592 326.93 274.945 328.394 272.708 329.329C270.472 330.224 267.605 330.834 264.107 331.159ZM303.231 330V321.826H313.906C315.248 321.826 316.305 321.501 317.078 320.85C317.85 320.159 318.379 319.284 318.664 318.227C318.989 317.129 319.152 315.99 319.152 314.811V309.87C319.152 308.691 318.989 307.572 318.664 306.515C318.379 305.417 317.85 304.543 317.078 303.892C316.305 303.201 315.248 302.855 313.906 302.855H303.231V294.681H317.078C320.087 294.681 322.547 295.372 324.459 296.755C326.411 298.097 327.854 299.968 328.79 302.367C329.766 304.726 330.254 307.43 330.254 310.48V314.201C330.254 317.251 329.766 319.976 328.79 322.375C327.854 324.734 326.411 326.604 324.459 327.987C322.547 329.329 320.087 330 317.078 330H303.231ZM334.107 330V321.826H342.098V305.722C342.098 304.421 341.874 303.587 341.427 303.221C340.979 302.814 340.349 302.57 339.536 302.489L335.144 301.94L336.486 293.888L345.453 294.986C347.974 295.271 349.885 296.369 351.187 298.28C352.529 300.191 353.2 302.57 353.2 305.417V330H334.107ZM375.946 330L386.438 302.855H369.48V294.681H397.54V303.709L387.048 330H375.946ZM369.48 302.855V286.263H379.362V302.855H369.48ZM405.761 310.358L403.565 305.844C405.517 304.99 406.981 303.933 407.957 302.672C408.933 301.411 409.421 299.866 409.421 298.036L409.36 292.302L412.471 296.755C411.983 297.121 411.413 297.446 410.763 297.731C410.153 298.016 409.502 298.158 408.811 298.158C407.347 298.158 406.106 297.711 405.09 296.816C404.073 295.881 403.565 294.661 403.565 293.156C403.565 291.448 404.053 290.086 405.029 289.069C406.045 288.052 407.306 287.544 408.811 287.544C410.966 287.544 412.572 288.337 413.63 289.923C414.728 291.468 415.277 293.644 415.277 296.45C415.277 299.5 414.504 302.204 412.959 304.563C411.413 306.881 409.014 308.813 405.761 310.358ZM421.621 310.358L419.425 305.844C421.377 304.99 422.841 303.933 423.817 302.672C424.793 301.411 425.281 299.866 425.281 298.036L425.22 292.302L428.331 296.755C427.843 297.121 427.273 297.446 426.623 297.731C426.013 298.016 425.362 298.158 424.671 298.158C423.207 298.158 421.966 297.711 420.95 296.816C419.933 295.881 419.425 294.661 419.425 293.156C419.425 291.448 419.913 290.086 420.889 289.069C421.905 288.052 423.166 287.544 424.671 287.544C426.826 287.544 428.432 288.337 429.49 289.923C430.588 291.468 431.137 293.644 431.137 296.45C431.137 299.5 430.364 302.204 428.819 304.563C427.273 306.881 424.874 308.813 421.621 310.358ZM436.449 330V321.826H444.44V305.722C444.44 304.421 444.216 303.587 443.769 303.221C443.321 302.814 442.691 302.57 441.878 302.489L437.486 301.94L438.828 293.888L447.795 294.986C450.316 295.271 452.227 296.369 453.529 298.28C454.871 300.191 455.542 302.57 455.542 305.417V330H436.449ZM480.716 330V305.6C480.716 304.665 480.492 303.973 480.045 303.526C479.598 303.079 478.906 302.855 477.971 302.855H461.135V294.681H481.143C483.176 294.681 484.986 295.067 486.572 295.84C488.199 296.613 489.48 297.853 490.415 299.561C491.35 301.228 491.818 303.445 491.818 306.21V330H480.716ZM460.647 330V313.225L462.172 309.138H471.749V313.225V330H460.647Z" fill="white"/>
</g>
<defs>
<clipPath id="clip0_579_1553">
<rect width="551" height="551" fill="white"/>
</clipPath>
</defs>
</svg>
