<svg width="758" height="243" viewBox="0 0 758 243" fill="none" xmlns="http://www.w3.org/2000/svg">
<g filter="url(#filter0_d_568_1082)">
<rect x="30" y="30" width="698" height="175" rx="8" fill="#CC3132"/>
<path d="M94.532 84.08L101.22 51.02H105.4L98.712 84.08H94.532ZM123.381 78V65.536C123.381 64.4973 123.482 63.598 123.685 62.838C123.887 62.078 124.153 61.4953 124.483 61.09H115.249V55.998H133.907V61.09H130.905C130.651 61.7233 130.487 62.458 130.411 63.294C130.335 64.1047 130.297 64.852 130.297 65.536V78H123.381ZM145.379 78.038L144.847 72.946C145.658 72.8953 146.342 72.7433 146.899 72.49C147.456 72.2367 147.912 71.8693 148.267 71.388C148.622 70.9067 148.888 70.2987 149.065 69.564C149.242 68.804 149.369 67.9173 149.445 66.904L149.825 61.09H136.867V55.998H157.273L157.045 60.33L156.741 65.004C156.665 66.6253 156.437 68.2087 156.057 69.754C155.702 71.2993 155.12 72.7053 154.309 73.972C153.498 75.2133 152.371 76.2013 150.927 76.936C149.483 77.6707 147.634 78.038 145.379 78.038ZM136.373 85.6V67.512L137.323 64.89H143.289V67.474V85.6H136.373ZM159.868 78V72.908H168.38C169.013 72.908 169.558 72.794 170.014 72.566C170.47 72.3127 170.837 71.9833 171.116 71.578C171.42 71.1473 171.635 70.6787 171.762 70.172C171.914 69.64 171.99 69.0953 171.99 68.538V65.46C171.99 64.7253 171.863 64.0287 171.61 63.37C171.356 62.686 170.964 62.1413 170.432 61.736C169.9 61.3053 169.216 61.09 168.38 61.09H166.328L165.796 63.75C165.694 64.3833 165.796 64.8647 166.1 65.194C166.404 65.5233 166.986 65.7893 167.848 65.992L166.86 70.172C164.808 70.1973 163.237 69.8807 162.148 69.222C161.058 68.5633 160.336 67.702 159.982 66.638C159.652 65.5487 159.589 64.3707 159.792 63.104L161.35 55.998H170.09C171.964 55.998 173.548 56.4287 174.84 57.29C176.157 58.126 177.158 59.2913 177.842 60.786C178.551 62.2553 178.906 63.94 178.906 65.84V68.158C178.906 69.5767 178.703 70.894 178.298 72.11C177.918 73.3007 177.348 74.3393 176.588 75.226C175.828 76.1127 174.903 76.7967 173.814 77.278C172.724 77.7593 171.483 78 170.09 78H159.868ZM190.397 78.038L191.005 72.946C192.778 73.326 194.108 73.326 194.995 72.946C195.882 72.5407 196.477 71.8313 196.781 70.818C197.11 69.8047 197.275 68.576 197.275 67.132C197.275 65.7133 197.148 64.548 196.895 63.636C196.667 62.724 196.287 62.0527 195.755 61.622C195.248 61.166 194.564 60.938 193.703 60.938C193.196 60.938 192.702 61.0393 192.221 61.242C191.765 61.4447 191.372 61.7613 191.043 62.192C190.714 62.5973 190.511 63.142 190.435 63.826L188.991 61.09C189.498 59.1393 190.308 57.7333 191.423 56.872C192.563 55.9853 193.83 55.542 195.223 55.542C196.692 55.542 197.959 55.7953 199.023 56.302C200.112 56.8087 201.012 57.556 201.721 58.544C202.43 59.532 202.95 60.748 203.279 62.192C203.634 63.636 203.811 65.2827 203.811 67.132C203.811 69.8427 203.279 72.1353 202.215 74.01C201.176 75.8847 199.656 77.202 197.655 77.962C195.654 78.6967 193.234 78.722 190.397 78.038ZM181.353 78L183.899 63.446L180.821 55.998H188.003L190.435 63.826L188.269 78H181.353ZM210.009 78L216.545 61.09H205.981V55.998H223.461V61.622L216.925 78H210.009ZM205.981 61.09V50.754H212.137V61.09H205.981ZM246.792 78V62.8C246.792 61.66 246.222 61.09 245.082 61.09H233.834V55.998H247.058C248.324 55.998 249.452 56.2387 250.44 56.72C251.453 57.2013 252.251 57.974 252.834 59.038C253.416 60.0767 253.708 61.4573 253.708 63.18V78H246.792ZM233.834 78V59.266H240.75V78H233.834ZM257.252 78V60.444L256.834 55.998H263.712L264.168 60.444V78H257.252ZM267.829 78V60.444L267.411 55.998H274.289L274.745 60.444V78H267.829ZM285.549 78V65.536C285.549 64.4973 285.65 63.598 285.853 62.838C286.055 62.078 286.321 61.4953 286.651 61.09H277.417V55.998H296.075V61.09H293.073C292.819 61.7233 292.655 62.458 292.579 63.294C292.503 64.1047 292.465 64.852 292.465 65.536V78H285.549ZM307.858 85.752L306.566 82.332C308.112 81.8253 309.264 81.1413 310.024 80.28C310.81 79.444 311.19 78.5573 311.164 77.62V73.516L313.102 76.974C312.798 77.202 312.456 77.3793 312.076 77.506C311.722 77.6327 311.329 77.696 310.898 77.696C309.91 77.696 309.024 77.392 308.238 76.784C307.478 76.1507 307.098 75.264 307.098 74.124C307.098 73.06 307.478 72.1987 308.238 71.54C309.024 70.8813 309.961 70.552 311.05 70.552C312.469 70.552 313.546 71.0713 314.28 72.11C315.015 73.1487 315.382 74.6053 315.382 76.48C315.382 78.7093 314.749 80.6347 313.482 82.256C312.216 83.9027 310.341 85.068 307.858 85.752ZM321.284 78.38L318.32 55.998H324.856L326.832 72.756C328.682 72.6293 330.189 72.3 331.354 71.768C332.545 71.2107 333.457 70.5013 334.09 69.64C334.724 68.7787 335.154 67.8033 335.382 66.714C335.636 65.5993 335.762 64.434 335.762 63.218L335.686 55.998H342.602L342.64 62.838C342.666 66.2833 341.944 69.1967 340.474 71.578C339.03 73.9593 336.738 75.7327 333.596 76.898C330.455 78.0633 326.351 78.5573 321.284 78.38ZM325.54 69.488L323.906 65.27C324.97 65.1433 325.743 64.8393 326.224 64.358C326.706 63.8767 327.01 63.1673 327.136 62.23C327.263 61.2927 327.314 60.0893 327.288 58.62L327.25 55.998H333.786V58.468C333.786 60.216 333.558 61.8247 333.102 63.294C332.672 64.7633 331.861 66.03 330.67 67.094C329.48 68.1327 327.77 68.9307 325.54 69.488ZM366.345 78H359.049L352.741 68.006L349.739 78H343.203L347.459 64.966L348.675 61.85L345.141 55.998H352.057L354.907 60.71L357.149 64.206L358.251 60.558L359.353 55.998H365.889L361.177 70.172L366.345 78ZM381.409 78V62.8C381.409 62.2173 381.269 61.7867 380.991 61.508C380.712 61.2293 380.281 61.09 379.699 61.09H369.211V55.998H381.675C382.941 55.998 384.069 56.2387 385.057 56.72C386.07 57.2013 386.868 57.974 387.451 59.038C388.033 60.0767 388.325 61.4573 388.325 63.18V78H381.409ZM368.907 78V67.55L369.857 65.004H375.823V67.55V78H368.907ZM399.196 70.02V66.486V60.444L398.778 55.998H405.656L406.112 60.444V66.486L406.074 68.88L399.196 70.02ZM409.772 78V60.444L409.354 55.998H416.232L416.688 60.444V78H409.772ZM429.088 78V62.8C429.088 62.2173 428.949 61.7867 428.67 61.508C428.391 61.2293 427.961 61.09 427.378 61.09H419.55V55.998H429.354C430.621 55.998 431.748 56.2387 432.736 56.72C433.749 57.2013 434.547 57.974 435.13 59.038C435.713 60.0767 436.004 61.4573 436.004 63.18V78H429.088ZM419.55 78V72.908H438.436V78H419.55ZM441.315 70.02V66.486V60.444L440.897 55.998H447.775L448.231 60.444V66.486L448.193 68.88L441.315 70.02ZM450.713 78V72.908H457.363C458.199 72.908 458.858 72.7053 459.339 72.3C459.82 71.8693 460.15 71.3247 460.327 70.666C460.53 69.982 460.631 69.2727 460.631 68.538V65.46C460.631 64.7253 460.53 64.0287 460.327 63.37C460.15 62.686 459.82 62.1413 459.339 61.736C458.858 61.3053 458.199 61.09 457.363 61.09H450.713V55.998H459.339C461.214 55.998 462.746 56.4287 463.937 57.29C465.153 58.126 466.052 59.2913 466.635 60.786C467.243 62.2553 467.547 63.94 467.547 65.84V68.158C467.547 70.058 467.243 71.7553 466.635 73.25C466.052 74.7193 465.153 75.8847 463.937 76.746C462.746 77.582 461.214 78 459.339 78H450.713ZM477.441 78.722L476.871 74.086C477.833 73.9593 478.53 73.782 478.961 73.554C479.391 73.326 479.67 72.984 479.797 72.528C479.923 72.072 479.987 71.4387 479.987 70.628V55.998H492.679C493.945 55.998 495.073 56.2387 496.061 56.72C497.074 57.2013 497.872 57.974 498.455 59.038C499.037 60.0767 499.329 61.4573 499.329 63.18V78H492.413V62.8C492.413 62.2173 492.273 61.7867 491.995 61.508C491.716 61.2293 491.285 61.09 490.703 61.09H486.903V69.716C486.903 71.8947 486.561 73.6047 485.877 74.846C485.218 76.0873 484.192 76.9993 482.799 77.582C481.405 78.1393 479.619 78.5193 477.441 78.722ZM506.031 78L512.567 61.09H502.003V55.998H519.483V61.622L512.947 78H506.031ZM502.003 61.09V50.754H508.159V61.09H502.003ZM522.362 78V60.444L521.944 55.998H528.822L529.278 60.444V78H522.362ZM531.836 79.672L530.886 74.314L540.842 72.452C541.957 72.2493 542.831 71.882 543.464 71.35C544.097 70.7927 544.566 70.0707 544.87 69.184C545.199 68.2973 545.415 67.2207 545.516 65.954C545.617 64.6873 545.655 63.2307 545.63 61.584C545.63 59.912 545.63 58.05 545.63 55.998H552.47C552.47 58.3033 552.432 60.4693 552.356 62.496C552.28 64.4973 552.065 66.3467 551.71 68.044C551.381 69.716 550.811 71.2107 550 72.528C549.215 73.8453 548.087 74.96 546.618 75.872C545.174 76.784 543.287 77.468 540.956 77.924L531.836 79.672ZM536.7 73.972L532.482 55.998H539.398L543.274 73.972H536.7ZM555.342 78V72.908H563.854C564.488 72.908 565.032 72.794 565.488 72.566C565.944 72.3127 566.312 71.9833 566.59 71.578C566.894 71.1473 567.11 70.6787 567.236 70.172C567.388 69.64 567.464 69.0953 567.464 68.538V65.46C567.464 64.7253 567.338 64.0287 567.084 63.37C566.831 62.686 566.438 62.1413 565.906 61.736C565.374 61.3053 564.69 61.09 563.854 61.09H561.802L561.27 63.75C561.169 64.3833 561.27 64.8647 561.574 65.194C561.878 65.5233 562.461 65.7893 563.322 65.992L562.334 70.172C560.282 70.1973 558.712 69.8807 557.622 69.222C556.533 68.5633 555.811 67.702 555.456 66.638C555.127 65.5487 555.064 64.3707 555.266 63.104L556.824 55.998H565.564C567.439 55.998 569.022 56.4287 570.314 57.29C571.632 58.126 572.632 59.2913 573.316 60.786C574.026 62.2553 574.38 63.94 574.38 65.84V68.158C574.38 69.5767 574.178 70.894 573.772 72.11C573.392 73.3007 572.822 74.3393 572.062 75.226C571.302 76.1127 570.378 76.7967 569.288 77.278C568.199 77.7593 566.958 78 565.564 78H555.342ZM597.241 78V62.8C597.241 62.2173 597.102 61.7867 596.823 61.508C596.544 61.2293 596.114 61.09 595.531 61.09H588.919V55.998H597.507C598.774 55.998 599.901 56.2387 600.889 56.72C601.902 57.2013 602.7 57.974 603.283 59.038C603.866 60.0767 604.157 61.4573 604.157 63.18V73.782V78H597.241ZM585.879 78V72.908H601.649V78H585.879ZM584.473 78V60.064V55.998H591.389V60.444V78H584.473ZM607.602 78V60.444L607.184 55.998H614.062L614.518 60.444V78H607.602ZM618.178 70.02V66.486V60.444L617.76 55.998H624.638L625.094 60.444V66.486L625.056 68.88L618.178 70.02ZM630.768 78.38L628.792 61.09L635.366 58.126L636.81 72.3C637.925 72.224 638.824 72.0593 639.508 71.806C640.218 71.5527 640.75 71.2233 641.104 70.818C641.484 70.3873 641.738 69.8933 641.864 69.336C642.016 68.7533 642.092 68.12 642.092 67.436C642.118 66.7267 642.118 65.9667 642.092 65.156V63.902C642.092 63.2687 641.991 62.7493 641.788 62.344C641.611 61.9387 641.37 61.6347 641.066 61.432C640.762 61.204 640.408 61.09 640.002 61.09H628.792L628.146 55.998H640.496C643.156 55.998 645.196 56.7073 646.614 58.126C648.058 59.5447 648.818 61.4953 648.894 63.978L648.932 65.308C649.008 67.664 648.654 69.6527 647.868 71.274C647.083 72.8953 645.905 74.2127 644.334 75.226C642.764 76.2393 640.838 76.9993 638.558 77.506C636.278 78.0127 633.682 78.304 630.768 78.38ZM661.319 78V62.8C661.319 62.2173 661.179 61.7867 660.901 61.508C660.622 61.2293 660.191 61.09 659.609 61.09H651.781V55.998H661.585C662.851 55.998 663.979 56.2387 664.967 56.72C665.98 57.2013 666.778 57.974 667.361 59.038C667.943 60.0767 668.235 61.4573 668.235 63.18V78H661.319ZM651.781 78V72.908H670.667V78H651.781ZM99.9501 131.456C98.8608 131.456 97.9488 131.076 97.2141 130.316C96.5048 129.531 96.1501 128.593 96.1501 127.504C96.1501 126.389 96.5048 125.452 97.2141 124.692C97.9488 123.932 98.8608 123.552 99.9501 123.552C101.065 123.552 101.977 123.932 102.686 124.692C103.395 125.452 103.75 126.389 103.75 127.504C103.75 128.593 103.395 129.531 102.686 130.316C101.977 131.076 101.065 131.456 99.9501 131.456ZM117.062 138.6V115.8C117.062 115.217 116.923 114.787 116.644 114.508C116.365 114.229 115.935 114.09 115.352 114.09H107.182V108.998H117.328C118.595 108.998 119.722 109.239 120.71 109.72C121.723 110.201 122.521 110.974 123.104 112.038C123.687 113.077 123.978 114.457 123.978 116.18V138.6H117.062ZM129.967 131.38L127.003 108.998H133.539L135.515 125.756C137.364 125.629 138.872 125.3 140.037 124.768C141.228 124.211 142.14 123.501 142.773 122.64C143.406 121.779 143.837 120.803 144.065 119.714C144.318 118.599 144.445 117.434 144.445 116.218L144.369 108.998H151.285L151.323 115.838C151.348 119.283 150.626 122.197 149.157 124.578C147.713 126.959 145.42 128.733 142.279 129.898C139.138 131.063 135.034 131.557 129.967 131.38ZM134.223 122.488L132.589 118.27C133.653 118.143 134.426 117.839 134.907 117.358C135.388 116.877 135.692 116.167 135.819 115.23C135.946 114.293 135.996 113.089 135.971 111.62L135.933 108.998H142.469V111.468C142.469 113.216 142.241 114.825 141.785 116.294C141.354 117.763 140.544 119.03 139.353 120.094C138.162 121.133 136.452 121.931 134.223 122.488ZM162.992 131.038L163.6 125.946C165.373 126.326 166.703 126.326 167.59 125.946C168.476 125.541 169.072 124.831 169.376 123.818C169.705 122.805 169.87 121.576 169.87 120.132C169.87 118.713 169.743 117.548 169.49 116.636C169.262 115.724 168.882 115.053 168.35 114.622C167.843 114.166 167.159 113.938 166.298 113.938C165.791 113.938 165.297 114.039 164.816 114.242C164.36 114.445 163.967 114.761 163.638 115.192C163.308 115.597 163.106 116.142 163.03 116.826L161.586 114.09C162.092 112.139 162.903 110.733 164.018 109.872C165.158 108.985 166.424 108.542 167.818 108.542C169.287 108.542 170.554 108.795 171.618 109.302C172.707 109.809 173.606 110.556 174.316 111.544C175.025 112.532 175.544 113.748 175.874 115.192C176.228 116.636 176.406 118.283 176.406 120.132C176.406 122.843 175.874 125.135 174.81 127.01C173.771 128.885 172.251 130.202 170.25 130.962C168.248 131.697 165.829 131.722 162.992 131.038ZM153.948 131L156.494 116.446L153.416 108.998H160.598L163.03 116.826L160.864 131H153.948ZM191.724 131V115.8C191.724 115.217 191.585 114.787 191.306 114.508C191.027 114.229 190.597 114.09 190.014 114.09H179.526V108.998H191.99C193.257 108.998 194.384 109.239 195.372 109.72C196.385 110.201 197.183 110.974 197.766 112.038C198.349 113.077 198.64 114.457 198.64 116.18V131H191.724ZM179.222 131V120.55L180.172 118.004H186.138V120.55V131H179.222ZM204.944 131L211.48 114.09H200.916V108.998H218.396V114.622L211.86 131H204.944ZM200.916 114.09V103.754H207.072V114.09H200.916ZM228.084 131.722L227.514 127.086C228.477 126.959 229.174 126.782 229.604 126.554C230.035 126.326 230.314 125.984 230.44 125.528C230.567 125.072 230.63 124.439 230.63 123.628V108.998H243.322C244.589 108.998 245.716 109.239 246.704 109.72C247.718 110.201 248.516 110.974 249.098 112.038C249.681 113.077 249.972 114.457 249.972 116.18V131H243.056V115.8C243.056 115.217 242.917 114.787 242.638 114.508C242.36 114.229 241.929 114.09 241.346 114.09H237.546V122.716C237.546 124.895 237.204 126.605 236.52 127.846C235.862 129.087 234.836 129.999 233.442 130.582C232.049 131.139 230.263 131.519 228.084 131.722ZM253.634 131V113.444L253.216 108.998H260.094L260.55 113.444V131H253.634ZM264.21 123.02V119.486V113.444L263.792 108.998H270.67L271.126 113.444V119.486L271.088 121.88L264.21 123.02ZM287.631 131V115.8C287.631 114.66 287.061 114.09 285.921 114.09H274.673V108.998H287.897C289.163 108.998 290.291 109.239 291.279 109.72C292.292 110.201 293.09 110.974 293.673 112.038C294.255 113.077 294.547 114.457 294.547 116.18V131H287.631ZM274.673 131V112.266H281.589V131H274.673ZM297.407 131V125.908H302.385V115.876C302.385 115.065 302.246 114.546 301.967 114.318C301.689 114.065 301.296 113.913 300.789 113.862L298.053 113.52L298.889 108.504L304.475 109.188C306.046 109.365 307.237 110.049 308.047 111.24C308.883 112.431 309.301 113.913 309.301 115.686V131H297.407ZM324.984 131V115.8C324.984 115.217 324.844 114.787 324.566 114.508C324.287 114.229 323.856 114.09 323.274 114.09H312.786V108.998H325.25C326.516 108.998 327.644 109.239 328.632 109.72C329.645 110.201 330.443 110.974 331.026 112.038C331.608 113.077 331.9 114.457 331.9 116.18V131H324.984ZM312.482 131V120.55L313.432 118.004H319.398V120.55V131H312.482ZM341.973 131.722L341.403 127.086C342.366 126.959 343.062 126.782 343.493 126.554C343.924 126.326 344.202 125.984 344.329 125.528C344.456 125.072 344.519 124.439 344.519 123.628V108.998H357.211C358.478 108.998 359.605 109.239 360.593 109.72C361.606 110.201 362.404 110.974 362.987 112.038C363.57 113.077 363.861 114.457 363.861 116.18V131H356.945V115.8C356.945 115.217 356.806 114.787 356.527 114.508C356.248 114.229 355.818 114.09 355.235 114.09H351.435V122.716C351.435 124.895 351.093 126.605 350.409 127.846C349.75 129.087 348.724 129.999 347.331 130.582C345.938 131.139 344.152 131.519 341.973 131.722ZM370.563 131L377.099 114.09H366.535V108.998H384.015V114.622L377.479 131H370.563ZM366.535 114.09V103.754H372.691V114.09H366.535ZM395.634 131V115.8C395.634 115.217 395.495 114.787 395.216 114.508C394.937 114.229 394.507 114.09 393.924 114.09H386.096V108.998H395.9C397.167 108.998 398.294 109.239 399.282 109.72C400.295 110.201 401.093 110.974 401.676 112.038C402.259 113.077 402.55 114.457 402.55 116.18V131H395.634ZM386.096 131V125.908H404.982V131H386.096ZM416.259 131.038L415.727 125.946C416.538 125.895 417.222 125.743 417.779 125.49C418.336 125.237 418.792 124.869 419.147 124.388C419.502 123.907 419.768 123.299 419.945 122.564C420.122 121.804 420.249 120.917 420.325 119.904L420.705 114.09H407.747V108.998H428.153L427.925 113.33L427.621 118.004C427.545 119.625 427.317 121.209 426.937 122.754C426.582 124.299 426 125.705 425.189 126.972C424.378 128.213 423.251 129.201 421.807 129.936C420.363 130.671 418.514 131.038 416.259 131.038ZM407.253 138.6V120.512L408.203 117.89H414.169V120.474V138.6H407.253ZM434.206 131L440.742 114.09H430.178V108.998H447.658V114.622L441.122 131H434.206ZM430.178 114.09V103.754H436.334V114.09H430.178ZM458.144 138.6V113.444L457.726 108.998H464.604L465.06 113.444V138.6H458.144ZM467.922 131.722L467.352 127.086C468.315 126.959 469.012 126.782 469.442 126.554C469.873 126.326 470.152 125.984 470.278 125.528C470.405 125.072 470.468 124.439 470.468 123.628V108.998H483.16C484.427 108.998 485.554 109.239 486.542 109.72C487.556 110.201 488.354 110.974 488.936 112.038C489.519 113.077 489.81 114.457 489.81 116.18V131H482.894V115.8C482.894 115.217 482.755 114.787 482.476 114.508C482.198 114.229 481.767 114.09 481.184 114.09H477.384V122.716C477.384 124.895 477.042 126.605 476.358 127.846C475.7 129.087 474.674 129.999 473.28 130.582C471.887 131.139 470.101 131.519 467.922 131.722ZM502.06 131.038L502.668 125.946C504.442 126.326 505.772 126.326 506.658 125.946C507.545 125.541 508.14 124.831 508.444 123.818C508.774 122.805 508.938 121.576 508.938 120.132C508.938 118.713 508.812 117.548 508.558 116.636C508.33 115.724 507.95 115.053 507.418 114.622C506.912 114.166 506.228 113.938 505.366 113.938C504.86 113.938 504.366 114.039 503.884 114.242C503.428 114.445 503.036 114.761 502.706 115.192C502.377 115.597 502.174 116.142 502.098 116.826L500.654 114.09C501.161 112.139 501.972 110.733 503.086 109.872C504.226 108.985 505.493 108.542 506.886 108.542C508.356 108.542 509.622 108.795 510.686 109.302C511.776 109.809 512.675 110.556 513.384 111.544C514.094 112.532 514.613 113.748 514.942 115.192C515.297 116.636 515.474 118.283 515.474 120.132C515.474 122.843 514.942 125.135 513.878 127.01C512.84 128.885 511.32 130.202 509.318 130.962C507.317 131.697 504.898 131.722 502.06 131.038ZM493.016 131L495.562 116.446L492.484 108.998H499.666L502.098 116.826L499.932 131H493.016ZM530.792 131V115.8C530.792 115.217 530.653 114.787 530.374 114.508C530.096 114.229 529.665 114.09 529.082 114.09H518.594V108.998H531.058C532.325 108.998 533.452 109.239 534.44 109.72C535.454 110.201 536.252 110.974 536.834 112.038C537.417 113.077 537.708 114.457 537.708 116.18V131H530.792ZM518.29 131V120.55L519.24 118.004H525.206V120.55V131H518.29ZM540.972 131V113.444L540.554 108.998H547.432L547.888 113.444V131H540.972ZM571.316 131V115.8C571.316 115.217 571.176 114.787 570.898 114.508C570.619 114.229 570.188 114.09 569.606 114.09H559.118V108.998H571.582C572.848 108.998 573.976 109.239 574.964 109.72C575.977 110.201 576.775 110.974 577.358 112.038C577.94 113.077 578.232 114.457 578.232 116.18V131H571.316ZM558.814 131V120.55L559.764 118.004H565.73V120.55V131H558.814ZM588.64 131V118.536C588.64 117.497 588.741 116.598 588.944 115.838C589.146 115.078 589.412 114.495 589.742 114.09H580.508V108.998H599.166V114.09H596.164C595.91 114.723 595.746 115.458 595.67 116.294C595.594 117.105 595.556 117.852 595.556 118.536V131H588.64ZM602.24 123.02V119.486V113.444L601.822 108.998H608.7L609.156 113.444V119.486L609.118 121.88L602.24 123.02ZM625.66 131V115.8C625.66 114.66 625.09 114.09 623.95 114.09H612.702V108.998H625.926C627.193 108.998 628.32 109.239 629.308 109.72C630.321 110.201 631.119 110.974 631.702 112.038C632.285 113.077 632.576 114.457 632.576 116.18V131H625.66ZM612.702 131V112.266H619.618V131H612.702ZM636.121 123.02V119.486V113.444L635.703 108.998H642.581L643.037 113.444V119.486L642.999 121.88L636.121 123.02ZM649.737 131L656.273 114.09H645.709V108.998H663.189V114.622L656.653 131H649.737ZM645.709 114.09V103.754H651.865V114.09H645.709ZM43.5951 184.722L43.0251 180.086C43.9877 179.959 44.6844 179.782 45.1151 179.554C45.5457 179.326 45.8244 178.984 45.9511 178.528C46.0777 178.072 46.1411 177.439 46.1411 176.628V161.998H58.8331C60.0997 161.998 61.2271 162.239 62.2151 162.72C63.2284 163.201 64.0264 163.974 64.6091 165.038C65.1917 166.077 65.4831 167.457 65.4831 169.18V184H58.5671V168.8C58.5671 168.217 58.4277 167.787 58.1491 167.508C57.8704 167.229 57.4397 167.09 56.8571 167.09H53.0571V175.716C53.0571 177.895 52.7151 179.605 52.0311 180.846C51.3724 182.087 50.3464 182.999 48.9531 183.582C47.5597 184.139 45.7737 184.519 43.5951 184.722ZM72.185 184L78.721 167.09H68.157V161.998H85.637V167.622L79.101 184H72.185ZM68.157 167.09V156.754H74.313V167.09H68.157ZM88.5161 184V166.444L88.0981 161.998H94.9761L95.4321 166.444V184H88.5161ZM106.388 184L104.868 174.994V168.838C104.868 168.027 104.729 167.508 104.45 167.28C104.172 167.027 103.779 166.875 103.272 166.824L100.916 166.52L101.752 161.504L106.958 162.15C108.529 162.327 109.72 162.91 110.53 163.898C111.366 164.861 111.784 166.229 111.784 168.002V175.146L112.924 184H106.388ZM100.118 184.798L97.6103 179.402C99.561 178.819 101.132 178.11 102.322 177.274C103.538 176.413 104.412 175.475 104.944 174.462L107.224 177.882C106.743 178.921 106.211 179.883 105.628 180.77C105.071 181.657 104.349 182.442 103.462 183.126C102.601 183.785 101.486 184.342 100.118 184.798ZM124.596 184V168.8C124.596 168.217 124.457 167.787 124.178 167.508C123.899 167.229 123.469 167.09 122.886 167.09H115.096V161.998H124.862C126.129 161.998 127.256 162.239 128.244 162.72C129.257 163.201 130.055 163.974 130.638 165.038C131.221 166.077 131.512 167.457 131.512 169.18V184H124.596ZM134.365 184.722L133.795 180.086C134.757 179.959 135.454 179.782 135.885 179.554C136.315 179.326 136.594 178.984 136.721 178.528C136.847 178.072 136.911 177.439 136.911 176.628V161.998H149.603C150.869 161.998 151.997 162.239 152.985 162.72C153.998 163.201 154.796 163.974 155.379 165.038C155.961 166.077 156.253 167.457 156.253 169.18V184H149.337V168.8C149.337 168.217 149.197 167.787 148.919 167.508C148.64 167.229 148.209 167.09 147.627 167.09H143.827V175.716C143.827 177.895 143.485 179.605 142.801 180.846C142.142 182.087 141.116 182.999 139.723 183.582C138.329 184.139 136.543 184.519 134.365 184.722ZM172.075 184V168.8C172.075 168.217 171.935 167.787 171.657 167.508C171.378 167.229 170.947 167.09 170.365 167.09H159.877V161.998H172.341C173.607 161.998 174.735 162.239 175.723 162.72C176.736 163.201 177.534 163.974 178.117 165.038C178.699 166.077 178.991 167.457 178.991 169.18V184H172.075ZM159.573 184V173.55L160.523 171.004H166.489V173.55V184H159.573ZM188.76 185.672L187.81 180.314L197.766 178.452C198.88 178.249 199.754 177.882 200.388 177.35C201.021 176.793 201.49 176.071 201.794 175.184C202.123 174.297 202.338 173.221 202.44 171.954C202.541 170.687 202.579 169.231 202.554 167.584C202.554 165.912 202.554 164.05 202.554 161.998H209.394C209.394 164.303 209.356 166.469 209.28 168.496C209.204 170.497 208.988 172.347 208.634 174.044C208.304 175.716 207.734 177.211 206.924 178.528C206.138 179.845 205.011 180.96 203.542 181.872C202.098 182.784 200.21 183.468 197.88 183.924L188.76 185.672ZM193.624 179.972L189.406 161.998H196.322L200.198 179.972H193.624ZM212.684 184V166.444L212.266 161.998H219.144L219.6 166.444V184H212.684ZM234.546 184L222.462 161.998H229.378L241.462 184H234.546ZM222.272 184V178.908H237.89L239.866 184H222.272ZM236.598 175.64L232.646 169.826L235.724 161.998H242.526L236.598 175.64ZM245.415 176.02V172.486V166.444L244.997 161.998H251.875L252.331 166.444V172.486L252.293 174.88L245.415 176.02ZM264.731 184V168.8C264.731 168.217 264.591 167.787 264.313 167.508C264.034 167.229 263.603 167.09 263.021 167.09H255.193V161.998H264.997C266.263 161.998 267.391 162.239 268.379 162.72C269.392 163.201 270.19 163.974 270.773 165.038C271.355 166.077 271.647 167.457 271.647 169.18V184H264.731ZM255.193 184V178.908H274.079V184H255.193ZM283.767 184.722L283.197 180.086C284.16 179.959 284.856 179.782 285.287 179.554C285.718 179.326 285.996 178.984 286.123 178.528C286.25 178.072 286.313 177.439 286.313 176.628V161.998H299.005C300.272 161.998 301.399 162.239 302.387 162.72C303.4 163.201 304.198 163.974 304.781 165.038C305.364 166.077 305.655 167.457 305.655 169.18V184H298.739V168.8C298.739 168.217 298.6 167.787 298.321 167.508C298.042 167.229 297.612 167.09 297.029 167.09H293.229V175.716C293.229 177.895 292.887 179.605 292.203 180.846C291.544 182.087 290.518 182.999 289.125 183.582C287.732 184.139 285.946 184.519 283.767 184.722ZM308.215 185.672L307.265 180.314L317.221 178.452C318.336 178.249 319.21 177.882 319.843 177.35C320.476 176.793 320.945 176.071 321.249 175.184C321.578 174.297 321.794 173.221 321.895 171.954C321.996 170.687 322.034 169.231 322.009 167.584C322.009 165.912 322.009 164.05 322.009 161.998H328.849C328.849 164.303 328.811 166.469 328.735 168.496C328.659 170.497 328.444 172.347 328.089 174.044C327.76 175.716 327.19 177.211 326.379 178.528C325.594 179.845 324.466 180.96 322.997 181.872C321.553 182.784 319.666 183.468 317.335 183.924L308.215 185.672ZM313.079 179.972L308.861 161.998H315.777L319.653 179.972H313.079ZM340.879 184V168.8C340.879 168.217 340.74 167.787 340.461 167.508C340.183 167.229 339.752 167.09 339.169 167.09H331.341V161.998H341.145C342.412 161.998 343.539 162.239 344.527 162.72C345.541 163.201 346.339 163.974 346.921 165.038C347.504 166.077 347.795 167.457 347.795 169.18V184H340.879ZM331.341 184V178.908H350.227V184H331.341ZM359.915 184.722L359.345 180.086C360.308 179.959 361.005 179.782 361.435 179.554C361.866 179.326 362.145 178.984 362.271 178.528C362.398 178.072 362.461 177.439 362.461 176.628V161.998H375.153C376.42 161.998 377.547 162.239 378.535 162.72C379.549 163.201 380.347 163.974 380.929 165.038C381.512 166.077 381.803 167.457 381.803 169.18V184H374.887V168.8C374.887 168.217 374.748 167.787 374.469 167.508C374.191 167.229 373.76 167.09 373.177 167.09H369.377V175.716C369.377 177.895 369.035 179.605 368.351 180.846C367.693 182.087 366.667 182.999 365.273 183.582C363.88 184.139 362.094 184.519 359.915 184.722ZM385.465 184V166.444L385.047 161.998H391.925L392.381 166.444V184H385.465ZM408.886 184V168.8C408.886 167.66 408.316 167.09 407.176 167.09H395.928V161.998H409.152C410.418 161.998 411.546 162.239 412.534 162.72C413.547 163.201 414.345 163.974 414.928 165.038C415.51 166.077 415.802 167.457 415.802 169.18V184H408.886ZM395.928 184V165.266H402.844V184H395.928ZM419.346 176.02V172.486V166.444L418.928 161.998H425.806L426.262 166.444V172.486L426.224 174.88L419.346 176.02ZM431.86 184.38L429.314 161.998H436.23L437.902 178.3C439.321 178.173 440.423 177.907 441.208 177.502C442.019 177.097 442.614 176.603 442.994 176.02C443.374 175.412 443.615 174.753 443.716 174.044C443.818 173.309 443.868 172.549 443.868 171.764V170.434C443.868 169.902 443.767 169.383 443.564 168.876C443.362 168.344 443.032 167.888 442.576 167.508C442.12 167.128 441.525 166.913 440.79 166.862L438.928 166.748L439.46 161.504L441.93 161.618C443.425 161.669 444.818 161.998 446.11 162.606C447.402 163.214 448.454 164.113 449.264 165.304C450.1 166.469 450.544 167.951 450.594 169.75L450.632 170.814C450.708 173.119 450.341 175.108 449.53 176.78C448.745 178.452 447.542 179.833 445.92 180.922C444.299 181.986 442.298 182.797 439.916 183.354C437.56 183.911 434.875 184.253 431.86 184.38ZM461.93 184V168.8C461.93 168.217 461.791 167.787 461.512 167.508C461.233 167.229 460.803 167.09 460.22 167.09H452.392V161.998H462.196C463.463 161.998 464.59 162.239 465.578 162.72C466.591 163.201 467.389 163.974 467.972 165.038C468.555 166.077 468.846 167.457 468.846 169.18V184H461.93ZM452.392 184V178.908H471.278V184H452.392ZM486.317 184V168.8C486.317 168.217 486.177 167.787 485.899 167.508C485.62 167.229 485.189 167.09 484.607 167.09H474.119V161.998H486.583C487.849 161.998 488.977 162.239 489.965 162.72C490.978 163.201 491.776 163.974 492.359 165.038C492.941 166.077 493.233 167.457 493.233 169.18V184H486.317ZM473.815 184V173.55L474.765 171.004H480.731V173.55V184H473.815ZM504.104 176.02V172.486V166.444L503.686 161.998H510.564L511.02 166.444V172.486L510.982 174.88L504.104 176.02ZM517.72 184L524.256 167.09H513.692V161.998H531.172V167.622L524.636 184H517.72ZM513.692 167.09V156.754H519.848V167.09H513.692ZM537.091 184L543.627 167.09H533.063V161.998H550.543V167.622L544.007 184H537.091ZM533.063 167.09V156.754H539.219V167.09H533.063ZM552.244 184V178.908H558.894C559.73 178.908 560.389 178.705 560.87 178.3C561.352 177.869 561.681 177.325 561.858 176.666C562.061 175.982 562.162 175.273 562.162 174.538V171.46C562.162 170.725 562.061 170.029 561.858 169.37C561.681 168.686 561.352 168.141 560.87 167.736C560.389 167.305 559.73 167.09 558.894 167.09H552.244V161.998H560.87C562.745 161.998 564.278 162.429 565.468 163.29C566.684 164.126 567.584 165.291 568.166 166.786C568.774 168.255 569.078 169.94 569.078 171.84V174.158C569.078 176.058 568.774 177.755 568.166 179.25C567.584 180.719 566.684 181.885 565.468 182.746C564.278 183.582 562.745 184 560.87 184H552.244ZM582.81 184L589.346 167.09H578.782V161.998H596.262V167.622L589.726 184H582.81ZM578.782 167.09V156.754H584.938V167.09H578.782ZM598.039 185.672L597.089 180.314L607.045 178.452C608.16 178.249 609.034 177.882 609.667 177.35C610.3 176.793 610.769 176.071 611.073 175.184C611.402 174.297 611.618 173.221 611.719 171.954C611.82 170.687 611.858 169.231 611.833 167.584C611.833 165.912 611.833 164.05 611.833 161.998H618.673C618.673 164.303 618.635 166.469 618.559 168.496C618.483 170.497 618.268 172.347 617.913 174.044C617.584 175.716 617.014 177.211 616.203 178.528C615.418 179.845 614.29 180.96 612.821 181.872C611.377 182.784 609.49 183.468 607.159 183.924L598.039 185.672ZM602.903 179.972L598.685 161.998H605.601L609.477 179.972H602.903ZM636.715 184V171.536C636.715 170.497 636.816 169.598 637.019 168.838C637.221 168.078 637.487 167.495 637.817 167.09H628.583V161.998H647.241V167.09H644.239C643.985 167.723 643.821 168.458 643.745 169.294C643.669 170.105 643.631 170.852 643.631 171.536V184H636.715ZM649.897 184V178.908H658.409C659.042 178.908 659.587 178.794 660.043 178.566C660.499 178.313 660.866 177.983 661.145 177.578C661.449 177.147 661.664 176.679 661.791 176.172C661.943 175.64 662.019 175.095 662.019 174.538V171.46C662.019 170.725 661.892 170.029 661.639 169.37C661.386 168.686 660.993 168.141 660.461 167.736C659.929 167.305 659.245 167.09 658.409 167.09H656.357L655.825 169.75C655.724 170.383 655.825 170.865 656.129 171.194C656.433 171.523 657.016 171.789 657.877 171.992L656.889 176.172C654.837 176.197 653.266 175.881 652.177 175.222C651.088 174.563 650.366 173.702 650.011 172.638C649.682 171.549 649.618 170.371 649.821 169.104L651.379 161.998H660.119C661.994 161.998 663.577 162.429 664.869 163.29C666.186 164.126 667.187 165.291 667.871 166.786C668.58 168.255 668.935 169.94 668.935 171.84V174.158C668.935 175.577 668.732 176.894 668.327 178.11C667.947 179.301 667.377 180.339 666.617 181.226C665.857 182.113 664.932 182.797 663.843 183.278C662.754 183.759 661.512 184 660.119 184H649.897ZM680.236 184.038L679.704 178.946C680.515 178.895 681.199 178.743 681.756 178.49C682.314 178.237 682.77 177.869 683.124 177.388C683.479 176.907 683.745 176.299 683.922 175.564C684.1 174.804 684.226 173.917 684.302 172.904L684.682 167.09H671.724V161.998H692.13L691.902 166.33L691.598 171.004C691.522 172.625 691.294 174.209 690.914 175.754C690.56 177.299 689.977 178.705 689.166 179.972C688.356 181.213 687.228 182.201 685.784 182.936C684.34 183.671 682.491 184.038 680.236 184.038ZM671.23 191.6V173.512L672.18 170.89H678.146V173.474V191.6H671.23ZM707.303 184V168.8C707.303 168.217 707.164 167.787 706.885 167.508C706.606 167.229 706.176 167.09 705.593 167.09H695.105V161.998H707.569C708.836 161.998 709.963 162.239 710.951 162.72C711.964 163.201 712.762 163.974 713.345 165.038C713.928 166.077 714.219 167.457 714.219 169.18V184H707.303ZM694.801 184V173.55L695.751 171.004H701.717V173.55V184H694.801Z" fill="#FEFEFE"/>
<path d="M59.4142 211.586C58.6332 212.367 57.3668 212.367 56.5858 211.586L50 205H66L59.4142 211.586Z" fill="#CC3132"/>
</g>
<defs>
<filter id="filter0_d_568_1082" x="0" y="0" width="762" height="243" filterUnits="userSpaceOnUse" color-interpolation-filters="sRGB">
<feFlood flood-opacity="0" result="BackgroundImageFix"/>
<feColorMatrix in="SourceAlpha" type="matrix" values="0 0 0 0 0 0 0 0 0 0 0 0 0 0 0 0 0 0 127 0" result="hardAlpha"/>
<feOffset/>
<feGaussianBlur stdDeviation="15"/>
<feComposite in2="hardAlpha" operator="out"/>
<feColorMatrix type="matrix" values="0 0 0 0 0.00416667 0 0 0 0 0.00416667 0 0 0 0 0.00416667 0 0 0 0.2 0"/>
<feBlend mode="normal" in2="BackgroundImageFix" result="effect1_dropShadow_568_1082"/>
<feBlend mode="normal" in="SourceGraphic" in2="effect1_dropShadow_568_1082" result="shape"/>
</filter>
</defs>
</svg>
