<svg width="791" height="243" viewBox="0 0 791 243" fill="none" xmlns="http://www.w3.org/2000/svg">
<g filter="url(#filter0_d_569_3246)">
<rect x="30" y="30" width="731" height="175" rx="8" fill="#073799"/>
<path d="M60.3663 78.038L59.8343 72.946C60.6449 72.8953 61.3289 72.7433 61.8863 72.49C62.4436 72.2367 62.8996 71.8693 63.2543 71.388C63.6089 70.9067 63.8749 70.2987 64.0523 69.564C64.2296 68.804 64.3563 67.9173 64.4323 66.904L64.8123 61.09H51.8543V55.998H72.2603L72.0323 60.33L71.7283 65.004C71.6523 66.6253 71.4243 68.2087 71.0443 69.754C70.6896 71.2993 70.1069 72.7053 69.2963 73.972C68.4856 75.2133 67.3583 76.2013 65.9143 76.936C64.4703 77.6707 62.6209 78.038 60.3663 78.038ZM51.3603 85.6V67.512L52.3103 64.89H58.2763V67.474V85.6H51.3603ZM88.117 78V62.8C88.117 61.66 87.547 61.09 86.407 61.09H75.159V55.998H88.383C89.6496 55.998 90.777 56.2387 91.765 56.72C92.7783 57.2013 93.5763 57.974 94.159 59.038C94.7416 60.0767 95.033 61.4573 95.033 63.18V78H88.117ZM75.159 78V59.266H82.075V78H75.159ZM106.9 78V62.8C106.9 62.2173 106.76 61.7867 106.482 61.508C106.203 61.2293 105.772 61.09 105.19 61.09H97.3996V55.998H107.166C108.432 55.998 109.56 56.2387 110.548 56.72C111.561 57.2013 112.359 57.974 112.942 59.038C113.524 60.0767 113.816 61.4573 113.816 63.18V78H106.9ZM126.054 78.038L126.662 72.946C128.436 73.326 129.766 73.326 130.652 72.946C131.539 72.5407 132.134 71.8313 132.438 70.818C132.768 69.8047 132.932 68.576 132.932 67.132C132.932 65.7133 132.806 64.548 132.552 63.636C132.324 62.724 131.944 62.0527 131.412 61.622C130.906 61.166 130.222 60.938 129.36 60.938C128.854 60.938 128.36 61.0393 127.878 61.242C127.422 61.4447 127.03 61.7613 126.7 62.192C126.371 62.5973 126.168 63.142 126.092 63.826L124.648 61.09C125.155 59.1393 125.966 57.7333 127.08 56.872C128.22 55.9853 129.487 55.542 130.88 55.542C132.35 55.542 133.616 55.7953 134.68 56.302C135.77 56.8087 136.669 57.556 137.378 58.544C138.088 59.532 138.607 60.748 138.936 62.192C139.291 63.636 139.468 65.2827 139.468 67.132C139.468 69.8427 138.936 72.1353 137.872 74.01C136.834 75.8847 135.314 77.202 133.312 77.962C131.311 78.6967 128.892 78.722 126.054 78.038ZM117.01 78L119.556 63.446L116.478 55.998H123.66L126.092 63.826L123.926 78H117.01ZM145.666 78L152.202 61.09H141.638V55.998H159.118V61.622L152.582 78H145.666ZM141.638 61.09V50.754H147.794V61.09H141.638ZM181.765 78V62.8C181.765 62.2173 181.626 61.7867 181.347 61.508C181.068 61.2293 180.638 61.09 180.055 61.09H169.567V55.998H182.031C183.298 55.998 184.425 56.2387 185.413 56.72C186.426 57.2013 187.224 57.974 187.807 59.038C188.39 60.0767 188.681 61.4573 188.681 63.18V78H181.765ZM169.263 78V67.55L170.213 65.004H176.179V67.55V78H169.263ZM194.985 78L201.521 61.09H190.957V55.998H208.437V61.622L201.901 78H194.985ZM190.957 61.09V50.754H197.113V61.09H190.957ZM220.056 78V62.8C220.056 62.2173 219.917 61.7867 219.638 61.508C219.359 61.2293 218.929 61.09 218.346 61.09H210.518V55.998H220.322C221.589 55.998 222.716 56.2387 223.704 56.72C224.717 57.2013 225.515 57.974 226.098 59.038C226.681 60.0767 226.972 61.4573 226.972 63.18V78H220.056ZM210.518 78V72.908H229.404V78H210.518ZM239.579 78L238.059 68.994V62.838C238.059 62.0273 237.919 61.508 237.641 61.28C237.362 61.0267 236.969 60.8747 236.463 60.824L234.107 60.52L234.943 55.504L240.149 56.15C241.719 56.3273 242.91 56.91 243.721 57.898C244.557 58.8607 244.975 60.2287 244.975 62.002V69.146L246.115 78H239.579ZM233.309 78.798L230.801 73.402C232.751 72.8193 234.322 72.11 235.513 71.274C236.729 70.4127 237.603 69.4753 238.135 68.462L240.415 71.882C239.933 72.9207 239.401 73.8833 238.819 74.77C238.261 75.6567 237.539 76.442 236.653 77.126C235.791 77.7847 234.677 78.342 233.309 78.798ZM261.624 78V62.8C261.624 62.2173 261.485 61.7867 261.206 61.508C260.928 61.2293 260.497 61.09 259.914 61.09H249.426V55.998H261.89C263.157 55.998 264.284 56.2387 265.272 56.72C266.286 57.2013 267.084 57.974 267.666 59.038C268.249 60.0767 268.54 61.4573 268.54 63.18V78H261.624ZM249.122 78V67.55L250.072 65.004H256.038V67.55V78H249.122ZM279.412 85.6V60.444L278.994 55.998H285.872L286.328 60.444V85.6H279.412ZM289.988 70.02V66.486V60.444L289.57 55.998H296.448L296.904 60.444V66.486L296.866 68.88L289.988 70.02ZM322.338 78H315.042L308.734 68.006L305.732 78H299.196L303.452 64.966L304.668 61.85L301.134 55.998H308.05L310.9 60.71L313.142 64.206L314.244 60.558L315.346 55.998H321.882L317.17 70.172L322.338 78ZM335.889 78L342.425 61.09H331.861V55.998H349.341V61.622L342.805 78H335.889ZM331.861 61.09V50.754H338.017V61.09H331.861ZM352.22 78V60.444L351.802 55.998H358.68L359.136 60.444V78H352.22ZM365.152 78.38L362.188 55.998H368.724L370.7 72.756C372.55 72.6293 374.057 72.3 375.222 71.768C376.413 71.2107 377.325 70.5013 377.958 69.64C378.592 68.7787 379.022 67.8033 379.25 66.714C379.504 65.5993 379.63 64.434 379.63 63.218L379.554 55.998H386.47L386.508 62.838C386.534 66.2833 385.812 69.1967 384.342 71.578C382.898 73.9593 380.606 75.7327 377.464 76.898C374.323 78.0633 370.219 78.5573 365.152 78.38ZM369.408 69.488L367.774 65.27C368.838 65.1433 369.611 64.8393 370.092 64.358C370.574 63.8767 370.878 63.1673 371.004 62.23C371.131 61.2927 371.182 60.0893 371.156 58.62L371.118 55.998H377.654V58.468C377.654 60.216 377.426 61.8247 376.97 63.294C376.54 64.7633 375.729 66.03 374.538 67.094C373.348 68.1327 371.638 68.9307 369.408 69.488ZM388.411 78V72.908H395.061C395.897 72.908 396.556 72.7053 397.037 72.3C397.519 71.8693 397.848 71.3247 398.025 70.666C398.228 69.982 398.329 69.2727 398.329 68.538V65.46C398.329 64.7253 398.228 64.0287 398.025 63.37C397.848 62.686 397.519 62.1413 397.037 61.736C396.556 61.3053 395.897 61.09 395.061 61.09H388.411V55.998H397.037C398.912 55.998 400.445 56.4287 401.635 57.29C402.851 58.126 403.751 59.2913 404.333 60.786C404.941 62.2553 405.245 63.94 405.245 65.84V68.158C405.245 70.058 404.941 71.7553 404.333 73.25C403.751 74.7193 402.851 75.8847 401.635 76.746C400.445 77.582 398.912 78 397.037 78H388.411ZM416.918 78.038L417.526 72.946C419.299 73.326 420.629 73.326 421.516 72.946C422.402 72.5407 422.998 71.8313 423.302 70.818C423.631 69.8047 423.796 68.576 423.796 67.132C423.796 65.7133 423.669 64.548 423.416 63.636C423.188 62.724 422.808 62.0527 422.276 61.622C421.769 61.166 421.085 60.938 420.224 60.938C419.717 60.938 419.223 61.0393 418.742 61.242C418.286 61.4447 417.893 61.7613 417.564 62.192C417.234 62.5973 417.032 63.142 416.956 63.826L415.512 61.09C416.018 59.1393 416.829 57.7333 417.944 56.872C419.084 55.9853 420.35 55.542 421.744 55.542C423.213 55.542 424.48 55.7953 425.544 56.302C426.633 56.8087 427.532 57.556 428.242 58.544C428.951 59.532 429.47 60.748 429.8 62.192C430.154 63.636 430.332 65.2827 430.332 67.132C430.332 69.8427 429.8 72.1353 428.736 74.01C427.697 75.8847 426.177 77.202 424.176 77.962C422.174 78.6967 419.755 78.722 416.918 78.038ZM407.874 78L410.42 63.446L407.342 55.998H414.524L416.956 63.826L414.79 78H407.874ZM462.871 78H455.575L449.267 68.006L446.265 78H439.729L443.985 64.966L445.201 61.85L441.667 55.998H448.583L451.433 60.71L453.675 64.206L454.777 60.558L455.879 55.998H462.415L457.703 70.172L462.871 78ZM468.815 78L475.351 61.09H464.787V55.998H482.267V61.622L475.731 78H468.815ZM464.787 61.09V50.754H470.943V61.09H464.787ZM488.186 78L494.722 61.09H484.158V55.998H501.638V61.622L495.102 78H488.186ZM484.158 61.09V50.754H490.314V61.09H484.158ZM511.327 78.722L510.757 74.086C511.719 73.9593 512.416 73.782 512.847 73.554C513.277 73.326 513.556 72.984 513.683 72.528C513.809 72.072 513.873 71.4387 513.873 70.628V55.998H526.565C527.831 55.998 528.959 56.2387 529.947 56.72C530.96 57.2013 531.758 57.974 532.341 59.038C532.923 60.0767 533.215 61.4573 533.215 63.18V78H526.299V62.8C526.299 62.2173 526.159 61.7867 525.881 61.508C525.602 61.2293 525.171 61.09 524.589 61.09H520.789V69.716C520.789 71.8947 520.447 73.6047 519.763 74.846C519.104 76.0873 518.078 76.9993 516.685 77.582C515.291 78.1393 513.505 78.5193 511.327 78.722ZM548.162 78L536.078 55.998H542.994L555.078 78H548.162ZM535.888 78V72.908H551.506L553.482 78H535.888ZM550.214 69.64L546.262 63.826L549.34 55.998H556.142L550.214 69.64ZM562.071 78L568.607 61.09H558.043V55.998H575.523V61.622L568.987 78H562.071ZM558.043 61.09V50.754H564.199V61.09H558.043ZM578.402 78V60.444L577.984 55.998H584.862L585.318 60.444V78H578.402ZM610.752 78H603.456L597.148 68.006L594.146 78H587.61L591.866 64.966L593.082 61.85L589.548 55.998H596.464L599.314 60.71L601.556 64.206L602.658 60.558L603.76 55.998H610.296L605.584 70.172L610.752 78ZM622.244 78.038L622.852 72.946C624.625 73.326 625.955 73.326 626.842 72.946C627.728 72.5407 628.324 71.8313 628.628 70.818C628.957 69.8047 629.122 68.576 629.122 67.132C629.122 65.7133 628.995 64.548 628.742 63.636C628.514 62.724 628.134 62.0527 627.602 61.622C627.095 61.166 626.411 60.938 625.55 60.938C625.043 60.938 624.549 61.0393 624.068 61.242C623.612 61.4447 623.219 61.7613 622.89 62.192C622.56 62.5973 622.358 63.142 622.282 63.826L620.838 61.09C621.344 59.1393 622.155 57.7333 623.27 56.872C624.41 55.9853 625.676 55.542 627.07 55.542C628.539 55.542 629.806 55.7953 630.87 56.302C631.959 56.8087 632.858 57.556 633.568 58.544C634.277 59.532 634.796 60.748 635.126 62.192C635.48 63.636 635.658 65.2827 635.658 67.132C635.658 69.8427 635.126 72.1353 634.062 74.01C633.023 75.8847 631.503 77.202 629.502 77.962C627.5 78.6967 625.081 78.722 622.244 78.038ZM613.2 78L615.746 63.446L612.668 55.998H619.85L622.282 63.826L620.116 78H613.2ZM658.583 78V62.8C658.583 62.2173 658.444 61.7867 658.165 61.508C657.887 61.2293 657.456 61.09 656.873 61.09H646.385V55.998H658.849C660.116 55.998 661.243 56.2387 662.231 56.72C663.245 57.2013 664.043 57.974 664.625 59.038C665.208 60.0767 665.499 61.4573 665.499 63.18V78H658.583ZM646.081 78V67.55L647.031 65.004H652.997V67.55V78H646.081ZM675.907 78V65.536C675.907 64.4973 676.009 63.598 676.211 62.838C676.414 62.078 676.68 61.4953 677.009 61.09H667.775V55.998H686.433V61.09H683.431C683.178 61.7233 683.013 62.458 682.937 63.294C682.861 64.1047 682.823 64.852 682.823 65.536V78H675.907ZM689.507 70.02V66.486V60.444L689.089 55.998H695.967L696.423 60.444V66.486L696.385 68.88L689.507 70.02ZM708.406 78V62.8C708.406 62.2173 708.266 61.7867 707.988 61.508C707.709 61.2293 707.278 61.09 706.696 61.09H698.906V55.998H708.672C709.938 55.998 711.066 56.2387 712.054 56.72C713.067 57.2013 713.865 57.974 714.448 59.038C715.03 60.0767 715.322 61.4573 715.322 63.18V78H708.406ZM718.972 70.02V66.486V60.444L718.554 55.998H725.432L725.888 60.444V66.486L725.85 68.88L718.972 70.02ZM738.288 78V62.8C738.288 62.2173 738.149 61.7867 737.87 61.508C737.592 61.2293 737.161 61.09 736.578 61.09H728.75V55.998H738.554C739.821 55.998 740.948 56.2387 741.936 56.72C742.95 57.2013 743.748 57.974 744.33 59.038C744.913 60.0767 745.204 61.4573 745.204 63.18V78H738.288ZM728.75 78V72.908H747.636V78H728.75ZM103.91 131V115.8C103.91 115.217 103.77 114.787 103.492 114.508C103.213 114.229 102.782 114.09 102.2 114.09H91.7115V108.998H104.176C105.442 108.998 106.57 109.239 107.558 109.72C108.571 110.201 109.369 110.974 109.952 112.038C110.534 113.077 110.826 114.457 110.826 116.18V131H103.91ZM91.4075 131V120.55L92.3575 118.004H98.3235V120.55V131H91.4075ZM116.027 131.38L113.481 108.998H120.397L122.069 125.3C123.488 125.173 124.59 124.907 125.375 124.502C126.186 124.097 126.781 123.603 127.161 123.02C127.541 122.412 127.782 121.753 127.883 121.044C127.985 120.309 128.035 119.549 128.035 118.764V117.434C128.035 116.902 127.934 116.383 127.731 115.876C127.529 115.344 127.199 114.888 126.743 114.508C126.287 114.128 125.692 113.913 124.957 113.862L123.095 113.748L123.627 108.504L126.097 108.618C127.592 108.669 128.985 108.998 130.277 109.606C131.569 110.214 132.621 111.113 133.431 112.304C134.267 113.469 134.711 114.951 134.761 116.75L134.799 117.814C134.875 120.119 134.508 122.108 133.697 123.78C132.912 125.452 131.709 126.833 130.087 127.922C128.466 128.986 126.465 129.797 124.083 130.354C121.727 130.911 119.042 131.253 116.027 131.38ZM137.357 123.02V119.486V113.444L136.939 108.998H143.817L144.273 113.444V119.486L144.235 121.88L137.357 123.02ZM150.973 131L157.509 114.09H146.945V108.998H164.425V114.622L157.889 131H150.973ZM146.945 114.09V103.754H153.101V114.09H146.945ZM169.66 131.38L166.696 108.998H173.232L175.208 125.756C177.058 125.629 178.565 125.3 179.73 124.768C180.921 124.211 181.833 123.501 182.466 122.64C183.1 121.779 183.53 120.803 183.758 119.714C184.012 118.599 184.138 117.434 184.138 116.218L184.062 108.998H190.978L191.016 115.838C191.042 119.283 190.32 122.197 188.85 124.578C187.406 126.959 185.114 128.733 181.972 129.898C178.831 131.063 174.727 131.557 169.66 131.38ZM173.916 122.488L172.282 118.27C173.346 118.143 174.119 117.839 174.6 117.358C175.082 116.877 175.386 116.167 175.512 115.23C175.639 114.293 175.69 113.089 175.664 111.62L175.626 108.998H182.162V111.468C182.162 113.216 181.934 114.825 181.478 116.294C181.048 117.763 180.237 119.03 179.046 120.094C177.856 121.133 176.146 121.931 173.916 122.488ZM197.137 131L203.673 114.09H193.109V108.998H210.589V114.622L204.053 131H197.137ZM193.109 114.09V103.754H199.265V114.09H193.109ZM228.22 131V118.536C228.22 117.497 228.321 116.598 228.524 115.838C228.726 115.078 228.992 114.495 229.322 114.09H220.088V108.998H238.746V114.09H235.744C235.49 114.723 235.326 115.458 235.25 116.294C235.174 117.105 235.136 117.852 235.136 118.536V131H228.22ZM240.718 132.672L239.768 127.314L249.724 125.452C250.839 125.249 251.713 124.882 252.346 124.35C252.979 123.793 253.448 123.071 253.752 122.184C254.081 121.297 254.297 120.221 254.398 118.954C254.499 117.687 254.537 116.231 254.512 114.584C254.512 112.912 254.512 111.05 254.512 108.998H261.352C261.352 111.303 261.314 113.469 261.238 115.496C261.162 117.497 260.947 119.347 260.592 121.044C260.263 122.716 259.693 124.211 258.882 125.528C258.097 126.845 256.969 127.96 255.5 128.872C254.056 129.784 252.169 130.468 249.838 130.924L240.718 132.672ZM245.582 126.972L241.364 108.998H248.28L252.156 126.972H245.582ZM275.29 131L281.826 114.09H271.262V108.998H288.742V114.622L282.206 131H275.29ZM271.262 114.09V103.754H277.418V114.09H271.262ZM291.621 131V113.444L291.203 108.998H298.081L298.537 113.444V131H291.621ZM304.553 131.38L301.589 108.998H308.125L310.101 125.756C311.95 125.629 313.457 125.3 314.623 124.768C315.813 124.211 316.725 123.501 317.359 122.64C317.992 121.779 318.423 120.803 318.651 119.714C318.904 118.599 319.031 117.434 319.031 116.218L318.955 108.998H325.871L325.909 115.838C325.934 119.283 325.212 122.197 323.743 124.578C322.299 126.959 320.006 128.733 316.865 129.898C313.723 131.063 309.619 131.557 304.553 131.38ZM308.809 122.488L307.175 118.27C308.239 118.143 309.011 117.839 309.493 117.358C309.974 116.877 310.278 116.167 310.405 115.23C310.531 114.293 310.582 113.089 310.557 111.62L310.519 108.998H317.055V111.468C317.055 113.216 316.827 114.825 316.371 116.294C315.94 117.763 315.129 119.03 313.939 120.094C312.748 121.133 311.038 121.931 308.809 122.488ZM337.73 131V115.8C337.73 115.217 337.59 114.787 337.312 114.508C337.033 114.229 336.602 114.09 336.02 114.09H328.192V108.998H337.996C339.262 108.998 340.39 109.239 341.378 109.72C342.391 110.201 343.189 110.974 343.772 112.038C344.354 113.077 344.646 114.457 344.646 116.18V131H337.73ZM328.192 131V125.908H347.078V131H328.192ZM356.462 132.672L355.512 127.314L365.468 125.452C366.583 125.249 367.457 124.882 368.09 124.35C368.723 123.793 369.192 123.071 369.496 122.184C369.825 121.297 370.041 120.221 370.142 118.954C370.243 117.687 370.281 116.231 370.256 114.584C370.256 112.912 370.256 111.05 370.256 108.998H377.096C377.096 111.303 377.058 113.469 376.982 115.496C376.906 117.497 376.691 119.347 376.336 121.044C376.007 122.716 375.437 124.211 374.626 125.528C373.841 126.845 372.713 127.96 371.244 128.872C369.8 129.784 367.913 130.468 365.582 130.924L356.462 132.672ZM361.326 126.972L357.108 108.998H364.024L367.9 126.972H361.326ZM382.4 131.38L380.424 114.09L386.998 111.126L388.442 125.3C389.557 125.224 390.456 125.059 391.14 124.806C391.85 124.553 392.382 124.223 392.736 123.818C393.116 123.387 393.37 122.893 393.496 122.336C393.648 121.753 393.724 121.12 393.724 120.436C393.75 119.727 393.75 118.967 393.724 118.156V116.902C393.724 116.269 393.623 115.749 393.42 115.344C393.243 114.939 393.002 114.635 392.698 114.432C392.394 114.204 392.04 114.09 391.634 114.09H380.424L379.778 108.998H392.128C394.788 108.998 396.828 109.707 398.246 111.126C399.69 112.545 400.45 114.495 400.526 116.978L400.564 118.308C400.64 120.664 400.286 122.653 399.5 124.274C398.715 125.895 397.537 127.213 395.966 128.226C394.396 129.239 392.47 129.999 390.19 130.506C387.91 131.013 385.314 131.304 382.4 131.38ZM404.21 123.02V119.486V113.444L403.792 108.998H410.67L411.126 113.444V119.486L411.088 121.88L404.21 123.02ZM414.103 131V125.908H419.081V115.876C419.081 115.065 418.941 114.546 418.663 114.318C418.384 114.065 417.991 113.913 417.485 113.862L414.749 113.52L415.585 108.504L421.171 109.188C422.741 109.365 423.932 110.049 424.743 111.24C425.579 112.431 425.997 113.913 425.997 115.686V131H414.103ZM438.228 138.752L436.936 135.332C438.482 134.825 439.634 134.141 440.394 133.28C441.18 132.444 441.56 131.557 441.534 130.62V126.516L443.472 129.974C443.168 130.202 442.826 130.379 442.446 130.506C442.092 130.633 441.699 130.696 441.268 130.696C440.28 130.696 439.394 130.392 438.608 129.784C437.848 129.151 437.468 128.264 437.468 127.124C437.468 126.06 437.848 125.199 438.608 124.54C439.394 123.881 440.331 123.552 441.42 123.552C442.839 123.552 443.916 124.071 444.65 125.11C445.385 126.149 445.752 127.605 445.752 129.48C445.752 131.709 445.119 133.635 443.852 135.256C442.586 136.903 440.711 138.068 438.228 138.752ZM458.038 131V115.8C458.038 115.217 457.899 114.787 457.62 114.508C457.342 114.229 456.911 114.09 456.328 114.09H448.5V108.998H458.304C459.571 108.998 460.698 109.239 461.686 109.72C462.7 110.201 463.498 110.974 464.08 112.038C464.663 113.077 464.954 114.457 464.954 116.18V131H458.038ZM448.5 131V125.908H467.386V131H448.5ZM469.087 131V125.908H475.737C476.573 125.908 477.232 125.705 477.713 125.3C478.194 124.869 478.524 124.325 478.701 123.666C478.904 122.982 479.005 122.273 479.005 121.538V118.46C479.005 117.725 478.904 117.029 478.701 116.37C478.524 115.686 478.194 115.141 477.713 114.736C477.232 114.305 476.573 114.09 475.737 114.09H469.087V108.998H477.713C479.588 108.998 481.12 109.429 482.311 110.29C483.527 111.126 484.426 112.291 485.009 113.786C485.617 115.255 485.921 116.94 485.921 118.84V121.158C485.921 123.058 485.617 124.755 485.009 126.25C484.426 127.719 483.527 128.885 482.311 129.746C481.12 130.582 479.588 131 477.713 131H469.087ZM497.327 131V115.8C497.327 115.217 497.188 114.787 496.909 114.508C496.631 114.229 496.2 114.09 495.617 114.09H487.827V108.998H497.593C498.86 108.998 499.987 109.239 500.975 109.72C501.989 110.201 502.787 110.974 503.369 112.038C503.952 113.077 504.243 114.457 504.243 116.18V131H497.327ZM520.054 131V115.8C520.054 115.217 519.915 114.787 519.636 114.508C519.357 114.229 518.927 114.09 518.344 114.09H507.856V108.998H520.32C521.587 108.998 522.714 109.239 523.702 109.72C524.715 110.201 525.513 110.974 526.096 112.038C526.679 113.077 526.97 114.457 526.97 116.18V131H520.054ZM507.552 131V120.55L508.502 118.004H514.468V120.55V131H507.552ZM540.881 131L547.417 114.09H536.853V108.998H554.333V114.622L547.797 131H540.881ZM536.853 114.09V103.754H543.009V114.09H536.853ZM559.568 131.38L556.604 108.998H563.14L565.116 125.756C566.966 125.629 568.473 125.3 569.638 124.768C570.829 124.211 571.741 123.501 572.374 122.64C573.008 121.779 573.438 120.803 573.666 119.714C573.92 118.599 574.046 117.434 574.046 116.218L573.97 108.998H580.886L580.924 115.838C580.95 119.283 580.228 122.197 578.758 124.578C577.314 126.959 575.022 128.733 571.88 129.898C568.739 131.063 564.635 131.557 559.568 131.38ZM563.824 122.488L562.19 118.27C563.254 118.143 564.027 117.839 564.508 117.358C564.99 116.877 565.294 116.167 565.42 115.23C565.547 114.293 565.598 113.089 565.572 111.62L565.534 108.998H572.07V111.468C572.07 113.216 571.842 114.825 571.386 116.294C570.956 117.763 570.145 119.03 568.954 120.094C567.764 121.133 566.054 121.931 563.824 122.488ZM603.773 131V115.8C603.773 115.217 603.633 114.787 603.355 114.508C603.076 114.229 602.645 114.09 602.063 114.09H591.575V108.998H604.039C605.305 108.998 606.433 109.239 607.421 109.72C608.434 110.201 609.232 110.974 609.815 112.038C610.397 113.077 610.689 114.457 610.689 116.18V131H603.773ZM591.271 131V120.55L592.221 118.004H598.187V120.55V131H591.271ZM622.275 131V115.8C622.275 115.217 622.135 114.787 621.857 114.508C621.578 114.229 621.147 114.09 620.565 114.09H612.775V108.998H622.541C623.807 108.998 624.935 109.239 625.923 109.72C626.936 110.201 627.734 110.974 628.317 112.038C628.899 113.077 629.191 114.457 629.191 116.18V131H622.275ZM632.841 123.02V119.486V113.444L632.423 108.998H639.301L639.757 113.444V119.486L639.719 121.88L632.841 123.02ZM654.703 131L642.619 108.998H649.535L661.619 131H654.703ZM642.429 131V125.908H658.047L660.023 131H642.429ZM656.755 122.64L652.803 116.826L655.881 108.998H662.683L656.755 122.64ZM664.47 132.672L663.52 127.314L673.476 125.452C674.59 125.249 675.464 124.882 676.098 124.35C676.731 123.793 677.2 123.071 677.504 122.184C677.833 121.297 678.048 120.221 678.15 118.954C678.251 117.687 678.289 116.231 678.264 114.584C678.264 112.912 678.264 111.05 678.264 108.998H685.104C685.104 111.303 685.066 113.469 684.99 115.496C684.914 117.497 684.698 119.347 684.344 121.044C684.014 122.716 683.444 124.211 682.634 125.528C681.848 126.845 680.721 127.96 679.252 128.872C677.808 129.784 675.92 130.468 673.59 130.924L664.47 132.672ZM669.334 126.972L665.116 108.998H672.032L675.908 126.972H669.334ZM700.554 131V115.8C700.554 115.217 700.415 114.787 700.136 114.508C699.857 114.229 699.427 114.09 698.844 114.09H688.356V108.998H700.82C702.087 108.998 703.214 109.239 704.202 109.72C705.215 110.201 706.013 110.974 706.596 112.038C707.179 113.077 707.47 114.457 707.47 116.18V131H700.554ZM688.052 131V120.55L689.002 118.004H694.968V120.55V131H688.052ZM70.0413 184V168.8C70.0413 168.217 69.9019 167.787 69.6233 167.508C69.3446 167.229 68.9139 167.09 68.3313 167.09H60.5033V161.998H70.3073C71.5739 161.998 72.7013 162.239 73.6893 162.72C74.7026 163.201 75.5006 163.974 76.0833 165.038C76.6659 166.077 76.9573 167.457 76.9573 169.18V184H70.0413ZM60.5033 184V178.908H79.3893V184H60.5033ZM81.0901 184V178.908H87.7401C88.5761 178.908 89.2347 178.705 89.7161 178.3C90.1974 177.869 90.5267 177.325 90.7041 176.666C90.9067 175.982 91.0081 175.273 91.0081 174.538V171.46C91.0081 170.725 90.9067 170.029 90.7041 169.37C90.5267 168.686 90.1974 168.141 89.7161 167.736C89.2347 167.305 88.5761 167.09 87.7401 167.09H81.0901V161.998H89.7161C91.5907 161.998 93.1234 162.429 94.3141 163.29C95.5301 164.126 96.4294 165.291 97.0121 166.786C97.6201 168.255 97.9241 169.94 97.9241 171.84V174.158C97.9241 176.058 97.6201 177.755 97.0121 179.25C96.4294 180.719 95.5301 181.885 94.3141 182.746C93.1234 183.582 91.5907 184 89.7161 184H81.0901ZM109.33 184V168.8C109.33 168.217 109.191 167.787 108.912 167.508C108.634 167.229 108.203 167.09 107.62 167.09H99.8303V161.998H109.596C110.863 161.998 111.99 162.239 112.978 162.72C113.992 163.201 114.79 163.974 115.372 165.038C115.955 166.077 116.246 167.457 116.246 169.18V184H109.33ZM132.057 184V168.8C132.057 168.217 131.918 167.787 131.639 167.508C131.36 167.229 130.93 167.09 130.347 167.09H119.859V161.998H132.323C133.59 161.998 134.717 162.239 135.705 162.72C136.718 163.201 137.516 163.974 138.099 165.038C138.682 166.077 138.973 167.457 138.973 169.18V184H132.057ZM119.555 184V173.55L120.505 171.004H126.471V173.55V184H119.555ZM149.046 184.722L148.476 180.086C149.439 179.959 150.136 179.782 150.566 179.554C150.997 179.326 151.276 178.984 151.402 178.528C151.529 178.072 151.592 177.439 151.592 176.628V161.998H164.284C165.551 161.998 166.678 162.239 167.666 162.72C168.68 163.201 169.478 163.974 170.06 165.038C170.643 166.077 170.934 167.457 170.934 169.18V184H164.018V168.8C164.018 168.217 163.879 167.787 163.6 167.508C163.322 167.229 162.891 167.09 162.308 167.09H158.508V175.716C158.508 177.895 158.166 179.605 157.482 180.846C156.824 182.087 155.798 182.999 154.404 183.582C153.011 184.139 151.225 184.519 149.046 184.722ZM196.37 184H189.074L182.766 174.006L179.764 184H173.228L177.484 170.966L178.7 167.85L175.166 161.998H182.082L184.932 166.71L187.174 170.206L188.276 166.558L189.378 161.998H195.914L191.202 176.172L196.37 184ZM215.203 184V168.8C215.203 168.217 215.064 167.787 214.785 167.508C214.507 167.229 214.076 167.09 213.493 167.09H205.703V161.998H215.469C216.736 161.998 217.863 162.239 218.851 162.72C219.865 163.201 220.663 163.974 221.245 165.038C221.828 166.077 222.119 167.457 222.119 169.18V184H215.203ZM225.77 184V166.444L225.352 161.998H232.23L232.686 166.444V184H225.77ZM247.632 184L235.548 161.998H242.464L254.548 184H247.632ZM235.358 184V178.908H250.976L252.952 184H235.358ZM249.684 175.64L245.732 169.826L248.81 161.998H255.612L249.684 175.64ZM257.399 185.672L256.448 180.314L266.405 178.452C267.519 178.249 268.393 177.882 269.027 177.35C269.66 176.793 270.129 176.071 270.433 175.184C270.762 174.297 270.977 173.221 271.079 171.954C271.18 170.687 271.218 169.231 271.193 167.584C271.193 165.912 271.193 164.05 271.193 161.998H278.032C278.032 164.303 277.995 166.469 277.919 168.496C277.843 170.497 277.627 172.347 277.273 174.044C276.943 175.716 276.373 177.211 275.562 178.528C274.777 179.845 273.65 180.96 272.181 181.872C270.737 182.784 268.849 183.468 266.519 183.924L257.399 185.672ZM262.263 179.972L258.045 161.998H264.961L268.837 179.972H262.263ZM280.639 184V178.908H285.617V168.876C285.617 168.065 285.477 167.546 285.199 167.318C284.92 167.065 284.527 166.913 284.021 166.862L281.285 166.52L282.121 161.504L287.707 162.188C289.277 162.365 290.468 163.049 291.279 164.24C292.115 165.431 292.533 166.913 292.533 168.686V184H280.639ZM303.663 191.6V166.444L303.245 161.998H310.123L310.579 166.444V191.6H303.663ZM313.061 184V178.908H319.711C320.547 178.908 321.205 178.705 321.687 178.3C322.168 177.869 322.497 177.325 322.675 176.666C322.877 175.982 322.979 175.273 322.979 174.538V171.46C322.979 170.725 322.877 170.029 322.675 169.37C322.497 168.686 322.168 168.141 321.687 167.736C321.205 167.305 320.547 167.09 319.711 167.09H313.061V161.998H321.687C323.561 161.998 325.094 162.429 326.285 163.29C327.501 164.126 328.4 165.291 328.983 166.786C329.591 168.255 329.895 169.94 329.895 171.84V174.158C329.895 176.058 329.591 177.755 328.983 179.25C328.4 180.719 327.501 181.885 326.285 182.746C325.094 183.582 323.561 184 321.687 184H313.061ZM341.567 184.038L342.175 178.946C343.948 179.326 345.278 179.326 346.165 178.946C347.052 178.541 347.647 177.831 347.951 176.818C348.28 175.805 348.445 174.576 348.445 173.132C348.445 171.713 348.318 170.548 348.065 169.636C347.837 168.724 347.457 168.053 346.925 167.622C346.418 167.166 345.734 166.938 344.873 166.938C344.366 166.938 343.872 167.039 343.391 167.242C342.935 167.445 342.542 167.761 342.213 168.192C341.884 168.597 341.681 169.142 341.605 169.826L340.161 167.09C340.668 165.139 341.478 163.733 342.593 162.872C343.733 161.985 345 161.542 346.393 161.542C347.862 161.542 349.129 161.795 350.193 162.302C351.282 162.809 352.182 163.556 352.891 164.544C353.6 165.532 354.12 166.748 354.449 168.192C354.804 169.636 354.981 171.283 354.981 173.132C354.981 175.843 354.449 178.135 353.385 180.01C352.346 181.885 350.826 183.202 348.825 183.962C346.824 184.697 344.404 184.722 341.567 184.038ZM332.523 184L335.069 169.446L331.991 161.998H339.173L341.605 169.826L339.439 184H332.523ZM374.069 184V168.8C374.069 168.217 373.929 167.787 373.651 167.508C373.372 167.229 372.941 167.09 372.359 167.09H364.569V161.998H374.335C375.601 161.998 376.729 162.239 377.717 162.72C378.73 163.201 379.528 163.974 380.111 165.038C380.693 166.077 380.985 167.457 380.985 169.18V184H374.069ZM397.479 184V168.8C397.479 167.66 396.909 167.09 395.769 167.09H384.521V161.998H397.745C399.012 161.998 400.139 162.239 401.127 162.72C402.141 163.201 402.939 163.974 403.521 165.038C404.104 166.077 404.395 167.457 404.395 169.18V184H397.479ZM384.521 184V165.266H391.437V184H384.521ZM429.714 184H422.418L416.11 174.006L413.108 184H406.572L410.828 170.966L412.044 167.85L408.51 161.998H415.426L418.276 166.71L420.518 170.206L421.62 166.558L422.722 161.998H429.258L424.546 176.172L429.714 184ZM435.658 184L442.194 167.09H431.63V161.998H449.11V167.622L442.574 184H435.658ZM431.63 167.09V156.754H437.786V167.09H431.63ZM467.994 184.038L467.462 178.946C468.273 178.895 468.957 178.743 469.514 178.49C470.072 178.237 470.528 177.869 470.882 177.388C471.237 176.907 471.503 176.299 471.68 175.564C471.858 174.804 471.984 173.917 472.06 172.904L472.44 167.09H459.482V161.998H479.888L479.66 166.33L479.356 171.004C479.28 172.625 479.052 174.209 478.672 175.754C478.318 177.299 477.735 178.705 476.924 179.972C476.114 181.213 474.986 182.201 473.542 182.936C472.098 183.671 470.249 184.038 467.994 184.038ZM458.988 191.6V173.512L459.938 170.89H465.904V173.474V191.6H458.988ZM491.223 184V168.8C491.223 168.217 491.084 167.787 490.805 167.508C490.526 167.229 490.096 167.09 489.513 167.09H481.723V161.998H491.489C492.756 161.998 493.883 162.239 494.871 162.72C495.884 163.201 496.682 163.974 497.265 165.038C497.848 166.077 498.139 167.457 498.139 169.18V184H491.223ZM501.79 184V166.444L501.372 161.998H508.25L508.706 166.444V184H501.79ZM528.713 184V168.8C528.713 168.217 528.574 167.787 528.295 167.508C528.016 167.229 527.586 167.09 527.003 167.09H519.175V161.998H528.979C530.246 161.998 531.373 162.239 532.361 162.72C533.374 163.201 534.172 163.974 534.755 165.038C535.338 166.077 535.629 167.457 535.629 169.18V184H528.713ZM519.175 184V178.908H538.061V184H519.175ZM539.762 184V178.908H546.412C547.248 178.908 547.907 178.705 548.388 178.3C548.869 177.869 549.199 177.325 549.376 176.666C549.579 175.982 549.68 175.273 549.68 174.538V171.46C549.68 170.725 549.579 170.029 549.376 169.37C549.199 168.686 548.869 168.141 548.388 167.736C547.907 167.305 547.248 167.09 546.412 167.09H539.762V161.998H548.388C550.263 161.998 551.795 162.429 552.986 163.29C554.202 164.126 555.101 165.291 555.684 166.786C556.292 168.255 556.596 169.94 556.596 171.84V174.158C556.596 176.058 556.292 177.755 555.684 179.25C555.101 180.719 554.202 181.885 552.986 182.746C551.795 183.582 550.263 184 548.388 184H539.762ZM568.002 184V168.8C568.002 168.217 567.863 167.787 567.584 167.508C567.306 167.229 566.875 167.09 566.292 167.09H558.502V161.998H568.268C569.535 161.998 570.662 162.239 571.65 162.72C572.664 163.201 573.462 163.974 574.044 165.038C574.627 166.077 574.918 167.457 574.918 169.18V184H568.002ZM587.309 184V168.8C587.309 168.217 587.17 167.787 586.891 167.508C586.612 167.229 586.182 167.09 585.599 167.09H577.771V161.998H587.575C588.842 161.998 589.969 162.239 590.957 162.72C591.97 163.201 592.768 163.974 593.351 165.038C593.934 166.077 594.225 167.457 594.225 169.18V184H587.309ZM577.771 184V178.908H596.657V184H577.771ZM606.345 184.722L605.775 180.086C606.738 179.959 607.434 179.782 607.865 179.554C608.296 179.326 608.574 178.984 608.701 178.528C608.828 178.072 608.891 177.439 608.891 176.628V161.998H621.583C622.85 161.998 623.977 162.239 624.965 162.72C625.978 163.201 626.776 163.974 627.359 165.038C627.942 166.077 628.233 167.457 628.233 169.18V184H621.317V168.8C621.317 168.217 621.178 167.787 620.899 167.508C620.62 167.229 620.19 167.09 619.607 167.09H615.807V175.716C615.807 177.895 615.465 179.605 614.781 180.846C614.122 182.087 613.096 182.999 611.703 183.582C610.31 184.139 608.524 184.519 606.345 184.722ZM633.833 184.38L631.287 161.998H638.203L639.875 178.3C641.294 178.173 642.396 177.907 643.181 177.502C643.992 177.097 644.587 176.603 644.967 176.02C645.347 175.412 645.588 174.753 645.689 174.044C645.79 173.309 645.841 172.549 645.841 171.764V170.434C645.841 169.902 645.74 169.383 645.537 168.876C645.334 168.344 645.005 167.888 644.549 167.508C644.093 167.128 643.498 166.913 642.763 166.862L640.901 166.748L641.433 161.504L643.903 161.618C645.398 161.669 646.791 161.998 648.083 162.606C649.375 163.214 650.426 164.113 651.237 165.304C652.073 166.469 652.516 167.951 652.567 169.75L652.605 170.814C652.681 173.119 652.314 175.108 651.503 176.78C650.718 178.452 649.514 179.833 647.893 180.922C646.272 181.986 644.27 182.797 641.889 183.354C639.533 183.911 636.848 184.253 633.833 184.38ZM658.203 184L664.739 167.09H654.175V161.998H671.655V167.622L665.119 184H658.203ZM654.175 167.09V156.754H660.331V167.09H654.175ZM687.378 184V168.8C687.378 167.66 686.808 167.09 685.668 167.09H674.42V161.998H687.644C688.91 161.998 690.038 162.239 691.026 162.72C692.039 163.201 692.837 163.974 693.42 165.038C694.002 166.077 694.294 167.457 694.294 169.18V184H687.378ZM674.42 184V165.266H681.336V184H674.42ZM697.838 184V166.444L697.42 161.998H704.298L704.754 166.444V184H697.838ZM717.003 184.038L717.611 178.946C719.384 179.326 720.714 179.326 721.601 178.946C722.487 178.541 723.083 177.831 723.387 176.818C723.716 175.805 723.881 174.576 723.881 173.132C723.881 171.713 723.754 170.548 723.501 169.636C723.273 168.724 722.893 168.053 722.361 167.622C721.854 167.166 721.17 166.938 720.309 166.938C719.802 166.938 719.308 167.039 718.827 167.242C718.371 167.445 717.978 167.761 717.649 168.192C717.319 168.597 717.117 169.142 717.041 169.826L715.597 167.09C716.103 165.139 716.914 163.733 718.029 162.872C719.169 161.985 720.435 161.542 721.829 161.542C723.298 161.542 724.565 161.795 725.629 162.302C726.718 162.809 727.617 163.556 728.327 164.544C729.036 165.532 729.555 166.748 729.885 168.192C730.239 169.636 730.417 171.283 730.417 173.132C730.417 175.843 729.885 178.135 728.821 180.01C727.782 181.885 726.262 183.202 724.261 183.962C722.259 184.697 719.84 184.722 717.003 184.038ZM707.959 184L710.505 169.446L707.427 161.998H714.609L717.041 169.826L714.875 184H707.959Z" fill="#FEFEFE"/>
<path d="M59.4142 211.586C58.6332 212.367 57.3668 212.367 56.5858 211.586L50 205H66L59.4142 211.586Z" fill="#073799"/>
</g>
<defs>
<filter id="filter0_d_569_3246" x="0" y="0" width="791" height="243" filterUnits="userSpaceOnUse" color-interpolation-filters="sRGB">
<feFlood flood-opacity="0" result="BackgroundImageFix"/>
<feColorMatrix in="SourceAlpha" type="matrix" values="0 0 0 0 0 0 0 0 0 0 0 0 0 0 0 0 0 0 127 0" result="hardAlpha"/>
<feOffset/>
<feGaussianBlur stdDeviation="15"/>
<feComposite in2="hardAlpha" operator="out"/>
<feColorMatrix type="matrix" values="0 0 0 0 0.00416667 0 0 0 0 0.00416667 0 0 0 0 0.00416667 0 0 0 0.2 0"/>
<feBlend mode="normal" in2="BackgroundImageFix" result="effect1_dropShadow_569_3246"/>
<feBlend mode="normal" in="SourceGraphic" in2="effect1_dropShadow_569_3246" result="shape"/>
</filter>
</defs>
</svg>
