<svg width="636" height="282" viewBox="0 0 636 282" fill="none" xmlns="http://www.w3.org/2000/svg">
<g filter="url(#filter0_d_579_1807)">
<rect x="30" y="30" width="576" height="162" rx="8" fill="#073799"/>
<path d="M221.437 65.712L221.229 59.16H228.353L228.093 65.712L227.105 82.248H222.425L221.437 65.712ZM224.765 94.624C223.517 94.624 222.477 94.1907 221.645 93.324C220.813 92.4573 220.397 91.3653 220.397 90.048C220.397 88.7307 220.813 87.6387 221.645 86.772C222.477 85.9053 223.517 85.472 224.765 85.472C226.013 85.472 227.053 85.9053 227.885 86.772C228.717 87.6387 229.133 88.7307 229.133 90.048C229.133 91.3653 228.717 92.4573 227.885 93.324C227.053 94.1907 226.013 94.624 224.765 94.624ZM247.074 76.008C247.074 74.6907 247.196 73.512 247.438 72.472C247.716 71.3973 248.08 70.548 248.53 69.924H235.218V64.308H259.606V69.924H255.55C254.892 71.4147 254.562 73.4427 254.562 76.008V94H247.074V76.008ZM264.754 70.392L264.13 64.308H271.618L272.242 70.392V94H264.754V70.392ZM301.715 88.384V94H290.743H277.015V88.384H290.743V73.72C290.743 71.1893 289.564 69.924 287.207 69.924H277.015V64.308H289.287C292.06 64.308 294.244 65.1053 295.839 66.7C297.434 68.26 298.231 70.7213 298.231 74.084V88.384H301.715ZM304.781 88.384H313.101C315.112 88.384 316.585 87.7253 317.521 86.408C318.492 85.0907 318.977 83.3227 318.977 81.104V77.204C318.977 74.9853 318.492 73.2173 317.521 71.9C316.585 70.5827 315.112 69.924 313.101 69.924H304.781V64.308H315.129C318.839 64.308 321.664 65.504 323.605 67.896C325.547 70.2533 326.517 73.4947 326.517 77.62V80.688C326.517 84.8133 325.547 88.072 323.605 90.464C321.664 92.8213 318.839 94 315.129 94H304.781V88.384ZM348.376 73.72C348.376 71.1893 347.214 69.924 344.892 69.924H331.32V64.308H346.92C349.693 64.308 351.877 65.1053 353.472 66.7C355.101 68.26 355.916 70.7213 355.916 74.084V94H348.376V73.72ZM331.008 79.804L332.048 76.32H338.548V94H331.008V79.804ZM392.962 64.308V70.496L383.602 94H376.114L385.422 69.924H370.342V56.716H377.102V64.308H392.962ZM396.137 88.384H404.457C406.468 88.384 407.941 87.7253 408.877 86.408C409.848 85.0907 410.333 83.3227 410.333 81.104V77.204C410.333 74.9853 409.848 73.2173 408.877 71.9C407.941 70.5827 406.468 69.924 404.457 69.924H396.137V64.308H406.485C410.194 64.308 413.02 65.504 414.961 67.896C416.902 70.2533 417.873 73.4947 417.873 77.62V80.688C417.873 84.8133 416.902 88.072 414.961 90.464C413.02 92.8213 410.194 94 406.485 94H396.137V88.384ZM47.3587 138.712L47.1507 132.16H54.2747L54.0147 138.712L53.0267 155.248H48.3467L47.3587 138.712ZM50.6867 167.624C49.4387 167.624 48.3987 167.191 47.5667 166.324C46.7347 165.457 46.3187 164.365 46.3187 163.048C46.3187 161.731 46.7347 160.639 47.5667 159.772C48.3987 158.905 49.4387 158.472 50.6867 158.472C51.9347 158.472 52.9747 158.905 53.8067 159.772C54.6387 160.639 55.0547 161.731 55.0547 163.048C55.0547 164.365 54.6387 165.457 53.8067 166.324C52.9747 167.191 51.9347 167.624 50.6867 167.624ZM60.2563 162.788C61.5736 162.649 62.5616 162.389 63.2203 162.008C63.879 161.627 64.3296 161.107 64.5723 160.448C64.815 159.755 64.919 158.784 64.8843 157.536V137.308H80.6403C83.4136 137.308 85.5976 138.105 87.1923 139.7C88.787 141.26 89.5843 143.721 89.5843 147.084V167H82.0963V146.72C82.0963 144.189 80.9176 142.924 78.5603 142.924H72.4243V156.548C72.4243 159.183 72.0083 161.28 71.1763 162.84C70.379 164.4 69.1483 165.579 67.4843 166.376C65.855 167.139 63.6536 167.641 60.8803 167.884L60.2563 162.788ZM95.5001 143.392L94.8761 137.308H102.364L102.988 143.392V167H95.5001V143.392ZM125.077 137.308C127.85 137.308 130.034 138.14 131.629 139.804C133.258 141.468 134.073 143.981 134.073 147.344V167H126.533V146.98C126.533 144.276 125.372 142.924 123.049 142.924H116.081V167H108.593V140.688V137.308H125.077ZM139.883 143.392L139.259 137.308H146.747L147.371 143.392V151.504L147.319 154.78L139.883 156.08V143.392ZM152.248 137.308H159.788L162.336 160.864C165.941 160.517 168.507 159.46 170.032 157.692C171.557 155.889 172.285 153.341 172.216 150.048V148.436C172.216 146.876 171.783 145.559 170.916 144.484C170.084 143.375 168.819 142.768 167.12 142.664L164.572 142.508L165.144 136.736L168.316 136.892C171.54 137.065 174.175 138.071 176.22 139.908C178.3 141.711 179.392 144.293 179.496 147.656L179.548 149.112C179.756 155.213 177.78 159.737 173.62 162.684C169.495 165.596 163.532 167.208 155.732 167.52L152.248 137.308ZM207.567 161.384V167H196.595H182.867V161.384H196.595V146.72C196.595 144.189 195.416 142.924 193.059 142.924H182.867V137.308H195.139C197.912 137.308 200.096 138.105 201.691 139.7C203.285 141.26 204.083 143.721 204.083 147.084V161.384H207.567ZM228.989 146.72C228.989 144.189 227.828 142.924 225.505 142.924H211.933V137.308H227.533C230.306 137.308 232.49 138.105 234.085 139.7C235.714 141.26 236.529 143.721 236.529 147.084V167H228.989V146.72ZM211.621 152.804L212.661 149.32H219.161V167H211.621V152.804ZM250.28 162.788C251.597 162.649 252.585 162.389 253.244 162.008C253.902 161.627 254.353 161.107 254.596 160.448C254.838 159.755 254.942 158.784 254.908 157.536V137.308H270.664C273.437 137.308 275.621 138.105 277.216 139.7C278.81 141.26 279.608 143.721 279.608 147.084V167H272.12V146.72C272.12 144.189 270.941 142.924 268.584 142.924H262.448V156.548C262.448 159.183 262.032 161.28 261.2 162.84C260.402 164.4 259.172 165.579 257.508 166.376C255.878 167.139 253.677 167.641 250.904 167.884L250.28 162.788ZM296.028 149.008C296.028 147.691 296.149 146.512 296.392 145.472C296.669 144.397 297.033 143.548 297.484 142.924H284.172V137.308H308.56V142.924H304.504C303.845 144.415 303.516 146.443 303.516 149.008V167H296.028V149.008ZM341.891 152.18C341.891 156.999 340.764 160.795 338.511 163.568C336.292 166.307 333.155 167.676 329.099 167.676C327.643 167.676 326.048 167.468 324.315 167.052L324.991 161.436C326.274 161.713 327.348 161.852 328.215 161.852C330.572 161.852 332.254 161.072 333.259 159.512C334.264 157.917 334.767 155.577 334.767 152.492C334.767 149.06 334.282 146.581 333.311 145.056C332.375 143.496 330.919 142.716 328.943 142.716C327.556 142.716 326.378 143.132 325.407 143.964C324.471 144.796 323.882 145.923 323.639 147.344L320.415 167H312.927L316.515 146.98L312.355 137.308H320.155L322.235 143.236C322.963 141.087 324.055 139.492 325.511 138.452C326.967 137.377 328.631 136.84 330.503 136.84C334.212 136.84 337.038 138.123 338.979 140.688C340.92 143.219 341.891 147.049 341.891 152.18ZM347.07 143.392L346.446 137.308H353.934L354.558 143.392V167H347.07V143.392ZM381.587 137.308V143.496L372.227 167H364.739L374.047 142.924H358.967V129.716H365.727V137.308H381.587ZM394.6 162.788C395.917 162.649 396.905 162.389 397.564 162.008C398.223 161.627 398.673 161.107 398.916 160.448C399.159 159.755 399.263 158.784 399.228 157.536V137.308H414.984C417.757 137.308 419.941 138.105 421.536 139.7C423.131 141.26 423.928 143.721 423.928 147.084V167H416.44V146.72C416.44 144.189 415.261 142.924 412.904 142.924H406.768V156.548C406.768 159.183 406.352 161.28 405.52 162.84C404.723 164.4 403.492 165.579 401.828 166.376C400.199 167.139 397.997 167.641 395.224 167.884L394.6 162.788ZM449.292 167L439.516 151.868L434.888 167H427.764L433.536 149.164L435.148 145.16L430.312 137.308H437.852L442.012 144.068L445.756 149.736L447.16 145.004L449.24 137.308H456.364L450.124 156.236L457.3 167H449.292ZM470.112 162.788C471.429 162.649 472.417 162.389 473.076 162.008C473.734 161.627 474.185 161.107 474.428 160.448C474.67 159.755 474.774 158.784 474.74 157.536V137.308H490.496C493.269 137.308 495.453 138.105 497.048 139.7C498.642 141.26 499.44 143.721 499.44 147.084V167H491.952V146.72C491.952 144.189 490.773 142.924 488.416 142.924H482.28V156.548C482.28 159.183 481.864 161.28 481.032 162.84C480.234 164.4 479.004 165.579 477.34 166.376C475.71 167.139 473.509 167.641 470.736 167.884L470.112 162.788ZM533.54 152.18C533.54 156.999 532.413 160.795 530.16 163.568C527.941 166.307 524.804 167.676 520.748 167.676C519.292 167.676 517.697 167.468 515.964 167.052L516.64 161.436C517.922 161.713 518.997 161.852 519.864 161.852C522.221 161.852 523.902 161.072 524.908 159.512C525.913 157.917 526.416 155.577 526.416 152.492C526.416 149.06 525.93 146.581 524.96 145.056C524.024 143.496 522.568 142.716 520.592 142.716C519.205 142.716 518.026 143.132 517.056 143.964C516.12 144.796 515.53 145.923 515.288 147.344L512.064 167H504.576L508.164 146.98L504.004 137.308H511.804L513.884 143.236C514.612 141.087 515.704 139.492 517.16 138.452C518.616 137.377 520.28 136.84 522.152 136.84C525.861 136.84 528.686 138.123 530.628 140.688C532.569 143.219 533.54 147.049 533.54 152.18ZM538.719 143.392L538.095 137.308H545.583L546.207 143.392V151.504L546.155 154.78L538.719 156.08V143.392ZM552.176 143.392L551.552 137.308H559.04L559.664 143.392V151.504L559.612 154.78L552.176 156.08V143.392ZM591.425 149.84C591.633 155.941 589.726 160.361 585.705 163.1C581.684 165.804 575.825 167.277 568.129 167.52L565.269 142.924L564.541 137.308H580.505C583.902 137.308 586.537 138.279 588.409 140.22C590.281 142.127 591.269 144.761 591.373 148.124L591.425 149.84ZM574.681 160.864C577.142 160.691 579.049 160.188 580.401 159.356C581.788 158.489 582.741 157.293 583.261 155.768C583.816 154.208 584.058 152.18 583.989 149.684V148.124C583.989 146.529 583.625 145.264 582.897 144.328C582.169 143.392 581.181 142.924 579.933 142.924H572.757L574.681 160.864Z" fill="#FFF2B4"/>
<path d="M59.4142 198.586C58.6332 199.367 57.3668 199.367 56.5858 198.586L50 192H66L59.4142 198.586Z" fill="#073799"/>
</g>
<defs>
<filter id="filter0_d_579_1807" x="0" y="0" width="636" height="312" filterUnits="userSpaceOnUse" color-interpolation-filters="sRGB">
<feFlood flood-opacity="0" result="BackgroundImageFix"/>
<feColorMatrix in="SourceAlpha" type="matrix" values="0 0 0 0 0 0 0 0 0 0 0 0 0 0 0 0 0 0 127 0" result="hardAlpha"/>
<feOffset/>
<feGaussianBlur stdDeviation="15"/>
<feComposite in2="hardAlpha" operator="out"/>
<feColorMatrix type="matrix" values="0 0 0 0 0.00416667 0 0 0 0 0.00416667 0 0 0 0 0.00416667 0 0 0 0.2 0"/>
<feBlend mode="normal" in2="BackgroundImageFix" result="effect1_dropShadow_579_1807"/>
<feBlend mode="normal" in="SourceGraphic" in2="effect1_dropShadow_579_1807" result="shape"/>
</filter>
</defs>
</svg>
