<svg width="406" height="168" viewBox="0 0 406 168" fill="none" xmlns="http://www.w3.org/2000/svg">
<g filter="url(#filter0_d_679_6417)">
<rect x="30" y="30" width="346" height="100" rx="8" fill="#073799"/>
<path d="M49.0429 67.57C49.8029 67.49 50.3729 67.34 50.7529 67.12C51.1329 66.9 51.3929 66.6 51.5329 66.22C51.6729 65.82 51.7329 65.26 51.7129 64.54V52.87H60.8029C62.4029 52.87 63.6629 53.33 64.5829 54.25C65.5029 55.15 65.9629 56.57 65.9629 58.51V70H61.6429V58.3C61.6429 56.84 60.9629 56.11 59.6029 56.11H56.0629V63.97C56.0629 65.49 55.8229 66.7 55.3429 67.6C54.8829 68.5 54.1729 69.18 53.2129 69.64C52.2729 70.08 51.0029 70.37 49.4029 70.51L49.0429 67.57ZM69.3759 56.38L69.0159 52.87H73.3359L73.6959 56.38V70H69.3759V56.38ZM77.1396 56.38L76.7796 52.87H81.0996L81.4596 56.38V61.06L81.4296 62.95L77.1396 63.7V56.38ZM94.5332 58.3C94.5332 56.84 93.8632 56.11 92.5232 56.11H84.6932V52.87H93.6932C95.2932 52.87 96.5532 53.33 97.4732 54.25C98.4132 55.15 98.8832 56.57 98.8832 58.51V70H94.5332V58.3ZM84.5132 61.81L85.1132 59.8H88.8632V70H84.5132V61.81ZM114.251 52.87V56.44L108.851 70H104.531L109.901 56.11H101.201V48.49H105.101V52.87H114.251ZM132.288 52.87C133.888 52.87 135.148 53.33 136.068 54.25C137.008 55.15 137.478 56.57 137.478 58.51V70H133.128H123.708H122.808V52.87H127.128H132.288ZM133.128 66.76V58.3C133.128 56.84 132.458 56.11 131.118 56.11H127.128V66.76H133.128ZM140.802 56.38L140.442 52.87H144.762L145.122 56.38V61.06L145.092 62.95L140.802 63.7V56.38ZM147.605 66.76H152.405C153.565 66.76 154.415 66.38 154.955 65.62C155.515 64.86 155.795 63.84 155.795 62.56V60.31C155.795 59.03 155.515 58.01 154.955 57.25C154.415 56.49 153.565 56.11 152.405 56.11H147.605V52.87H153.575C155.715 52.87 157.345 53.56 158.465 54.94C159.585 56.3 160.145 58.17 160.145 60.55V62.32C160.145 64.7 159.585 66.58 158.465 67.96C157.345 69.32 155.715 70 153.575 70H147.605V66.76ZM163.126 56.38L162.766 52.87H167.086L167.446 56.38V61.06L167.416 62.95L163.126 63.7V56.38ZM177.76 58.3C177.76 56.84 177.09 56.11 175.75 56.11H169.9V52.87H176.92C178.52 52.87 179.78 53.33 180.7 54.25C181.64 55.15 182.11 56.57 182.11 58.51V70H177.76V58.3ZM194.988 62.98L198.948 70H194.598H184.608V66.76H192.768L184.938 52.87H189.288L192.678 58.9L195.138 52.87H199.398L194.988 62.98ZM217.542 52.87C219.142 52.87 220.402 53.33 221.322 54.25C222.262 55.15 222.732 56.57 222.732 58.51V70H218.382H208.962H208.062V52.87H212.382H217.542ZM218.382 66.76V58.3C218.382 56.84 217.712 56.11 216.372 56.11H212.382V66.76H218.382ZM226.056 56.38L225.696 52.87H230.016L230.376 56.38V61.06L230.346 62.95L226.056 63.7V56.38ZM239.369 70L238.829 66.79C238.269 67.69 237.609 68.45 236.849 69.07C236.109 69.69 235.189 70.19 234.089 70.57L232.499 67.15C235.299 66.27 237.199 64.87 238.199 62.95V58.06C238.199 57.34 238.089 56.83 237.869 56.53C237.649 56.23 237.279 56.04 236.759 55.96L234.869 55.69L235.409 52.51L238.949 52.99C240.169 53.15 241.069 53.61 241.649 54.37C242.229 55.11 242.519 56.18 242.519 57.58V63.28L243.479 70H239.369ZM256.164 58.3C256.164 56.84 255.494 56.11 254.154 56.11H246.324V52.87H255.324C256.924 52.87 258.184 53.33 259.104 54.25C260.044 55.15 260.514 56.57 260.514 58.51V70H256.164V58.3ZM246.144 61.81L246.744 59.8H250.494V70H246.144V61.81ZM263.071 66.76H267.451V58.09C267.451 57.37 267.311 56.86 267.031 56.56C266.771 56.26 266.361 56.07 265.801 55.99L263.701 55.69L264.241 52.51L267.991 52.99C269.211 53.15 270.141 53.67 270.781 54.55C271.441 55.43 271.771 56.57 271.771 57.97V70H263.071V66.76ZM284.787 58.3C284.787 56.84 284.117 56.11 282.777 56.11H274.947V52.87H283.947C285.547 52.87 286.807 53.33 287.727 54.25C288.667 55.15 289.137 56.57 289.137 58.51V70H284.787V58.3ZM274.767 61.81L275.367 59.8H279.117V70H274.767V61.81ZM298.36 56.38L298 52.87H302.32L302.68 56.38V70H298.36V56.38ZM305.464 66.76H309.844V58.09C309.844 57.37 309.704 56.86 309.424 56.56C309.164 56.26 308.754 56.07 308.194 55.99L306.094 55.69L306.634 52.51L310.384 52.99C311.604 53.15 312.534 53.67 313.174 54.55C313.834 55.43 314.164 56.57 314.164 57.97V70H305.464V66.76ZM326.85 52.87C328.45 52.87 329.71 53.35 330.63 54.31C331.57 55.27 332.04 56.72 332.04 58.66V70H327.69V58.45C327.69 56.89 327.02 56.11 325.68 56.11H321.66V70H317.34V54.82V52.87H326.85ZM334.732 66.76H339.112V58.09C339.112 57.37 338.972 56.86 338.692 56.56C338.432 56.26 338.022 56.07 337.462 55.99L335.362 55.69L335.902 52.51L339.652 52.99C340.872 53.15 341.802 53.67 342.442 54.55C343.102 55.43 343.432 56.57 343.432 57.97V70H334.732V66.76ZM358.037 70L352.397 61.27L349.727 70H345.617L348.947 59.71L349.877 57.4L347.087 52.87H351.437L353.837 56.77L355.997 60.04L356.807 57.31L358.007 52.87H362.117L358.517 63.79L362.657 70H358.037ZM51.9291 95.68L51.8091 91.9H55.9191L55.7691 95.68L55.1991 105.22H52.4991L51.9291 95.68ZM53.8491 112.36C53.1291 112.36 52.5291 112.11 52.0491 111.61C51.5691 111.11 51.3291 110.48 51.3291 109.72C51.3291 108.96 51.5691 108.33 52.0491 107.83C52.5291 107.33 53.1291 107.08 53.8491 107.08C54.5691 107.08 55.1691 107.33 55.6491 107.83C56.1291 108.33 56.3691 108.96 56.3691 109.72C56.3691 110.48 56.1291 111.11 55.6491 111.61C55.1691 112.11 54.5691 112.36 53.8491 112.36ZM70.2901 100.3C70.2901 98.84 69.6201 98.11 68.2801 98.11H60.4501V94.87H69.4501C71.0501 94.87 72.3101 95.33 73.2301 96.25C74.1701 97.15 74.6401 98.57 74.6401 100.51V112H70.2901V100.3ZM60.2701 103.81L60.8701 101.8H64.6201V112H60.2701V103.81ZM77.8573 98.38L77.4973 94.87H81.8173L82.1773 98.38V103.06L82.1473 104.95L77.8573 105.7V98.38ZM99.811 94.87C99.791 98.85 99.631 101.86 99.331 103.9C99.051 105.92 98.291 107.63 97.051 109.03C95.811 110.41 93.811 111.37 91.051 111.91L84.631 113.17L84.031 109.78L88.801 108.88L85.351 94.87H89.671L92.701 107.92C93.601 107.48 94.251 106.81 94.651 105.91C95.051 105.01 95.291 103.92 95.371 102.64C95.471 101.36 95.521 99.42 95.521 96.82V94.87H99.811ZM116.466 108.76V112H110.136H102.216V108.76H110.136V100.3C110.136 98.84 109.456 98.11 108.096 98.11H102.216V94.87H109.296C110.896 94.87 112.156 95.33 113.076 96.25C113.996 97.15 114.456 98.57 114.456 100.51V108.76H116.466ZM131.345 94.87V98.44L125.945 112H121.625L126.995 98.11H118.295V90.49H122.195V94.87H131.345ZM140.143 98.38L139.783 94.87H144.103L144.463 98.38V112H140.143V98.38ZM146.946 108.76H151.746C152.906 108.76 153.756 108.38 154.296 107.62C154.856 106.86 155.136 105.84 155.136 104.56V102.31C155.136 101.03 154.856 100.01 154.296 99.25C153.756 98.49 152.906 98.11 151.746 98.11H146.946V94.87H152.916C155.056 94.87 156.686 95.56 157.806 96.94C158.926 98.3 159.486 100.17 159.486 102.55V104.32C159.486 106.7 158.926 108.58 157.806 109.96C156.686 111.32 155.056 112 152.916 112H146.946V108.76ZM162.227 108.76H168.287C169.447 108.76 170.347 108.39 170.987 107.65C171.647 106.89 171.977 105.85 171.977 104.53V102.31C171.977 101.05 171.687 100.04 171.107 99.28C170.547 98.5 169.717 98.11 168.617 98.11H166.457L165.917 100.66C165.857 100.92 165.827 101.17 165.827 101.41C165.827 101.91 165.977 102.3 166.277 102.58C166.577 102.84 167.067 103.04 167.747 103.18L167.057 105.88C165.277 105.84 163.987 105.44 163.187 104.68C162.387 103.92 161.987 102.89 161.987 101.59C161.987 101.11 162.027 100.67 162.107 100.27L163.307 94.87H169.637C171.717 94.87 173.347 95.56 174.527 96.94C175.707 98.32 176.297 100.18 176.297 102.52V104.32C176.297 106.72 175.667 108.6 174.407 109.96C173.147 111.32 171.447 112 169.307 112H162.227V108.76ZM188.796 100.3C188.796 98.84 188.126 98.11 186.786 98.11H178.956V94.87H187.956C189.556 94.87 190.816 95.33 191.736 96.25C192.676 97.15 193.146 98.57 193.146 100.51V112H188.796V100.3ZM178.776 103.81L179.376 101.8H183.126V112H178.776V103.81ZM195.073 109.57C195.833 109.49 196.403 109.34 196.783 109.12C197.163 108.9 197.423 108.6 197.563 108.22C197.703 107.82 197.763 107.26 197.743 106.54V94.87H206.833C208.433 94.87 209.693 95.33 210.613 96.25C211.533 97.15 211.993 98.57 211.993 100.51V112H207.673V100.3C207.673 98.84 206.993 98.11 205.633 98.11H202.093V105.97C202.093 107.49 201.853 108.7 201.373 109.6C200.913 110.5 200.203 111.18 199.243 111.64C198.303 112.08 197.033 112.37 195.433 112.51L195.073 109.57ZM233.562 94.87V98.44L228.162 112H223.842L229.212 98.11H220.512V90.49H224.412V94.87H233.562ZM246.665 112L241.025 103.27L238.355 112H234.245L237.575 101.71L238.505 99.4L235.715 94.87H240.065L242.465 98.77L244.625 102.04L245.435 99.31L246.635 94.87H250.745L247.145 105.79L251.285 112H246.665ZM259.427 102.94H266.717V105.88H259.427V102.94ZM275.846 98.38L275.486 94.87H279.806L280.166 98.38V118H275.846V98.38ZM283.609 98.38L283.249 94.87H287.569L287.929 98.38V112H283.609V98.38ZM298.243 100.3C298.243 98.84 297.573 98.11 296.233 98.11H290.383V94.87H297.403C299.003 94.87 300.263 95.33 301.183 96.25C302.123 97.15 302.593 98.57 302.593 100.51V112H298.243V100.3ZM304.731 109.57C305.491 109.49 306.061 109.34 306.441 109.12C306.821 108.9 307.081 108.6 307.221 108.22C307.361 107.82 307.421 107.26 307.401 106.54V94.87H316.491C318.091 94.87 319.351 95.33 320.271 96.25C321.191 97.15 321.651 98.57 321.651 100.51V112H317.331V100.3C317.331 98.84 316.651 98.11 315.291 98.11H311.751V105.97C311.751 107.49 311.511 108.7 311.031 109.6C310.571 110.5 309.861 111.18 308.901 111.64C307.961 112.08 306.691 112.37 305.091 112.51L304.731 109.57ZM324.824 108.76H330.884C332.044 108.76 332.944 108.39 333.584 107.65C334.244 106.89 334.574 105.85 334.574 104.53V102.31C334.574 101.05 334.284 100.04 333.704 99.28C333.144 98.5 332.314 98.11 331.214 98.11H329.054L328.514 100.66C328.454 100.92 328.424 101.17 328.424 101.41C328.424 101.91 328.574 102.3 328.874 102.58C329.174 102.84 329.664 103.04 330.344 103.18L329.654 105.88C327.874 105.84 326.584 105.44 325.784 104.68C324.984 103.92 324.584 102.89 324.584 101.59C324.584 101.11 324.624 100.67 324.704 100.27L325.904 94.87H332.234C334.314 94.87 335.944 95.56 337.124 96.94C338.304 98.32 338.894 100.18 338.894 102.52V104.32C338.894 106.72 338.264 108.6 337.004 109.96C335.744 111.32 334.044 112 331.904 112H324.824V108.76ZM351.394 100.3C351.394 98.84 350.724 98.11 349.384 98.11H341.554V94.87H350.554C352.154 94.87 353.414 95.33 354.334 96.25C355.274 97.15 355.744 98.57 355.744 100.51V112H351.394V100.3ZM341.374 103.81L341.974 101.8H345.724V112H341.374V103.81Z" fill="#FFF2B4"/>
<path d="M59.4142 136.586C58.6332 137.367 57.3668 137.367 56.5858 136.586L50 130H66L59.4142 136.586Z" fill="#073799"/>
</g>
<defs>
<filter id="filter0_d_679_6417" x="0" y="0" width="406" height="168" filterUnits="userSpaceOnUse" color-interpolation-filters="sRGB">
<feFlood flood-opacity="0" result="BackgroundImageFix"/>
<feColorMatrix in="SourceAlpha" type="matrix" values="0 0 0 0 0 0 0 0 0 0 0 0 0 0 0 0 0 0 127 0" result="hardAlpha"/>
<feOffset/>
<feGaussianBlur stdDeviation="15"/>
<feComposite in2="hardAlpha" operator="out"/>
<feColorMatrix type="matrix" values="0 0 0 0 0.00416667 0 0 0 0 0.00416667 0 0 0 0 0.00416667 0 0 0 0.2 0"/>
<feBlend mode="normal" in2="BackgroundImageFix" result="effect1_dropShadow_679_6417"/>
<feBlend mode="normal" in="SourceGraphic" in2="effect1_dropShadow_679_6417" result="shape"/>
</filter>
</defs>
</svg>
