<svg width="393" height="189" viewBox="0 0 393 189" fill="none" xmlns="http://www.w3.org/2000/svg">
<g filter="url(#filter0_d_558_1148)">
<rect x="30" y="30" width="333" height="121" rx="8" fill="#073799"/>
<path d="M88.576 62.975C89.2093 62.9083 89.6843 62.7833 90.001 62.6C90.3176 62.4167 90.5343 62.1667 90.651 61.85C90.7676 61.5167 90.8176 61.05 90.801 60.45V50.725H98.376C99.7093 50.725 100.759 51.1083 101.526 51.875C102.293 52.625 102.676 53.8083 102.676 55.425V65H99.076V55.25C99.076 54.0333 98.5093 53.425 97.376 53.425H94.426V59.975C94.426 61.2417 94.226 62.25 93.826 63C93.4426 63.75 92.851 64.3167 92.051 64.7C91.2676 65.0667 90.2093 65.3083 88.876 65.425L88.576 62.975ZM114.87 65L110.17 57.725L107.945 65H104.52L107.295 56.425L108.07 54.5L105.745 50.725H109.37L111.37 53.975L113.17 56.7L113.845 54.425L114.845 50.725H118.27L115.27 59.825L118.72 65H114.87ZM124.88 62.975C125.513 62.9083 125.988 62.7833 126.305 62.6C126.621 62.4167 126.838 62.1667 126.955 61.85C127.071 61.5167 127.121 61.05 127.105 60.45V50.725H134.68C136.013 50.725 137.063 51.1083 137.83 51.875C138.596 52.625 138.98 53.8083 138.98 55.425V65H135.38V55.25C135.38 54.0333 134.813 53.425 133.68 53.425H130.73V59.975C130.73 61.2417 130.53 62.25 130.13 63C129.746 63.75 129.155 64.3167 128.355 64.7C127.571 65.0667 126.513 65.3083 125.18 65.425L124.88 62.975ZM141.824 53.65L141.524 50.725H145.124L145.424 53.65V65H141.824V53.65ZM158.419 50.725V53.7L153.919 65H150.319L154.794 53.425H147.544V47.075H150.794V50.725H158.419ZM165.37 65L164.92 62.325C164.453 63.075 163.903 63.7083 163.27 64.225C162.653 64.7417 161.886 65.1583 160.97 65.475L159.645 62.625C161.978 61.8917 163.561 60.725 164.395 59.125V55.05C164.395 54.45 164.303 54.025 164.12 53.775C163.936 53.525 163.628 53.3667 163.195 53.3L161.62 53.075L162.07 50.425L165.02 50.825C166.036 50.9583 166.786 51.3417 167.27 51.975C167.753 52.5917 167.995 53.4833 167.995 54.65V59.4L168.795 65H165.37ZM181.465 50.725V53.7L176.965 65H173.365L177.84 53.425H170.59V47.075H173.84V50.725H181.465ZM188.796 53.65L188.496 50.725H192.096L192.396 53.65V57.55L192.371 59.125L188.796 59.75V53.65ZM200.316 56.35C200.316 55.7167 200.375 55.15 200.491 54.65C200.625 54.1333 200.8 53.725 201.016 53.425H194.616V50.725H206.341V53.425H204.391C204.075 54.1417 203.916 55.1167 203.916 56.35V65H200.316V56.35ZM208.016 62.3H212.016C212.983 62.3 213.691 61.9833 214.141 61.35C214.608 60.7167 214.841 59.8667 214.841 58.8V56.925C214.841 55.8583 214.608 55.0083 214.141 54.375C213.691 53.7417 212.983 53.425 212.016 53.425H208.016V50.725H212.991C214.774 50.725 216.133 51.3 217.066 52.45C217.999 53.5833 218.466 55.1417 218.466 57.125V58.6C218.466 60.5833 217.999 62.15 217.066 63.3C216.133 64.4333 214.774 65 212.991 65H208.016V62.3ZM225.955 53.65L225.655 50.725H229.255L229.555 53.65V57.55L229.53 59.125L225.955 59.75V53.65ZM232.424 53.65L232.124 50.725H235.724L236.024 53.65V57.55L235.999 59.125L232.424 59.75V53.65ZM249.019 50.725V53.7L244.519 65H240.919L245.394 53.425H238.144V47.075H241.394V50.725H249.019ZM263.17 50.725C263.154 54.0417 263.02 56.55 262.77 58.25C262.537 59.9333 261.904 61.3583 260.87 62.525C259.837 63.675 258.17 64.475 255.87 64.925L250.52 65.975L250.02 63.15L253.995 62.4L251.12 50.725H254.72L257.245 61.6C257.995 61.2333 258.537 60.675 258.87 59.925C259.204 59.175 259.404 58.2667 259.47 57.2C259.554 56.1333 259.595 54.5167 259.595 52.35V50.725H263.17ZM277.054 62.15L279.529 70H276.079L270.054 50.725H273.479L275.679 57.7L278.604 50.725H282.029L277.054 62.15ZM291.835 50.725C293.168 50.725 294.218 51.125 294.985 51.925C295.768 52.725 296.16 53.9333 296.16 55.55V65H292.535V55.375C292.535 54.075 291.976 53.425 290.86 53.425H287.51V65H283.91V52.35V50.725H291.835ZM309.078 50.725V53.7L304.578 65H300.978L305.453 53.425H298.203V47.075H301.453V50.725H309.078ZM56.6649 85.725C57.9983 85.725 59.0483 86.1083 59.8149 86.875C60.5983 87.625 60.9899 88.8083 60.9899 90.425V100H57.3649H49.5149H48.7649V85.725H52.3649H56.6649ZM57.3649 97.3V90.25C57.3649 89.0333 56.8066 88.425 55.6899 88.425H52.3649V97.3H57.3649ZM63.7599 88.65L63.4599 85.725H67.0599L67.3599 88.65V92.55L67.3349 94.125L63.7599 94.75V88.65ZM81.5296 97.3V100H76.2546H69.6546V97.3H76.2546V90.25C76.2546 89.0333 75.6879 88.425 74.5546 88.425H69.6546V85.725H75.5546C76.8879 85.725 77.9379 86.1083 78.7046 86.875C79.4713 87.625 79.8546 88.8083 79.8546 90.425V97.3H81.5296ZM83.8038 88.65L83.5038 85.725H87.1038L87.4038 88.65V92.55L87.3788 94.125L83.8038 94.75V88.65ZM90.2735 88.65L89.9735 85.725H93.5735L93.8735 88.65V92.55L93.8485 94.125L90.2735 94.75V88.65ZM104.493 85.725C105.827 85.725 106.877 86.125 107.643 86.925C108.427 87.725 108.818 88.9333 108.818 90.55V100H105.193V90.375C105.193 89.075 104.635 88.425 103.518 88.425H100.168V100H96.5683V87.35V85.725H104.493ZM124.316 85.725C125.65 85.725 126.7 86.1083 127.466 86.875C128.25 87.625 128.641 88.8083 128.641 90.425V100H125.016H117.166H116.416V85.725H120.016H124.316ZM125.016 97.3V90.25C125.016 89.0333 124.458 88.425 123.341 88.425H120.016V97.3H125.016ZM139.436 90.25C139.436 89.0333 138.878 88.425 137.761 88.425H131.236V85.725H138.736C140.07 85.725 141.12 86.1083 141.886 86.875C142.67 87.625 143.061 88.8083 143.061 90.425V100H139.436V90.25ZM131.086 93.175L131.586 91.5H134.711V100H131.086V93.175ZM157.042 97.3V100H151.767H145.167V97.3H151.767V90.25C151.767 89.0333 151.201 88.425 150.067 88.425H145.167V85.725H151.067C152.401 85.725 153.451 86.1083 154.217 86.875C154.984 87.625 155.367 88.8083 155.367 90.425V97.3H157.042ZM163.246 97.975C163.88 97.9083 164.355 97.7833 164.671 97.6C164.988 97.4167 165.205 97.1667 165.321 96.85C165.438 96.5167 165.488 96.05 165.471 95.45V85.725H173.046C174.38 85.725 175.43 86.1083 176.196 86.875C176.963 87.625 177.346 88.8083 177.346 90.425V100H173.746V90.25C173.746 89.0333 173.18 88.425 172.046 88.425H169.096V94.975C169.096 96.2417 168.896 97.25 168.496 98C168.113 98.75 167.521 99.3167 166.721 99.7C165.938 100.067 164.88 100.308 163.546 100.425L163.246 97.975ZM180.191 88.65L179.891 85.725H183.491L183.791 88.65V100H180.191V88.65ZM186.66 88.65L186.36 85.725H189.96L190.26 88.65V92.55L190.235 94.125L186.66 94.75V88.65ZM193.13 88.65L192.83 85.725H196.43L196.73 88.65V100H193.13V88.65ZM205.325 90.25C205.325 89.0333 204.766 88.425 203.65 88.425H198.775V85.725H204.625C205.958 85.725 207.008 86.1083 207.775 86.875C208.558 87.625 208.95 88.8083 208.95 90.425V100H205.325V90.25ZM211.807 88.65L211.507 85.725H215.107L215.407 88.65V92.55L215.382 94.125L211.807 94.75V88.65ZM223.326 91.35C223.326 90.7167 223.385 90.15 223.501 89.65C223.635 89.1333 223.81 88.725 224.026 88.425H217.626V85.725H229.351V88.425H227.401C227.085 89.1417 226.926 90.1167 226.926 91.35V100H223.326V91.35ZM230.751 97.975C231.385 97.9083 231.86 97.7833 232.176 97.6C232.493 97.4167 232.71 97.1667 232.826 96.85C232.943 96.5167 232.993 96.05 232.976 95.45V85.725H240.551C241.885 85.725 242.935 86.1083 243.701 86.875C244.468 87.625 244.851 88.8083 244.851 90.425V100H241.251V90.25C241.251 89.0333 240.685 88.425 239.551 88.425H236.601V94.975C236.601 96.2417 236.401 97.25 236.001 98C235.618 98.75 235.026 99.3167 234.226 99.7C233.443 100.067 232.385 100.308 231.051 100.425L230.751 97.975ZM255.72 90.25C255.72 89.0333 255.162 88.425 254.045 88.425H247.52V85.725H255.02C256.354 85.725 257.404 86.1083 258.17 86.875C258.954 87.625 259.345 88.8083 259.345 90.425V100H255.72V90.25ZM247.37 93.175L247.87 91.5H250.995V100H247.37V93.175ZM262.026 88.65L261.726 85.725H265.326L265.626 88.65V100H262.026V88.65ZM281.201 85.725C282.534 85.725 283.584 86.1083 284.351 86.875C285.134 87.625 285.526 88.8083 285.526 90.425V100H281.901H274.051H273.301V85.725H276.901H281.201ZM281.901 97.3V90.25C281.901 89.0333 281.343 88.425 280.226 88.425H276.901V97.3H281.901ZM288.296 88.65L287.996 85.725H291.596L291.896 88.65V92.55L291.871 94.125L288.296 94.75V88.65ZM300.491 90.25C300.491 89.0333 299.932 88.425 298.816 88.425H293.941V85.725H299.791C301.124 85.725 302.174 86.1083 302.941 86.875C303.724 87.625 304.116 88.8083 304.116 90.425V100H300.491V90.25ZM311.573 97.325C312.706 97.225 313.548 96.8417 314.098 96.175C314.648 95.5083 314.981 94.375 315.098 92.775L315.423 88.425H306.723V85.725H319.298L319.173 88.05L318.898 91.825C318.631 97.2417 316.281 99.975 311.848 100.025L311.573 97.325ZM306.523 93.025L307.023 91.3H310.148V105H306.523V93.025ZM335.269 92.875C335.269 95.1917 334.727 97.0167 333.644 98.35C332.577 99.6667 331.069 100.325 329.119 100.325C328.419 100.325 327.652 100.225 326.819 100.025L327.144 97.325C327.761 97.4583 328.277 97.525 328.694 97.525C329.827 97.525 330.636 97.15 331.119 96.4C331.602 95.6333 331.844 94.5083 331.844 93.025C331.844 91.375 331.611 90.1833 331.144 89.45C330.694 88.7 329.994 88.325 329.044 88.325C328.377 88.325 327.811 88.525 327.344 88.925C326.894 89.325 326.611 89.8667 326.494 90.55L324.944 100H321.344L323.069 90.375L321.069 85.725H324.819L325.819 88.575C326.169 87.5417 326.694 86.775 327.394 86.275C328.094 85.7583 328.894 85.5 329.794 85.5C331.577 85.5 332.936 86.1167 333.869 87.35C334.802 88.5667 335.269 90.4083 335.269 92.875ZM345.784 90.25C345.784 89.0333 345.226 88.425 344.109 88.425H337.584V85.725H345.084C346.417 85.725 347.467 86.1083 348.234 86.875C349.017 87.625 349.409 88.8083 349.409 90.425V100H345.784V90.25ZM337.434 93.175L337.934 91.5H341.059V100H337.434V93.175ZM74.5257 132.975C75.159 132.908 75.634 132.783 75.9507 132.6C76.2674 132.417 76.484 132.167 76.6007 131.85C76.7174 131.517 76.7674 131.05 76.7507 130.45V120.725H84.3257C85.659 120.725 86.709 121.108 87.4757 121.875C88.2424 122.625 88.6257 123.808 88.6257 125.425V135H85.0257V125.25C85.0257 124.033 84.459 123.425 83.3257 123.425H80.3757V129.975C80.3757 131.242 80.1757 132.25 79.7757 133C79.3924 133.75 78.8007 134.317 78.0007 134.7C77.2174 135.067 76.159 135.308 74.8257 135.425L74.5257 132.975ZM91.4698 123.65L91.1698 120.725H94.7698L95.0698 123.65V135H91.4698V123.65ZM97.1396 132.3H101.14C102.106 132.3 102.815 131.983 103.265 131.35C103.731 130.717 103.965 129.867 103.965 128.8V126.925C103.965 125.858 103.731 125.008 103.265 124.375C102.815 123.742 102.106 123.425 101.14 123.425H97.1396V120.725H102.115C103.898 120.725 105.256 121.3 106.19 122.45C107.123 123.583 107.59 125.142 107.59 127.125V128.6C107.59 130.583 107.123 132.15 106.19 133.3C105.256 134.433 103.898 135 102.115 135H97.1396V132.3ZM109.873 132.3H114.923C115.89 132.3 116.64 131.992 117.173 131.375C117.723 130.742 117.998 129.875 117.998 128.775V126.925C117.998 125.875 117.757 125.033 117.273 124.4C116.807 123.75 116.115 123.425 115.198 123.425H113.398L112.948 125.55C112.898 125.767 112.873 125.975 112.873 126.175C112.873 126.592 112.998 126.917 113.248 127.15C113.498 127.367 113.907 127.533 114.473 127.65L113.898 129.9C112.415 129.867 111.34 129.533 110.673 128.9C110.007 128.267 109.673 127.408 109.673 126.325C109.673 125.925 109.707 125.558 109.773 125.225L110.773 120.725H116.048C117.782 120.725 119.14 121.3 120.123 122.45C121.107 123.6 121.598 125.15 121.598 127.1V128.6C121.598 130.6 121.073 132.167 120.023 133.3C118.973 134.433 117.557 135 115.773 135H109.873V132.3ZM132.014 125.25C132.014 124.033 131.456 123.425 130.339 123.425H123.814V120.725H131.314C132.648 120.725 133.698 121.108 134.464 121.875C135.248 122.625 135.639 123.808 135.639 125.425V135H132.014V125.25ZM123.664 128.175L124.164 126.5H127.289V135H123.664V128.175ZM137.245 132.975C137.879 132.908 138.354 132.783 138.67 132.6C138.987 132.417 139.204 132.167 139.32 131.85C139.437 131.517 139.487 131.05 139.47 130.45V120.725H147.045C148.379 120.725 149.429 121.108 150.195 121.875C150.962 122.625 151.345 123.808 151.345 125.425V135H147.745V125.25C147.745 124.033 147.179 123.425 146.045 123.425H143.095V129.975C143.095 131.242 142.895 132.25 142.495 133C142.112 133.75 141.52 134.317 140.72 134.7C139.937 135.067 138.879 135.308 137.545 135.425L137.245 132.975ZM162.215 125.25C162.215 124.033 161.656 123.425 160.54 123.425H154.015V120.725H161.515C162.848 120.725 163.898 121.108 164.665 121.875C165.448 122.625 165.84 123.808 165.84 125.425V135H162.215V125.25ZM153.865 128.175L154.365 126.5H157.49V135H153.865V128.175ZM172.45 132.975C173.084 132.908 173.559 132.783 173.875 132.6C174.192 132.417 174.409 132.167 174.525 131.85C174.642 131.517 174.692 131.05 174.675 130.45V120.725H182.25C183.584 120.725 184.634 121.108 185.4 121.875C186.167 122.625 186.55 123.808 186.55 125.425V135H182.95V125.25C182.95 124.033 182.384 123.425 181.25 123.425H178.3V129.975C178.3 131.242 178.1 132.25 177.7 133C177.317 133.75 176.725 134.317 175.925 134.7C175.142 135.067 174.084 135.308 172.75 135.425L172.45 132.975ZM199.52 120.725V123.7L195.02 135H191.42L195.895 123.425H188.645V117.075H191.895V120.725H199.52ZM201.846 123.65L201.546 120.725H205.146L205.446 123.65V135H201.846V123.65ZM212.941 135L212.491 132.325C212.024 133.075 211.474 133.708 210.841 134.225C210.224 134.742 209.457 135.158 208.541 135.475L207.216 132.625C209.549 131.892 211.132 130.725 211.966 129.125V125.05C211.966 124.45 211.874 124.025 211.691 123.775C211.507 123.525 211.199 123.367 210.766 123.3L209.191 123.075L209.641 120.425L212.591 120.825C213.607 120.958 214.357 121.342 214.841 121.975C215.324 122.592 215.566 123.483 215.566 124.65V129.4L216.366 135H212.941ZM224.636 125.25C224.636 124.033 224.078 123.425 222.961 123.425H218.086V120.725H223.936C225.27 120.725 226.32 121.108 227.086 121.875C227.87 122.625 228.261 123.808 228.261 125.425V135H224.636V125.25ZM230.043 132.975C230.677 132.908 231.152 132.783 231.468 132.6C231.785 132.417 232.002 132.167 232.118 131.85C232.235 131.517 232.285 131.05 232.268 130.45V120.725H239.843C241.177 120.725 242.227 121.108 242.993 121.875C243.76 122.625 244.143 123.808 244.143 125.425V135H240.543V125.25C240.543 124.033 239.977 123.425 238.843 123.425H235.893V129.975C235.893 131.242 235.693 132.25 235.293 133C234.91 133.75 234.318 134.317 233.518 134.7C232.735 135.067 231.677 135.308 230.343 135.425L230.043 132.975ZM263.817 120.725C263.801 124.042 263.667 126.55 263.417 128.25C263.184 129.933 262.551 131.358 261.517 132.525C260.484 133.675 258.817 134.475 256.517 134.925L251.167 135.975L250.667 133.15L254.642 132.4L251.767 120.725H255.367L257.892 131.6C258.642 131.233 259.184 130.675 259.517 129.925C259.851 129.175 260.051 128.267 260.117 127.2C260.201 126.133 260.242 124.517 260.242 122.35V120.725H263.817ZM266.397 123.65L266.097 120.725H269.697L269.997 123.65V135H266.397V123.65ZM280.741 129.15L284.041 135H280.416H272.091V132.3H278.891L272.366 120.725H275.991L278.816 125.75L280.866 120.725H284.416L280.741 129.15ZM286.831 123.65L286.531 120.725H290.131L290.431 123.65V127.55L290.406 129.125L286.831 129.75V123.65ZM304.601 132.3V135H299.326H292.726V132.3H299.326V125.25C299.326 124.033 298.759 123.425 297.626 123.425H292.726V120.725H298.626C299.959 120.725 301.009 121.108 301.776 121.875C302.543 122.625 302.926 123.808 302.926 125.425V132.3H304.601ZM318.175 132.3V135H312.9H306.3V132.3H312.9V125.25C312.9 124.033 312.333 123.425 311.2 123.425H306.3V120.725H312.2C313.533 120.725 314.583 121.108 315.35 121.875C316.117 122.625 316.5 123.808 316.5 125.425V132.3H318.175Z" fill="#FFF2B4"/>
<path d="M59.4142 157.586C58.6332 158.367 57.3668 158.367 56.5858 157.586L50 151H66L59.4142 157.586Z" fill="#073799"/>
</g>
<defs>
<filter id="filter0_d_558_1148" x="0" y="0" width="393" height="189" filterUnits="userSpaceOnUse" color-interpolation-filters="sRGB">
<feFlood flood-opacity="0" result="BackgroundImageFix"/>
<feColorMatrix in="SourceAlpha" type="matrix" values="0 0 0 0 0 0 0 0 0 0 0 0 0 0 0 0 0 0 127 0" result="hardAlpha"/>
<feOffset/>
<feGaussianBlur stdDeviation="15"/>
<feComposite in2="hardAlpha" operator="out"/>
<feColorMatrix type="matrix" values="0 0 0 0 0.00416667 0 0 0 0 0.00416667 0 0 0 0 0.00416667 0 0 0 0.2 0"/>
<feBlend mode="normal" in2="BackgroundImageFix" result="effect1_dropShadow_558_1148"/>
<feBlend mode="normal" in="SourceGraphic" in2="effect1_dropShadow_558_1148" result="shape"/>
</filter>
</defs>
</svg>
