<svg width="424" height="228" viewBox="0 0 424 228" fill="none" xmlns="http://www.w3.org/2000/svg">
<g filter="url(#filter0_d_694_16766)">
<rect x="30" y="30" width="364" height="160" rx="8" fill="#073799"/>
<path d="M74.3307 66.86V63.698V58.292L73.9567 54.314H80.1107L80.5187 58.292V63.698L80.4847 65.84L74.3307 66.86ZM90.1856 74V62.848C90.1856 61.9187 90.2762 61.114 90.4576 60.434C90.6389 59.754 90.8769 59.2327 91.1716 58.87H82.9096V54.314H99.6036V58.87H96.9176C96.6909 59.4367 96.5436 60.094 96.4756 60.842C96.4076 61.5673 96.3736 62.236 96.3736 62.848V74H90.1856ZM101.3 74V69.444H107.25C107.998 69.444 108.587 69.2627 109.018 68.9C109.449 68.5147 109.743 68.0273 109.902 67.438C110.083 66.826 110.174 66.1913 110.174 65.534V62.78C110.174 62.1227 110.083 61.4993 109.902 60.91C109.743 60.298 109.449 59.8107 109.018 59.448C108.587 59.0627 107.998 58.87 107.25 58.87H101.3V54.314H109.018C110.695 54.314 112.067 54.6993 113.132 55.47C114.22 56.218 115.025 57.2607 115.546 58.598C116.09 59.9127 116.362 61.42 116.362 63.12V65.194C116.362 66.894 116.09 68.4127 115.546 69.75C115.025 71.0647 114.22 72.1073 113.132 72.878C112.067 73.626 110.695 74 109.018 74H101.3ZM132.32 74V62.848C132.32 61.9187 132.411 61.114 132.592 60.434C132.774 59.754 133.012 59.2327 133.306 58.87H125.044V54.314H141.738V58.87H139.052C138.826 59.4367 138.678 60.094 138.61 60.842C138.542 61.5673 138.508 62.236 138.508 62.848V74H132.32ZM147.209 74L153.057 58.87H143.605V54.314H159.245V59.346L153.397 74H147.209ZM143.605 58.87V49.622H149.113V58.87H143.605ZM163.623 74.34L161.855 58.87L167.737 56.218L169.029 68.9C170.026 68.832 170.831 68.6847 171.443 68.458C172.078 68.2313 172.554 67.9367 172.871 67.574C173.211 67.1887 173.438 66.7467 173.551 66.248C173.687 65.7267 173.755 65.16 173.755 64.548C173.778 63.9133 173.778 63.2333 173.755 62.508V61.386C173.755 60.8193 173.664 60.3547 173.483 59.992C173.324 59.6293 173.109 59.3573 172.837 59.176C172.565 58.972 172.248 58.87 171.885 58.87H161.855L161.277 54.314H172.327C174.707 54.314 176.532 54.9487 177.801 56.218C179.093 57.4873 179.773 59.2327 179.841 61.454L179.875 62.644C179.943 64.752 179.626 66.5313 178.923 67.982C178.22 69.4327 177.166 70.6113 175.761 71.518C174.356 72.4247 172.633 73.1047 170.593 73.558C168.553 74.0113 166.23 74.272 163.623 74.34ZM194.017 74V60.4C194.017 59.8787 193.893 59.4933 193.643 59.244C193.394 58.9947 193.009 58.87 192.487 58.87H183.103V54.314H194.255C195.389 54.314 196.397 54.5293 197.281 54.96C198.188 55.3907 198.902 56.082 199.423 57.034C199.945 57.9633 200.205 59.1987 200.205 60.74V74H194.017ZM182.831 74V64.65L183.681 62.372H189.019V64.65V74H182.831ZM216.324 74V62.848C216.324 61.9187 216.415 61.114 216.596 60.434C216.778 59.754 217.016 59.2327 217.31 58.87H209.048V54.314H225.742V58.87H223.056C222.83 59.4367 222.682 60.094 222.614 60.842C222.546 61.5673 222.512 62.236 222.512 62.848V74H216.324ZM236.177 74.034L236.721 69.478C238.307 69.818 239.497 69.818 240.291 69.478C241.084 69.1153 241.617 68.4807 241.889 67.574C242.183 66.6673 242.331 65.568 242.331 64.276C242.331 63.0067 242.217 61.964 241.991 61.148C241.787 60.332 241.447 59.7313 240.971 59.346C240.517 58.938 239.905 58.734 239.135 58.734C238.681 58.734 238.239 58.8247 237.809 59.006C237.401 59.1873 237.049 59.4707 236.755 59.856C236.46 60.2187 236.279 60.706 236.211 61.318L234.919 58.87C235.372 57.1247 236.097 55.8667 237.095 55.096C238.115 54.3027 239.248 53.906 240.495 53.906C241.809 53.906 242.943 54.1327 243.895 54.586C244.869 55.0393 245.674 55.708 246.309 56.592C246.943 57.476 247.408 58.564 247.703 59.856C248.02 61.148 248.179 62.6213 248.179 64.276C248.179 66.7013 247.703 68.7527 246.751 70.43C245.821 72.1073 244.461 73.286 242.671 73.966C240.88 74.6233 238.715 74.646 236.177 74.034ZM228.085 74L230.363 60.978L227.609 54.314H234.035L236.211 61.318L234.273 74H228.085ZM260.531 74L266.379 58.87H256.927V54.314H272.567V59.346L266.719 74H260.531ZM256.927 58.87V49.622H262.435V58.87H256.927ZM274.157 75.496L273.307 70.702L282.215 69.036C283.213 68.8547 283.995 68.526 284.561 68.05C285.128 67.5513 285.547 66.9053 285.819 66.112C286.114 65.3187 286.307 64.3553 286.397 63.222C286.488 62.0887 286.522 60.7853 286.499 59.312C286.499 57.816 286.499 56.15 286.499 54.314H292.619C292.619 56.3767 292.585 58.3147 292.517 60.128C292.449 61.9187 292.257 63.5733 291.939 65.092C291.645 66.588 291.135 67.9253 290.409 69.104C289.707 70.2827 288.698 71.28 287.383 72.096C286.091 72.912 284.403 73.524 282.317 73.932L274.157 75.496ZM278.509 70.396L274.735 54.314H280.923L284.391 70.396H278.509ZM309.578 80.8L301.486 54.314H307.334L315.426 80.8H309.578ZM310.904 73.15L307.3 68.594L313.522 54.314H319.336L310.904 73.15ZM333.252 74V60.4C333.252 59.38 332.742 58.87 331.722 58.87H321.658V54.314H333.49C334.624 54.314 335.632 54.5293 336.516 54.96C337.423 55.3907 338.137 56.082 338.658 57.034C339.18 57.9633 339.44 59.1987 339.44 60.74V74H333.252ZM321.658 74V57.238H327.846V74H321.658ZM345.332 74L351.18 58.87H341.728V54.314H357.368V59.346L351.52 74H345.332ZM341.728 58.87V49.622H347.236V58.87H341.728ZM58.9655 128.8V108.4C58.9655 107.879 58.8408 107.493 58.5915 107.244C58.3421 106.995 57.9568 106.87 57.4355 106.87H50.1255V102.314H59.2035C60.3368 102.314 61.3455 102.529 62.2295 102.96C63.1361 103.391 63.8501 104.082 64.3715 105.034C64.8928 105.963 65.1535 107.199 65.1535 108.74V128.8H58.9655ZM68.4039 122V106.292L68.0299 102.314H74.1839L74.5919 106.292V122H68.4039ZM80.5868 122L86.4348 106.87H76.9828V102.314H92.6228V107.346L86.7748 122H80.5868ZM76.9828 106.87V97.622H82.4908V106.87H76.9828ZM95.1988 114.86V111.698V106.292L94.8248 102.314H100.979L101.387 106.292V111.698L101.353 113.84L95.1988 114.86ZM115.542 122V108.4C115.542 107.879 115.417 107.493 115.168 107.244C114.918 106.995 114.533 106.87 114.012 106.87H104.628V102.314H115.78C116.913 102.314 117.922 102.529 118.806 102.96C119.712 103.391 120.426 104.082 120.948 105.034C121.469 105.963 121.73 107.199 121.73 108.74V122H115.542ZM104.356 122V112.65L105.206 110.372H110.544V112.65V122H104.356ZM126.758 122.34L124.106 102.314H129.954L131.722 117.308C133.377 117.195 134.725 116.9 135.768 116.424C136.833 115.925 137.649 115.291 138.216 114.52C138.783 113.749 139.168 112.877 139.372 111.902C139.599 110.905 139.712 109.862 139.712 108.774L139.644 102.314H145.832L145.866 108.434C145.889 111.517 145.243 114.123 143.928 116.254C142.636 118.385 140.585 119.971 137.774 121.014C134.963 122.057 131.291 122.499 126.758 122.34ZM130.566 114.384L129.104 110.61C130.056 110.497 130.747 110.225 131.178 109.794C131.609 109.363 131.881 108.729 131.994 107.89C132.107 107.051 132.153 105.975 132.13 104.66L132.096 102.314H137.944V104.524C137.944 106.088 137.74 107.527 137.332 108.842C136.947 110.157 136.221 111.29 135.156 112.242C134.091 113.171 132.561 113.885 130.566 114.384ZM147.569 122V117.444H153.519C154.267 117.444 154.856 117.263 155.287 116.9C155.717 116.515 156.012 116.027 156.171 115.438C156.352 114.826 156.443 114.191 156.443 113.534V110.78C156.443 110.123 156.352 109.499 156.171 108.91C156.012 108.298 155.717 107.811 155.287 107.448C154.856 107.063 154.267 106.87 153.519 106.87H147.569V102.314H155.287C156.964 102.314 158.335 102.699 159.401 103.47C160.489 104.218 161.293 105.261 161.815 106.598C162.359 107.913 162.631 109.42 162.631 111.12V113.194C162.631 114.894 162.359 116.413 161.815 117.75C161.293 119.065 160.489 120.107 159.401 120.878C158.335 121.626 156.964 122 155.287 122H147.569ZM183.077 122V108.4C183.077 107.879 182.952 107.493 182.703 107.244C182.454 106.995 182.068 106.87 181.547 106.87H172.163V102.314H183.315C184.448 102.314 185.457 102.529 186.341 102.96C187.248 103.391 187.962 104.082 188.483 105.034C189.004 105.963 189.265 107.199 189.265 108.74V122H183.077ZM171.891 122V112.65L172.741 110.372H178.079V112.65V122H171.891ZM199.631 122V108.4C199.631 107.879 199.507 107.493 199.257 107.244C199.008 106.995 198.623 106.87 198.101 106.87H191.131V102.314H199.869C201.003 102.314 202.011 102.529 202.895 102.96C203.802 103.391 204.516 104.082 205.037 105.034C205.559 105.963 205.819 107.199 205.819 108.74V122H199.631ZM209.086 122V106.292L208.712 102.314H214.866L215.274 106.292V122H209.086ZM226.062 122.034L225.586 117.478C226.312 117.433 226.924 117.297 227.422 117.07C227.921 116.843 228.329 116.515 228.646 116.084C228.964 115.653 229.202 115.109 229.36 114.452C229.519 113.772 229.632 112.979 229.7 112.072L230.04 106.87H218.446V102.314H236.704L236.5 106.19L236.228 110.372C236.16 111.823 235.956 113.239 235.616 114.622C235.299 116.005 234.778 117.263 234.052 118.396C233.327 119.507 232.318 120.391 231.026 121.048C229.734 121.705 228.08 122.034 226.062 122.034ZM218.004 128.8V112.616L218.854 110.27H224.192V112.582V128.8H218.004ZM257.087 122V108.4C257.087 107.879 256.962 107.493 256.713 107.244C256.463 106.995 256.078 106.87 255.557 106.87H246.173V102.314H257.325C258.458 102.314 259.467 102.529 260.351 102.96C261.257 103.391 261.971 104.082 262.493 105.034C263.014 105.963 263.275 107.199 263.275 108.74V122H257.087ZM245.901 122V112.65L246.751 110.372H252.089V112.65V122H245.901ZM273.879 122.034L274.423 117.478C276.01 117.818 277.2 117.818 277.993 117.478C278.786 117.115 279.319 116.481 279.591 115.574C279.886 114.667 280.033 113.568 280.033 112.276C280.033 111.007 279.92 109.964 279.693 109.148C279.489 108.332 279.149 107.731 278.673 107.346C278.22 106.938 277.608 106.734 276.837 106.734C276.384 106.734 275.942 106.825 275.511 107.006C275.103 107.187 274.752 107.471 274.457 107.856C274.162 108.219 273.981 108.706 273.913 109.318L272.621 106.87C273.074 105.125 273.8 103.867 274.797 103.096C275.817 102.303 276.95 101.906 278.197 101.906C279.512 101.906 280.645 102.133 281.597 102.586C282.572 103.039 283.376 103.708 284.011 104.592C284.646 105.476 285.11 106.564 285.405 107.856C285.722 109.148 285.881 110.621 285.881 112.276C285.881 114.701 285.405 116.753 284.453 118.43C283.524 120.107 282.164 121.286 280.373 121.966C278.582 122.623 276.418 122.646 273.879 122.034ZM265.787 122L268.065 108.978L265.311 102.314H271.737L273.913 109.318L271.975 122H265.787ZM294.799 122.646L294.289 118.498C295.151 118.385 295.774 118.226 296.159 118.022C296.545 117.818 296.794 117.512 296.907 117.104C297.021 116.696 297.077 116.129 297.077 115.404V102.314H308.433C309.567 102.314 310.575 102.529 311.459 102.96C312.366 103.391 313.08 104.082 313.601 105.034C314.123 105.963 314.383 107.199 314.383 108.74V122H308.195V108.4C308.195 107.879 308.071 107.493 307.821 107.244C307.572 106.995 307.187 106.87 306.665 106.87H303.265V114.588C303.265 116.537 302.959 118.067 302.347 119.178C301.758 120.289 300.84 121.105 299.593 121.626C298.347 122.125 296.749 122.465 294.799 122.646ZM317.66 122V106.292L317.286 102.314H323.44L323.848 106.292V122H317.66ZM346.605 122H340.077L334.433 113.058L331.747 122H325.899L329.707 110.338L330.795 107.55L327.633 102.314H333.821L336.371 106.53L338.377 109.658L339.363 106.394L340.349 102.314H346.197L341.981 114.996L346.605 122ZM356.649 122V108.4C356.649 107.879 356.524 107.493 356.275 107.244C356.025 106.995 355.64 106.87 355.119 106.87H348.149V102.314H356.887C358.02 102.314 359.029 102.529 359.913 102.96C360.819 103.391 361.533 104.082 362.055 105.034C362.576 105.963 362.837 107.199 362.837 108.74V122H356.649ZM368.823 122L374.671 106.87H365.219V102.314H380.859V107.346L375.011 122H368.823ZM365.219 106.87V97.622H370.727V106.87H365.219ZM69.0613 170V156.4C69.0613 155.879 68.9367 155.493 68.6873 155.244C68.438 154.995 68.0527 154.87 67.5313 154.87H61.6153V150.314H69.2993C70.4327 150.314 71.4413 150.529 72.3253 150.96C73.232 151.391 73.946 152.082 74.4673 153.034C74.9887 153.963 75.2493 155.199 75.2493 156.74V166.226V170H69.0613ZM58.8953 170V165.444H73.0053V170H58.8953ZM57.6373 170V153.952V150.314H63.8253V154.292V170H57.6373ZM78.3317 162.86V159.698V154.292L77.9577 150.314H84.1117L84.5197 154.292V159.698L84.4857 161.84L78.3317 162.86ZM95.4785 170.034L96.0225 165.478C97.6092 165.818 98.7992 165.818 99.5925 165.478C100.386 165.115 100.919 164.481 101.191 163.574C101.485 162.667 101.633 161.568 101.633 160.276C101.633 159.007 101.519 157.964 101.293 157.148C101.089 156.332 100.749 155.731 100.273 155.346C99.8192 154.938 99.2072 154.734 98.4365 154.734C97.9832 154.734 97.5412 154.825 97.1105 155.006C96.7025 155.187 96.3512 155.471 96.0565 155.856C95.7619 156.219 95.5805 156.706 95.5125 157.318L94.2205 154.87C94.6739 153.125 95.3992 151.867 96.3965 151.096C97.4165 150.303 98.5499 149.906 99.7965 149.906C101.111 149.906 102.245 150.133 103.197 150.586C104.171 151.039 104.976 151.708 105.611 152.592C106.245 153.476 106.71 154.564 107.005 155.856C107.322 157.148 107.481 158.621 107.481 160.276C107.481 162.701 107.005 164.753 106.053 166.43C105.123 168.107 103.763 169.286 101.973 169.966C100.182 170.623 98.0172 170.646 95.4785 170.034ZM87.3865 170L89.6645 156.978L86.9105 150.314H93.3365L95.5125 157.318L93.5745 170H87.3865ZM110.306 162.86V159.698V154.292L109.932 150.314H116.086L116.494 154.292V159.698L116.46 161.84L110.306 162.86ZM139.251 170H132.723L127.079 161.058L124.393 170H118.545L122.353 158.338L123.441 155.55L120.279 150.314H126.467L129.017 154.53L131.023 157.658L132.009 154.394L132.995 150.314H138.843L134.627 162.996L139.251 170ZM141.135 170.646L140.625 166.498C141.487 166.385 142.11 166.226 142.495 166.022C142.881 165.818 143.13 165.512 143.243 165.104C143.357 164.696 143.413 164.129 143.413 163.404V150.314H154.769C155.903 150.314 156.911 150.529 157.795 150.96C158.702 151.391 159.416 152.082 159.937 153.034C160.459 153.963 160.719 155.199 160.719 156.74V170H154.531V156.4C154.531 155.879 154.407 155.493 154.157 155.244C153.908 154.995 153.523 154.87 153.001 154.87H149.601V162.588C149.601 164.537 149.295 166.067 148.683 167.178C148.094 168.289 147.176 169.105 145.929 169.626C144.683 170.125 143.085 170.465 141.135 170.646ZM171.68 170.034L172.224 165.478C173.81 165.818 175 165.818 175.794 165.478C176.587 165.115 177.12 164.481 177.392 163.574C177.686 162.667 177.834 161.568 177.834 160.276C177.834 159.007 177.72 157.964 177.494 157.148C177.29 156.332 176.95 155.731 176.474 155.346C176.02 154.938 175.408 154.734 174.638 154.734C174.184 154.734 173.742 154.825 173.312 155.006C172.904 155.187 172.552 155.471 172.258 155.856C171.963 156.219 171.782 156.706 171.714 157.318L170.422 154.87C170.875 153.125 171.6 151.867 172.598 151.096C173.618 150.303 174.751 149.906 175.998 149.906C177.312 149.906 178.446 150.133 179.398 150.586C180.372 151.039 181.177 151.708 181.812 152.592C182.446 153.476 182.911 154.564 183.206 155.856C183.523 157.148 183.682 158.621 183.682 160.276C183.682 162.701 183.206 164.753 182.254 166.43C181.324 168.107 179.964 169.286 178.174 169.966C176.383 170.623 174.218 170.646 171.68 170.034ZM163.588 170L165.866 156.978L163.112 150.314H169.538L171.714 157.318L169.776 170H163.588ZM212.796 170H206.268L200.624 161.058L197.938 170H192.09L195.898 158.338L196.986 155.55L193.824 150.314H200.012L202.562 154.53L204.568 157.658L205.554 154.394L206.54 150.314H212.388L208.172 162.996L212.796 170ZM218.114 170L223.962 154.87H214.51V150.314H230.15V155.346L224.302 170H218.114ZM214.51 154.87V145.622H220.018V154.87H214.51ZM238.819 170.646L238.309 166.498C239.17 166.385 239.793 166.226 240.179 166.022C240.564 165.818 240.813 165.512 240.927 165.104C241.04 164.696 241.097 164.129 241.097 163.404V150.314H252.453C253.586 150.314 254.595 150.529 255.479 150.96C256.385 151.391 257.099 152.082 257.621 153.034C258.142 153.963 258.403 155.199 258.403 156.74V170H252.215V156.4C252.215 155.879 252.09 155.493 251.841 155.244C251.591 154.995 251.206 154.87 250.685 154.87H247.285V162.588C247.285 164.537 246.979 166.067 246.367 167.178C245.777 168.289 244.859 169.105 243.613 169.626C242.366 170.125 240.768 170.465 238.819 170.646ZM261.679 170V154.292L261.305 150.314H267.459L267.867 154.292V170H261.679ZM278.588 170V156.4C278.588 155.879 278.464 155.493 278.214 155.244C277.965 154.995 277.58 154.87 277.058 154.87H270.088V150.314H278.826C279.96 150.314 280.968 150.529 281.852 150.96C282.759 151.391 283.473 152.082 283.994 153.034C284.516 153.963 284.776 155.199 284.776 156.74V170H278.588ZM288.043 162.86V159.698V154.292L287.669 150.314H293.823L294.231 154.292V159.698L294.197 161.84L288.043 162.86ZM308.385 170V156.4C308.385 155.879 308.261 155.493 308.011 155.244C307.762 154.995 307.377 154.87 306.855 154.87H297.471V150.314H308.623C309.757 150.314 310.765 150.529 311.649 150.96C312.556 151.391 313.27 152.082 313.791 153.034C314.313 153.963 314.573 155.199 314.573 156.74V170H308.385ZM297.199 170V160.65L298.049 158.372H303.387V160.65V170H297.199ZM325.178 170.034L325.722 165.478C327.308 165.818 328.498 165.818 329.292 165.478C330.085 165.115 330.618 164.481 330.89 163.574C331.184 162.667 331.332 161.568 331.332 160.276C331.332 159.007 331.218 157.964 330.992 157.148C330.788 156.332 330.448 155.731 329.972 155.346C329.518 154.938 328.906 154.734 328.136 154.734C327.682 154.734 327.24 154.825 326.81 155.006C326.402 155.187 326.05 155.471 325.756 155.856C325.461 156.219 325.28 156.706 325.212 157.318L323.92 154.87C324.373 153.125 325.098 151.867 326.096 151.096C327.116 150.303 328.249 149.906 329.496 149.906C330.81 149.906 331.944 150.133 332.896 150.586C333.87 151.039 334.675 151.708 335.31 152.592C335.944 153.476 336.409 154.564 336.704 155.856C337.021 157.148 337.18 158.621 337.18 160.276C337.18 162.701 336.704 164.753 335.752 166.43C334.822 168.107 333.462 169.286 331.672 169.966C329.881 170.623 327.716 170.646 325.178 170.034ZM317.086 170L319.364 156.978L316.61 150.314H323.036L325.212 157.318L323.274 170H317.086ZM350.885 170V156.4C350.885 155.879 350.761 155.493 350.511 155.244C350.262 154.995 349.877 154.87 349.355 154.87H339.971V150.314H351.123C352.257 150.314 353.265 150.529 354.149 150.96C355.056 151.391 355.77 152.082 356.291 153.034C356.813 153.963 357.073 155.199 357.073 156.74V170H350.885ZM339.699 170V160.65L340.549 158.372H345.887V160.65V170H339.699ZM359.994 170V154.292L359.62 150.314H365.774L366.182 154.292V170H359.994Z" fill="#FEFEFE"/>
<path d="M59.4142 196.586C58.6332 197.367 57.3668 197.367 56.5858 196.586L50 190H66L59.4142 196.586Z" fill="#073799"/>
</g>
<defs>
<filter id="filter0_d_694_16766" x="0" y="0" width="425" height="228" filterUnits="userSpaceOnUse" color-interpolation-filters="sRGB">
<feFlood flood-opacity="0" result="BackgroundImageFix"/>
<feColorMatrix in="SourceAlpha" type="matrix" values="0 0 0 0 0 0 0 0 0 0 0 0 0 0 0 0 0 0 127 0" result="hardAlpha"/>
<feOffset/>
<feGaussianBlur stdDeviation="15"/>
<feComposite in2="hardAlpha" operator="out"/>
<feColorMatrix type="matrix" values="0 0 0 0 0.00416667 0 0 0 0 0.00416667 0 0 0 0 0.00416667 0 0 0 0.2 0"/>
<feBlend mode="normal" in2="BackgroundImageFix" result="effect1_dropShadow_694_16766"/>
<feBlend mode="normal" in="SourceGraphic" in2="effect1_dropShadow_694_16766" result="shape"/>
</filter>
</defs>
</svg>
