<svg width="406" height="168" viewBox="0 0 406 168" fill="none" xmlns="http://www.w3.org/2000/svg">
<g filter="url(#filter0_d_674_5102)">
<rect x="30" y="30" width="346" height="100" rx="8" fill="#073799"/>
<path d="M62.0874 52.87V56.44L56.6874 70H52.3674L57.7374 56.11H49.0374V48.49H52.9374V52.87H62.0874ZM70.4288 70L69.8888 66.79C69.3288 67.69 68.6688 68.45 67.9088 69.07C67.1688 69.69 66.2488 70.19 65.1488 70.57L63.5588 67.15C66.3588 66.27 68.2588 64.87 69.2588 62.95V58.06C69.2588 57.34 69.1488 56.83 68.9288 56.53C68.7088 56.23 68.3388 56.04 67.8188 55.96L65.9288 55.69L66.4688 52.51L70.0088 52.99C71.2288 53.15 72.1288 53.61 72.7088 54.37C73.2888 55.11 73.5788 56.18 73.5788 57.58V63.28L74.5388 70H70.4288ZM84.4637 58.3C84.4637 56.84 83.7937 56.11 82.4537 56.11H76.6037V52.87H83.6237C85.2237 52.87 86.4837 53.33 87.4037 54.25C88.3437 55.15 88.8137 56.57 88.8137 58.51V70H84.4637V58.3ZM101.872 58.3C101.872 56.84 101.202 56.11 99.8621 56.11H92.0321V52.87H101.032C102.632 52.87 103.892 53.33 104.812 54.25C105.752 55.15 106.222 56.57 106.222 58.51V70H101.872V58.3ZM91.8521 61.81L92.4521 59.8H96.2021V70H91.8521V61.81ZM121.589 52.87V56.44L116.189 70H111.869L117.239 56.11H108.539V48.49H112.439V52.87H121.589ZM142.537 52.87V56.44L137.137 70H132.817L138.187 56.11H129.487V48.49H133.387V52.87H142.537ZM150.878 70L150.338 66.79C149.778 67.69 149.118 68.45 148.358 69.07C147.618 69.69 146.698 70.19 145.598 70.57L144.008 67.15C146.808 66.27 148.708 64.87 149.708 62.95V58.06C149.708 57.34 149.598 56.83 149.378 56.53C149.158 56.23 148.788 56.04 148.268 55.96L146.378 55.69L146.918 52.51L150.458 52.99C151.678 53.15 152.578 53.61 153.158 54.37C153.738 55.11 154.028 56.18 154.028 57.58V63.28L154.988 70H150.878ZM164.913 58.3C164.913 56.84 164.243 56.11 162.903 56.11H157.053V52.87H164.073C165.673 52.87 166.933 53.33 167.853 54.25C168.793 55.15 169.263 56.57 169.263 58.51V70H164.913V58.3ZM171.401 67.57C172.161 67.49 172.731 67.34 173.111 67.12C173.491 66.9 173.751 66.6 173.891 66.22C174.031 65.82 174.091 65.26 174.071 64.54V52.87H183.161C184.761 52.87 186.021 53.33 186.941 54.25C187.861 55.15 188.321 56.57 188.321 58.51V70H184.001V58.3C184.001 56.84 183.321 56.11 181.961 56.11H178.421V63.97C178.421 65.49 178.181 66.7 177.701 67.6C177.241 68.5 176.531 69.18 175.571 69.64C174.631 70.08 173.361 70.37 171.761 70.51L171.401 67.57ZM201.364 58.3C201.364 56.84 200.694 56.11 199.354 56.11H191.524V52.87H200.524C202.124 52.87 203.384 53.33 204.304 54.25C205.244 55.15 205.714 56.57 205.714 58.51V70H201.364V58.3ZM191.344 61.81L191.944 59.8H195.694V70H191.344V61.81ZM221.082 52.87V56.44L215.682 70H211.362L216.732 56.11H208.032V48.49H211.932V52.87H221.082ZM229.879 56.38L229.519 52.87H233.839L234.199 56.38V61.06L234.169 62.95L229.879 63.7V56.38ZM243.703 59.62C243.703 58.86 243.773 58.18 243.913 57.58C244.073 56.96 244.283 56.47 244.543 56.11H236.863V52.87H250.933V56.11H248.593C248.213 56.97 248.023 58.14 248.023 59.62V70H243.703V59.62ZM252.942 66.76H257.742C258.902 66.76 259.752 66.38 260.292 65.62C260.852 64.86 261.132 63.84 261.132 62.56V60.31C261.132 59.03 260.852 58.01 260.292 57.25C259.752 56.49 258.902 56.11 257.742 56.11H252.942V52.87H258.912C261.052 52.87 262.682 53.56 263.802 54.94C264.922 56.3 265.482 58.17 265.482 60.55V62.32C265.482 64.7 264.922 66.58 263.802 67.96C262.682 69.32 261.052 70 258.912 70H252.942V66.76ZM277.289 63.22C277.249 62.86 277.229 62.6 277.229 62.44C277.229 61.54 277.429 60.75 277.829 60.07C278.229 59.37 278.799 58.6 279.539 57.76C280.099 57.12 280.499 56.6 280.739 56.2C280.999 55.78 281.129 55.35 281.129 54.91C281.129 54.27 280.929 53.77 280.529 53.41C280.149 53.03 279.629 52.84 278.969 52.84C278.429 52.84 277.929 52.97 277.469 53.23C277.029 53.47 276.579 53.82 276.119 54.28L273.869 52.21C274.589 51.39 275.429 50.74 276.389 50.26C277.349 49.78 278.379 49.54 279.479 49.54C281.159 49.54 282.509 49.97 283.529 50.83C284.549 51.69 285.059 52.95 285.059 54.61C285.059 55.41 284.879 56.12 284.519 56.74C284.159 57.34 283.619 58.05 282.899 58.87C282.219 59.63 281.709 60.29 281.369 60.85C281.029 61.41 280.859 62.05 280.859 62.77C280.859 62.97 280.869 63.12 280.889 63.22H277.289ZM279.089 70.36C278.369 70.36 277.769 70.11 277.289 69.61C276.809 69.11 276.569 68.48 276.569 67.72C276.569 66.96 276.809 66.33 277.289 65.83C277.769 65.33 278.369 65.08 279.089 65.08C279.809 65.08 280.409 65.33 280.889 65.83C281.369 66.33 281.609 66.96 281.609 67.72C281.609 68.48 281.369 69.11 280.889 69.61C280.409 70.11 279.809 70.36 279.089 70.36ZM286.89 67.57C287.65 67.49 288.22 67.34 288.6 67.12C288.98 66.9 289.24 66.6 289.38 66.22C289.52 65.82 289.58 65.26 289.56 64.54V52.87H298.65C300.25 52.87 301.51 53.33 302.43 54.25C303.35 55.15 303.81 56.57 303.81 58.51V70H299.49V58.3C299.49 56.84 298.81 56.11 297.45 56.11H293.91V63.97C293.91 65.49 293.67 66.7 293.19 67.6C292.73 68.5 292.02 69.18 291.06 69.64C290.12 70.08 288.85 70.37 287.25 70.51L286.89 67.57ZM321.413 52.87C321.393 56.85 321.233 59.86 320.933 61.9C320.653 63.92 319.893 65.63 318.653 67.03C317.413 68.41 315.413 69.37 312.653 69.91L306.233 71.17L305.633 67.78L310.403 66.88L306.953 52.87H311.273L314.303 65.92C315.203 65.48 315.853 64.81 316.253 63.91C316.653 63.01 316.893 61.92 316.973 60.64C317.073 59.36 317.123 57.42 317.123 54.82V52.87H321.413ZM330.568 59.62C330.568 58.86 330.638 58.18 330.778 57.58C330.938 56.96 331.148 56.47 331.408 56.11H323.728V52.87H337.798V56.11H335.458C335.078 56.97 334.888 58.14 334.888 59.62V70H330.568V59.62ZM340.768 56.38L340.408 52.87H344.728L345.088 56.38V61.06L345.058 62.95L340.768 63.7V56.38ZM358.161 58.3C358.161 56.84 357.491 56.11 356.151 56.11H348.321V52.87H357.321C358.921 52.87 360.181 53.33 361.101 54.25C362.041 55.15 362.511 56.57 362.511 58.51V70H358.161V58.3ZM348.141 61.81L348.741 59.8H352.491V70H348.141V61.81ZM92.4733 94.87C94.0733 94.87 95.3333 95.33 96.2533 96.25C97.1933 97.15 97.6633 98.57 97.6633 100.51V112H93.3133H83.8933H82.9933V94.87H87.3133H92.4733ZM93.3133 108.76V100.3C93.3133 98.84 92.6433 98.11 91.3033 98.11H87.3133V108.76H93.3133ZM100.987 98.38L100.627 94.87H104.947L105.307 98.38V103.06L105.277 104.95L100.987 105.7V98.38ZM125.011 103.45C125.011 106.23 124.361 108.42 123.061 110.02C121.781 111.6 119.971 112.39 117.631 112.39C116.791 112.39 115.871 112.27 114.871 112.03L115.261 108.79C116.001 108.95 116.621 109.03 117.121 109.03C118.481 109.03 119.451 108.58 120.031 107.68C120.611 106.76 120.901 105.41 120.901 103.63C120.901 101.65 120.621 100.22 120.061 99.34C119.521 98.44 118.681 97.99 117.541 97.99C116.741 97.99 116.061 98.23 115.501 98.71C114.961 99.19 114.621 99.84 114.481 100.66L112.621 112H108.301L110.371 100.45L107.971 94.87H112.471L113.671 98.29C114.091 97.05 114.721 96.13 115.561 95.53C116.401 94.91 117.361 94.6 118.441 94.6C120.581 94.6 122.211 95.34 123.331 96.82C124.451 98.28 125.011 100.49 125.011 103.45ZM127.999 98.38L127.639 94.87H131.959L132.319 98.38V103.06L132.289 104.95L127.999 105.7V98.38ZM141.078 109.63C143.158 107.65 144.738 106.09 145.818 104.95C146.918 103.81 147.798 102.72 148.458 101.68C149.118 100.64 149.448 99.68 149.448 98.8C149.448 97.86 149.198 97.13 148.698 96.61C148.198 96.07 147.498 95.8 146.598 95.8C145.958 95.8 145.358 95.98 144.798 96.34C144.238 96.7 143.678 97.18 143.118 97.78L140.868 95.56C141.828 94.54 142.788 93.79 143.748 93.31C144.728 92.81 145.868 92.56 147.168 92.56C149.028 92.56 150.528 93.11 151.668 94.21C152.808 95.29 153.378 96.74 153.378 98.56C153.378 100.04 152.828 101.58 151.728 103.18C150.628 104.76 149.048 106.62 146.988 108.76C148.148 108.62 149.218 108.55 150.198 108.55H154.308V112H141.078V109.63ZM156.842 108.67H161.042V97.15H157.502V94.6C158.482 94.42 159.332 94.2 160.052 93.94C160.772 93.68 161.462 93.34 162.122 92.92H165.152V108.67H168.782V112H156.842V108.67ZM187.044 94.87C188.644 94.87 189.904 95.33 190.824 96.25C191.764 97.15 192.234 98.57 192.234 100.51V112H187.884H178.464H177.564V94.87H181.884H187.044ZM187.884 108.76V100.3C187.884 98.84 187.214 98.11 185.874 98.11H181.884V108.76H187.884ZM195.558 98.38L195.198 94.87H199.518L199.878 98.38V103.06L199.848 104.95L195.558 105.7V98.38ZM220.691 99.88C220.731 103.98 219.541 107.08 217.121 109.18C214.701 111.26 210.951 112.3 205.871 112.3H204.941L202.691 94.87H206.801L207.671 102.28C208.471 101.88 209.011 101.28 209.291 100.48C209.571 99.68 209.701 98.48 209.681 96.88V94.9H213.791V96.79C213.751 98.99 213.311 100.78 212.471 102.16C211.631 103.52 210.151 104.56 208.031 105.28L208.451 108.73C211.311 108.55 213.351 107.73 214.571 106.27C215.791 104.79 216.391 102.74 216.371 100.12L216.311 94.87H220.661L220.691 99.88ZM230.523 100.3C230.523 98.84 229.853 98.11 228.513 98.11H222.663V94.87H229.683C231.283 94.87 232.543 95.33 233.463 96.25C234.403 97.15 234.873 98.57 234.873 100.51V112H230.523V100.3ZM244.362 101.62C244.362 100.86 244.432 100.18 244.572 99.58C244.732 98.96 244.942 98.47 245.202 98.11H237.522V94.87H251.592V98.11H249.252C248.872 98.97 248.682 100.14 248.682 101.62V112H244.362V101.62ZM253.901 108.76H258.281V100.09C258.281 99.37 258.141 98.86 257.861 98.56C257.601 98.26 257.191 98.07 256.631 97.99L254.531 97.69L255.071 94.51L258.821 94.99C260.041 95.15 260.971 95.67 261.611 96.55C262.271 97.43 262.601 98.57 262.601 99.97V112H253.901V108.76ZM289.363 99.88C289.403 103.98 288.213 107.08 285.793 109.18C283.373 111.26 279.623 112.3 274.543 112.3H273.613L271.363 94.87H275.473L276.343 102.28C277.143 101.88 277.683 101.28 277.963 100.48C278.243 99.68 278.373 98.48 278.353 96.88V94.9H282.463V96.79C282.423 98.99 281.983 100.78 281.143 102.16C280.303 103.52 278.823 104.56 276.703 105.28L277.123 108.73C279.983 108.55 282.023 107.73 283.243 106.27C284.463 104.79 285.063 102.74 285.043 100.12L284.983 94.87H289.333L289.363 99.88ZM298.385 101.62C298.385 100.86 298.455 100.18 298.595 99.58C298.755 98.96 298.965 98.47 299.225 98.11H291.545V94.87H305.615V98.11H303.275C302.895 98.97 302.705 100.14 302.705 101.62V112H298.385V101.62ZM317.885 94.87C319.485 94.87 320.745 95.35 321.665 96.31C322.605 97.27 323.075 98.72 323.075 100.66V112H318.725V100.45C318.725 98.89 318.055 98.11 316.715 98.11H312.695V112H308.375V96.82V94.87H317.885Z" fill="#FFF2B4"/>
<path d="M59.4142 136.586C58.6332 137.367 57.3668 137.367 56.5858 136.586L50 130H66L59.4142 136.586Z" fill="#073799"/>
</g>
<defs>
<filter id="filter0_d_674_5102" x="0" y="0" width="406" height="168" filterUnits="userSpaceOnUse" color-interpolation-filters="sRGB">
<feFlood flood-opacity="0" result="BackgroundImageFix"/>
<feColorMatrix in="SourceAlpha" type="matrix" values="0 0 0 0 0 0 0 0 0 0 0 0 0 0 0 0 0 0 127 0" result="hardAlpha"/>
<feOffset/>
<feGaussianBlur stdDeviation="15"/>
<feComposite in2="hardAlpha" operator="out"/>
<feColorMatrix type="matrix" values="0 0 0 0 0.00416667 0 0 0 0 0.00416667 0 0 0 0 0.00416667 0 0 0 0.2 0"/>
<feBlend mode="normal" in2="BackgroundImageFix" result="effect1_dropShadow_674_5102"/>
<feBlend mode="normal" in="SourceGraphic" in2="effect1_dropShadow_674_5102" result="shape"/>
</filter>
</defs>
</svg>
