<svg width="367" height="228" viewBox="0 0 367 228" fill="none" xmlns="http://www.w3.org/2000/svg">
<g filter="url(#filter0_d_694_17190)">
<rect x="30" y="30" width="307" height="160" rx="8" fill="#073799"/>
<path d="M65.3873 58.292L65.0133 54.314H71.1673L71.5753 58.292V80.8H65.3873V58.292ZM74.8502 58.292L74.4762 54.314H80.6302L81.0382 58.292V63.698L81.0042 65.84L74.8502 66.86V58.292ZM96.3151 53.906C98.8991 53.906 100.826 54.79 102.095 56.558C103.364 58.326 103.999 60.8987 103.999 64.276C103.999 67.404 103.228 69.886 101.687 71.722C100.168 73.5353 98.0378 74.442 95.2951 74.442C94.2978 74.442 93.1984 74.306 91.9971 74.034L92.5411 69.478C93.2664 69.6367 93.9351 69.716 94.5471 69.716C95.9524 69.716 96.9044 69.2627 97.4031 68.356C97.9018 67.4493 98.1511 66.0893 98.1511 64.276C98.1511 62.372 97.9018 60.978 97.4031 60.094C96.9044 59.1873 96.0884 58.734 94.9551 58.734C94.2071 58.734 93.5498 58.9607 92.9831 59.414C92.4391 59.8447 92.1218 60.4793 92.0311 61.318L90.0931 74H83.9051L86.1831 60.978L83.4291 54.314H89.8551L91.0111 58.02C91.5098 56.6147 92.2124 55.5833 93.1191 54.926C94.0484 54.246 95.1138 53.906 96.3151 53.906ZM108.015 62.848C108.015 61.964 108.105 61.182 108.287 60.502C108.468 59.7993 108.706 59.2553 109.001 58.87H106.111V54.314H117.093V58.87H114.577C114.395 59.3233 114.282 59.8333 114.237 60.4C114.214 60.944 114.203 61.454 114.203 61.93C114.203 62.406 114.203 62.712 114.203 62.848V74H108.015V62.848ZM138.377 54.314C140.19 54.314 141.63 54.8353 142.695 55.878C143.783 56.9207 144.327 58.5413 144.327 60.74V74H138.139V60.4C138.139 59.38 137.629 58.87 136.609 58.87H132.733V74H126.545V57.238V54.314H138.377ZM147.499 58.292L147.125 54.314H153.279L153.687 58.292V74H147.499V58.292ZM155.908 69.444H161.858C162.9 69.444 163.648 69.0813 164.102 68.356C164.555 67.608 164.782 66.6673 164.782 65.534V62.78C164.782 61.6467 164.555 60.7173 164.102 59.992C163.648 59.244 162.9 58.87 161.858 58.87H155.908V54.314H163.626C166.028 54.314 167.853 55.1187 169.1 56.728C170.346 58.3373 170.97 60.468 170.97 63.12V65.194C170.97 67.846 170.346 69.9767 169.1 71.586C167.853 73.1953 166.028 74 163.626 74H155.908V69.444ZM189.913 69.444V74H181.549H173.015V69.444H181.549V60.4C181.549 59.38 181.039 58.87 180.019 58.87H173.015V54.314H181.787C183.6 54.314 185.04 54.8353 186.105 55.878C187.193 56.9207 187.737 58.5413 187.737 60.74V69.444H189.913ZM220.512 60.434C220.557 64.99 219.174 68.458 216.364 70.838C213.576 73.1953 209.19 74.374 203.206 74.374C202.412 74.374 201.812 74.3627 201.404 74.34L198.752 54.314H204.6L205.518 62.032C206.062 61.6693 206.413 61.0913 206.572 60.298C206.73 59.5047 206.798 58.292 206.776 56.66L206.742 54.314H212.59V56.524C212.59 59.0173 212.114 61.0687 211.162 62.678C210.21 64.2647 208.487 65.432 205.994 66.18L206.368 69.308C209.428 69.1267 211.524 68.288 212.658 66.792C213.814 65.2733 214.38 63.2673 214.358 60.774L214.29 54.314H220.478L220.512 60.434ZM235.27 53.906C237.854 53.906 239.781 54.79 241.05 56.558C242.32 58.326 242.954 60.8987 242.954 64.276C242.954 67.404 242.184 69.886 240.642 71.722C239.124 73.5353 236.993 74.442 234.25 74.442C233.253 74.442 232.154 74.306 230.952 74.034L231.496 69.478C232.222 69.6367 232.89 69.716 233.502 69.716C234.908 69.716 235.86 69.2627 236.358 68.356C236.857 67.4493 237.106 66.0893 237.106 64.276C237.106 62.372 236.857 60.978 236.358 60.094C235.86 59.1873 235.044 58.734 233.91 58.734C233.162 58.734 232.505 58.9607 231.938 59.414C231.394 59.8447 231.077 60.4793 230.986 61.318L229.048 74H222.86L225.138 60.978L222.384 54.314H228.81L229.966 58.02C230.465 56.6147 231.168 55.5833 232.074 54.926C233.004 54.246 234.069 53.906 235.27 53.906ZM244.556 70.498C245.417 70.3847 246.041 70.2373 246.426 70.056C246.811 69.852 247.061 69.5573 247.174 69.172C247.287 68.7867 247.344 68.1973 247.344 67.404V54.314H258.7C260.513 54.314 261.953 54.8353 263.018 55.878C264.106 56.9207 264.65 58.5413 264.65 60.74V74H258.462V60.4C258.462 59.38 257.952 58.87 256.932 58.87H253.532V66.588C253.532 68.5147 253.237 70.0333 252.648 71.144C252.059 72.2547 251.152 73.0707 249.928 73.592C248.727 74.1133 247.106 74.4647 245.066 74.646L244.556 70.498ZM289.142 60.434C289.188 64.99 287.805 68.458 284.994 70.838C282.206 73.1953 277.82 74.374 271.836 74.374C271.043 74.374 270.442 74.3627 270.034 74.34L267.382 54.314H273.23L274.148 62.032C274.692 61.6693 275.044 61.0913 275.202 60.298C275.361 59.5047 275.429 58.292 275.406 56.66L275.372 54.314H281.22V56.524C281.22 59.0173 280.744 61.0687 279.792 62.678C278.84 64.2647 277.118 65.432 274.624 66.18L274.998 69.308C278.058 69.1267 280.155 68.288 281.288 66.792C282.444 65.2733 283.011 63.2673 282.988 60.774L282.92 54.314H289.108L289.142 60.434ZM291.287 69.444H295.741V60.468C295.741 59.8107 295.628 59.3573 295.401 59.108C295.174 58.8587 294.812 58.7113 294.313 58.666L291.865 58.36L292.613 53.872L297.611 54.484C298.994 54.6427 300.059 55.2547 300.807 56.32C301.555 57.3627 301.929 58.6887 301.929 60.298V74H291.287V69.444ZM92.9116 102.314C94.725 102.314 96.1643 102.835 97.2297 103.878C98.3176 104.921 98.8616 106.541 98.8616 108.74V122H92.6736H82.5076H81.2496V102.314H87.4376H92.9116ZM92.6736 117.444V108.4C92.6736 107.38 92.1636 106.87 91.1436 106.87H87.4376V117.444H92.6736ZM101.944 106.292L101.57 102.314H107.724L108.132 106.292V111.698L108.098 113.84L101.944 114.86V106.292ZM118.853 108.4C118.853 107.38 118.343 106.87 117.323 106.87H110.353V102.314H119.091C120.904 102.314 122.344 102.835 123.409 103.878C124.497 104.921 125.041 106.541 125.041 108.74V122H118.853V108.4ZM128.307 106.292L127.933 102.314H134.087L134.495 106.292V111.698L134.461 113.84L128.307 114.86V106.292ZM149.806 114.282L154.056 122H147.868H136.886V117.444H145.352L137.056 102.314H143.244L146.542 108.332L148.922 102.314H155.008L149.806 114.282ZM168.241 115.336C169.488 115.336 170.44 115.801 171.097 116.73C171.777 117.659 172.117 118.963 172.117 120.64C172.117 122.68 171.539 124.414 170.383 125.842C169.227 127.293 167.561 128.324 165.385 128.936L164.229 125.876C165.566 125.445 166.586 124.856 167.289 124.108C167.992 123.383 168.343 122.589 168.343 121.728H168.105C167.176 121.728 166.371 121.445 165.691 120.878C165.034 120.289 164.705 119.507 164.705 118.532C164.705 117.603 165.045 116.843 165.725 116.254C166.405 115.642 167.244 115.336 168.241 115.336ZM174.066 118.498C174.927 118.385 175.55 118.237 175.936 118.056C176.321 117.852 176.57 117.557 176.684 117.172C176.797 116.787 176.854 116.197 176.854 115.404V102.314H188.21C190.023 102.314 191.462 102.835 192.528 103.878C193.616 104.921 194.16 106.541 194.16 108.74V122H187.972V108.4C187.972 107.38 187.462 106.87 186.442 106.87H183.042V114.588C183.042 116.515 182.747 118.033 182.158 119.144C181.568 120.255 180.662 121.071 179.438 121.592C178.236 122.113 176.616 122.465 174.576 122.646L174.066 118.498ZM197.436 106.292L197.062 102.314H203.216L203.624 106.292V122H197.436V106.292ZM206.525 117.444H214.141C215.184 117.444 215.977 117.07 216.521 116.322C217.088 115.551 217.371 114.622 217.371 113.534V110.78C217.371 109.692 217.088 108.774 216.521 108.026C215.977 107.255 215.184 106.87 214.141 106.87H212.305L211.829 109.25C211.806 109.363 211.795 109.511 211.795 109.692C211.795 110.1 211.942 110.429 212.237 110.678C212.532 110.905 213.008 111.097 213.665 111.256L212.781 114.996C210.537 115.019 208.905 114.577 207.885 113.67C206.865 112.763 206.355 111.539 206.355 109.998C206.355 109.545 206.389 109.103 206.457 108.672L207.851 102.314H215.671C217.303 102.314 218.708 102.688 219.887 103.436C221.088 104.184 221.995 105.227 222.607 106.564C223.242 107.901 223.559 109.42 223.559 111.12V113.194C223.559 114.894 223.242 116.413 222.607 117.75C221.995 119.087 221.088 120.13 219.887 120.878C218.708 121.626 217.303 122 215.671 122H206.525V117.444ZM226.157 106.292L225.783 102.314H231.937L232.345 106.292V111.698L232.311 113.84L226.157 114.86V106.292ZM242.658 117.478C244.086 117.387 245.094 116.934 245.684 116.118C246.296 115.302 246.658 113.953 246.772 112.072L247.112 106.87H235.518V102.314H253.776L253.572 106.19L253.3 110.372C253.118 113.863 252.291 116.685 250.818 118.838C249.367 120.969 246.806 122.034 243.134 122.034L242.658 117.478ZM235.076 112.616L235.926 110.27H241.264V128.8H235.076V112.616ZM273.947 102.314C273.925 106.734 273.755 110.1 273.437 112.412C273.12 114.701 272.225 116.696 270.751 118.396C269.278 120.096 266.909 121.275 263.645 121.932L255.485 123.496L254.635 118.702L259.701 117.75L256.063 102.314H262.251L265.311 116.424C266.059 116.016 266.615 115.415 266.977 114.622C267.34 113.829 267.567 112.877 267.657 111.766C267.771 110.655 267.827 109.171 267.827 107.312V102.314H273.947ZM293.075 117.444V122H284.711H276.177V117.444H284.711V108.4C284.711 107.38 284.201 106.87 283.181 106.87H276.177V102.314H284.949C286.763 102.314 288.202 102.835 289.267 103.878C290.355 104.921 290.899 106.541 290.899 108.74V117.444H293.075ZM55.4253 150.314C57.2387 150.314 58.678 150.835 59.7433 151.878C60.8313 152.921 61.3753 154.541 61.3753 156.74V170H55.1873H45.0213H43.7633V150.314H49.9513H55.4253ZM55.1873 165.444V156.4C55.1873 155.38 54.6773 154.87 53.6573 154.87H49.9513V165.444H55.1873ZM64.4576 154.292L64.0836 150.314H70.2376L70.6456 154.292V159.698L70.6116 161.84L64.4576 162.86V154.292ZM80.3125 158.848C80.3125 157.964 80.4032 157.182 80.5845 156.502C80.7659 155.799 81.0039 155.255 81.2985 154.87H73.0365V150.314H89.7305V154.87H87.0445C86.6819 155.822 86.5005 157.148 86.5005 158.848V170H80.3125V158.848ZM108.665 165.444V170H100.301H91.7671V165.444H100.301V156.4C100.301 155.38 99.7911 154.87 98.7711 154.87H91.7671V150.314H100.539C102.352 150.314 103.792 150.835 104.857 151.878C105.945 152.921 106.489 154.541 106.489 156.74V165.444H108.665ZM110.187 165.444H116.137C117.18 165.444 117.928 165.081 118.381 164.356C118.834 163.608 119.061 162.667 119.061 161.534V158.78C119.061 157.647 118.834 156.717 118.381 155.992C117.928 155.244 117.18 154.87 116.137 154.87H110.187V150.314H117.905C120.308 150.314 122.132 151.119 123.379 152.728C124.626 154.337 125.249 156.468 125.249 159.12V161.194C125.249 163.846 124.626 165.977 123.379 167.586C122.132 169.195 120.308 170 117.905 170H110.187V165.444ZM146.103 150.314C147.916 150.314 149.356 150.835 150.421 151.878C151.509 152.921 152.053 154.541 152.053 156.74V170H145.865H135.699H134.441V150.314H140.629H146.103ZM145.865 165.444V156.4C145.865 155.38 145.355 154.87 144.335 154.87H140.629V165.444H145.865ZM155.135 154.292L154.761 150.314H160.915L161.323 154.292V159.698L161.289 161.84L155.135 162.86V154.292ZM180.782 165.444V170H172.418H163.884V165.444H172.418V156.4C172.418 155.38 171.908 154.87 170.888 154.87H163.884V150.314H172.656C174.47 150.314 175.909 150.835 176.974 151.878C178.062 152.921 178.606 154.541 178.606 156.74V165.444H180.782ZM182.304 165.444H188.254C189.297 165.444 190.045 165.081 190.498 164.356C190.951 163.608 191.178 162.667 191.178 161.534V158.78C191.178 157.647 190.951 156.717 190.498 155.992C190.045 155.244 189.297 154.87 188.254 154.87H182.304V150.314H190.022C192.425 150.314 194.249 151.119 195.496 152.728C196.743 154.337 197.366 156.468 197.366 159.12V161.194C197.366 163.846 196.743 165.977 195.496 167.586C194.249 169.195 192.425 170 190.022 170H182.304V165.444ZM207.572 156.4C207.572 155.38 207.062 154.87 206.042 154.87H199.072V150.314H207.81C209.623 150.314 211.062 150.835 212.128 151.878C213.216 152.921 213.76 154.541 213.76 156.74V170H207.572V156.4ZM217.026 154.292L216.652 150.314H222.806L223.214 154.292V170H217.026V154.292ZM244.584 150.314C246.397 150.314 247.836 150.835 248.902 151.878C249.99 152.921 250.534 154.541 250.534 156.74V170H244.346H234.18H232.922V150.314H239.11H244.584ZM244.346 165.444V156.4C244.346 155.38 243.836 154.87 242.816 154.87H239.11V165.444H244.346ZM253.616 154.292L253.242 150.314H259.396L259.804 154.292V159.698L259.77 161.84L253.616 162.86V154.292ZM263.079 154.292L262.705 150.314H268.859L269.267 154.292V159.698L269.233 161.84L263.079 162.86V154.292ZM279.988 156.4C279.988 155.38 279.478 154.87 278.458 154.87H271.488V150.314H280.226C282.039 150.314 283.478 150.835 284.544 151.878C285.632 152.921 286.176 154.541 286.176 156.74V170H279.988V156.4ZM296.888 156.4C296.888 155.38 296.378 154.87 295.358 154.87H288.388V150.314H297.126C298.939 150.314 300.379 150.835 301.444 151.878C302.532 152.921 303.076 154.541 303.076 156.74V170H296.888V156.4ZM317.222 156.4C317.222 155.38 316.712 154.87 315.692 154.87H306.308V150.314H317.46C319.274 150.314 320.713 150.835 321.778 151.878C322.866 152.921 323.41 154.541 323.41 156.74V170H317.222V156.4ZM306.036 160.65L306.886 158.372H312.224V170H306.036V160.65Z" fill="#FEFEFE"/>
<path d="M59.4142 196.586C58.6332 197.367 57.3668 197.367 56.5858 196.586L50 190H66L59.4142 196.586Z" fill="#073799"/>
</g>
<defs>
<filter id="filter0_d_694_17190" x="0" y="0" width="369" height="228" filterUnits="userSpaceOnUse" color-interpolation-filters="sRGB">
<feFlood flood-opacity="0" result="BackgroundImageFix"/>
<feColorMatrix in="SourceAlpha" type="matrix" values="0 0 0 0 0 0 0 0 0 0 0 0 0 0 0 0 0 0 127 0" result="hardAlpha"/>
<feOffset/>
<feGaussianBlur stdDeviation="15"/>
<feComposite in2="hardAlpha" operator="out"/>
<feColorMatrix type="matrix" values="0 0 0 0 0.00416667 0 0 0 0 0.00416667 0 0 0 0 0.00416667 0 0 0 0.2 0"/>
<feBlend mode="normal" in2="BackgroundImageFix" result="effect1_dropShadow_694_17190"/>
<feBlend mode="normal" in="SourceGraphic" in2="effect1_dropShadow_694_17190" result="shape"/>
</filter>
</defs>
</svg>
