<svg width="1127" height="648" viewBox="0 0 1127 648" fill="none" xmlns="http://www.w3.org/2000/svg">
<g clip-path="url(#clip0_811_903)">
<path d="M170.14 488.436C164.112 488.129 159.531 485.374 156.131 480.417C153.892 477.157 151.412 474.061 149.113 470.839C148.435 469.89 147.847 469.605 146.633 469.954C141.729 471.353 136.794 472.657 131.838 473.858C130.619 474.151 130.213 474.696 130.053 475.831C129.453 480.033 128.779 484.226 128.131 488.418C126.64 498.035 118.175 504.08 108.548 502.474C102.727 501.502 96.881 500.686 91.0562 499.74C81.7488 498.225 75.7901 490.189 77.0778 480.901C77.6308 476.911 78.2228 472.925 78.9055 468.957C79.1475 467.553 78.7154 466.85 77.4148 466.375C75.6172 465.714 73.5518 465.273 72.1863 464.069C69.8055 461.97 66.9061 460.718 64.4993 458.727C63.9505 458.27 63.3326 457.894 62.6412 457.406C59.206 459.936 55.7924 462.454 52.3745 464.963C43.8102 471.25 33.8589 469.596 27.6712 460.917C24.4132 456.348 21.0471 451.853 17.7675 447.297C11.947 439.21 13.6582 429.196 21.7946 423.397C24.841 421.225 27.9002 419.061 30.8472 416.76C31.3873 416.337 31.7848 415.192 31.6379 414.514C30.454 409.113 29.1577 403.737 27.7879 398.378C27.6453 397.821 26.8459 397.143 26.2583 397.035C22.4341 396.34 18.5928 395.757 14.7471 395.195C4.70501 393.732 -1.28392 385.691 0.228438 375.63C1.12721 369.654 2.02598 363.682 2.98093 357.715C4.3939 348.888 12.5477 342.852 21.4922 344.043C25.986 344.644 30.454 345.434 34.9478 346.03C35.5398 346.108 36.5077 345.732 36.8059 345.257C39.8176 340.451 42.7257 335.58 45.8454 330.429C43.538 327.333 41.0491 323.913 38.4738 320.562C36.0583 317.414 34.2824 314.003 34.0534 309.987C33.7163 304.019 35.9157 299.14 40.7207 295.543C45.5602 291.92 50.4343 288.336 55.356 284.825C63.3974 279.082 73.029 280.55 79.0481 288.431C81.887 292.149 84.6352 295.936 87.3704 299.731C88.0704 300.703 88.6451 301.096 89.9976 300.733C94.9884 299.395 100.04 298.281 105.298 297.028C106.007 292.278 106.75 287.304 107.489 282.33C108.915 272.778 116.058 266.232 124.955 267.074C132.244 267.765 139.516 268.995 146.689 270.498C152.557 271.724 156.381 275.77 158.166 281.444C159.242 284.864 158.654 288.461 158.226 291.959C157.725 296.1 157.051 300.219 156.368 304.334C156.174 305.518 156.507 306.092 157.557 306.705C161.398 308.95 165.127 311.395 168.973 313.636C169.595 313.998 170.848 314.029 171.397 313.636C174.357 311.511 177.049 308.989 180.095 307.012C183.651 304.706 186.875 301.644 191.455 301.264C197.608 300.755 203.048 302.18 206.937 307.258C211.051 312.625 215.082 318.07 218.907 323.645C223.768 330.722 221.901 340.468 214.827 345.775C210.627 348.927 206.371 352.019 202.072 355.037C200.914 355.849 200.793 356.536 201.182 357.866C202.413 362.071 203.48 366.325 204.483 370.591C204.738 371.684 205.131 372.146 206.246 372.305C211.163 373.001 216.059 373.825 220.976 374.52C230.716 375.894 236.947 383.748 235.702 393.425C234.899 399.703 233.905 405.956 232.816 412.191C231.329 420.715 223.936 426.527 215.277 425.759C210.096 425.301 204.954 424.334 199.825 423.423C198.153 423.125 197.483 423.604 196.718 425.059C194.419 429.446 191.887 433.713 189.29 438.298C191.775 441.688 194.246 445.497 197.155 448.938C203.878 456.892 204.116 468.572 193.24 475.503C188.893 478.275 184.956 481.548 180.838 484.601C177.965 486.73 174.871 488 171.371 488.427C170.956 488.427 170.546 488.427 170.131 488.427L170.14 488.436ZM71.9055 385.294C71.5252 410.231 91.1988 430.176 116.529 430.535C140.182 430.867 160.581 410.879 160.979 386.978C161.389 362.356 141.902 342.031 117.648 341.487C91.834 340.909 71.8536 361.959 71.9055 385.294Z" fill="#E69907"/>
<path d="M251.231 512.107C251.719 510.47 252.532 508.087 253.089 505.647C253.245 504.969 252.869 503.859 252.346 503.389C250.371 501.618 248.284 499.956 246.124 498.423C245.532 498 244.387 497.836 243.734 498.112C241.824 498.928 240.04 500.038 238.199 501.018C233.454 503.548 227.945 502.05 225.314 497.412C223.434 494.1 221.641 490.732 219.908 487.338C217.631 482.873 219.748 477.174 224.51 474.699C226.169 473.84 227.82 472.951 229.509 472.152C230.589 471.642 230.87 470.986 230.689 469.764C230.296 467.069 230.201 464.332 229.829 461.633C229.747 461.037 229.142 460.251 228.589 460.031C226.86 459.344 225.046 458.869 223.257 458.338C216.883 456.447 214.269 451.74 216.114 445.38C216.974 442.413 217.881 439.464 218.832 436.528C220.716 430.702 225.694 428.133 231.57 429.904C232.396 430.154 233.307 430.245 234.033 430.668C237.676 432.779 239.785 431.199 241.98 428.12C245.216 423.582 245.471 423.716 242.619 418.707C240.688 415.321 239.309 411.776 241.349 408.11C242.377 406.266 244.11 404.626 245.882 403.429C248.612 401.59 251.641 400.191 254.562 398.636C259.074 396.227 264.332 397.501 267.076 401.806C268.541 404.103 269.781 406.551 271.021 408.987C271.631 410.183 272.313 410.619 273.722 410.377C275.839 410.015 278.004 409.911 280.152 409.803C281.418 409.738 282.031 409.268 282.347 407.976C283.025 405.2 283.703 402.389 284.766 399.75C286.56 395.294 291.399 393.088 296.437 394.362C300.041 395.273 303.615 396.356 307.11 397.609C312.023 399.366 314.378 404.518 312.801 409.54C311.984 412.143 311.129 414.739 310.476 417.385C310.325 417.994 310.744 418.979 311.228 419.458C312.343 420.568 313.691 421.44 314.888 422.472C317.433 424.674 317.416 424.687 320.419 423.055C322.441 421.958 324.425 420.775 326.499 419.791C331.265 417.532 336.377 419.082 338.995 423.634C340.823 426.812 342.534 430.059 344.167 433.345C346.54 438.125 344.889 443.333 340.227 445.954C337.781 447.331 335.236 448.532 332.846 449.991C332.241 450.363 331.719 451.434 331.74 452.163C331.814 454.378 332.056 456.611 332.492 458.783C332.63 459.465 333.499 460.26 334.208 460.514C336.912 461.482 339.708 462.181 342.43 463.101C345.516 464.142 347.395 466.357 348.406 469.431C349.188 471.811 349.348 473.926 348.005 476.327C346.803 478.473 346.449 481.086 345.663 483.469C343.243 490.827 339.064 492.96 331.567 490.719C329.709 490.162 327.799 489.756 325.993 489.066C324.723 488.578 324.083 488.884 323.357 489.955C322.148 491.734 320.821 493.448 319.404 495.068C318.617 495.97 318.483 496.678 319.093 497.728C320.35 499.904 321.534 502.132 322.666 504.377C325.228 509.468 323.759 514.477 318.82 517.336C315.835 519.063 312.793 520.708 309.725 522.289C304.924 524.759 300.313 523.684 297.224 519.219C295.716 517.042 294.67 514.551 293.244 512.314C292.877 511.735 291.827 511.248 291.123 511.291C288.616 511.446 286.11 511.748 283.643 512.215C282.908 512.353 281.992 513.104 281.72 513.791C280.929 515.786 280.411 517.893 279.806 519.961C278.211 525.424 273.134 528.17 267.651 526.533C264.484 525.588 261.303 524.698 258.14 523.74C252.977 522.172 250.406 518.182 251.235 512.111L251.231 512.107ZM306.372 464.526C308.368 450.311 298.961 437.823 284.762 435.828C270.619 433.842 257.859 443.337 255.859 457.315C254.852 464.366 256.468 470.8 260.767 476.405C266.346 483.681 273.985 486.561 283.042 486.423C291.874 486.289 304.838 478.357 306.376 464.526H306.372Z" fill="#073799"/>
</g>
<path d="M125.985 551.4V533.985L125.661 530.826H128.523L128.874 533.985V551.4H125.985ZM132.471 546V533.985L132.147 530.826H135.009L135.36 533.985V546H132.471ZM140.253 546.27L138.282 530.826H141.036L142.602 543.813C143.988 543.723 145.176 543.48 146.166 543.084C147.174 542.67 147.993 542.103 148.623 541.383C149.271 540.645 149.748 539.754 150.054 538.71C150.36 537.666 150.513 536.469 150.513 535.119L150.459 530.826H153.348L153.375 534.984C153.393 537.504 152.925 539.601 151.971 541.275C151.035 542.949 149.595 544.209 147.651 545.055C145.707 545.883 143.241 546.288 140.253 546.27ZM141.711 540.303L141.036 538.386C141.936 538.044 142.629 537.648 143.115 537.198C143.619 536.73 143.97 536.127 144.168 535.389C144.384 534.651 144.501 533.697 144.519 532.527V530.853H147.273L147.246 532.473C147.228 533.805 147.048 534.966 146.706 535.956C146.364 536.946 145.788 537.792 144.978 538.494C144.186 539.196 143.097 539.799 141.711 540.303ZM168.794 546H165.716L160.046 537.387L157.373 546H154.619L157.589 536.712L158.345 534.795L155.861 530.826H158.804L161.072 534.471L163.34 537.873L164.015 535.524L165.392 530.826H168.173L165.041 540.384L168.794 546ZM178.054 546V535.74C178.054 534.732 177.838 534.03 177.406 533.634C176.974 533.238 176.38 533.04 175.624 533.04H170.629V530.826H176.353C177.253 530.826 178.045 530.997 178.729 531.339C179.431 531.663 179.971 532.194 180.349 532.932C180.745 533.67 180.943 534.651 180.943 535.875V546H178.054ZM197.188 551.4V535.74C197.188 534.732 196.963 534.03 196.513 533.634C196.081 533.238 195.496 533.04 194.758 533.04H189.358V530.826H195.487C196.387 530.826 197.179 530.997 197.863 531.339C198.547 531.663 199.087 532.194 199.483 532.932C199.879 533.67 200.077 534.651 200.077 535.875V551.4H197.188ZM203.636 546V533.985L203.312 530.826H206.174L206.525 533.985V546H203.636ZM212.336 546L217.385 533.04H209.258V530.826H220.274V533.229L215.225 546H212.336ZM209.258 533.04V526.641H211.877V533.04H209.258ZM223.253 540.33V538.089V533.985L222.929 530.826H225.791L226.142 533.985V538.089L226.115 539.79L223.253 540.33ZM238.488 546V535.74C238.488 534.732 238.263 534.03 237.813 533.634C237.381 533.238 236.796 533.04 236.058 533.04H229.416V530.826H236.787C237.687 530.826 238.479 530.997 239.163 531.339C239.847 531.663 240.387 532.194 240.783 532.932C241.179 533.67 241.377 534.651 241.377 535.875V546H238.488ZM229.335 546V538.656L229.74 536.847H232.224V538.656V546H229.335Z" fill="#E69907"/>
<path d="M459.166 547.33V545.089V540.985L458.842 537.826H461.704L462.055 540.985V545.089L462.028 546.79L459.166 547.33ZM464.951 553V550.786H469.325V542.308C469.325 541.498 469.163 540.922 468.839 540.58C468.515 540.238 468.065 540.031 467.489 539.959L465.653 539.689L466.031 537.502L468.839 537.907C469.919 538.051 470.747 538.501 471.323 539.257C471.917 540.013 472.214 541.012 472.214 542.254V553H464.951ZM477.047 553.27L475.076 537.826H477.83L479.396 550.813C480.782 550.723 481.97 550.48 482.96 550.084C483.968 549.67 484.787 549.103 485.417 548.383C486.065 547.645 486.542 546.754 486.848 545.71C487.154 544.666 487.307 543.469 487.307 542.119L487.253 537.826H490.142L490.169 541.984C490.187 544.504 489.719 546.601 488.765 548.275C487.829 549.949 486.389 551.209 484.445 552.055C482.501 552.883 480.035 553.288 477.047 553.27ZM478.505 547.303L477.83 545.386C478.73 545.044 479.423 544.648 479.909 544.198C480.413 543.73 480.764 543.127 480.962 542.389C481.178 541.651 481.295 540.697 481.313 539.527V537.853H484.067L484.04 539.473C484.022 540.805 483.842 541.966 483.5 542.956C483.158 543.946 482.582 544.792 481.772 545.494C480.98 546.196 479.891 546.799 478.505 547.303ZM506.006 558.4V542.74C506.006 541.732 505.781 541.03 505.331 540.634C504.899 540.238 504.314 540.04 503.576 540.04H498.176V537.826H504.305C505.205 537.826 505.997 537.997 506.681 538.339C507.365 538.663 507.905 539.194 508.301 539.932C508.697 540.67 508.895 541.651 508.895 542.875V558.4H506.006ZM512.454 553V540.985L512.13 537.826H514.992L515.343 540.985V553H512.454ZM521.155 553L526.204 540.04H518.077V537.826H529.093V540.229L524.044 553H521.155ZM518.077 540.04V533.641H520.696V540.04H518.077ZM532.072 547.33V545.089V540.985L531.748 537.826H534.61L534.961 540.985V545.089L534.934 546.79L532.072 547.33ZM547.306 553V542.74C547.306 541.732 547.081 541.03 546.631 540.634C546.199 540.238 545.614 540.04 544.876 540.04H538.234V537.826H545.605C546.505 537.826 547.297 537.997 547.981 538.339C548.665 538.663 549.205 539.194 549.601 539.932C549.997 540.67 550.195 541.651 550.195 542.875V553H547.306ZM538.153 553V545.656L538.558 543.847H541.042V545.656V553H538.153Z" fill="#E69907"/>
<path d="M702.6 547.33V545.089V540.985L702.276 537.826H705.138L705.489 540.985V545.089L705.462 546.79L702.6 547.33ZM710.383 553.27L708.412 537.826H711.166L712.732 550.813C714.118 550.723 715.306 550.48 716.296 550.084C717.304 549.67 718.123 549.103 718.753 548.383C719.401 547.645 719.878 546.754 720.184 545.71C720.49 544.666 720.643 543.469 720.643 542.119L720.589 537.826H723.478L723.505 541.984C723.523 544.504 723.055 546.601 722.101 548.275C721.165 549.949 719.725 551.209 717.781 552.055C715.837 552.883 713.371 553.288 710.383 553.27ZM711.841 547.303L711.166 545.386C712.066 545.044 712.759 544.648 713.245 544.198C713.749 543.73 714.1 543.127 714.298 542.389C714.514 541.651 714.631 540.697 714.649 539.527V537.853H717.403L717.376 539.473C717.358 540.805 717.178 541.966 716.836 542.956C716.494 543.946 715.918 544.792 715.108 545.494C714.316 546.196 713.227 546.799 711.841 547.303ZM726.7 547.33V545.089V540.985L726.376 537.826H729.238L729.589 540.985V545.089L729.562 546.79L726.7 547.33ZM735.4 553L740.449 540.04H732.322V537.826H743.338V540.229L738.289 553H735.4ZM732.322 540.04V533.641H734.941V540.04H732.322ZM747.613 553.27L745.642 537.826H748.396L749.962 550.813C751.348 550.723 752.536 550.48 753.526 550.084C754.534 549.67 755.353 549.103 755.983 548.383C756.631 547.645 757.108 546.754 757.414 545.71C757.72 544.666 757.873 543.469 757.873 542.119L757.819 537.826H760.708L760.735 541.984C760.753 544.504 760.285 546.601 759.331 548.275C758.395 549.949 756.955 551.209 755.011 552.055C753.067 552.883 750.601 553.288 747.613 553.27ZM749.071 547.303L748.396 545.386C749.296 545.044 749.989 544.648 750.475 544.198C750.979 543.73 751.33 543.127 751.528 542.389C751.744 541.651 751.861 540.697 751.879 539.527V537.853H754.633L754.606 539.473C754.588 540.805 754.408 541.966 754.066 542.956C753.724 543.946 753.148 544.792 752.338 545.494C751.546 546.196 750.457 546.799 749.071 547.303ZM776.572 558.4V542.74C776.572 541.732 776.347 541.03 775.897 540.634C775.465 540.238 774.88 540.04 774.142 540.04H768.742V537.826H774.871C775.771 537.826 776.563 537.997 777.247 538.339C777.931 538.663 778.471 539.194 778.867 539.932C779.263 540.67 779.461 541.651 779.461 542.875V558.4H776.572ZM783.02 553V540.985L782.696 537.826H785.558L785.909 540.985V553H783.02ZM791.721 553L796.77 540.04H788.643V537.826H799.659V540.229L794.61 553H791.721ZM788.643 540.04V533.641H791.262V540.04H788.643ZM802.638 547.33V545.089V540.985L802.314 537.826H805.176L805.527 540.985V545.089L805.5 546.79L802.638 547.33ZM817.872 553V542.74C817.872 541.732 817.647 541.03 817.197 540.634C816.765 540.238 816.18 540.04 815.442 540.04H808.8V537.826H816.171C817.071 537.826 817.863 537.997 818.547 538.339C819.231 538.663 819.771 539.194 820.167 539.932C820.563 540.67 820.761 541.651 820.761 542.875V553H817.872ZM808.719 553V545.656L809.124 543.847H811.608V545.656V553H808.719Z" fill="#E69907"/>
<path d="M918.055 544.33V542.089V537.985L917.731 534.826H920.593L920.944 537.985V542.089L920.917 543.79L918.055 544.33ZM923.542 550.891L923.137 548.623L928.591 547.57C929.581 547.39 930.373 547.102 930.967 546.706C931.579 546.31 932.047 545.797 932.371 545.167C932.713 544.519 932.956 543.718 933.1 542.764C933.244 541.81 933.325 540.676 933.343 539.362C933.361 538.048 933.37 536.536 933.37 534.826H936.232C936.232 536.68 936.196 538.345 936.124 539.821C936.07 541.297 935.917 542.602 935.665 543.736C935.413 544.87 935.017 545.842 934.477 546.652C933.937 547.462 933.19 548.137 932.236 548.677C931.3 549.199 930.094 549.604 928.618 549.892L923.542 550.891ZM927.781 548.002L924.379 534.826H927.268L930.535 548.002H927.781ZM939.412 544.33V542.089V537.985L939.088 534.826H941.95L942.301 537.985V542.089L942.274 543.79L939.412 544.33ZM952.729 550V539.74C952.729 538.732 952.504 538.03 952.054 537.634C951.622 537.238 951.037 537.04 950.299 537.04H945.223V534.826H951.028C951.928 534.826 952.72 534.997 953.404 535.339C954.088 535.663 954.628 536.194 955.024 536.932C955.42 537.67 955.618 538.651 955.618 539.875V550H952.729ZM945.223 550V547.786H957.481V550H945.223ZM965.984 550V539.74C965.984 538.732 965.768 538.03 965.336 537.634C964.904 537.238 964.31 537.04 963.554 537.04H958.559V534.826H964.283C965.183 534.826 965.975 534.997 966.659 535.339C967.361 535.663 967.901 536.194 968.279 536.932C968.675 537.67 968.873 538.651 968.873 539.875V550H965.984ZM985.118 555.4V539.74C985.118 538.732 984.893 538.03 984.443 537.634C984.011 537.238 983.426 537.04 982.688 537.04H977.288V534.826H983.417C984.317 534.826 985.109 534.997 985.793 535.339C986.477 535.663 987.017 536.194 987.413 536.932C987.809 537.67 988.007 538.651 988.007 539.875V555.4H985.118ZM991.566 550V537.985L991.242 534.826H994.104L994.455 537.985V550H991.566ZM1000.27 550L1005.32 537.04H997.189V534.826H1008.2V537.229L1003.16 550H1000.27ZM997.189 537.04V530.641H999.808V537.04H997.189ZM1011.18 544.33V542.089V537.985L1010.86 534.826H1013.72L1014.07 537.985V542.089L1014.05 543.79L1011.18 544.33ZM1026.42 550V539.74C1026.42 538.732 1026.19 538.03 1025.74 537.634C1025.31 537.238 1024.73 537.04 1023.99 537.04H1017.35V534.826H1024.72C1025.62 534.826 1026.41 534.997 1027.09 535.339C1027.78 535.663 1028.32 536.194 1028.71 536.932C1029.11 537.67 1029.31 538.651 1029.31 539.875V550H1026.42ZM1017.26 550V542.656L1017.67 540.847H1020.15V542.656V550H1017.26Z" fill="#E69907"/>
<g clip-path="url(#clip1_811_903)">
<path d="M502.476 495.407C497.605 495.156 493.904 492.899 491.157 488.838C489.348 486.167 487.344 483.631 485.486 480.992C484.938 480.214 484.463 479.98 483.482 480.267C479.519 481.413 475.532 482.481 471.527 483.464C470.543 483.705 470.215 484.151 470.085 485.081C469.6 488.523 469.055 491.958 468.532 495.393C467.327 503.271 460.487 508.223 452.708 506.907C448.005 506.112 443.281 505.443 438.575 504.668C431.054 503.427 426.239 496.843 427.28 489.234C427.727 485.965 428.205 482.7 428.757 479.449C428.952 478.3 428.603 477.723 427.552 477.334C426.1 476.793 424.431 476.432 423.327 475.445C421.404 473.726 419.061 472.7 417.116 471.069C416.673 470.694 416.173 470.386 415.615 469.987C412.839 472.06 410.081 474.122 407.319 476.177C400.399 481.328 392.358 479.973 387.358 472.863C384.726 469.12 382.006 465.437 379.356 461.705C374.653 455.08 376.035 446.876 382.61 442.125C385.071 440.346 387.543 438.574 389.924 436.688C390.361 436.341 390.682 435.404 390.563 434.849C389.607 430.423 388.559 426.019 387.453 421.629C387.337 421.173 386.691 420.617 386.217 420.529C383.127 419.959 380.023 419.482 376.915 419.022C368.801 417.823 363.962 411.236 365.184 402.993C365.91 398.098 366.636 393.205 367.408 388.316C368.55 381.086 375.138 376.14 382.365 377.117C385.997 377.608 389.607 378.256 393.238 378.744C393.716 378.808 394.498 378.5 394.739 378.111C397.173 374.173 399.523 370.183 402.043 365.963C400.179 363.426 398.168 360.625 396.087 357.88C394.135 355.301 392.7 352.506 392.515 349.216C392.243 344.327 394.02 340.33 397.903 337.383C401.813 334.415 405.751 331.479 409.728 328.603C416.226 323.898 424.008 325.101 428.872 331.557C431.166 334.603 433.386 337.705 435.597 340.815C436.162 341.611 436.627 341.933 437.719 341.635C441.752 340.539 445.834 339.626 450.083 338.6C450.655 334.709 451.256 330.634 451.853 326.559C453.005 318.734 458.776 313.371 465.965 314.061C471.856 314.627 477.732 315.635 483.528 316.866C488.269 317.871 491.359 321.185 492.801 325.833C493.67 328.635 493.196 331.582 492.85 334.447C492.445 337.84 491.9 341.214 491.349 344.586C491.191 345.555 491.46 346.025 492.309 346.528C495.413 348.367 498.426 350.37 501.533 352.205C502.036 352.503 503.048 352.527 503.492 352.205C505.884 350.465 508.059 348.399 510.52 346.779C513.394 344.89 515.998 342.382 519.699 342.071C524.671 341.653 529.067 342.821 532.209 346.981C535.533 351.378 538.791 355.839 541.881 360.405C545.809 366.203 544.3 374.188 538.585 378.535C535.191 381.117 531.752 383.65 528.278 386.123C527.342 386.788 527.244 387.351 527.559 388.44C528.554 391.886 529.416 395.37 530.226 398.865C530.432 399.76 530.75 400.139 531.651 400.27C535.624 400.839 539.58 401.515 543.553 402.084C551.423 403.209 556.458 409.644 555.452 417.571C554.803 422.715 554 427.837 553.12 432.945C551.919 439.928 545.945 444.69 538.948 444.06C534.762 443.685 530.607 442.893 526.462 442.146C525.111 441.902 524.57 442.295 523.952 443.487C522.095 447.081 520.049 450.576 517.95 454.333C519.958 457.11 521.955 460.23 524.305 463.05C529.737 469.566 529.929 479.135 521.141 484.812C517.629 487.083 514.448 489.765 511.121 492.266C508.799 494.01 506.299 495.05 503.471 495.4C503.136 495.4 502.804 495.4 502.469 495.4L502.476 495.407ZM423.101 410.91C422.793 431.339 438.69 447.679 459.157 447.973C478.269 448.245 494.753 431.87 495.074 412.29C495.406 392.119 479.659 375.468 460.061 375.022C439.203 374.548 423.059 391.794 423.101 410.91Z" fill="#E69907"/>
<path d="M568.003 514.799C568.398 513.459 569.054 511.506 569.505 509.507C569.63 508.952 569.326 508.043 568.904 507.657C567.308 506.207 565.622 504.845 563.876 503.589C563.398 503.242 562.473 503.108 561.945 503.334C560.402 504.003 558.96 504.912 557.473 505.715C553.639 507.788 549.188 506.561 547.061 502.761C545.543 500.048 544.094 497.289 542.693 494.508C540.853 490.851 542.564 486.181 546.412 484.154C547.753 483.45 549.086 482.721 550.452 482.067C551.324 481.65 551.551 481.112 551.405 480.111C551.087 477.903 551.01 475.661 550.71 473.45C550.644 472.961 550.155 472.318 549.708 472.137C548.311 471.575 546.845 471.186 545.399 470.75C540.249 469.201 538.137 465.345 539.628 460.134C540.323 457.704 541.056 455.288 541.824 452.883C543.346 448.11 547.369 446.006 552.117 447.456C552.784 447.661 553.521 447.735 554.107 448.082C557.05 449.812 558.754 448.517 560.528 445.995C563.143 442.277 563.349 442.387 561.045 438.283C559.484 435.51 558.37 432.606 560.018 429.602C560.849 428.092 562.249 426.747 563.681 425.768C565.887 424.261 568.335 423.114 570.695 421.841C574.34 419.867 578.589 420.911 580.806 424.438C581.99 426.319 582.992 428.325 583.994 430.32C584.486 431.3 585.038 431.658 586.176 431.459C587.887 431.162 589.636 431.077 591.372 430.989C592.395 430.936 592.89 430.55 593.145 429.493C593.694 427.218 594.242 424.915 595.101 422.754C596.55 419.103 600.46 417.295 604.531 418.339C607.443 419.085 610.33 419.973 613.155 420.999C617.125 422.439 619.028 426.659 617.753 430.773C617.093 432.906 616.402 435.032 615.875 437.201C615.753 437.7 616.091 438.506 616.482 438.899C617.383 439.808 618.473 440.523 619.44 441.368C621.496 443.172 621.482 443.183 623.909 441.846C625.543 440.947 627.145 439.978 628.821 439.171C632.672 437.321 636.803 438.591 638.919 442.32C640.396 444.923 641.778 447.583 643.098 450.275C645.015 454.191 643.681 458.458 639.914 460.605C637.938 461.733 635.881 462.717 633.95 463.912C633.462 464.217 633.039 465.094 633.057 465.692C633.116 467.507 633.311 469.335 633.664 471.115C633.776 471.674 634.478 472.325 635.05 472.533C637.236 473.326 639.495 473.899 641.694 474.652C644.187 475.505 645.706 477.32 646.523 479.838C647.155 481.787 647.284 483.521 646.198 485.488C645.228 487.246 644.942 489.386 644.306 491.339C642.351 497.367 638.975 499.114 632.917 497.278C631.416 496.822 629.872 496.489 628.413 495.923C627.386 495.524 626.87 495.775 626.283 496.652C625.305 498.11 624.234 499.514 623.088 500.84C622.453 501.58 622.345 502.16 622.837 503.02C623.853 504.802 624.81 506.628 625.724 508.467C627.795 512.638 626.608 516.742 622.617 519.083C620.204 520.498 617.746 521.846 615.267 523.141C611.388 525.164 607.663 524.283 605.167 520.626C603.948 518.843 603.103 516.802 601.951 514.969C601.654 514.495 600.806 514.095 600.237 514.131C598.212 514.258 596.186 514.506 594.193 514.888C593.599 515.001 592.859 515.617 592.639 516.179C592 517.813 591.581 519.54 591.092 521.234C589.804 525.709 585.702 527.959 581.271 526.618C578.712 525.843 576.142 525.115 573.586 524.329C569.414 523.045 567.336 519.777 568.007 514.803L568.003 514.799ZM612.558 475.82C614.171 464.174 606.57 453.944 595.097 452.309C583.669 450.682 573.359 458.461 571.743 469.912C570.929 475.689 572.235 480.96 575.709 485.551C580.216 491.512 586.389 493.872 593.707 493.758C600.844 493.649 611.319 487.15 612.561 475.82H612.558Z" fill="#073799"/>
</g>
<g clip-path="url(#clip2_811_903)">
<path d="M769.4 503.712C765.807 503.527 763.077 501.864 761.051 498.87C759.717 496.902 758.238 495.032 756.868 493.087C756.464 492.513 756.114 492.341 755.39 492.553C752.467 493.397 749.526 494.185 746.572 494.91C745.846 495.087 745.604 495.416 745.509 496.101C745.151 498.638 744.749 501.17 744.363 503.702C743.474 509.509 738.429 513.159 732.692 512.189C729.223 511.603 725.738 511.11 722.267 510.539C716.72 509.624 713.168 504.771 713.936 499.162C714.266 496.753 714.618 494.346 715.025 491.95C715.169 491.103 714.912 490.678 714.137 490.391C713.065 489.992 711.834 489.726 711.021 488.999C709.602 487.731 707.874 486.975 706.439 485.773C706.112 485.497 705.744 485.27 705.332 484.975C703.285 486.503 701.25 488.023 699.213 489.538C694.109 493.335 688.178 492.336 684.49 487.095C682.548 484.336 680.542 481.622 678.588 478.871C675.119 473.987 676.139 467.941 680.988 464.439C682.803 463.127 684.627 461.821 686.383 460.431C686.705 460.176 686.942 459.485 686.854 459.075C686.149 455.814 685.376 452.567 684.56 449.331C684.475 448.995 683.998 448.586 683.648 448.52C681.369 448.101 679.079 447.749 676.788 447.41C670.803 446.526 667.233 441.671 668.135 435.595C668.67 431.987 669.206 428.381 669.775 424.777C670.617 419.447 675.477 415.802 680.808 416.522C683.486 416.884 686.149 417.361 688.827 417.721C689.18 417.768 689.757 417.541 689.934 417.255C691.729 414.352 693.462 411.411 695.322 408.301C693.947 406.431 692.463 404.366 690.928 402.342C689.489 400.442 688.43 398.382 688.294 395.957C688.093 392.353 689.404 389.407 692.267 387.235C695.152 385.047 698.057 382.883 700.99 380.763C705.783 377.295 711.523 378.182 715.11 382.94C716.802 385.185 718.44 387.472 720.07 389.764C720.487 390.351 720.83 390.588 721.636 390.369C724.61 389.561 727.621 388.888 730.755 388.132C731.177 385.264 731.62 382.26 732.061 379.256C732.911 373.488 737.167 369.536 742.47 370.044C746.814 370.461 751.149 371.204 755.424 372.112C758.921 372.852 761.2 375.295 762.264 378.722C762.905 380.787 762.555 382.959 762.3 385.071C762.001 387.571 761.599 390.059 761.192 392.544C761.076 393.258 761.275 393.605 761.9 393.975C764.19 395.331 766.412 396.807 768.704 398.16C769.075 398.379 769.822 398.397 770.149 398.16C771.913 396.877 773.518 395.355 775.333 394.16C777.453 392.768 779.374 390.919 782.103 390.69C785.771 390.382 789.013 391.243 791.331 394.309C793.782 397.55 796.185 400.838 798.464 404.204C801.361 408.478 800.249 414.363 796.033 417.567C793.53 419.471 790.993 421.338 788.431 423.16C787.741 423.651 787.669 424.065 787.9 424.868C788.634 427.408 789.27 429.976 789.868 432.552C790.02 433.212 790.254 433.491 790.919 433.588C793.849 434.007 796.767 434.505 799.698 434.925C805.502 435.754 809.216 440.497 808.474 446.341C807.995 450.132 807.403 453.907 806.754 457.673C805.868 462.82 801.462 466.329 796.301 465.865C793.213 465.589 790.149 465.005 787.092 464.455C786.095 464.275 785.696 464.564 785.24 465.443C783.87 468.092 782.361 470.668 780.813 473.437C782.294 475.484 783.767 477.784 785.5 479.862C789.507 484.665 789.649 491.718 783.167 495.903C780.576 497.577 778.23 499.554 775.776 501.397C774.063 502.683 772.22 503.449 770.134 503.707C769.886 503.707 769.642 503.707 769.394 503.707L769.4 503.712ZM710.853 441.431C710.627 456.489 722.352 468.533 737.448 468.749C751.545 468.95 763.703 456.88 763.94 442.448C764.185 427.58 752.57 415.307 738.115 414.978C722.73 414.629 710.822 427.34 710.853 441.431Z" fill="#E69907"/>
<path d="M817.731 518.006C818.022 517.018 818.506 515.579 818.839 514.106C818.931 513.696 818.707 513.026 818.396 512.742C817.219 511.673 815.975 510.669 814.687 509.743C814.335 509.488 813.652 509.389 813.263 509.556C812.125 510.048 811.061 510.719 809.964 511.31C807.137 512.838 803.853 511.934 802.285 509.133C801.165 507.133 800.096 505.1 799.063 503.05C797.706 500.354 798.968 496.912 801.806 495.418C802.795 494.899 803.778 494.362 804.785 493.88C805.429 493.572 805.597 493.176 805.488 492.438C805.254 490.811 805.197 489.158 804.976 487.528C804.927 487.168 804.567 486.694 804.237 486.561C803.207 486.146 802.125 485.859 801.059 485.538C797.26 484.396 795.702 481.554 796.802 477.713C797.315 475.922 797.855 474.141 798.422 472.368C799.545 468.851 802.511 467.299 806.014 468.368C806.506 468.52 807.049 468.574 807.482 468.83C809.653 470.105 810.909 469.151 812.218 467.291C814.147 464.551 814.298 464.632 812.599 461.607C811.448 459.563 810.626 457.422 811.842 455.209C812.455 454.095 813.487 453.104 814.543 452.382C816.171 451.271 817.976 450.426 819.717 449.488C822.405 448.033 825.54 448.802 827.175 451.402C828.048 452.789 828.787 454.267 829.526 455.738C829.889 456.46 830.296 456.723 831.136 456.577C832.398 456.358 833.688 456.296 834.968 456.231C835.722 456.192 836.088 455.907 836.276 455.128C836.68 453.451 837.085 451.754 837.718 450.16C838.787 447.47 841.671 446.137 844.674 446.906C846.822 447.457 848.951 448.111 851.035 448.867C853.963 449.928 855.366 453.039 854.426 456.072C853.94 457.644 853.43 459.211 853.041 460.809C852.951 461.177 853.201 461.771 853.489 462.061C854.153 462.731 854.957 463.258 855.67 463.881C857.187 465.211 857.177 465.219 858.967 464.233C860.172 463.571 861.354 462.856 862.59 462.262C865.431 460.898 868.477 461.834 870.038 464.582C871.127 466.501 872.147 468.462 873.12 470.446C874.534 473.333 873.55 476.477 870.772 478.06C869.314 478.892 867.797 479.617 866.373 480.498C866.013 480.722 865.701 481.369 865.714 481.81C865.758 483.147 865.902 484.495 866.162 485.807C866.244 486.219 866.762 486.699 867.184 486.853C868.797 487.437 870.463 487.859 872.085 488.414C873.924 489.043 875.044 490.38 875.647 492.237C876.113 493.674 876.208 494.951 875.407 496.401C874.691 497.697 874.48 499.274 874.011 500.714C872.569 505.157 870.079 506.445 865.611 505.092C864.504 504.755 863.365 504.51 862.289 504.093C861.532 503.798 861.151 503.984 860.718 504.63C859.997 505.704 859.206 506.74 858.361 507.717C857.893 508.262 857.813 508.69 858.176 509.324C858.925 510.638 859.631 511.983 860.306 513.339C861.833 516.413 860.957 519.438 858.014 521.164C856.234 522.207 854.421 523.2 852.593 524.155C849.732 525.646 846.984 524.997 845.143 522.301C844.244 520.987 843.621 519.482 842.771 518.132C842.552 517.782 841.926 517.488 841.506 517.514C840.013 517.607 838.519 517.79 837.048 518.072C836.611 518.155 836.065 518.609 835.902 519.023C835.431 520.228 835.122 521.5 834.762 522.749C833.811 526.048 830.785 527.706 827.517 526.718C825.63 526.147 823.734 525.61 821.849 525.031C818.772 524.084 817.239 521.675 817.734 518.009L817.731 518.006ZM850.594 489.275C851.784 480.691 846.178 473.15 837.715 471.946C829.287 470.746 821.682 476.48 820.489 484.92C819.889 489.178 820.853 493.064 823.415 496.448C826.74 500.842 831.293 502.581 836.691 502.497C841.954 502.416 849.68 497.627 850.597 489.275H850.594Z" fill="#073799"/>
</g>
<g clip-path="url(#clip3_811_903)">
<path d="M971.59 509.794C968.948 509.657 966.94 508.428 965.449 506.216C964.467 504.762 963.38 503.381 962.372 501.943C962.075 501.519 961.817 501.392 961.285 501.548C959.135 502.173 956.972 502.754 954.799 503.29C954.265 503.421 954.087 503.664 954.017 504.17C953.753 506.045 953.458 507.916 953.174 509.786C952.52 514.077 948.809 516.774 944.589 516.057C942.037 515.624 939.474 515.259 936.92 514.838C932.84 514.161 930.228 510.576 930.792 506.432C931.035 504.652 931.294 502.874 931.594 501.103C931.7 500.477 931.51 500.163 930.94 499.951C930.152 499.657 929.246 499.46 928.648 498.923C927.604 497.986 926.333 497.428 925.278 496.539C925.037 496.335 924.766 496.168 924.463 495.95C922.957 497.079 921.461 498.202 919.962 499.321C916.208 502.126 911.845 501.388 909.133 497.516C907.704 495.478 906.229 493.472 904.791 491.44C902.239 487.832 902.989 483.364 906.556 480.777C907.892 479.808 909.233 478.842 910.525 477.816C910.762 477.627 910.936 477.116 910.872 476.814C910.353 474.404 909.784 472.005 909.184 469.614C909.121 469.366 908.771 469.063 908.513 469.015C906.837 468.705 905.153 468.445 903.467 468.194C899.064 467.541 896.439 463.954 897.102 459.465C897.496 456.799 897.89 454.135 898.309 451.472C898.928 447.534 902.503 444.841 906.424 445.373C908.394 445.641 910.353 445.993 912.323 446.259C912.582 446.294 913.007 446.126 913.137 445.914C914.458 443.77 915.732 441.597 917.1 439.298C916.089 437.917 914.997 436.391 913.868 434.896C912.81 433.492 912.031 431.97 911.931 430.178C911.783 427.516 912.747 425.339 914.853 423.734C916.975 422.118 919.112 420.519 921.27 418.952C924.795 416.39 929.017 417.045 931.656 420.561C932.901 422.22 934.105 423.909 935.305 425.603C935.611 426.036 935.863 426.212 936.456 426.05C938.644 425.453 940.859 424.955 943.164 424.397C943.475 422.278 943.8 420.058 944.124 417.839C944.75 413.577 947.881 410.657 951.781 411.032C954.977 411.341 958.165 411.89 961.31 412.56C963.882 413.107 965.559 414.913 966.341 417.444C966.813 418.97 966.555 420.575 966.367 422.135C966.148 423.983 965.852 425.82 965.553 427.656C965.468 428.184 965.614 428.441 966.074 428.714C967.758 429.716 969.393 430.806 971.079 431.806C971.351 431.968 971.901 431.982 972.141 431.806C973.439 430.858 974.619 429.733 975.955 428.851C977.514 427.822 978.927 426.456 980.935 426.287C983.632 426.059 986.017 426.695 987.722 428.961C989.525 431.355 991.293 433.785 992.969 436.272C995.1 439.429 994.282 443.778 991.181 446.145C989.34 447.552 987.474 448.931 985.589 450.278C985.081 450.64 985.028 450.946 985.199 451.54C985.739 453.416 986.207 455.314 986.646 457.217C986.758 457.705 986.93 457.911 987.419 457.982C989.575 458.292 991.721 458.66 993.877 458.97C998.146 459.583 1000.88 463.087 1000.33 467.405C999.98 470.206 999.544 472.995 999.067 475.777C998.415 479.58 995.174 482.173 991.378 481.83C989.107 481.626 986.853 481.195 984.604 480.788C983.871 480.655 983.577 480.869 983.242 481.518C982.234 483.476 981.124 485.379 979.986 487.425C981.075 488.937 982.158 490.637 983.433 492.172C986.381 495.721 986.485 500.932 981.717 504.024C979.811 505.261 978.086 506.721 976.28 508.083C975.021 509.033 973.664 509.599 972.13 509.79C971.948 509.79 971.768 509.79 971.586 509.79L971.59 509.794ZM928.525 463.777C928.358 474.903 936.983 483.801 948.087 483.961C958.457 484.109 967.4 475.192 967.574 464.528C967.754 453.543 959.211 444.475 948.578 444.232C937.261 443.974 928.502 453.366 928.525 463.777Z" fill="#E69907"/>
<path d="M1007.14 520.355C1007.36 519.625 1007.71 518.562 1007.96 517.473C1008.02 517.171 1007.86 516.675 1007.63 516.465C1006.76 515.676 1005.85 514.934 1004.9 514.25C1004.64 514.061 1004.14 513.988 1003.85 514.111C1003.02 514.475 1002.23 514.971 1001.43 515.408C999.348 516.537 996.933 515.868 995.779 513.799C994.955 512.322 994.169 510.819 993.409 509.305C992.411 507.313 993.339 504.77 995.427 503.666C996.154 503.282 996.878 502.885 997.618 502.529C998.092 502.302 998.215 502.009 998.136 501.464C997.963 500.261 997.921 499.04 997.759 497.836C997.723 497.57 997.457 497.219 997.215 497.121C996.457 496.815 995.662 496.603 994.877 496.366C992.083 495.522 990.937 493.422 991.746 490.585C992.123 489.261 992.521 487.945 992.938 486.635C993.763 484.036 995.946 482.89 998.522 483.68C998.884 483.792 999.283 483.832 999.602 484.021C1001.2 484.963 1002.12 484.258 1003.09 482.884C1004.5 480.859 1004.62 480.919 1003.37 478.684C1002.52 477.174 1001.91 475.592 1002.81 473.957C1003.26 473.134 1004.02 472.402 1004.8 471.868C1005.99 471.048 1007.32 470.423 1008.6 469.73C1010.58 468.655 1012.88 469.223 1014.09 471.144C1014.73 472.169 1015.27 473.261 1015.82 474.348C1016.08 474.881 1016.38 475.076 1017 474.968C1017.93 474.806 1018.88 474.76 1019.82 474.712C1020.37 474.683 1020.64 474.473 1020.78 473.897C1021.08 472.658 1021.38 471.404 1021.84 470.227C1022.63 468.239 1024.75 467.254 1026.96 467.823C1028.54 468.229 1030.11 468.713 1031.64 469.271C1033.79 470.055 1034.82 472.354 1034.13 474.594C1033.78 475.756 1033.4 476.914 1033.11 478.095C1033.05 478.367 1033.23 478.806 1033.44 479.02C1033.93 479.515 1034.52 479.904 1035.05 480.364C1036.16 481.347 1036.16 481.353 1037.47 480.624C1038.36 480.135 1039.23 479.607 1040.14 479.168C1042.23 478.16 1044.47 478.852 1045.62 480.883C1046.42 482.3 1047.17 483.749 1047.88 485.215C1048.92 487.348 1048.2 489.671 1046.16 490.841C1045.08 491.455 1043.97 491.991 1042.92 492.642C1042.66 492.808 1042.43 493.286 1042.44 493.611C1042.47 494.599 1042.57 495.595 1042.77 496.564C1042.83 496.869 1043.21 497.223 1043.52 497.337C1044.7 497.769 1045.93 498.081 1047.12 498.491C1048.48 498.955 1049.3 499.944 1049.74 501.315C1050.09 502.377 1050.16 503.321 1049.57 504.392C1049.04 505.349 1048.88 506.515 1048.54 507.578C1047.48 510.861 1045.65 511.813 1042.36 510.813C1041.55 510.565 1040.71 510.383 1039.92 510.075C1039.36 509.858 1039.08 509.994 1038.76 510.472C1038.23 511.266 1037.65 512.031 1037.03 512.753C1036.68 513.156 1036.62 513.472 1036.89 513.94C1037.44 514.911 1037.96 515.905 1038.46 516.907C1039.58 519.178 1038.94 521.413 1036.77 522.688C1035.46 523.459 1034.13 524.193 1032.78 524.898C1030.68 526 1028.66 525.52 1027.3 523.528C1026.64 522.557 1026.18 521.446 1025.56 520.448C1025.4 520.189 1024.94 519.972 1024.63 519.991C1023.53 520.06 1022.43 520.195 1021.35 520.403C1021.03 520.465 1020.63 520.8 1020.51 521.106C1020.16 521.997 1019.93 522.937 1019.67 523.86C1018.97 526.297 1016.74 527.522 1014.34 526.792C1012.95 526.37 1011.56 525.973 1010.17 525.545C1007.91 524.846 1006.78 523.066 1007.14 520.357L1007.14 520.355ZM1031.31 499.127C1032.19 492.785 1028.07 487.213 1021.84 486.323C1015.64 485.437 1010.05 489.673 1009.17 495.909C1008.73 499.055 1009.44 501.926 1011.32 504.427C1013.77 507.673 1017.12 508.958 1021.09 508.896C1024.96 508.836 1030.64 505.297 1031.32 499.127H1031.31Z" fill="#073799"/>
</g>
<path d="M111.848 73.7684C108.407 72.7475 104.789 74.7099 103.768 78.1515C102.747 81.5931 104.71 85.2107 108.152 86.2316L110 80L111.848 73.7684ZM1000 344L948.356 289.537L927.012 361.493L1000 344ZM110 80L108.152 86.2316L942.067 333.595L943.915 327.364L945.764 321.132L111.848 73.7684L110 80Z" fill="#073799"/>
<path d="M216.984 298.689C213.466 299.403 211.193 302.834 211.907 306.352C212.621 309.87 216.052 312.143 219.57 311.429L218.277 305.059L216.984 298.689ZM1104.75 125.111L1033.58 101.264L1048.52 174.819L1104.75 125.111ZM218.277 305.059L219.57 311.429L1048.71 143.119L1047.42 136.749L1046.13 130.378L216.984 298.689L218.277 305.059Z" fill="#E69907"/>
<path d="M151.654 67.8487L155.969 53.6916C156.134 53.1489 156.127 52.7082 155.946 52.3696C155.766 52.0309 155.404 51.7789 154.861 51.6135L148.703 49.7366L150.149 44.994L158.147 47.4318C159.327 47.7914 160.309 48.3355 161.092 49.0643C161.899 49.8003 162.423 50.7464 162.664 51.9028C162.912 53.0356 162.791 54.4043 162.302 56.0087L159.293 65.8833L158.095 69.8119L151.654 67.8487ZM141.072 64.6234L142.517 59.8808L157.205 64.3573L155.759 69.0999L141.072 64.6234ZM139.762 64.2243L144.853 47.5189L146.008 43.7319L152.449 45.6951L151.187 49.8361L146.203 66.1875L139.762 64.2243ZM163.569 63.3573L164.572 60.0658L166.288 54.4384L167.16 50.1788L173.566 52.1312L172.729 56.4016L171.014 62.029L170.299 64.248L163.569 63.3573ZM173.986 74.655L184.874 60.7606L175.034 57.7618L176.48 53.0192L192.761 57.9812L191.164 63.2193L180.427 76.6182L173.986 74.655ZM175.034 57.7618L177.968 48.135L183.702 49.8825L180.768 59.5093L175.034 57.7618ZM195.992 81.3619L197.133 72.5424L198.88 66.8087C199.11 66.0537 199.128 65.5304 198.933 65.239C198.745 64.9239 198.423 64.6709 197.965 64.4799L195.857 63.5279L198.06 59.0934L202.725 61.1729C204.138 61.7839 205.081 62.6646 205.556 63.8149C206.061 64.9489 206.062 66.3417 205.559 67.9933L203.531 74.6471L202.079 83.2172L195.992 81.3619ZM189.926 80.3253L189.121 74.5876C191.104 74.5986 192.768 74.3838 194.114 73.9432C195.491 73.4861 196.571 72.8612 197.354 72.0684L198.507 75.901C197.764 76.7318 196.995 77.4774 196.201 78.1378C195.43 78.8054 194.535 79.3319 193.515 79.7173C192.526 80.0862 191.329 80.2889 189.926 80.3253ZM208.031 85.0311L218.918 71.1367L209.079 68.1379L210.525 63.3953L226.805 68.3573L225.209 73.5954L214.472 86.9943L208.031 85.0311ZM209.079 68.1379L212.013 58.5111L217.747 60.2586L214.813 69.8854L209.079 68.1379ZM230.037 91.738L231.177 82.9184L232.925 77.1848C233.155 76.4298 233.173 75.9065 232.978 75.6151C232.79 75.3 232.468 75.047 232.01 74.856L229.902 73.904L232.105 69.4695L236.77 71.549C238.183 72.16 239.126 73.0407 239.601 74.191C240.106 75.325 240.107 76.7178 239.604 78.3694L237.576 85.0232L236.124 93.5933L230.037 91.738ZM223.97 90.7014L223.166 84.9637C225.148 84.9747 226.813 84.7599 228.159 84.3193C229.536 83.8622 230.616 83.2373 231.399 82.4445L232.552 86.2771C231.809 87.1078 231.04 87.8534 230.246 88.5139C229.475 89.1815 228.579 89.708 227.559 90.0934C226.57 90.4623 225.374 90.665 223.97 90.7014ZM242.075 95.4071L252.963 81.5127L243.124 78.514L244.569 73.7714L260.85 78.7333L259.254 83.9715L248.517 97.3704L242.075 95.4071ZM243.124 78.514L246.058 68.8872L251.792 70.6347L248.858 80.2615L243.124 78.514ZM263.423 102.648L264.208 98.1687C265.141 98.324 265.84 98.3566 266.306 98.2665C266.772 98.1764 267.128 97.937 267.376 97.5482C267.623 97.1594 267.862 96.5875 268.092 95.8325L272.245 82.2063L284.066 85.8091C285.246 86.1687 286.228 86.7129 287.011 87.4416C287.818 88.1776 288.342 89.1238 288.583 90.2802C288.831 91.413 288.71 92.7816 288.221 94.3861L284.014 108.189L277.573 106.226L281.888 92.0689C282.053 91.5262 282.045 91.0856 281.865 90.7469C281.685 90.4083 281.323 90.1562 280.78 89.9908L277.241 88.9122L274.792 96.9463C274.174 98.9755 273.37 100.471 272.381 101.433C271.415 102.402 270.2 102.96 268.737 103.108C267.281 103.231 265.51 103.078 263.423 102.648ZM295.176 111.591L299.491 97.434C299.656 96.8913 299.649 96.4506 299.468 96.112C299.288 95.7733 298.926 95.5213 298.383 95.3559L291.128 93.1446L292.573 88.402L301.669 91.1742C302.849 91.5338 303.831 92.0779 304.614 92.8067C305.422 93.5427 305.945 94.4888 306.186 95.6452C306.434 96.778 306.313 98.1467 305.824 99.7511L301.617 113.554L295.176 111.591ZM313.158 117.072L317.473 102.915C317.638 102.372 317.631 101.931 317.45 101.592C317.27 101.254 316.908 101.002 316.365 100.836L309.075 98.6143L310.52 93.8717L319.651 96.6547C320.831 97.0143 321.813 97.5585 322.596 98.2872C323.404 99.0232 323.927 99.9694 324.168 101.126C324.416 102.259 324.295 103.627 323.806 105.232L319.599 119.035L313.158 117.072ZM304.274 114.364L305.72 109.621L323.31 114.983L321.865 119.725L304.274 114.364ZM323.045 121.787L323.681 116.527L333.482 117.619C334.578 117.746 335.496 117.652 336.237 117.337C336.985 116.997 337.627 116.458 338.162 115.718C338.72 114.986 339.226 114.044 339.68 112.893C340.134 111.742 340.583 110.396 341.027 108.856C341.502 107.298 342.03 105.564 342.613 103.653L348.983 105.594C348.329 107.742 347.679 109.748 347.033 111.614C346.394 113.457 345.668 115.118 344.856 116.598C344.075 118.062 343.119 119.292 341.99 120.289C340.885 121.293 339.519 122.011 337.891 122.444C336.287 122.883 334.335 122.984 332.035 122.748L323.045 121.787ZM329.193 117.859L330.367 99.9205L336.808 101.884L335.316 119.725L329.193 117.859ZM345.802 127.021L350.786 110.669L351.658 106.41L358.065 108.362L357.227 112.633L352.244 128.984L345.802 127.021ZM363.641 132.496L365.652 127.926C367.196 128.784 368.435 129.161 369.369 129.059C370.31 128.933 371.065 128.441 371.636 127.584C372.231 126.734 372.733 125.636 373.143 124.291C373.545 122.97 373.758 121.848 373.781 120.927C373.828 120.013 373.664 119.28 373.291 118.728C372.949 118.159 372.376 117.753 371.574 117.508C371.102 117.364 370.613 117.318 370.107 117.37C369.625 117.43 369.169 117.613 368.74 117.921C368.319 118.205 367.975 118.655 367.71 119.27L367.142 116.312C368.168 114.639 369.322 113.56 370.605 113.074C371.918 112.572 373.224 112.518 374.521 112.914C375.89 113.331 376.998 113.926 377.845 114.7C378.716 115.481 379.341 116.433 379.721 117.554C380.102 118.676 380.24 119.956 380.137 121.394C380.057 122.84 379.755 124.424 379.23 126.146C378.461 128.671 377.314 130.655 375.791 132.099C374.292 133.551 372.502 134.346 370.422 134.486C368.35 134.602 366.089 133.939 363.641 132.496ZM355.228 129.894L361.731 117.061L360.978 109.25L367.667 111.289L367.71 119.27L361.669 131.857L355.228 129.894ZM390.412 140.617L394.727 126.46C394.892 125.917 394.885 125.477 394.704 125.138C394.524 124.799 394.162 124.547 393.62 124.382L383.851 121.405L385.297 116.662L396.906 120.2C398.085 120.56 399.067 121.104 399.851 121.833C400.658 122.569 401.182 123.515 401.422 124.671C401.67 125.804 401.55 127.173 401.061 128.777L396.854 142.58L390.412 140.617ZM378.768 137.068L381.734 127.335L383.342 125.233L388.899 126.927L388.176 129.298L385.209 139.031L378.768 137.068ZM418.942 149.312L423.256 135.155C423.58 134.093 423.211 133.401 422.149 133.077L411.673 129.884L413.118 125.141L425.435 128.895C426.615 129.255 427.597 129.799 428.38 130.528C429.187 131.264 429.711 132.21 429.952 133.366C430.2 134.499 430.079 135.868 429.59 137.472L425.383 151.275L418.942 149.312ZM406.873 145.634L412.191 128.185L418.632 130.148L413.314 147.597L406.873 145.634ZM428.685 152.282L433.668 135.93L434.541 131.671L440.947 133.623L440.11 137.893L435.126 154.245L428.685 152.282ZM437.438 154.949L438.883 150.207L445.077 152.095C445.856 152.332 446.527 152.33 447.09 152.089C447.661 151.825 448.122 151.411 448.474 150.848C448.857 150.268 449.153 149.636 449.361 148.952L450.235 146.085C450.444 145.401 450.547 144.723 450.545 144.052C450.574 143.365 450.422 142.764 450.089 142.25C449.763 141.712 449.211 141.325 448.432 141.087L442.238 139.2L443.684 134.457L451.718 136.906C453.464 137.438 454.769 138.274 455.634 139.414C456.529 140.538 457.036 141.879 457.154 143.436C457.303 144.977 457.108 146.633 456.569 148.402L455.911 150.561C455.371 152.331 454.606 153.826 453.616 155.045C452.656 156.248 451.488 157.078 450.111 157.535C448.764 157.976 447.218 157.93 445.472 157.398L437.438 154.949ZM467.315 164.055L471.63 149.898C471.795 149.356 471.788 148.915 471.607 148.576C471.427 148.238 471.065 147.986 470.523 147.82L460.754 144.843L462.2 140.1L473.809 143.639C474.988 143.998 475.97 144.542 476.754 145.271C477.561 146.007 478.085 146.953 478.325 148.11C478.573 149.242 478.453 150.611 477.964 152.215L473.757 166.019L467.315 164.055ZM455.671 160.506L458.637 150.773L460.245 148.672L465.802 150.365L465.079 152.737L462.113 162.47L455.671 160.506ZM482.934 169.551L483.719 165.071C484.652 165.226 485.351 165.259 485.817 165.169C486.282 165.078 486.639 164.839 486.886 164.45C487.134 164.062 487.373 163.49 487.603 162.735L491.756 149.108L503.577 152.711C504.757 153.071 505.738 153.615 506.522 154.344C507.329 155.08 507.853 156.026 508.094 157.182C508.341 158.315 508.221 159.684 507.732 161.288L503.525 175.091L497.084 173.128L501.398 158.971C501.564 158.428 501.556 157.988 501.376 157.649C501.195 157.31 500.834 157.058 500.291 156.893L496.752 155.814L494.303 163.848C493.685 165.878 492.881 167.373 491.891 168.335C490.925 169.304 489.711 169.863 488.248 170.01C486.792 170.133 485.021 169.98 482.934 169.551ZM506.936 176.131L511.919 159.779L512.792 155.52L519.198 157.472L518.361 161.743L513.377 178.094L506.936 176.131ZM524.774 181.606L526.786 177.036C528.33 177.894 529.568 178.271 530.502 178.169C531.443 178.043 532.199 177.551 532.77 176.694C533.364 175.844 533.866 174.746 534.276 173.401C534.679 172.08 534.892 170.958 534.915 170.037C534.961 169.123 534.798 168.39 534.424 167.838C534.082 167.269 533.51 166.863 532.707 166.618C532.236 166.474 531.747 166.428 531.241 166.48C530.759 166.54 530.303 166.723 529.874 167.031C529.452 167.315 529.109 167.765 528.844 168.38L528.276 165.422C529.301 163.749 530.455 162.67 531.738 162.184C533.052 161.682 534.357 161.628 535.655 162.024C537.023 162.441 538.131 163.036 538.978 163.81C539.849 164.591 540.475 165.543 540.855 166.664C541.235 167.786 541.374 169.066 541.27 170.504C541.191 171.95 540.889 173.534 540.364 175.256C539.594 177.781 538.448 179.765 536.925 181.209C535.425 182.661 533.635 183.456 531.556 183.596C529.483 183.712 527.223 183.049 524.774 181.606ZM516.361 179.004L522.864 166.171L522.112 158.36L528.801 160.399L528.844 168.38L522.803 180.967L516.361 179.004ZM539.123 185.941L540.568 181.198L546.762 183.086C547.541 183.323 548.212 183.321 548.775 183.08C549.346 182.816 549.807 182.402 550.159 181.839C550.542 181.26 550.838 180.628 551.046 179.943L551.92 177.077C552.129 176.392 552.232 175.715 552.23 175.044C552.259 174.356 552.107 173.755 551.774 173.241C551.448 172.704 550.895 172.316 550.117 172.079L543.923 170.191L545.368 165.448L553.403 167.897C555.149 168.429 556.454 169.265 557.318 170.406C558.214 171.529 558.72 172.87 558.839 174.428C558.988 175.969 558.793 177.624 558.254 179.394L557.596 181.553C557.056 183.322 556.291 184.817 555.301 186.036C554.341 187.24 553.173 188.07 551.795 188.527C550.449 188.967 548.903 188.922 547.157 188.389L539.123 185.941Z" fill="#073799"/>
<path d="M79.976 592V577.2C79.976 576.09 79.421 575.535 78.311 575.535H67.359V570.577H80.235C81.4683 570.577 82.566 570.811 83.528 571.28C84.5147 571.749 85.2917 572.501 85.859 573.537C86.4263 574.548 86.71 575.893 86.71 577.57V592H79.976ZM67.359 592V573.759H74.093V592H67.359ZM90.1614 592V574.906L89.7544 570.577H96.4514L96.8954 574.906V592H90.1614ZM99.3123 592V587.042H105.787C106.601 587.042 107.243 586.845 107.711 586.45C108.18 586.031 108.501 585.5 108.673 584.859C108.871 584.193 108.969 583.502 108.969 582.787V579.79C108.969 579.075 108.871 578.396 108.673 577.755C108.501 577.089 108.18 576.559 107.711 576.164C107.243 575.745 106.601 575.535 105.787 575.535H99.3123V570.577H107.711C109.537 570.577 111.029 570.996 112.188 571.835C113.372 572.649 114.248 573.784 114.815 575.239C115.407 576.67 115.703 578.31 115.703 580.16V582.417C115.703 584.267 115.407 585.92 114.815 587.375C114.248 588.806 113.372 589.94 112.188 590.779C111.029 591.593 109.537 592 107.711 592H99.3123ZM137.954 592V577.2C137.954 576.633 137.818 576.213 137.547 575.942C137.275 575.671 136.856 575.535 136.289 575.535H126.077V570.577H138.213C139.446 570.577 140.544 570.811 141.506 571.28C142.492 571.749 143.269 572.501 143.837 573.537C144.404 574.548 144.688 575.893 144.688 577.57V592H137.954ZM125.781 592V581.825L126.706 579.346H132.515V581.825V592H125.781ZM156.376 592V577.2C156.376 576.633 156.24 576.213 155.969 575.942C155.697 575.671 155.278 575.535 154.711 575.535H147.089V570.577H156.635C157.868 570.577 158.966 570.811 159.928 571.28C160.914 571.749 161.691 572.501 162.259 573.537C162.826 574.548 163.11 575.893 163.11 577.57V592H156.376ZM147.089 592V587.042H165.478V592H147.089ZM175.263 592V577.2C175.263 576.633 175.128 576.213 174.856 575.942C174.585 575.671 174.166 575.535 173.598 575.535H166.013V570.577H175.522C176.756 570.577 177.853 570.811 178.815 571.28C179.802 571.749 180.579 572.501 181.146 573.537C181.714 574.548 181.997 575.893 181.997 577.57V592H175.263ZM197.392 592V577.2C197.392 576.633 197.256 576.213 196.985 575.942C196.714 575.671 196.294 575.535 195.727 575.535H185.515V570.577H197.651C198.884 570.577 199.982 570.811 200.944 571.28C201.931 571.749 202.708 572.501 203.275 573.537C203.842 574.548 204.126 575.893 204.126 577.57V592H197.392ZM185.219 592V581.825L186.144 579.346H191.953V581.825V592H185.219ZM43.5499 640.703L42.9949 636.189C43.9323 636.066 44.6106 635.893 45.0299 635.671C45.4493 635.449 45.7206 635.116 45.8439 634.672C45.9673 634.228 46.0289 633.611 46.0289 632.822V618.577H58.3869C59.6203 618.577 60.7179 618.811 61.6799 619.28C62.6666 619.749 63.4436 620.501 64.0109 621.537C64.5783 622.548 64.8619 623.893 64.8619 625.57V640H58.1279V625.2C58.1279 624.633 57.9923 624.213 57.7209 623.942C57.4496 623.671 57.0303 623.535 56.4629 623.535H52.7629V631.934C52.7629 634.055 52.4299 635.72 51.7639 636.929C51.1226 638.138 50.1236 639.026 48.7669 639.593C47.4103 640.136 45.6713 640.506 43.5499 640.703ZM68.4275 640V622.906L68.0205 618.577H74.7175L75.1615 622.906V640H68.4275ZM86.8284 640V625.2C86.8284 624.633 86.6927 624.213 86.4214 623.942C86.15 623.671 85.7307 623.535 85.1634 623.535H77.5784V618.577H87.0874C88.3207 618.577 89.4184 618.811 90.3804 619.28C91.367 619.749 92.144 620.501 92.7114 621.537C93.2787 622.548 93.5624 623.893 93.5624 625.57V640H86.8284ZM97.117 632.23V628.789V622.906L96.71 618.577H103.407L103.851 622.906V628.789L103.814 631.12L97.117 632.23ZM119.255 640V625.2C119.255 624.633 119.119 624.213 118.848 623.942C118.576 623.671 118.157 623.535 117.59 623.535H107.378V618.577H119.514C120.747 618.577 121.845 618.811 122.807 619.28C123.793 619.749 124.57 620.501 125.138 621.537C125.705 622.548 125.989 623.893 125.989 625.57V640H119.255ZM107.082 640V629.825L108.007 627.346H113.816V629.825V640H107.082ZM137.529 640.037L138.121 635.079C139.847 635.449 141.142 635.449 142.006 635.079C142.869 634.684 143.449 633.994 143.745 633.007C144.065 632.02 144.226 630.824 144.226 629.418C144.226 628.037 144.102 626.902 143.856 626.014C143.634 625.126 143.264 624.472 142.746 624.053C142.252 623.609 141.586 623.387 140.748 623.387C140.254 623.387 139.773 623.486 139.305 623.683C138.861 623.88 138.478 624.189 138.158 624.608C137.837 625.003 137.64 625.533 137.566 626.199L136.16 623.535C136.653 621.636 137.442 620.267 138.528 619.428C139.638 618.565 140.871 618.133 142.228 618.133C143.658 618.133 144.892 618.38 145.928 618.873C146.988 619.366 147.864 620.094 148.555 621.056C149.245 622.018 149.751 623.202 150.072 624.608C150.417 626.014 150.59 627.617 150.59 629.418C150.59 632.057 150.072 634.29 149.036 636.115C148.024 637.94 146.544 639.223 144.596 639.963C142.647 640.678 140.291 640.703 137.529 640.037ZM128.723 640L131.202 625.829L128.205 618.577H135.198L137.566 626.199L135.457 640H128.723ZM162.959 640.37L160.48 618.577H167.214L168.842 634.45C170.223 634.327 171.296 634.068 172.061 633.673C172.85 633.278 173.43 632.797 173.8 632.23C174.17 631.638 174.404 630.997 174.503 630.306C174.602 629.591 174.651 628.851 174.651 628.086V626.791C174.651 626.273 174.552 625.767 174.355 625.274C174.158 624.756 173.837 624.312 173.393 623.942C172.949 623.572 172.369 623.362 171.654 623.313L169.841 623.202L170.359 618.096L172.764 618.207C174.219 618.256 175.576 618.577 176.834 619.169C178.092 619.761 179.116 620.637 179.905 621.796C180.719 622.931 181.151 624.374 181.2 626.125L181.237 627.161C181.311 629.406 180.953 631.342 180.164 632.97C179.399 634.598 178.228 635.942 176.649 637.003C175.07 638.039 173.122 638.828 170.803 639.371C168.509 639.914 165.894 640.247 162.959 640.37ZM182.654 641.628L181.729 636.411L191.423 634.598C192.509 634.401 193.36 634.043 193.976 633.525C194.593 632.982 195.049 632.279 195.345 631.416C195.666 630.553 195.876 629.504 195.974 628.271C196.073 627.038 196.11 625.619 196.085 624.016C196.085 622.388 196.085 620.575 196.085 618.577H202.745C202.745 620.822 202.708 622.931 202.634 624.904C202.56 626.853 202.351 628.653 202.005 630.306C201.685 631.934 201.13 633.389 200.34 634.672C199.576 635.955 198.478 637.04 197.047 637.928C195.641 638.816 193.804 639.482 191.534 639.926L182.654 641.628ZM187.39 636.078L183.283 618.577H190.017L193.791 636.078H187.39ZM214.311 640.037L214.903 635.079C216.63 635.449 217.925 635.449 218.788 635.079C219.651 634.684 220.231 633.994 220.527 633.007C220.848 632.02 221.008 630.824 221.008 629.418C221.008 628.037 220.885 626.902 220.638 626.014C220.416 625.126 220.046 624.472 219.528 624.053C219.035 623.609 218.369 623.387 217.53 623.387C217.037 623.387 216.556 623.486 216.087 623.683C215.643 623.88 215.261 624.189 214.94 624.608C214.619 625.003 214.422 625.533 214.348 626.199L212.942 623.535C213.435 621.636 214.225 620.267 215.31 619.428C216.42 618.565 217.653 618.133 219.01 618.133C220.441 618.133 221.674 618.38 222.71 618.873C223.771 619.366 224.646 620.094 225.337 621.056C226.028 622.018 226.533 623.202 226.854 624.608C227.199 626.014 227.372 627.617 227.372 629.418C227.372 632.057 226.854 634.29 225.818 636.115C224.807 637.94 223.327 639.223 221.378 639.963C219.429 640.678 217.074 640.703 214.311 640.037ZM205.505 640L207.984 625.829L204.987 618.577H211.98L214.348 626.199L212.239 640H205.505Z" fill="#073799"/>
<path d="M925.384 598V583.2C925.384 582.09 924.829 581.535 923.719 581.535H912.767V576.577H925.643C926.876 576.577 927.974 576.811 928.936 577.28C929.922 577.749 930.699 578.501 931.267 579.537C931.834 580.548 932.118 581.893 932.118 583.57V598H925.384ZM912.767 598V579.759H919.501V598H912.767ZM935.569 598V580.906L935.162 576.577H941.859L942.303 580.906V598H935.569ZM944.72 598V593.042H951.195C952.009 593.042 952.65 592.845 953.119 592.45C953.588 592.031 953.908 591.5 954.081 590.859C954.278 590.193 954.377 589.502 954.377 588.787V585.79C954.377 585.075 954.278 584.396 954.081 583.755C953.908 583.089 953.588 582.559 953.119 582.164C952.65 581.745 952.009 581.535 951.195 581.535H944.72V576.577H953.119C954.944 576.577 956.437 576.996 957.596 577.835C958.78 578.649 959.656 579.784 960.223 581.239C960.815 582.67 961.111 584.31 961.111 586.16V588.417C961.111 590.267 960.815 591.92 960.223 593.375C959.656 594.806 958.78 595.94 957.596 596.779C956.437 597.593 954.944 598 953.119 598H944.72ZM973.408 598.37L970.929 576.577H977.663L979.291 592.45C980.673 592.327 981.746 592.068 982.51 591.673C983.3 591.278 983.879 590.797 984.249 590.23C984.619 589.638 984.854 588.997 984.952 588.306C985.051 587.591 985.1 586.851 985.1 586.086V584.791C985.1 584.273 985.002 583.767 984.804 583.274C984.607 582.756 984.286 582.312 983.842 581.942C983.398 581.572 982.819 581.362 982.103 581.313L980.29 581.202L980.808 576.096L983.213 576.207C984.669 576.256 986.025 576.577 987.283 577.169C988.541 577.761 989.565 578.637 990.354 579.796C991.168 580.931 991.6 582.374 991.649 584.125L991.686 585.161C991.76 587.406 991.403 589.342 990.613 590.97C989.849 592.598 988.677 593.942 987.098 595.003C985.52 596.039 983.571 596.828 981.252 597.371C978.958 597.914 976.344 598.247 973.408 598.37ZM993.104 599.628L992.179 594.411L1001.87 592.598C1002.96 592.401 1003.81 592.043 1004.43 591.525C1005.04 590.982 1005.5 590.279 1005.79 589.416C1006.12 588.553 1006.32 587.504 1006.42 586.271C1006.52 585.038 1006.56 583.619 1006.53 582.016C1006.53 580.388 1006.53 578.575 1006.53 576.577H1013.19C1013.19 578.822 1013.16 580.931 1013.08 582.904C1013.01 584.853 1012.8 586.653 1012.45 588.306C1012.13 589.934 1011.58 591.389 1010.79 592.672C1010.02 593.955 1008.93 595.04 1007.5 595.928C1006.09 596.816 1004.25 597.482 1001.98 597.926L993.104 599.628ZM997.84 594.078L993.733 576.577H1000.47L1004.24 594.078H997.84ZM1024.76 598.037L1025.35 593.079C1027.08 593.449 1028.37 593.449 1029.24 593.079C1030.1 592.684 1030.68 591.994 1030.98 591.007C1031.3 590.02 1031.46 588.824 1031.46 587.418C1031.46 586.037 1031.33 584.902 1031.09 584.014C1030.87 583.126 1030.5 582.472 1029.98 582.053C1029.48 581.609 1028.82 581.387 1027.98 581.387C1027.49 581.387 1027 581.486 1026.54 581.683C1026.09 581.88 1025.71 582.189 1025.39 582.608C1025.07 583.003 1024.87 583.533 1024.8 584.199L1023.39 581.535C1023.88 579.636 1024.67 578.267 1025.76 577.428C1026.87 576.565 1028.1 576.133 1029.46 576.133C1030.89 576.133 1032.12 576.38 1033.16 576.873C1034.22 577.366 1035.1 578.094 1035.79 579.056C1036.48 580.018 1036.98 581.202 1037.3 582.608C1037.65 584.014 1037.82 585.617 1037.82 587.418C1037.82 590.057 1037.3 592.29 1036.27 594.115C1035.26 595.94 1033.78 597.223 1031.83 597.963C1029.88 598.678 1027.52 598.703 1024.76 598.037ZM1015.95 598L1018.43 583.829L1015.44 576.577H1022.43L1024.8 584.199L1022.69 598H1015.95ZM877.142 646.703L876.587 642.189C877.525 642.066 878.203 641.893 878.622 641.671C879.042 641.449 879.313 641.116 879.436 640.672C879.56 640.228 879.621 639.611 879.621 638.822V624.577H891.979C893.213 624.577 894.31 624.811 895.272 625.28C896.259 625.749 897.036 626.501 897.603 627.537C898.171 628.548 898.454 629.893 898.454 631.57V646H891.72V631.2C891.72 630.633 891.585 630.213 891.313 629.942C891.042 629.671 890.623 629.535 890.055 629.535H886.355V637.934C886.355 640.055 886.022 641.72 885.356 642.929C884.715 644.138 883.716 645.026 882.359 645.593C881.003 646.136 879.264 646.506 877.142 646.703ZM902.02 646V628.906L901.613 624.577H908.31L908.754 628.906V646H902.02ZM920.421 646V631.2C920.421 630.633 920.285 630.213 920.014 629.942C919.742 629.671 919.323 629.535 918.756 629.535H911.171V624.577H920.68C921.913 624.577 923.011 624.811 923.973 625.28C924.959 625.749 925.736 626.501 926.304 627.537C926.871 628.548 927.155 629.893 927.155 631.57V646H920.421ZM930.709 638.23V634.789V628.906L930.302 624.577H936.999L937.443 628.906V634.789L937.406 637.12L930.709 638.23ZM952.847 646V631.2C952.847 630.633 952.711 630.213 952.44 629.942C952.169 629.671 951.749 629.535 951.182 629.535H940.97V624.577H953.106C954.339 624.577 955.437 624.811 956.399 625.28C957.386 625.749 958.163 626.501 958.73 627.537C959.297 628.548 959.581 629.893 959.581 631.57V646H952.847ZM940.674 646V635.825L941.599 633.346H947.408V635.825V646H940.674ZM971.121 646.037L971.713 641.079C973.44 641.449 974.735 641.449 975.598 641.079C976.461 640.684 977.041 639.994 977.337 639.007C977.658 638.02 977.818 636.824 977.818 635.418C977.818 634.037 977.695 632.902 977.448 632.014C977.226 631.126 976.856 630.472 976.338 630.053C975.845 629.609 975.179 629.387 974.34 629.387C973.847 629.387 973.366 629.486 972.897 629.683C972.453 629.88 972.071 630.189 971.75 630.608C971.429 631.003 971.232 631.533 971.158 632.199L969.752 629.535C970.245 627.636 971.035 626.267 972.12 625.428C973.23 624.565 974.463 624.133 975.82 624.133C977.251 624.133 978.484 624.38 979.52 624.873C980.581 625.366 981.456 626.094 982.147 627.056C982.838 628.018 983.343 629.202 983.664 630.608C984.009 632.014 984.182 633.617 984.182 635.418C984.182 638.057 983.664 640.29 982.628 642.115C981.617 643.94 980.137 645.223 978.188 645.963C976.239 646.678 973.884 646.703 971.121 646.037ZM962.315 646L964.794 631.829L961.797 624.577H968.79L971.158 632.199L969.049 646H962.315ZM1006.5 646V631.2C1006.5 630.633 1006.37 630.213 1006.1 629.942C1005.83 629.671 1005.41 629.535 1004.84 629.535H994.627V624.577H1006.76C1008 624.577 1009.09 624.811 1010.06 625.28C1011.04 625.749 1011.82 626.501 1012.39 627.537C1012.95 628.548 1013.24 629.893 1013.24 631.57V646H1006.5ZM994.331 646V635.825L995.256 633.346H1001.07V635.825V646H994.331ZM1024.93 646V631.2C1024.93 630.633 1024.79 630.213 1024.52 629.942C1024.25 629.671 1023.83 629.535 1023.26 629.535H1015.64V624.577H1025.19C1026.42 624.577 1027.52 624.811 1028.48 625.28C1029.46 625.749 1030.24 626.501 1030.81 627.537C1031.38 628.548 1031.66 629.893 1031.66 631.57V646H1024.93ZM1015.64 646V641.042H1034.03V646H1015.64ZM1043.81 646V631.2C1043.81 630.633 1043.68 630.213 1043.41 629.942C1043.14 629.671 1042.72 629.535 1042.15 629.535H1034.56V624.577H1044.07C1045.31 624.577 1046.4 624.811 1047.37 625.28C1048.35 625.749 1049.13 626.501 1049.7 627.537C1050.26 628.548 1050.55 629.893 1050.55 631.57V646H1043.81ZM1065.94 646V631.2C1065.94 630.633 1065.81 630.213 1065.54 629.942C1065.26 629.671 1064.85 629.535 1064.28 629.535H1054.07V624.577H1066.2C1067.44 624.577 1068.53 624.811 1069.49 625.28C1070.48 625.749 1071.26 626.501 1071.83 627.537C1072.39 628.548 1072.68 629.893 1072.68 631.57V646H1065.94ZM1053.77 646V635.825L1054.69 633.346H1060.5V635.825V646H1053.77Z" fill="#073799"/>
<path d="M594.981 209.153L593.581 204.826C594.478 204.527 595.111 204.229 595.481 203.932C595.85 203.634 596.054 203.256 596.091 202.796C596.128 202.337 596.071 201.72 595.922 200.945L593.224 186.958L605.358 184.617C606.569 184.383 607.691 184.406 608.725 184.684C609.782 184.957 610.688 185.548 611.441 186.458C612.19 187.344 612.723 188.61 613.04 190.257L615.774 204.426L609.162 205.701L606.358 191.169C606.251 190.612 606.038 190.226 605.72 190.011C605.403 189.796 604.965 189.742 604.408 189.85L600.775 190.551L602.366 198.797C602.768 200.88 602.756 202.578 602.331 203.891C601.93 205.2 601.118 206.261 599.893 207.075C598.664 207.865 597.026 208.557 594.981 209.153ZM619.275 203.75L616.037 186.966L614.817 182.792L621.393 181.524L622.649 185.69L625.887 202.475L619.275 203.75ZM637.342 200.265L634.539 185.733C634.432 185.176 634.219 184.79 633.901 184.575C633.583 184.36 633.146 184.306 632.589 184.413L625.141 185.85L624.202 180.982L633.539 179.181C634.75 178.947 635.872 178.969 636.906 179.247C637.963 179.521 638.869 180.112 639.622 181.022C640.37 181.908 640.904 183.174 641.221 184.821L643.955 198.99L637.342 200.265ZM645.973 190.687L645.321 187.308L644.207 181.532L642.987 177.358L649.563 176.09L650.819 180.256L651.933 186.033L652.339 188.328L645.973 190.687ZM669.182 194.123L666.379 179.591C666.271 179.034 666.058 178.648 665.741 178.433C665.423 178.218 664.985 178.164 664.428 178.271L654.401 180.206L653.462 175.338L665.378 173.039C666.589 172.805 667.712 172.827 668.745 173.105C669.803 173.379 670.708 173.97 671.461 174.88C672.21 175.766 672.743 177.032 673.061 178.679L675.794 192.848L669.182 194.123ZM657.229 196.429L655.302 186.438L655.741 183.829L661.445 182.728L661.914 185.162L663.841 195.153L657.229 196.429ZM687.132 190.698L686.774 185.718C688.54 185.754 689.811 185.509 690.589 184.982C691.362 184.431 691.8 183.643 691.904 182.618C692.032 181.588 691.963 180.383 691.696 179.003C691.435 177.646 691.099 176.556 690.688 175.73C690.302 174.901 689.815 174.329 689.227 174.015C688.659 173.673 687.963 173.581 687.139 173.74C686.655 173.833 686.201 174.021 685.778 174.304C685.38 174.582 685.063 174.957 684.827 175.429C684.587 175.877 684.494 176.436 684.547 177.104L682.662 174.754C682.787 172.796 683.303 171.302 684.209 170.273C685.136 169.215 686.265 168.557 687.597 168.301C689.002 168.03 690.26 168.038 691.37 168.326C692.505 168.61 693.503 169.158 694.363 169.972C695.224 170.786 695.944 171.853 696.526 173.173C697.131 174.488 697.604 176.029 697.945 177.797C698.445 180.389 698.359 182.679 697.688 184.667C697.041 186.651 695.83 188.191 694.057 189.287C692.279 190.358 689.971 190.829 687.132 190.698ZM678.478 192.33L678.228 177.946L673.912 171.393L680.778 170.068L684.547 177.104L685.091 191.054L678.478 192.33ZM706.891 172.153L706.05 167.793L723.198 164.485L724.039 168.845L706.891 172.153ZM708.573 180.872L707.732 176.512L724.88 173.204L725.721 177.564L708.573 180.872ZM748.942 178.737L746.139 164.205C746.032 163.648 745.819 163.262 745.501 163.047C745.183 162.832 744.746 162.778 744.189 162.885L737.867 164.105L736.928 159.236L745.139 157.653C746.35 157.419 747.472 157.441 748.505 157.719C749.563 157.992 750.468 158.584 751.222 159.494C751.97 160.379 752.503 161.646 752.821 163.293L754.777 173.429L755.554 177.461L748.942 178.737ZM738.08 180.832L737.14 175.964L752.218 173.056L753.157 177.924L738.08 180.832ZM736.735 181.092L733.427 163.944L732.678 160.056L739.29 158.781L740.11 163.032L743.347 179.816L736.735 181.092ZM757.376 169.197L756.724 165.818L755.61 160.041L754.391 155.868L760.966 154.599L762.222 158.766L763.337 164.542L763.742 166.838L757.376 169.197ZM771.866 174.315L774.996 156.942L764.896 158.891L763.957 154.022L780.669 150.799L781.706 156.176L778.478 173.039L771.866 174.315ZM764.896 158.891L762.99 149.009L768.875 147.874L770.782 157.755L764.896 158.891ZM794.455 169.957L791.341 161.627L790.205 155.742C790.056 154.967 789.827 154.496 789.518 154.329C789.205 154.139 788.802 154.066 788.308 154.111L785.999 154.255L785.874 149.305L790.97 148.962C792.504 148.842 793.75 149.18 794.707 149.975C795.684 150.741 796.336 151.972 796.663 153.667L797.981 160.497L800.704 168.752L794.455 169.957ZM788.607 171.877L785.214 167.18C786.972 166.263 788.343 165.296 789.327 164.277C790.331 163.229 790.993 162.172 791.315 161.105L794.126 163.954C793.857 165.036 793.526 166.054 793.132 167.009C792.763 167.96 792.218 168.844 791.496 169.661C790.794 170.45 789.831 171.188 788.607 171.877ZM806.812 167.573L809.942 150.201L799.843 152.149L798.904 147.281L815.615 144.057L816.653 149.434L813.424 166.298L806.812 167.573ZM799.843 152.149L797.936 142.268L803.822 141.132L805.728 151.014L799.843 152.149ZM829.401 163.216L826.287 154.886L825.152 149C825.002 148.225 824.773 147.755 824.465 147.588C824.152 147.397 823.748 147.324 823.254 147.369L820.946 147.513L820.82 142.563L825.916 142.221C827.451 142.101 828.697 142.438 829.654 143.233C830.631 143.999 831.283 145.23 831.61 146.926L832.927 153.756L835.65 162.01L829.401 163.216ZM823.554 165.135L820.161 160.439C821.918 159.522 823.289 158.554 824.273 157.535C825.277 156.488 825.94 155.43 826.262 154.363L829.072 157.213C828.804 158.294 828.472 159.313 828.079 160.268C827.71 161.218 827.164 162.102 826.443 162.92C825.741 163.709 824.778 164.447 823.554 165.135ZM850.478 159.15L847.675 144.618C847.567 144.061 847.355 143.675 847.037 143.46C846.719 143.245 846.282 143.191 845.725 143.298L835.697 145.233L834.758 140.365L846.675 138.066C847.886 137.832 849.008 137.854 850.041 138.132C851.099 138.406 852.004 138.997 852.758 139.907C853.506 140.793 854.039 142.059 854.357 143.706L857.09 157.875L850.478 159.15ZM838.526 161.456L836.598 151.465L837.037 148.856L842.741 147.755L843.21 150.189L845.138 160.18L838.526 161.456ZM875.84 154.258L873.036 139.726C872.929 139.169 872.716 138.782 872.399 138.567C872.081 138.352 871.643 138.299 871.086 138.406L863.602 139.85L862.663 134.982L872.036 133.173C873.247 132.94 874.369 132.962 875.403 133.24C876.46 133.513 877.366 134.105 878.119 135.015C878.868 135.9 879.401 137.166 879.719 138.813L882.452 152.982L875.84 154.258ZM866.721 156.017L865.782 151.148L883.838 147.665L884.777 152.534L866.721 156.017ZM887.529 152.003L884.291 135.218L883.072 131.045L889.648 129.776L890.904 133.943L894.141 150.727L887.529 152.003ZM905.997 148.44L903.193 133.908C903.086 133.351 902.873 132.965 902.555 132.75C902.238 132.535 901.8 132.481 901.243 132.589L893.759 134.032L892.82 129.164L902.193 127.356C903.404 127.122 904.526 127.145 905.56 127.423C906.617 127.696 907.523 128.287 908.276 129.197C909.025 130.083 909.558 131.349 909.876 132.996L912.609 147.165L905.997 148.44ZM896.878 150.199L895.939 145.331L913.995 141.848L914.934 146.716L896.878 150.199ZM916.214 138.556L915.563 135.177L914.448 129.401L913.229 125.227L919.805 123.959L921.06 128.125L922.175 133.902L922.58 136.198L916.214 138.556ZM929.793 144.227L924.715 128.061L930.454 124.015L934.448 137.299C935.5 137.021 936.33 136.698 936.937 136.33C937.568 135.957 938.016 135.544 938.28 135.091C938.564 134.609 938.715 134.09 938.734 133.534C938.772 132.948 938.727 132.329 938.601 131.675C938.495 130.992 938.354 130.266 938.181 129.495L937.949 128.296C937.833 127.691 937.64 127.213 937.371 126.863C937.127 126.508 936.841 126.262 936.513 126.124C936.18 125.962 935.82 125.919 935.433 125.993L924.715 128.061L923.159 123.312L934.966 121.034C937.509 120.543 939.59 120.845 941.207 121.94C942.85 123.03 943.936 124.755 944.467 127.114L944.748 128.379C945.255 130.617 945.283 132.584 944.831 134.279C944.379 135.974 943.496 137.451 942.181 138.709C940.867 139.968 939.166 141.049 937.08 141.954C934.993 142.859 932.565 143.617 929.793 144.227ZM966.204 136.826L963.401 122.294C963.293 121.737 963.081 121.351 962.763 121.136C962.445 120.921 962.008 120.867 961.451 120.974L953.966 122.418L953.027 117.55L962.401 115.742C963.612 115.508 964.734 115.53 965.767 115.808C966.825 116.082 967.73 116.673 968.483 117.583C969.232 118.468 969.765 119.735 970.083 121.382L972.816 135.55L966.204 136.826ZM957.085 138.585L956.146 133.717L974.202 130.234L975.141 135.102L957.085 138.585ZM988.684 132.489L973.073 113.683L979.685 112.407L995.296 131.214L988.684 132.489ZM976.949 134.753L976.01 129.885L990.942 127.005L993.77 131.508L976.949 134.753ZM989.104 124.118L984.253 119.289L985.752 111.237L992.255 109.983L989.104 124.118ZM1007.11 128.973L1005.66 124.202C1006.43 124.004 1007.05 123.733 1007.54 123.388C1008.03 123.043 1008.39 122.608 1008.65 122.082C1008.9 121.557 1009.04 120.926 1009.07 120.191C1009.1 119.432 1009.06 118.561 1008.94 117.578L1008.24 111.949L995.847 114.339L994.908 109.471L1014.42 105.707L1015 109.891L1015.57 114.416C1015.8 115.98 1015.87 117.536 1015.79 119.083C1015.74 120.626 1015.44 122.078 1014.9 123.438C1014.35 124.775 1013.46 125.927 1012.21 126.896C1010.97 127.864 1009.27 128.557 1007.11 128.973ZM999.895 137.863L996.559 120.57L996.983 117.888L1002.69 116.788L1003.16 119.258L1006.51 136.588L999.895 137.863Z" fill="#E69907"/>
<defs>
<clipPath id="clip0_811_903">
<rect width="349" height="260" fill="white" transform="translate(0 267)"/>
</clipPath>
<clipPath id="clip1_811_903">
<rect width="282" height="213" fill="white" transform="translate(365 314)"/>
</clipPath>
<clipPath id="clip2_811_903">
<rect width="208" height="157" fill="white" transform="translate(668 370)"/>
</clipPath>
<clipPath id="clip3_811_903">
<rect width="153" height="116" fill="white" transform="translate(897 411)"/>
</clipPath>
</defs>
</svg>
