<svg width="159" height="112" viewBox="0 0 159 112" fill="none" xmlns="http://www.w3.org/2000/svg">
<g filter="url(#filter0_d_103_3552)">
<rect x="30" y="30" width="93" height="44" rx="8" fill="#073799"/>
<path d="M43.5203 54.8V53.04V49.92L43.3003 47.58H46.1803L46.4203 49.92V53.04L46.4003 54.3L43.5203 54.8ZM48.6961 54.8V53.04V49.92L48.4761 47.58H51.3561L51.5961 49.92V53.04L51.5761 54.3L48.6961 54.8ZM55.4919 59L59.0919 49.76H53.2919V47.58H61.9919V49.96L58.3919 59H55.4919ZM53.2919 49.76V44.66H55.8919V49.76H53.2919ZM63.1728 59.78L62.7728 57.52L67.4328 56.64C68.0861 56.52 68.6061 56.32 68.9928 56.04C69.3928 55.7467 69.6928 55.3667 69.8928 54.9C70.0928 54.42 70.2328 53.84 70.3128 53.16C70.3928 52.4667 70.4328 51.66 70.4328 50.74C70.4461 49.82 70.4528 48.7667 70.4528 47.58H73.3128C73.3128 48.8867 73.2861 50.08 73.2328 51.16C73.1928 52.2267 73.0795 53.1933 72.8928 54.06C72.7195 54.9133 72.4261 55.6667 72.0128 56.32C71.5995 56.96 71.0261 57.5 70.2928 57.94C69.5595 58.38 68.6195 58.7133 67.4728 58.94L63.1728 59.78ZM66.0328 57.2L63.6528 47.58H66.5528L68.7928 57.2H66.0328ZM83.6402 63L78.8002 47.58H81.5602L86.4002 63H83.6402ZM83.8402 58.08L82.1402 55.94L85.6602 47.58H88.4002L83.8402 58.08ZM96.8042 59V51.3C96.8042 50.2733 96.3576 49.76 95.4642 49.76H89.8842V47.58H96.2442C96.9242 47.58 97.5242 47.7133 98.0442 47.98C98.5642 48.2467 98.9709 48.6667 99.2642 49.24C99.5576 49.8 99.7042 50.5333 99.7042 51.44V59H96.8042ZM89.8842 59V48.88H92.7842V59H89.8842ZM103.539 59L107.139 49.76H101.339V47.58H110.039V49.96L106.439 59H103.539ZM101.339 49.76V44.66H103.939V49.76H101.339Z" fill="#FFF2B4"/>
<path d="M59.4142 80.5858C58.6332 81.3668 57.3668 81.3668 56.5858 80.5858L50 74H66L59.4142 80.5858Z" fill="#073799"/>
</g>
<defs>
<filter id="filter0_d_103_3552" x="0" y="0" width="189" height="116" filterUnits="userSpaceOnUse" color-interpolation-filters="sRGB">
<feFlood flood-opacity="0" result="BackgroundImageFix"/>
<feColorMatrix in="SourceAlpha" type="matrix" values="0 0 0 0 0 0 0 0 0 0 0 0 0 0 0 0 0 0 127 0" result="hardAlpha"/>
<feOffset/>
<feGaussianBlur stdDeviation="15"/>
<feComposite in2="hardAlpha" operator="out"/>
<feColorMatrix type="matrix" values="0 0 0 0 0.00416667 0 0 0 0 0.00416667 0 0 0 0 0.00416667 0 0 0 0.2 0"/>
<feBlend mode="normal" in2="BackgroundImageFix" result="effect1_dropShadow_103_3552"/>
<feBlend mode="normal" in="SourceGraphic" in2="effect1_dropShadow_103_3552" result="shape"/>
</filter>
</defs>
</svg>
