<svg width="398" height="390" viewBox="0 0 398 390" fill="none" xmlns="http://www.w3.org/2000/svg">
<g clip-path="url(#clip0_569_3108)">
<path d="M198.922 389.946C146.151 389.946 93.3847 389.849 40.6141 390C22.2719 390.054 6.21279 377.878 1.44211 360.175C-1.22284 350.291 -0.17383 340.707 4.41945 331.499C10.189 319.937 15.8429 308.321 21.5623 296.736C29.7268 280.193 37.9106 263.658 46.0829 247.115C58.2043 222.565 70.3219 198.012 82.4396 173.458C98.059 141.806 113.675 110.154 129.298 78.5059C138.292 60.2898 147.355 42.1085 156.264 23.8538C162.195 11.7007 171.413 3.69781 184.718 0.911681C202.937 -2.9062 220.28 5.55652 229 22.0607C242.699 47.9822 256.513 73.8379 270.274 99.7246C284.401 126.299 298.52 152.881 312.651 179.456C327.233 206.876 341.834 234.286 356.416 261.71C368.731 284.869 381.068 308.02 393.324 331.213C406.036 355.268 390.953 385.339 364.137 389.459C361.989 389.787 359.791 389.934 357.62 389.934C304.722 389.961 251.824 389.953 198.926 389.957L198.922 389.946ZM198.976 367.989V367.977C248.92 367.977 298.863 367.989 348.807 367.943C351.225 367.943 353.69 367.66 356.054 367.139C368.426 364.422 377.416 350.89 375.499 338.338C374.72 333.226 372.283 328.886 369.93 324.47C354.23 294.951 338.51 265.439 322.806 235.92C309.793 211.456 296.796 186.979 283.792 162.511C271.57 139.515 259.348 116.522 247.119 93.5302C236.791 74.12 226.567 54.6519 216.061 35.3383C211.105 26.2303 203.002 21.8444 192.694 22.0917C182.284 22.3428 174.598 27.3548 169.92 36.6676C163.31 49.8254 156.861 63.0682 150.34 76.2724C132.75 111.893 115.156 147.518 97.5615 183.138C85.8296 206.892 74.0976 230.642 62.3618 254.395C49.9472 279.525 37.5365 304.654 25.122 329.787C22.1601 335.788 21.2769 342.067 23.1165 348.532C26.5605 360.627 36.3873 367.985 48.9561 367.989C98.9653 368.004 148.971 367.997 198.98 367.997L198.976 367.989Z" fill="#CC3132"/>
<path d="M198.974 367.989C148.965 367.989 98.9598 367.997 48.9506 367.981C36.3856 367.978 26.555 360.62 23.111 348.525C21.2714 342.064 22.1545 335.781 25.1164 329.779C37.5272 304.65 49.9417 279.517 62.3563 254.388C74.0882 230.634 85.824 206.884 97.556 183.131C115.15 147.51 132.74 111.889 150.334 76.2649C156.856 63.0607 163.3 49.8179 169.915 36.6601C174.596 27.3472 182.279 22.3353 192.688 22.0841C202.997 21.8368 211.1 26.2227 216.056 35.3308C226.561 54.6443 236.785 74.1125 247.113 93.5226C259.346 116.511 271.564 139.507 283.786 162.503C296.791 186.972 309.788 211.448 322.8 235.913C338.5 265.432 354.224 294.943 369.924 324.462C372.273 328.879 374.711 333.222 375.493 338.331C377.41 350.882 368.42 364.415 356.048 367.131C353.684 367.649 351.22 367.931 348.802 367.935C298.858 367.981 248.914 367.97 198.971 367.97V367.981L198.974 367.989ZM198.758 359.967C247.669 359.967 296.582 359.967 345.493 359.967C347.101 359.967 348.709 360.009 350.313 359.928C363.6 359.268 371.745 345.148 365.563 333.396C358.918 320.764 352.176 308.186 345.473 295.585C332.854 271.854 320.231 248.124 307.609 224.397C294.901 200.505 282.189 176.612 269.482 152.715C256.924 129.101 244.375 105.482 231.818 81.868C224.301 67.7326 216.773 53.6049 209.245 39.4771C207.633 36.4514 205.342 34.0556 202.345 32.394C193.135 27.2931 182.009 30.6357 177.173 40.0993C173.05 48.1678 169.147 56.3523 165.132 64.4789C151.665 91.7412 138.19 119 124.718 146.262C108.655 178.772 92.5925 211.278 76.5372 243.792C61.7354 273.763 46.9374 303.738 32.1548 333.717C30.2381 337.604 29.6442 341.735 30.7549 345.924C33.1151 354.827 39.9414 359.967 49.1357 359.967C99.0099 359.967 148.888 359.967 198.762 359.967H198.758Z" fill="#FDFEFE"/>
<path d="M198.759 359.967C148.885 359.967 99.0072 359.967 49.1329 359.967C39.9386 359.967 33.1124 354.827 30.7521 345.924C29.6414 341.735 30.2353 337.604 32.1521 333.717C46.9385 303.738 61.7364 273.763 76.5344 243.792C92.5897 211.278 108.653 178.772 124.716 146.262C138.187 119 151.662 91.7411 165.129 64.4788C169.144 56.3523 173.047 48.1678 177.17 40.0992C182.006 30.6357 193.136 27.2892 202.342 32.3939C205.339 34.0555 207.63 36.4514 209.242 39.4771C216.77 53.6048 224.298 67.7325 231.815 81.868C244.372 105.482 256.922 129.101 269.479 152.715C282.187 176.612 294.898 200.504 307.606 224.397C320.229 248.128 332.848 271.854 345.47 295.584C352.173 308.186 358.915 320.764 365.56 333.396C371.742 345.147 363.597 359.267 350.311 359.928C348.706 360.009 347.098 359.967 345.49 359.967C296.58 359.967 247.666 359.967 198.756 359.967H198.759ZM198.81 269.304V269.311C200.48 269.311 202.153 269.311 203.823 269.311C206.6 269.311 206.569 269.308 206.909 266.498C207.869 258.58 208.833 250.663 209.844 242.752C211.822 227.249 213.851 211.753 215.833 196.25C218.371 176.407 220.912 156.568 223.365 136.717C223.731 133.742 224.082 130.639 223.658 127.71C222.624 120.592 217.973 116.271 211.394 114.223C202.558 111.476 193.615 111.65 184.914 114.853C177.286 117.663 173.201 124.166 174.019 131.841C174.794 139.132 175.774 146.401 176.699 153.677C178.049 164.265 179.453 174.85 180.799 185.442C182.442 198.395 184.019 211.355 185.666 224.308C187.483 238.602 189.399 252.884 191.127 267.19C191.351 269.029 191.976 269.443 193.607 269.335C195.335 269.223 197.074 269.308 198.81 269.308V269.304ZM199.06 277.446C185.836 276.835 173.884 288.803 174.146 302.366C174.412 316.065 185.034 326.757 198.748 327.078C211.942 327.387 223.955 316.053 223.947 302.474C223.943 288.494 212.998 277.461 199.06 277.442V277.446Z" fill="#CC3132"/>
<rect x="168.621" y="109.339" width="64.1674" height="218.913" fill="#CC3132"/>
<path d="M146.443 141L151.492 128.04H143.365V125.826H154.381V128.229L149.332 141H146.443ZM143.365 128.04V121.641H145.984V128.04H143.365ZM157.36 141V128.985L157.036 125.826H159.898L160.249 128.985V141H157.36ZM165.142 141.27L163.171 125.826H165.925L167.491 138.813C168.877 138.723 170.065 138.48 171.055 138.084C172.063 137.67 172.882 137.103 173.512 136.383C174.16 135.645 174.637 134.754 174.943 133.71C175.249 132.666 175.402 131.469 175.402 130.119L175.348 125.826H178.237L178.264 129.984C178.282 132.504 177.814 134.601 176.86 136.275C175.924 137.949 174.484 139.209 172.54 140.055C170.596 140.883 168.13 141.288 165.142 141.27ZM166.6 135.303L165.925 133.386C166.825 133.044 167.518 132.648 168.004 132.198C168.508 131.73 168.859 131.127 169.057 130.389C169.273 129.651 169.39 128.697 169.408 127.527V125.853H172.162L172.135 127.473C172.117 128.805 171.937 129.966 171.595 130.956C171.253 131.946 170.677 132.792 169.867 133.494C169.075 134.196 167.986 134.799 166.6 135.303ZM183.673 141L188.722 128.04H180.595V125.826H191.611V128.229L186.562 141H183.673ZM180.595 128.04V121.641H183.214V128.04H180.595ZM208.743 141V130.74C208.743 129.732 208.518 129.03 208.068 128.634C207.636 128.238 207.051 128.04 206.313 128.04H199.671V125.826H207.042C207.942 125.826 208.734 125.997 209.418 126.339C210.102 126.663 210.642 127.194 211.038 127.932C211.434 128.67 211.632 129.651 211.632 130.875V141H208.743ZM199.59 141V133.656L199.995 131.847H202.479V133.656V141H199.59ZM220.91 141V131.199C220.91 130.497 220.973 129.885 221.099 129.363C221.243 128.823 221.432 128.382 221.666 128.04H214.376V125.826H226.418V128.04H224.393C224.141 128.49 223.979 129.012 223.907 129.606C223.835 130.182 223.799 130.713 223.799 131.199V141H220.91ZM229.606 135.33V133.089V128.985L229.282 125.826H232.144L232.495 128.985V133.089L232.468 134.79L229.606 135.33ZM242.572 141V130.74C242.572 129.732 242.356 129.03 241.924 128.634C241.492 128.238 240.898 128.04 240.142 128.04H235.147V125.826H240.871C241.771 125.826 242.563 125.997 243.247 126.339C243.949 126.663 244.489 127.194 244.867 127.932C245.263 128.67 245.461 129.651 245.461 130.875V141H242.572ZM249.065 135.33V133.089V128.985L248.741 125.826H251.603L251.954 128.985V133.089L251.927 134.79L249.065 135.33ZM122.819 176V163.985L122.495 160.826H125.357L125.708 163.985V176H122.819ZM142.346 176H139.268L133.598 167.387L130.925 176H128.171L131.141 166.712L131.897 164.795L129.413 160.826H132.356L134.624 164.471L136.892 167.873L137.567 165.524L138.944 160.826H141.725L138.593 170.384L142.346 176ZM157.011 176V165.74C157.011 164.732 156.795 164.03 156.363 163.634C155.931 163.238 155.337 163.04 154.581 163.04H149.586V160.826H155.31C156.21 160.826 157.002 160.997 157.686 161.339C158.388 161.663 158.928 162.194 159.306 162.932C159.702 163.67 159.9 164.651 159.9 165.875V176H157.011ZM162.639 176V173.786H166.527C167.409 173.786 168.129 173.606 168.687 173.246C169.245 172.886 169.659 172.373 169.929 171.707C170.199 171.041 170.334 170.249 170.334 169.331V167.495C170.334 166.559 170.199 165.758 169.929 165.092C169.659 164.426 169.245 163.922 168.687 163.58C168.129 163.22 167.409 163.04 166.527 163.04H162.639V160.826H167.229C168.543 160.826 169.641 161.096 170.523 161.636C171.405 162.158 172.071 162.932 172.521 163.958C172.989 164.966 173.223 166.19 173.223 167.63V169.196C173.223 170.618 172.989 171.842 172.521 172.868C172.071 173.876 171.405 174.65 170.523 175.19C169.641 175.73 168.543 176 167.229 176H162.639ZM182.877 176V165.74C182.877 164.732 182.661 164.03 182.229 163.634C181.797 163.238 181.203 163.04 180.447 163.04H175.452V160.826H181.176C182.076 160.826 182.868 160.997 183.552 161.339C184.254 161.663 184.794 162.194 185.172 162.932C185.568 163.67 185.766 164.651 185.766 165.875V176H182.877ZM189.369 176V163.985L189.045 160.826H191.907L192.258 163.985V176H189.369ZM194.992 176V173.786H198.88C199.762 173.786 200.482 173.606 201.04 173.246C201.598 172.886 202.012 172.373 202.282 171.707C202.552 171.041 202.687 170.249 202.687 169.331V167.495C202.687 166.559 202.552 165.758 202.282 165.092C202.012 164.426 201.598 163.922 201.04 163.58C200.482 163.22 199.762 163.04 198.88 163.04H194.992V160.826H199.582C200.896 160.826 201.994 161.096 202.876 161.636C203.758 162.158 204.424 162.932 204.874 163.958C205.342 164.966 205.576 166.19 205.576 167.63V169.196C205.576 170.618 205.342 171.842 204.874 172.868C204.424 173.876 203.758 174.65 202.876 175.19C201.994 175.73 200.896 176 199.582 176H194.992ZM214.155 170.33V168.089V163.985L213.831 160.826H216.693L217.044 163.985V168.089L217.017 169.79L214.155 170.33ZM220.641 176V163.985L220.317 160.826H223.179L223.53 163.985V176H220.641ZM228.423 176.27L226.452 160.826H229.206L230.772 173.813C232.158 173.723 233.346 173.48 234.336 173.084C235.344 172.67 236.163 172.103 236.793 171.383C237.441 170.645 237.918 169.754 238.224 168.71C238.53 167.666 238.683 166.469 238.683 165.119L238.629 160.826H241.518L241.545 164.984C241.563 167.504 241.095 169.601 240.141 171.275C239.205 172.949 237.765 174.209 235.821 175.055C233.877 175.883 231.411 176.288 228.423 176.27ZM229.881 170.303L229.206 168.386C230.106 168.044 230.799 167.648 231.285 167.198C231.789 166.73 232.14 166.127 232.338 165.389C232.554 164.651 232.671 163.697 232.689 162.527V160.853H235.443L235.416 162.473C235.398 163.805 235.218 164.966 234.876 165.956C234.534 166.946 233.958 167.792 233.148 168.494C232.356 169.196 231.267 169.799 229.881 170.303ZM243.478 176.891L243.073 174.623L248.527 173.57C249.517 173.39 250.309 173.102 250.903 172.706C251.515 172.31 251.983 171.797 252.307 171.167C252.649 170.519 252.892 169.718 253.036 168.764C253.18 167.81 253.261 166.676 253.279 165.362C253.297 164.048 253.306 162.536 253.306 160.826H256.168C256.168 162.68 256.132 164.345 256.06 165.821C256.006 167.297 255.853 168.602 255.601 169.736C255.349 170.87 254.953 171.842 254.413 172.652C253.873 173.462 253.126 174.137 252.172 174.677C251.236 175.199 250.03 175.604 248.554 175.892L243.478 176.891ZM247.717 174.002L244.315 160.826H247.204L250.471 174.002H247.717ZM260.644 176.27L258.673 160.826H261.427L262.993 173.813C264.379 173.723 265.567 173.48 266.557 173.084C267.565 172.67 268.384 172.103 269.014 171.383C269.662 170.645 270.139 169.754 270.445 168.71C270.751 167.666 270.904 166.469 270.904 165.119L270.85 160.826H273.739L273.766 164.984C273.784 167.504 273.316 169.601 272.362 171.275C271.426 172.949 269.986 174.209 268.042 175.055C266.098 175.883 263.632 176.288 260.644 176.27ZM262.102 170.303L261.427 168.386C262.327 168.044 263.02 167.648 263.506 167.198C264.01 166.73 264.361 166.127 264.559 165.389C264.775 164.651 264.892 163.697 264.91 162.527V160.853H267.664L267.637 162.473C267.619 163.805 267.439 164.966 267.097 165.956C266.755 166.946 266.179 167.792 265.369 168.494C264.577 169.196 263.488 169.799 262.102 170.303ZM143.016 211V198.985L142.692 195.826H145.554L145.905 198.985V211H143.016ZM148.8 211V208.786H153.174V200.308C153.174 199.498 153.012 198.922 152.688 198.58C152.364 198.238 151.914 198.031 151.338 197.959L149.502 197.689L149.88 195.502L152.688 195.907C153.768 196.051 154.596 196.501 155.172 197.257C155.766 198.013 156.063 199.012 156.063 200.254V211H148.8ZM159.601 205.33V203.089V198.985L159.277 195.826H162.139L162.49 198.985V203.089L162.463 204.79L159.601 205.33ZM179.128 211H176.05L170.38 202.387L167.707 211H164.953L167.923 201.712L168.679 199.795L166.195 195.826H169.138L171.406 199.471L173.674 202.873L174.349 200.524L175.726 195.826H178.507L175.375 205.384L179.128 211ZM183.204 211.27L181.233 195.826H183.987L185.553 208.813C186.939 208.723 188.127 208.48 189.117 208.084C190.125 207.67 190.944 207.103 191.574 206.383C192.222 205.645 192.699 204.754 193.005 203.71C193.311 202.666 193.464 201.469 193.464 200.119L193.41 195.826H196.299L196.326 199.984C196.344 202.504 195.876 204.601 194.922 206.275C193.986 207.949 192.546 209.209 190.602 210.055C188.658 210.883 186.192 211.288 183.204 211.27ZM184.662 205.303L183.987 203.386C184.887 203.044 185.58 202.648 186.066 202.198C186.57 201.73 186.921 201.127 187.119 200.389C187.335 199.651 187.452 198.697 187.47 197.527V195.853H190.224L190.197 197.473C190.179 198.805 189.999 199.966 189.657 200.956C189.315 201.946 188.739 202.792 187.929 203.494C187.137 204.196 186.048 204.799 184.662 205.303ZM211.406 211V200.74C211.406 199.732 211.19 199.03 210.758 198.634C210.326 198.238 209.732 198.04 208.976 198.04H203.981V195.826H209.705C210.605 195.826 211.397 195.997 212.081 196.339C212.783 196.663 213.323 197.194 213.701 197.932C214.097 198.67 214.295 199.651 214.295 200.875V211H211.406ZM222.813 211.027L223.11 208.84C224.532 209.146 225.657 209.119 226.485 208.759C227.331 208.399 227.934 207.733 228.294 206.761C228.672 205.789 228.843 204.556 228.807 203.062C228.789 201.784 228.627 200.776 228.321 200.038C228.033 199.282 227.628 198.742 227.106 198.418C226.602 198.094 226.008 197.932 225.324 197.932C224.694 197.932 224.154 198.067 223.704 198.337C223.254 198.589 222.894 198.94 222.624 199.39C222.354 199.84 222.165 200.344 222.057 200.902L221.328 199.525C221.652 198.157 222.237 197.167 223.083 196.555C223.929 195.925 224.847 195.61 225.837 195.61C226.683 195.61 227.448 195.754 228.132 196.042C228.834 196.312 229.437 196.753 229.941 197.365C230.445 197.959 230.832 198.733 231.102 199.687C231.39 200.623 231.543 201.748 231.561 203.062C231.597 205.096 231.273 206.779 230.589 208.111C229.923 209.443 228.933 210.37 227.619 210.892C226.305 211.414 224.703 211.459 222.813 211.027ZM217.413 211L219.357 200.551L217.251 195.826H220.248L222.111 200.659L220.302 211H217.413ZM234.668 211V198.985L234.344 195.826H237.206L237.557 198.985V211H234.668ZM250.335 211V201.01C250.335 199.03 249.525 198.04 247.905 198.04H240.858V195.826H248.634C249.57 195.826 250.38 196.015 251.064 196.393C251.748 196.771 252.279 197.356 252.657 198.148C253.035 198.922 253.224 199.921 253.224 201.145V211H250.335ZM240.858 211V196.987H243.747V211H240.858ZM123.481 246.891L123.076 244.623L128.53 243.57C129.52 243.39 130.312 243.102 130.906 242.706C131.518 242.31 131.986 241.797 132.31 241.167C132.652 240.519 132.895 239.718 133.039 238.764C133.183 237.81 133.264 236.676 133.282 235.362C133.3 234.048 133.309 232.536 133.309 230.826H136.171C136.171 232.68 136.135 234.345 136.063 235.821C136.009 237.297 135.856 238.602 135.604 239.736C135.352 240.87 134.956 241.842 134.416 242.652C133.876 243.462 133.129 244.137 132.175 244.677C131.239 245.199 130.033 245.604 128.557 245.892L123.481 246.891ZM127.72 244.002L124.318 230.826H127.207L130.474 244.002H127.72ZM139.351 240.33V238.089V233.985L139.027 230.826H141.889L142.24 233.985V238.089L142.213 239.79L139.351 240.33ZM145.729 246V243.786H150.616C151.21 243.786 151.75 243.705 152.236 243.543C152.722 243.363 153.145 243.093 153.505 242.733C153.865 242.373 154.144 241.914 154.342 241.356C154.54 240.78 154.639 240.096 154.639 239.304V237.495C154.639 236.559 154.513 235.758 154.261 235.092C154.027 234.426 153.649 233.922 153.127 233.58C152.623 233.22 151.975 233.04 151.183 233.04H148.753L148.159 235.713C147.979 236.577 148.006 237.243 148.24 237.711C148.492 238.161 149.077 238.485 149.995 238.683L149.482 240.546C148.312 240.474 147.412 240.222 146.782 239.79C146.152 239.34 145.747 238.746 145.567 238.008C145.405 237.27 145.414 236.424 145.594 235.47L146.647 230.826H151.804C153.01 230.826 154.036 231.096 154.882 231.636C155.728 232.158 156.376 232.923 156.826 233.931C157.294 234.939 157.528 236.163 157.528 237.603V239.169C157.528 240.339 157.366 241.356 157.042 242.22C156.736 243.084 156.295 243.795 155.719 244.353C155.161 244.911 154.495 245.325 153.721 245.595C152.947 245.865 152.11 246 151.21 246H145.729ZM161.925 246.27L159.954 230.826H162.708L164.274 243.813C165.66 243.723 166.848 243.48 167.838 243.084C168.846 242.67 169.665 242.103 170.295 241.383C170.943 240.645 171.42 239.754 171.726 238.71C172.032 237.666 172.185 236.469 172.185 235.119L172.131 230.826H175.02L175.047 234.984C175.065 237.504 174.597 239.601 173.643 241.275C172.707 242.949 171.267 244.209 169.323 245.055C167.379 245.883 164.913 246.288 161.925 246.27ZM163.383 240.303L162.708 238.386C163.608 238.044 164.301 237.648 164.787 237.198C165.291 236.73 165.642 236.127 165.84 235.389C166.056 234.651 166.173 233.697 166.191 232.527V230.853H168.945L168.918 232.473C168.9 233.805 168.72 234.966 168.378 235.956C168.036 236.946 167.46 237.792 166.65 238.494C165.858 239.196 164.769 239.799 163.383 240.303ZM183.157 246.027L183.454 243.84C184.876 244.146 186.001 244.119 186.829 243.759C187.675 243.399 188.278 242.733 188.638 241.761C189.016 240.789 189.187 239.556 189.151 238.062C189.133 236.784 188.971 235.776 188.665 235.038C188.377 234.282 187.972 233.742 187.45 233.418C186.946 233.094 186.352 232.932 185.668 232.932C185.038 232.932 184.498 233.067 184.048 233.337C183.598 233.589 183.238 233.94 182.968 234.39C182.698 234.84 182.509 235.344 182.401 235.902L181.672 234.525C181.996 233.157 182.581 232.167 183.427 231.555C184.273 230.925 185.191 230.61 186.181 230.61C187.027 230.61 187.792 230.754 188.476 231.042C189.178 231.312 189.781 231.753 190.285 232.365C190.789 232.959 191.176 233.733 191.446 234.687C191.734 235.623 191.887 236.748 191.905 238.062C191.941 240.096 191.617 241.779 190.933 243.111C190.267 244.443 189.277 245.37 187.963 245.892C186.649 246.414 185.047 246.459 183.157 246.027ZM177.757 246L179.701 235.551L177.595 230.826H180.592L182.455 235.659L180.646 246H177.757ZM201.551 246.27L199.742 230.826H202.631L204.089 243.651C205.043 243.561 205.898 243.372 206.654 243.084C207.41 242.778 208.049 242.364 208.571 241.842C209.111 241.32 209.516 240.672 209.786 239.898C210.056 239.106 210.173 238.179 210.137 237.117V236.361C210.137 235.731 210.029 235.164 209.813 234.66C209.597 234.156 209.255 233.751 208.787 233.445C208.337 233.121 207.752 232.941 207.032 232.905L205.682 232.824L205.898 230.556L207.491 230.637C208.517 230.691 209.435 230.925 210.245 231.339C211.055 231.735 211.694 232.32 212.162 233.094C212.648 233.868 212.909 234.84 212.945 236.01L212.972 236.766C213.026 238.404 212.783 239.817 212.243 241.005C211.721 242.175 210.947 243.138 209.921 243.894C208.895 244.632 207.671 245.19 206.249 245.568C204.827 245.946 203.261 246.18 201.551 246.27ZM218.03 246L223.079 233.04H214.952V230.826H225.968V233.229L220.919 246H218.03ZM214.952 233.04V226.641H217.571V233.04H214.952ZM228.839 246V243.786H233.726C234.32 243.786 234.86 243.705 235.346 243.543C235.832 243.363 236.255 243.093 236.615 242.733C236.975 242.373 237.254 241.914 237.452 241.356C237.65 240.78 237.749 240.096 237.749 239.304V237.495C237.749 236.559 237.623 235.758 237.371 235.092C237.137 234.426 236.759 233.922 236.237 233.58C235.733 233.22 235.085 233.04 234.293 233.04H231.863L231.269 235.713C231.089 236.577 231.116 237.243 231.35 237.711C231.602 238.161 232.187 238.485 233.105 238.683L232.592 240.546C231.422 240.474 230.522 240.222 229.892 239.79C229.262 239.34 228.857 238.746 228.677 238.008C228.515 237.27 228.524 236.424 228.704 235.47L229.757 230.826H234.914C236.12 230.826 237.146 231.096 237.992 231.636C238.838 232.158 239.486 232.923 239.936 233.931C240.404 234.939 240.638 236.163 240.638 237.603V239.169C240.638 240.339 240.476 241.356 240.152 242.22C239.846 243.084 239.405 243.795 238.829 244.353C238.271 244.911 237.605 245.325 236.831 245.595C236.057 245.865 235.22 246 234.32 246H228.839ZM244.9 246.27L243.334 233.04L246.061 231.663L247.438 243.651C248.194 243.597 248.887 243.48 249.517 243.3C250.165 243.12 250.732 242.877 251.218 242.571C251.704 242.247 252.109 241.842 252.433 241.356C252.775 240.852 253.027 240.258 253.189 239.574C253.351 238.89 253.414 238.089 253.378 237.171V236.442C253.378 235.776 253.27 235.191 253.054 234.687C252.838 234.183 252.523 233.787 252.109 233.499C251.713 233.193 251.218 233.04 250.624 233.04H243.334L243.064 230.826H250.84C252.532 230.826 253.837 231.33 254.755 232.338C255.673 233.346 256.159 234.687 256.213 236.361L256.24 237.225C256.294 238.881 256.051 240.276 255.511 241.41C254.971 242.526 254.188 243.435 253.162 244.137C252.136 244.821 250.921 245.334 249.517 245.676C248.113 246 246.574 246.198 244.9 246.27ZM272.521 246H269.443L263.773 237.387L261.1 246H258.346L261.316 236.712L262.072 234.795L259.588 230.826H262.531L264.799 234.471L267.067 237.873L267.742 235.524L269.119 230.826H271.9L268.768 240.384L272.521 246ZM127.171 281V270.74C127.171 269.732 126.946 269.03 126.496 268.634C126.064 268.238 125.479 268.04 124.741 268.04H119.665V265.826H125.47C126.37 265.826 127.162 265.997 127.846 266.339C128.53 266.663 129.07 267.194 129.466 267.932C129.862 268.67 130.06 269.651 130.06 270.875V281H127.171ZM119.665 281V278.786H131.923V281H119.665ZM133.899 281V278.786H137.787C138.669 278.786 139.389 278.606 139.947 278.246C140.505 277.886 140.919 277.373 141.189 276.707C141.459 276.041 141.594 275.249 141.594 274.331V272.495C141.594 271.559 141.459 270.758 141.189 270.092C140.919 269.426 140.505 268.922 139.947 268.58C139.389 268.22 138.669 268.04 137.787 268.04H133.899V265.826H138.489C139.803 265.826 140.901 266.096 141.783 266.636C142.665 267.158 143.331 267.932 143.781 268.958C144.249 269.966 144.483 271.19 144.483 272.63V274.196C144.483 275.618 144.249 276.842 143.781 277.868C143.331 278.876 142.665 279.65 141.783 280.19C140.901 280.73 139.803 281 138.489 281H133.899ZM154.137 281V270.74C154.137 269.732 153.921 269.03 153.489 268.634C153.057 268.238 152.463 268.04 151.707 268.04H146.712V265.826H152.436C153.336 265.826 154.128 265.997 154.812 266.339C155.514 266.663 156.054 267.194 156.432 267.932C156.828 268.67 157.026 269.651 157.026 270.875V281H154.137ZM169.377 281V270.74C169.377 269.732 169.152 269.03 168.702 268.634C168.27 268.238 167.685 268.04 166.947 268.04H160.305V265.826H167.676C168.576 265.826 169.368 265.997 170.052 266.339C170.736 266.663 171.276 267.194 171.672 267.932C172.068 268.67 172.266 269.651 172.266 270.875V281H169.377ZM160.224 281V273.656L160.629 271.847H163.113V273.656V281H160.224ZM180.01 281.405L179.74 279.407C180.46 279.335 181.009 279.182 181.387 278.948C181.765 278.714 182.026 278.39 182.17 277.976C182.314 277.562 182.386 277.031 182.386 276.383V265.826H189.676C190.576 265.826 191.368 265.997 192.052 266.339C192.754 266.663 193.294 267.194 193.672 267.932C194.068 268.67 194.266 269.651 194.266 270.875V281H191.377V270.74C191.377 269.732 191.161 269.03 190.729 268.634C190.297 268.238 189.703 268.04 188.947 268.04H185.275V276.059C185.275 277.247 185.086 278.219 184.708 278.975C184.348 279.731 183.781 280.298 183.007 280.676C182.233 281.054 181.234 281.297 180.01 281.405ZM204.612 281V270.74C204.612 269.732 204.387 269.03 203.937 268.634C203.505 268.238 202.92 268.04 202.182 268.04H197.106V265.826H202.911C203.811 265.826 204.603 265.997 205.287 266.339C205.971 266.663 206.511 267.194 206.907 267.932C207.303 268.67 207.501 269.651 207.501 270.875V281H204.612ZM197.106 281V278.786H209.364V281H197.106ZM212.203 281V268.985L211.879 265.826H214.741L215.092 268.985V281H212.203ZM223.55 281L222.497 275.141V270.308C222.497 269.534 222.389 268.967 222.173 268.607C221.975 268.247 221.588 268.022 221.012 267.932L219.311 267.689L219.689 265.502L222.362 265.88C223.442 266.042 224.216 266.465 224.684 267.149C225.152 267.815 225.386 268.769 225.386 270.011V275.195L226.304 281H223.55ZM218.447 281.432L217.394 279.137C218.69 278.687 219.761 278.111 220.607 277.409C221.471 276.707 222.146 275.816 222.632 274.736L223.577 276.383C223.235 277.211 222.83 277.949 222.362 278.597C221.894 279.245 221.336 279.803 220.688 280.271C220.058 280.739 219.311 281.126 218.447 281.432ZM228.262 281.405L227.992 279.407C228.712 279.335 229.261 279.182 229.639 278.948C230.017 278.714 230.278 278.39 230.422 277.976C230.566 277.562 230.638 277.031 230.638 276.383V265.826H237.928C238.828 265.826 239.62 265.997 240.304 266.339C241.006 266.663 241.546 267.194 241.924 267.932C242.32 268.67 242.518 269.651 242.518 270.875V281H239.629V270.74C239.629 269.732 239.413 269.03 238.981 268.634C238.549 268.238 237.955 268.04 237.199 268.04H233.527V276.059C233.527 277.247 233.338 278.219 232.96 278.975C232.6 279.731 232.033 280.298 231.259 280.676C230.485 281.054 229.486 281.297 228.262 281.405ZM253.652 281L258.701 268.04H250.574V265.826H261.59V268.229L256.541 281H253.652ZM250.574 268.04V261.641H253.193V268.04H250.574ZM263.57 281.891L263.165 279.623L268.619 278.57C269.609 278.39 270.401 278.102 270.995 277.706C271.607 277.31 272.075 276.797 272.399 276.167C272.741 275.519 272.984 274.718 273.128 273.764C273.272 272.81 273.353 271.676 273.371 270.362C273.389 269.048 273.398 267.536 273.398 265.826H276.26C276.26 267.68 276.224 269.345 276.152 270.821C276.098 272.297 275.945 273.602 275.693 274.736C275.441 275.87 275.045 276.842 274.505 277.652C273.965 278.462 273.218 279.137 272.264 279.677C271.328 280.199 270.122 280.604 268.646 280.892L263.57 281.891ZM267.809 279.002L264.407 265.826H267.296L270.563 279.002H267.809ZM132.028 316V305.74C132.028 304.732 131.803 304.03 131.353 303.634C130.921 303.238 130.336 303.04 129.598 303.04H122.956V300.826H130.327C131.227 300.826 132.019 300.997 132.703 301.339C133.387 301.663 133.927 302.194 134.323 302.932C134.719 303.67 134.917 304.651 134.917 305.875V316H132.028ZM122.875 316V308.656L123.28 306.847H125.764V308.656V316H122.875ZM143.25 316.027L143.547 313.84C144.969 314.146 146.094 314.119 146.922 313.759C147.768 313.399 148.371 312.733 148.731 311.761C149.109 310.789 149.28 309.556 149.244 308.062C149.226 306.784 149.064 305.776 148.758 305.038C148.47 304.282 148.065 303.742 147.543 303.418C147.039 303.094 146.445 302.932 145.761 302.932C145.131 302.932 144.591 303.067 144.141 303.337C143.691 303.589 143.331 303.94 143.061 304.39C142.791 304.84 142.602 305.344 142.494 305.902L141.765 304.525C142.089 303.157 142.674 302.167 143.52 301.555C144.366 300.925 145.284 300.61 146.274 300.61C147.12 300.61 147.885 300.754 148.569 301.042C149.271 301.312 149.874 301.753 150.378 302.365C150.882 302.959 151.269 303.733 151.539 304.687C151.827 305.623 151.98 306.748 151.998 308.062C152.034 310.096 151.71 311.779 151.026 313.111C150.36 314.443 149.37 315.37 148.056 315.892C146.742 316.414 145.14 316.459 143.25 316.027ZM137.85 316L139.794 305.551L137.688 300.826H140.685L142.548 305.659L140.739 316H137.85ZM155.105 310.33V308.089V303.985L154.781 300.826H157.643L157.994 303.985V308.089L157.967 309.79L155.105 310.33ZM163.806 316L168.855 303.04H160.728V300.826H171.744V303.229L166.695 316H163.806ZM160.728 303.04V296.641H163.347V303.04H160.728ZM181.554 316V305.74C181.554 304.732 181.329 304.03 180.879 303.634C180.447 303.238 179.862 303.04 179.124 303.04H174.048V300.826H179.853C180.753 300.826 181.545 300.997 182.229 301.339C182.913 301.663 183.453 302.194 183.849 302.932C184.245 303.67 184.443 304.651 184.443 305.875V316H181.554ZM174.048 316V313.786H186.306V316H174.048ZM194.551 320.779L193.93 319.24C194.776 318.898 195.424 318.43 195.874 317.836C196.324 317.26 196.549 316.612 196.549 315.892L196.36 313.705L197.494 315.487C197.332 315.667 197.143 315.793 196.927 315.865C196.729 315.937 196.513 315.973 196.279 315.973C195.793 315.973 195.361 315.82 194.983 315.514C194.623 315.208 194.443 314.776 194.443 314.218C194.443 313.678 194.632 313.255 195.01 312.949C195.388 312.625 195.829 312.463 196.333 312.463C197.017 312.463 197.539 312.724 197.899 313.246C198.277 313.75 198.466 314.47 198.466 315.406C198.466 316.648 198.124 317.737 197.44 318.673C196.756 319.609 195.793 320.311 194.551 320.779ZM210.418 316V305.74C210.418 304.732 210.193 304.03 209.743 303.634C209.311 303.238 208.726 303.04 207.988 303.04H201.346V300.826H208.717C209.617 300.826 210.409 300.997 211.093 301.339C211.777 301.663 212.317 302.194 212.713 302.932C213.109 303.67 213.307 304.651 213.307 305.875V316H210.418ZM201.265 316V308.656L201.67 306.847H204.154V308.656V316H201.265ZM225.041 316L216.212 300.826H219.155L227.984 316H225.041ZM215.78 316V313.786H226.283L227.12 316H215.78ZM224.042 309.817L222.422 307.333L225.149 300.826H228.038L224.042 309.817ZM244.242 316H241.164L235.494 307.387L232.821 316H230.067L233.037 306.712L233.793 304.795L231.309 300.826H234.252L236.52 304.471L238.788 307.873L239.463 305.524L240.84 300.826H243.621L240.489 310.384L244.242 316ZM255.769 316V305.74C255.769 304.732 255.544 304.03 255.094 303.634C254.662 303.238 254.077 303.04 253.339 303.04H246.697V300.826H254.068C254.968 300.826 255.76 300.997 256.444 301.339C257.128 301.663 257.668 302.194 258.064 302.932C258.46 303.67 258.658 304.651 258.658 305.875V316H255.769ZM246.616 316V308.656L247.021 306.847H249.505V308.656V316H246.616ZM268.908 316V305.74C268.908 304.732 268.683 304.03 268.233 303.634C267.801 303.238 267.216 303.04 266.478 303.04H261.402V300.826H267.207C268.107 300.826 268.899 300.997 269.583 301.339C270.267 301.663 270.807 302.194 271.203 302.932C271.599 303.67 271.797 304.651 271.797 305.875V316H268.908ZM261.402 316V313.786H273.66V316H261.402ZM172.178 351.324C171.674 351.324 171.242 351.144 170.882 350.784C170.522 350.406 170.342 349.947 170.342 349.407C170.342 348.831 170.522 348.363 170.882 348.003C171.242 347.643 171.674 347.463 172.178 347.463C172.7 347.463 173.132 347.643 173.474 348.003C173.834 348.363 174.014 348.831 174.014 349.407C174.014 349.947 173.834 350.406 173.474 350.784C173.132 351.144 172.7 351.324 172.178 351.324ZM177.623 345.33V343.089V338.985L177.299 335.826H180.161L180.512 338.985V343.089L180.485 344.79L177.623 345.33ZM184.109 351V338.985L183.785 335.826H186.647L186.998 338.985V351H184.109ZM195.456 351L194.403 345.141V340.308C194.403 339.534 194.295 338.967 194.079 338.607C193.881 338.247 193.494 338.022 192.918 337.932L191.217 337.689L191.595 335.502L194.268 335.88C195.348 336.042 196.122 336.465 196.59 337.149C197.058 337.815 197.292 338.769 197.292 340.011V345.195L198.21 351H195.456ZM190.353 351.432L189.3 349.137C190.596 348.687 191.667 348.111 192.513 347.409C193.377 346.707 194.052 345.816 194.538 344.736L195.483 346.383C195.141 347.211 194.736 347.949 194.268 348.597C193.8 349.245 193.242 349.803 192.594 350.271C191.964 350.739 191.217 351.126 190.353 351.432ZM201.248 345.33V343.089V338.985L200.924 335.826H203.786L204.137 338.985V343.089L204.11 344.79L201.248 345.33ZM216.482 351V340.74C216.482 339.732 216.257 339.03 215.807 338.634C215.375 338.238 214.79 338.04 214.052 338.04H207.41V335.826H214.781C215.681 335.826 216.473 335.997 217.157 336.339C217.841 336.663 218.381 337.194 218.777 337.932C219.173 338.67 219.371 339.651 219.371 340.875V351H216.482ZM207.329 351V343.656L207.734 341.847H210.218V343.656V351H207.329ZM222.79 351V338.985L222.466 335.826H225.328L225.679 338.985V351H222.79Z" fill="white"/>
</g>
<defs>
<clipPath id="clip0_569_3108">
<rect width="397.899" height="390" fill="white"/>
</clipPath>
</defs>
</svg>
