<svg width="365" height="358" viewBox="0 0 365 358" fill="none" xmlns="http://www.w3.org/2000/svg">
<g clip-path="url(#clip0_569_3101)">
<path d="M182.475 357.705C134.068 357.705 85.6636 357.616 37.2561 357.754C20.4304 357.804 5.69911 346.635 1.32287 330.396C-1.12173 321.329 -0.159457 312.538 4.05404 304.09C9.34656 293.484 14.533 282.829 19.7795 272.202C27.269 257.027 34.7761 241.859 42.2727 226.684C53.3919 204.164 64.5077 181.64 75.6234 159.117C89.9514 130.082 104.276 101.047 118.607 72.0154C126.858 55.3054 135.171 38.6273 143.344 21.8819C148.785 10.7337 157.24 3.39247 169.445 0.836706C186.158 -2.66551 202.067 5.0975 210.066 20.2371C222.632 44.0154 235.305 67.7333 247.927 91.4796C260.886 115.857 273.838 140.241 286.801 164.619C300.177 189.772 313.571 214.915 326.947 240.072C338.243 261.316 349.561 282.552 360.804 303.828C372.464 325.894 358.628 353.479 334.03 357.258C332.059 357.559 330.043 357.694 328.051 357.694C279.527 357.719 231.003 357.712 182.479 357.715L182.475 357.705ZM182.525 337.564V337.553C228.339 337.553 274.153 337.564 319.967 337.521C322.186 337.521 324.446 337.262 326.615 336.784C337.964 334.292 346.211 321.878 344.452 310.365C343.738 305.675 341.502 301.694 339.344 297.643C324.941 270.564 310.521 243.493 296.116 216.414C284.179 193.973 272.257 171.52 260.327 149.075C249.116 127.98 237.905 106.889 226.687 85.7974C217.212 67.9921 207.834 50.1336 198.197 32.4169C193.651 24.0619 186.218 20.0386 176.761 20.2655C167.213 20.4959 160.162 25.0935 155.871 33.6363C149.807 45.7062 143.892 57.8541 137.91 69.9665C121.774 102.642 105.634 135.321 89.495 167.997C78.7331 189.786 67.9711 211.572 57.2057 233.362C45.8176 256.413 34.433 279.465 23.0449 302.52C20.3278 308.025 19.5177 313.785 21.2052 319.716C24.3644 330.811 33.3787 337.56 44.9083 337.564C90.7828 337.578 136.654 337.571 182.528 337.571L182.525 337.564Z" fill="#CC3132"/>
<path d="M182.526 337.563C136.652 337.563 90.7811 337.57 44.9067 337.556C33.3806 337.553 24.3628 330.803 21.2036 319.708C19.5161 313.782 20.3262 308.018 23.0432 302.513C34.4278 279.461 45.8159 256.406 57.2041 233.355C67.966 211.565 78.7315 189.779 89.4934 167.989C105.633 135.314 121.769 102.638 137.908 69.9591C143.89 57.8467 149.802 45.6988 155.869 33.6289C160.164 25.0861 167.211 20.4885 176.76 20.2581C186.216 20.0312 193.649 24.0545 198.195 32.4095C207.832 50.1262 217.211 67.9847 226.685 85.79C237.907 106.878 249.115 127.973 260.326 149.067C272.255 171.513 284.178 193.965 296.114 216.407C310.516 243.486 324.94 270.557 339.342 297.635C341.497 301.687 343.733 305.671 344.451 310.357C346.209 321.871 337.962 334.284 326.613 336.776C324.445 337.251 322.184 337.51 319.966 337.514C274.151 337.556 228.337 337.546 182.523 337.546V337.556L182.526 337.563ZM182.328 330.204C227.194 330.204 272.064 330.204 316.93 330.204C318.406 330.204 319.881 330.243 321.353 330.169C333.54 329.563 341.012 316.61 335.341 305.831C329.245 294.243 323.061 282.705 316.913 271.145C305.337 249.377 293.758 227.609 282.179 205.844C270.522 183.927 258.861 162.009 247.204 140.089C235.685 118.427 224.173 96.761 212.654 75.099C205.759 62.1323 198.853 49.1727 191.948 36.213C190.469 33.4375 188.367 31.2398 185.618 29.7155C177.17 25.0364 166.964 28.1026 162.527 36.7838C158.745 44.1852 155.165 51.693 151.482 59.1476C139.128 84.1559 126.767 109.161 114.41 134.169C99.6751 163.991 84.9403 193.809 70.2125 223.635C56.6345 251.128 43.06 278.625 29.4997 306.125C27.7414 309.691 27.1966 313.48 28.2155 317.323C30.3806 325.49 36.6425 330.204 45.0765 330.204C90.8271 330.204 136.581 330.204 182.332 330.204H182.328Z" fill="#FDFEFE"/>
<path d="M182.326 330.204C136.576 330.204 90.8216 330.204 45.071 330.204C36.637 330.204 30.3751 325.49 28.21 317.323C27.1911 313.48 27.7359 309.691 29.4942 306.125C43.058 278.625 56.6325 251.128 70.207 223.635C84.9347 193.809 99.6696 163.991 114.404 134.169C126.762 109.161 139.123 84.1559 151.477 59.1477C155.16 51.693 158.74 44.1853 162.522 36.7838C166.958 28.1027 177.168 25.0329 185.613 29.7156C188.362 31.2398 190.463 33.4376 191.942 36.2131C198.848 49.1727 205.754 62.1324 212.649 75.0991C224.168 96.7611 235.68 118.427 247.199 140.089C258.856 162.009 270.516 183.927 282.173 205.844C293.752 227.612 305.328 249.377 316.907 271.145C323.056 282.705 329.24 294.243 335.335 305.831C341.006 316.61 333.535 329.563 321.347 330.169C319.875 330.243 318.4 330.204 316.925 330.204C272.059 330.204 227.189 330.204 182.323 330.204H182.326ZM182.372 247.037V247.044C183.904 247.044 185.44 247.044 186.971 247.044C189.519 247.044 189.49 247.041 189.802 244.464C190.683 237.201 191.567 229.937 192.494 222.681C194.309 208.46 196.17 194.245 197.988 180.024C200.316 161.821 202.647 143.623 204.897 125.413C205.233 122.684 205.555 119.837 205.166 117.15C204.218 110.621 199.952 106.658 193.916 104.779C185.811 102.259 177.607 102.418 169.626 105.357C162.628 107.934 158.881 113.9 159.631 120.94C160.343 127.629 161.241 134.296 162.09 140.971C163.328 150.684 164.616 160.393 165.851 170.109C167.358 181.991 168.805 193.88 170.316 205.762C171.982 218.874 173.74 231.976 175.325 245.098C175.53 246.786 176.103 247.165 177.6 247.066C179.185 246.963 180.78 247.041 182.372 247.041V247.037ZM182.602 254.506C170.471 253.946 159.508 264.924 159.748 277.366C159.992 289.932 169.735 299.741 182.316 300.035C194.418 300.319 205.439 289.922 205.432 277.466C205.428 264.641 195.388 254.52 182.602 254.503V254.506Z" fill="#CC3132"/>
<rect x="154.68" y="100.299" width="58.8619" height="200.813" fill="#CC3132"/>
<path d="M110.282 163.435L109.992 161.289C110.765 161.212 111.355 161.047 111.761 160.796C112.167 160.545 112.447 160.197 112.602 159.752C112.756 159.307 112.834 158.737 112.834 158.041V146.702H120.664C121.63 146.702 122.481 146.886 123.216 147.253C123.97 147.601 124.55 148.171 124.956 148.964C125.381 149.757 125.594 150.81 125.594 152.125V163H122.491V151.98C122.491 150.897 122.259 150.143 121.795 149.718C121.331 149.293 120.693 149.08 119.881 149.08H115.937V157.693C115.937 158.969 115.734 160.013 115.328 160.825C114.941 161.637 114.332 162.246 113.501 162.652C112.669 163.058 111.596 163.319 110.282 163.435ZM143.375 163H140.069L133.979 153.749L131.108 163H128.15L131.34 153.024L132.152 150.965L129.484 146.702H132.645L135.081 150.617L137.517 154.271L138.242 151.748L139.721 146.702H142.708L139.344 156.968L143.375 163ZM151.006 163.435L150.716 161.289C151.49 161.212 152.079 161.047 152.485 160.796C152.891 160.545 153.172 160.197 153.326 159.752C153.481 159.307 153.558 158.737 153.558 158.041V146.702H161.388C162.355 146.702 163.206 146.886 163.94 147.253C164.694 147.601 165.274 148.171 165.68 148.964C166.106 149.757 166.318 150.81 166.318 152.125V163H163.215V151.98C163.215 150.897 162.983 150.143 162.519 149.718C162.055 149.293 161.417 149.08 160.605 149.08H156.661V157.693C156.661 158.969 156.458 160.013 156.052 160.825C155.666 161.637 155.057 162.246 154.225 162.652C153.394 163.058 152.321 163.319 151.006 163.435ZM170.093 163V150.095L169.745 146.702H172.819L173.196 150.095V163H170.093ZM176.306 163V160.622H181.004V151.516C181.004 150.646 180.83 150.027 180.482 149.66C180.134 149.293 179.65 149.07 179.032 148.993L177.06 148.703L177.466 146.354L180.482 146.789C181.642 146.944 182.531 147.427 183.15 148.239C183.788 149.051 184.107 150.124 184.107 151.458V163H176.306ZM189.298 163.29L187.181 146.702H190.139L191.821 160.651C193.31 160.554 194.586 160.293 195.649 159.868C196.732 159.423 197.612 158.814 198.288 158.041C198.984 157.248 199.497 156.291 199.825 155.17C200.154 154.049 200.318 152.763 200.318 151.313L200.26 146.702H203.363L203.392 151.168C203.412 153.875 202.909 156.127 201.884 157.925C200.879 159.723 199.332 161.076 197.244 161.985C195.156 162.874 192.508 163.309 189.298 163.29ZM190.864 156.881L190.139 154.822C191.106 154.455 191.85 154.029 192.372 153.546C192.914 153.043 193.291 152.396 193.503 151.603C193.735 150.81 193.861 149.786 193.88 148.529V146.731H196.838L196.809 148.471C196.79 149.902 196.597 151.149 196.229 152.212C195.862 153.275 195.243 154.184 194.373 154.938C193.523 155.692 192.353 156.34 190.864 156.881ZM209.202 163L214.625 149.08H205.896V146.702H217.728V149.283L212.305 163H209.202ZM205.896 149.08V142.207H208.709V149.08H205.896ZM228.126 163.29L226.009 146.702H228.967L230.649 160.651C232.137 160.554 233.413 160.293 234.477 159.868C235.559 159.423 236.439 158.814 237.116 158.041C237.812 157.248 238.324 156.291 238.653 155.17C238.981 154.049 239.146 152.763 239.146 151.313L239.088 146.702H242.191L242.22 151.168C242.239 153.875 241.736 156.127 240.712 157.925C239.706 159.723 238.16 161.076 236.072 161.985C233.984 162.874 231.335 163.309 228.126 163.29ZM229.692 156.881L228.967 154.822C229.933 154.455 230.678 154.029 231.2 153.546C231.741 153.043 232.118 152.396 232.331 151.603C232.563 150.81 232.688 149.786 232.708 148.529V146.731H235.666L235.637 148.471C235.617 149.902 235.424 151.149 235.057 152.212C234.689 153.275 234.071 154.184 233.201 154.938C232.35 155.692 231.18 156.34 229.692 156.881ZM245.652 156.91V154.503V150.095L245.304 146.702H248.378L248.755 150.095V154.503L248.726 156.33L245.652 156.91ZM102.154 201.435L101.864 199.289C102.637 199.212 103.227 199.047 103.633 198.796C104.039 198.545 104.319 198.197 104.474 197.752C104.628 197.307 104.706 196.737 104.706 196.041V184.702H112.536C113.502 184.702 114.353 184.886 115.088 185.253C115.842 185.601 116.422 186.171 116.828 186.964C117.253 187.757 117.466 188.81 117.466 190.125V201H114.363V189.98C114.363 188.897 114.131 188.143 113.667 187.718C113.203 187.293 112.565 187.08 111.753 187.08H107.809V195.693C107.809 196.969 107.606 198.013 107.2 198.825C106.813 199.637 106.204 200.246 105.373 200.652C104.541 201.058 103.468 201.319 102.154 201.435ZM121.24 201V188.095L120.892 184.702H123.966L124.343 188.095V201H121.24ZM135.167 201V189.98C135.167 188.897 134.935 188.143 134.471 187.718C134.007 187.293 133.369 187.08 132.557 187.08H127.192V184.702H133.34C134.307 184.702 135.158 184.886 135.892 185.253C136.646 185.601 137.226 186.171 137.632 186.964C138.058 187.757 138.27 188.81 138.27 190.125V201H135.167ZM142.141 194.91V192.503V188.095L141.793 184.702H144.867L145.244 188.095V192.503L145.215 194.33L142.141 194.91ZM158.504 201V189.98C158.504 188.897 158.262 188.143 157.779 187.718C157.315 187.293 156.686 187.08 155.894 187.08H148.76V184.702H156.677C157.643 184.702 158.494 184.886 159.229 185.253C159.963 185.601 160.543 186.171 160.969 186.964C161.394 187.757 161.607 188.81 161.607 190.125V201H158.504ZM148.673 201V193.112L149.108 191.169H151.776V193.112V201H148.673ZM170.557 201.029L170.876 198.68C172.403 199.009 173.611 198.98 174.501 198.593C175.409 198.206 176.057 197.491 176.444 196.447C176.85 195.403 177.033 194.079 176.995 192.474C176.975 191.101 176.801 190.019 176.473 189.226C176.163 188.414 175.728 187.834 175.168 187.486C174.626 187.138 173.988 186.964 173.254 186.964C172.577 186.964 171.997 187.109 171.514 187.399C171.03 187.67 170.644 188.047 170.354 188.53C170.064 189.013 169.861 189.555 169.745 190.154L168.962 188.675C169.31 187.206 169.938 186.142 170.847 185.485C171.755 184.808 172.741 184.47 173.805 184.47C174.713 184.47 175.535 184.625 176.27 184.934C177.024 185.224 177.671 185.698 178.213 186.355C178.754 186.993 179.17 187.824 179.46 188.849C179.769 189.854 179.933 191.063 179.953 192.474C179.991 194.659 179.643 196.466 178.909 197.897C178.193 199.328 177.13 200.323 175.719 200.884C174.307 201.445 172.587 201.493 170.557 201.029ZM164.757 201L166.845 189.777L164.583 184.702H167.802L169.803 189.893L167.86 201H164.757ZM183.29 201V188.095L182.942 184.702H186.016L186.393 188.095V201H183.29ZM196.063 194.91V192.503V188.095L195.715 184.702H198.789L199.166 188.095V192.503L199.137 194.33L196.063 194.91ZM203.03 201V188.095L202.682 184.702H205.756L206.133 188.095V201H203.03ZM215.216 201L214.085 194.707V189.516C214.085 188.685 213.969 188.076 213.737 187.689C213.525 187.302 213.109 187.061 212.49 186.964L210.663 186.703L211.069 184.354L213.94 184.76C215.1 184.934 215.932 185.388 216.434 186.123C216.937 186.838 217.188 187.863 217.188 189.197V194.765L218.174 201H215.216ZM209.735 201.464L208.604 198.999C209.996 198.516 211.147 197.897 212.055 197.143C212.983 196.389 213.708 195.432 214.23 194.272L215.245 196.041C214.878 196.93 214.443 197.723 213.94 198.419C213.438 199.115 212.838 199.714 212.142 200.217C211.466 200.72 210.663 201.135 209.735 201.464ZM221.438 194.91V192.503V188.095L221.09 184.702H224.164L224.541 188.095V192.503L224.512 194.33L221.438 194.91ZM237.801 201V189.98C237.801 188.897 237.559 188.143 237.076 187.718C236.612 187.293 235.983 187.08 235.191 187.08H228.057V184.702H235.974C236.94 184.702 237.791 184.886 238.526 185.253C239.26 185.601 239.84 186.171 240.266 186.964C240.691 187.757 240.904 188.81 240.904 190.125V201H237.801ZM227.97 201V193.112L228.405 191.169H231.073V193.112V201H227.97ZM253.971 201V189.98C253.971 188.897 253.73 188.143 253.246 187.718C252.782 187.293 252.154 187.08 251.361 187.08H244.227V184.702H252.144C253.111 184.702 253.962 184.886 254.696 185.253C255.431 185.601 256.011 186.171 256.436 186.964C256.862 187.757 257.074 188.81 257.074 190.125V201H253.971ZM244.14 201V193.112L244.575 191.169H247.243V193.112V201H244.14ZM112.489 244.8V226.095L112.141 222.702H115.215L115.592 226.095V244.8H112.489ZM124.734 239.029L125.053 236.68C126.581 237.009 127.789 236.98 128.678 236.593C129.587 236.206 130.235 235.491 130.621 234.447C131.027 233.403 131.211 232.079 131.172 230.474C131.153 229.101 130.979 228.019 130.65 227.226C130.341 226.414 129.906 225.834 129.345 225.486C128.804 225.138 128.166 224.964 127.431 224.964C126.755 224.964 126.175 225.109 125.691 225.399C125.208 225.67 124.821 226.047 124.531 226.53C124.241 227.013 124.038 227.555 123.922 228.154L123.139 226.675C123.487 225.206 124.116 224.142 125.024 223.485C125.933 222.808 126.919 222.47 127.982 222.47C128.891 222.47 129.713 222.625 130.447 222.934C131.201 223.224 131.849 223.698 132.39 224.355C132.932 224.993 133.347 225.824 133.637 226.849C133.947 227.854 134.111 229.063 134.13 230.474C134.169 232.659 133.821 234.466 133.086 235.897C132.371 237.328 131.308 238.323 129.896 238.884C128.485 239.445 126.764 239.493 124.734 239.029ZM118.934 239L121.022 227.777L118.76 222.702H121.979L123.98 227.893L122.037 239H118.934ZM138.802 239V228.473C138.802 227.719 138.87 227.062 139.005 226.501C139.16 225.921 139.363 225.447 139.614 225.08H136.83V222.702H144.718V225.08H142.456C142.205 225.563 142.05 226.124 141.992 226.762C141.934 227.381 141.905 227.951 141.905 228.473V239H138.802ZM155.453 239V227.98C155.453 226.897 155.212 226.143 154.728 225.718C154.264 225.293 153.636 225.08 152.843 225.08H147.391V222.702H153.626C154.593 222.702 155.444 222.886 156.178 223.253C156.913 223.601 157.493 224.171 157.918 224.964C158.344 225.757 158.556 226.81 158.556 228.125V239H155.453ZM147.391 239V236.622H160.557V239H147.391ZM178.809 239V227.98C178.809 226.897 178.568 226.143 178.084 225.718C177.62 225.293 176.992 225.08 176.199 225.08H169.065V222.702H176.982C177.949 222.702 178.8 222.886 179.534 223.253C180.269 223.601 180.849 224.171 181.274 224.964C181.7 225.757 181.912 226.81 181.912 228.125V239H178.809ZM168.978 239V231.112L169.413 229.169H172.081V231.112V239H168.978ZM184.511 239.957L184.076 237.521L189.934 236.39C190.998 236.197 191.848 235.887 192.486 235.462C193.144 235.037 193.646 234.486 193.994 233.809C194.362 233.113 194.623 232.253 194.777 231.228C194.932 230.203 195.019 228.985 195.038 227.574C195.058 226.163 195.067 224.539 195.067 222.702H198.141C198.141 224.693 198.103 226.482 198.025 228.067C197.967 229.652 197.803 231.054 197.532 232.272C197.262 233.49 196.836 234.534 196.256 235.404C195.676 236.274 194.874 236.999 193.849 237.579C192.844 238.14 191.549 238.575 189.963 238.884L184.511 239.957ZM189.064 236.854L185.41 222.702H188.513L192.022 236.854H189.064ZM201.557 232.91V230.503V226.095L201.209 222.702H204.283L204.66 226.095V230.503L204.631 232.33L201.557 232.91ZM209.771 239.29L208.089 225.08L211.018 223.601L212.497 236.477C213.309 236.419 214.053 236.293 214.73 236.1C215.426 235.907 216.035 235.646 216.557 235.317C217.079 234.969 217.514 234.534 217.862 234.012C218.229 233.471 218.5 232.833 218.674 232.098C218.848 231.363 218.915 230.503 218.877 229.517V228.734C218.877 228.019 218.761 227.39 218.529 226.849C218.297 226.308 217.958 225.882 217.514 225.573C217.088 225.244 216.557 225.08 215.919 225.08H208.089L207.799 222.702H216.151C217.968 222.702 219.37 223.243 220.356 224.326C221.342 225.409 221.864 226.849 221.922 228.647L221.951 229.575C222.009 231.354 221.748 232.852 221.168 234.07C220.588 235.269 219.747 236.245 218.645 236.999C217.543 237.734 216.238 238.285 214.73 238.652C213.222 239 211.569 239.213 209.771 239.29ZM223.799 239V236.622H228.497V227.516C228.497 226.646 228.323 226.027 227.975 225.66C227.627 225.293 227.144 225.07 226.525 224.993L224.553 224.703L224.959 222.354L227.975 222.789C229.135 222.944 230.024 223.427 230.643 224.239C231.281 225.051 231.6 226.124 231.6 227.458V239H223.799ZM244.796 239V227.98C244.796 226.897 244.554 226.143 244.071 225.718C243.607 225.293 242.978 225.08 242.186 225.08H235.052V222.702H242.969C243.935 222.702 244.786 222.886 245.521 223.253C246.255 223.601 246.835 224.171 247.261 224.964C247.686 225.757 247.899 226.81 247.899 228.125V239H244.796ZM234.965 239V231.112L235.4 229.169H238.068V231.112V239H234.965ZM122.6 270.91V268.503V264.095L122.252 260.702H125.326L125.703 264.095V268.503L125.674 270.33L122.6 270.91ZM129.567 277V264.095L129.219 260.702H132.293L132.67 264.095V277H129.567ZM143.87 277V265.98C143.87 264.897 143.629 264.143 143.145 263.718C142.681 263.293 142.053 263.08 141.26 263.08H135.808V260.702H142.043C143.01 260.702 143.861 260.886 144.595 261.253C145.33 261.601 145.91 262.171 146.335 262.964C146.761 263.757 146.973 264.81 146.973 266.125V277H143.87ZM135.808 277V274.622H148.974V277H135.808ZM152.025 270.91V268.503V264.095L151.677 260.702H154.751L155.128 264.095V268.503L155.099 270.33L152.025 270.91ZM165.951 277V265.98C165.951 264.897 165.719 264.143 165.255 263.718C164.791 263.293 164.153 263.08 163.341 263.08H157.976V260.702H164.124C165.091 260.702 165.942 260.886 166.676 261.253C167.43 261.601 168.01 262.171 168.416 262.964C168.842 263.757 169.054 264.81 169.054 266.125V277H165.951ZM173.911 282.133L172.084 281.321C173.186 279.446 173.998 277.454 174.52 275.347C175.061 273.22 175.332 271.084 175.332 268.938C175.332 266.773 175.061 264.627 174.52 262.5C173.998 260.373 173.186 258.392 172.084 256.555L173.911 255.743C175.129 257.696 176.067 259.745 176.724 261.891C177.401 264.037 177.739 266.386 177.739 268.938C177.739 271.49 177.401 273.839 176.724 275.985C176.067 278.112 175.129 280.161 173.911 282.133ZM189.676 277.348C189.135 277.348 188.671 277.155 188.284 276.768C187.897 276.362 187.704 275.869 187.704 275.289C187.704 274.67 187.897 274.168 188.284 273.781C188.671 273.394 189.135 273.201 189.676 273.201C190.237 273.201 190.701 273.394 191.068 273.781C191.455 274.168 191.648 274.67 191.648 275.289C191.648 275.869 191.455 276.362 191.068 276.768C190.701 277.155 190.237 277.348 189.676 277.348ZM202.485 277V265.98C202.485 264.897 202.253 264.143 201.789 263.718C201.325 263.293 200.687 263.08 199.875 263.08H194.51V260.702H200.658C201.624 260.702 202.475 260.886 203.21 261.253C203.964 261.601 204.544 262.171 204.95 262.964C205.375 263.757 205.588 264.81 205.588 266.125V277H202.485ZM218.39 277L208.907 260.702H212.068L221.551 277H218.39ZM208.443 277V274.622H219.724L220.623 277H208.443ZM217.317 270.359L215.577 267.691L218.506 260.702H221.609L217.317 270.359ZM229.965 277L229.675 274.622C230.332 274.564 230.932 274.438 231.473 274.245C232.014 274.032 232.488 273.713 232.894 273.288C233.3 272.863 233.629 272.273 233.88 271.519C234.131 270.765 234.296 269.818 234.373 268.677L234.808 263.08H224.542V260.702H238.143L238.027 262.79L237.621 267.952C237.563 269.344 237.36 270.591 237.012 271.693C236.664 272.795 236.171 273.742 235.533 274.535C234.914 275.308 234.141 275.908 233.213 276.333C232.285 276.758 231.202 276.981 229.965 277ZM224.484 282.8V268.822L224.919 266.85H227.587V268.793V282.8H224.484ZM142.633 320.133C141.434 318.161 140.497 316.112 139.82 313.985C139.143 311.839 138.805 309.49 138.805 306.938C138.805 304.386 139.143 302.037 139.82 299.891C140.497 297.745 141.434 295.696 142.633 293.743L144.46 294.555C143.358 296.392 142.536 298.373 141.995 300.5C141.473 302.627 141.212 304.773 141.212 306.938C141.212 309.084 141.473 311.22 141.995 313.347C142.536 315.454 143.358 317.446 144.46 319.321L142.633 320.133ZM146.532 315.435L146.242 313.289C147.015 313.212 147.605 313.047 148.011 312.796C148.417 312.545 148.697 312.197 148.852 311.752C149.006 311.307 149.084 310.737 149.084 310.041V298.702H156.914C157.88 298.702 158.731 298.886 159.466 299.253C160.22 299.601 160.8 300.171 161.206 300.964C161.631 301.757 161.844 302.81 161.844 304.125V315H158.741V303.98C158.741 302.897 158.509 302.143 158.045 301.718C157.581 301.293 156.943 301.08 156.131 301.08H152.187V309.693C152.187 310.969 151.984 312.013 151.578 312.825C151.191 313.637 150.582 314.246 149.751 314.652C148.919 315.058 147.846 315.319 146.532 315.435ZM165.618 315V302.095L165.27 298.702H168.344L168.721 302.095V315H165.618ZM174.963 315L180.386 301.08H171.657V298.702H183.489V301.283L178.066 315H174.963ZM171.657 301.08V294.207H174.47V301.08H171.657ZM186.689 315V302.095L186.341 298.702H189.415L189.792 302.095V315H186.689ZM192.582 315.957L192.147 313.521L198.005 312.39C199.069 312.197 199.919 311.887 200.557 311.462C201.215 311.037 201.717 310.486 202.065 309.809C202.433 309.113 202.694 308.253 202.848 307.228C203.003 306.203 203.09 304.985 203.109 303.574C203.129 302.163 203.138 300.539 203.138 298.702H206.212C206.212 300.693 206.174 302.482 206.096 304.067C206.038 305.652 205.874 307.054 205.603 308.272C205.333 309.49 204.907 310.534 204.327 311.404C203.747 312.274 202.945 312.999 201.92 313.579C200.915 314.14 199.62 314.575 198.034 314.884L192.582 315.957ZM197.135 312.854L193.481 298.702H196.584L200.093 312.854H197.135ZM209.512 315V312.622H214.761C215.399 312.622 215.979 312.535 216.501 312.361C217.023 312.168 217.477 311.878 217.864 311.491C218.251 311.104 218.55 310.611 218.763 310.012C218.976 309.393 219.082 308.659 219.082 307.808V305.865C219.082 304.86 218.947 303.999 218.676 303.284C218.425 302.569 218.019 302.027 217.458 301.66C216.917 301.273 216.221 301.08 215.37 301.08H212.76L212.122 303.951C211.929 304.879 211.958 305.594 212.209 306.097C212.48 306.58 213.108 306.928 214.094 307.141L213.543 309.142C212.286 309.065 211.32 308.794 210.643 308.33C209.966 307.847 209.531 307.209 209.338 306.416C209.164 305.623 209.174 304.715 209.367 303.69L210.498 298.702H216.037C217.332 298.702 218.434 298.992 219.343 299.572C220.252 300.133 220.948 300.954 221.431 302.037C221.934 303.12 222.185 304.434 222.185 305.981V307.663C222.185 308.92 222.011 310.012 221.663 310.94C221.334 311.868 220.861 312.632 220.242 313.231C219.643 313.83 218.927 314.275 218.096 314.565C217.265 314.855 216.366 315 215.399 315H209.512Z" fill="white"/>
</g>
<defs>
<clipPath id="clip0_569_3101">
<rect width="365" height="357.754" fill="white"/>
</clipPath>
</defs>
</svg>
