<svg width="308" height="302" viewBox="0 0 308 302" fill="none" xmlns="http://www.w3.org/2000/svg">
<g clip-path="url(#clip0_569_3091)">
<path d="M153.979 301.844C113.131 301.844 72.286 301.769 31.438 301.886C17.2399 301.928 4.80911 292.502 1.11629 278.8C-0.946559 271.148 -0.134556 263.73 3.42094 256.602C7.88696 247.652 12.2634 238.661 16.6906 229.693C23.0105 216.888 29.3453 204.089 35.6712 191.284C45.054 172.28 54.4338 153.274 63.8137 134.268C75.9042 109.768 87.9917 85.2668 100.085 60.7689C107.047 46.6685 114.062 32.5949 120.958 18.4645C125.55 9.05723 132.685 2.86248 142.984 0.705828C157.087 -2.24947 170.512 4.30124 177.261 17.0766C187.865 37.1415 198.558 57.1556 209.21 77.1936C220.145 97.764 231.074 118.34 242.013 138.911C253.3 160.136 264.602 181.353 275.89 202.581C285.422 220.507 294.972 238.428 304.459 256.381C314.299 275.001 302.623 298.278 281.866 301.467C280.204 301.721 278.502 301.835 276.821 301.835C235.875 301.856 194.928 301.85 153.982 301.853L153.979 301.844ZM154.021 284.848V284.839C192.68 284.839 231.34 284.848 270 284.812C271.872 284.812 273.779 284.594 275.609 284.19C285.186 282.087 292.145 271.612 290.661 261.897C290.058 257.939 288.171 254.58 286.35 251.161C274.197 228.311 262.029 205.468 249.873 182.618C239.8 163.681 229.74 144.735 219.674 125.794C210.213 107.994 200.753 90.1963 191.286 72.3987C183.292 57.3739 175.378 42.3043 167.246 27.3543C163.409 20.3041 157.137 16.9091 149.158 17.1005C141.1 17.295 135.151 21.1745 131.529 28.3833C126.413 38.5683 121.421 48.8191 116.373 59.04C102.757 86.6128 89.138 114.189 75.5191 141.761C66.4378 160.148 57.3565 178.532 48.2722 196.919C38.6625 216.371 29.0558 235.822 19.4461 255.277C17.1534 259.922 16.4697 264.783 17.8937 269.787C20.5596 279.15 28.1661 284.845 37.8953 284.848C76.6057 284.86 115.313 284.854 154.024 284.854L154.021 284.848Z" fill="#CC3132"/>
<path d="M154.02 284.848C115.31 284.848 76.6025 284.854 37.892 284.842C28.1659 284.839 20.5564 279.144 17.8905 269.781C16.4665 264.78 17.1501 259.916 19.4428 255.271C29.0496 235.819 38.6593 216.365 48.269 196.913C57.3503 178.526 66.4346 160.142 75.5159 141.755C89.1348 114.183 102.751 86.6098 116.37 59.0341C121.418 48.8132 126.406 38.5624 131.526 28.3773C135.15 21.1686 141.097 17.289 149.154 17.0946C157.134 16.9031 163.406 20.2981 167.242 27.3484C175.374 42.2983 183.288 57.368 191.283 72.3927C200.752 90.1873 210.21 107.988 219.67 125.788C229.737 144.729 239.797 163.675 249.87 182.612C262.023 205.462 274.194 228.306 286.347 251.155C288.165 254.574 290.052 257.936 290.658 261.891C292.142 271.606 285.183 282.081 275.606 284.184C273.776 284.585 271.868 284.803 269.997 284.806C231.337 284.842 192.677 284.833 154.017 284.833V284.842L154.02 284.848ZM153.853 278.638C191.713 278.638 229.576 278.638 267.435 278.638C268.68 278.638 269.925 278.671 271.167 278.608C281.451 278.097 287.756 267.167 282.971 258.071C277.827 248.293 272.609 238.556 267.42 228.802C257.652 210.433 247.881 192.064 238.111 173.698C228.274 155.204 218.434 136.709 208.598 118.212C198.878 99.9326 189.163 81.6505 179.443 63.3713C173.625 52.4295 167.798 41.4937 161.97 30.5579C160.722 28.2158 158.949 26.3613 156.63 25.0751C149.501 21.1267 140.888 23.7141 137.145 31.0395C133.953 37.2851 130.932 43.6205 127.824 49.9109C117.4 71.0138 106.969 92.1136 96.5414 113.216C84.1076 138.381 71.6738 163.543 59.2459 188.711C47.7883 211.911 36.3337 235.113 24.891 258.319C23.4073 261.328 22.9476 264.526 23.8074 267.768C25.6344 274.66 30.9184 278.638 38.0353 278.638C76.6413 278.638 115.25 278.638 153.856 278.638H153.853Z" fill="#FDFEFE"/>
<path d="M153.851 278.638C115.245 278.638 76.636 278.638 38.03 278.638C30.9131 278.638 25.6291 274.66 23.8021 267.768C22.9423 264.525 23.402 261.328 24.8857 258.319C36.3314 235.113 47.786 211.91 59.2406 188.711C71.6685 163.543 84.1023 138.381 96.5361 113.216C106.964 92.1132 117.394 71.0134 127.819 49.9105C130.927 43.62 133.948 37.2847 137.139 31.0391C140.883 23.7137 149.498 21.1233 156.624 25.0747C158.944 26.3609 160.717 28.2154 161.965 30.5575C167.792 41.4933 173.62 52.4291 179.438 63.3709C189.158 81.65 198.872 99.9322 208.593 118.211C218.429 136.709 228.269 155.203 238.105 173.698C247.876 192.067 257.644 210.433 267.415 228.802C272.603 238.556 277.822 248.292 282.965 258.07C287.751 267.167 281.446 278.096 271.162 278.608C269.92 278.671 268.675 278.638 267.43 278.638C229.57 278.638 191.708 278.638 153.848 278.638H153.851ZM153.89 208.459V208.464C155.182 208.464 156.478 208.464 157.771 208.464C159.92 208.464 159.896 208.462 160.159 206.287C160.902 200.158 161.649 194.029 162.431 187.906C163.962 175.905 165.532 163.911 167.067 151.91C169.031 136.55 170.999 121.194 172.897 105.828C173.181 103.525 173.452 101.123 173.124 98.8553C172.324 93.3456 168.724 90.0014 163.631 88.4161C156.791 86.2894 149.869 86.424 143.134 88.9037C137.229 91.0783 134.067 96.1124 134.7 102.053C135.3 107.697 136.059 113.324 136.775 118.956C137.82 127.152 138.907 135.345 139.948 143.544C141.22 153.57 142.441 163.603 143.716 173.629C145.122 184.694 146.606 195.749 147.943 206.822C148.116 208.246 148.6 208.566 149.863 208.482C151.2 208.396 152.546 208.462 153.89 208.462V208.459ZM154.084 214.761C143.847 214.288 134.596 223.552 134.799 234.051C135.005 244.655 143.226 252.932 153.842 253.18C164.055 253.419 173.354 244.646 173.348 234.135C173.345 223.313 164.873 214.773 154.084 214.758V214.761Z" fill="#CC3132"/>
<rect x="130.523" y="84.6357" width="49.6698" height="169.453" fill="#CC3132"/>
<path d="M116.173 120V100.65L115.813 97.14H118.993L119.383 100.65V120H116.173ZM128.84 114.03L129.17 111.6C130.75 111.94 132 111.91 132.92 111.51C133.86 111.11 134.53 110.37 134.93 109.29C135.35 108.21 135.54 106.84 135.5 105.18C135.48 103.76 135.3 102.64 134.96 101.82C134.64 100.98 134.19 100.38 133.61 100.02C133.05 99.66 132.39 99.48 131.63 99.48C130.93 99.48 130.33 99.63 129.83 99.93C129.33 100.21 128.93 100.6 128.63 101.1C128.33 101.6 128.12 102.16 128 102.78L127.19 101.25C127.55 99.73 128.2 98.63 129.14 97.95C130.08 97.25 131.1 96.9 132.2 96.9C133.14 96.9 133.99 97.06 134.75 97.38C135.53 97.68 136.2 98.17 136.76 98.85C137.32 99.51 137.75 100.37 138.05 101.43C138.37 102.47 138.54 103.72 138.56 105.18C138.6 107.44 138.24 109.31 137.48 110.79C136.74 112.27 135.64 113.3 134.18 113.88C132.72 114.46 130.94 114.51 128.84 114.03ZM122.84 114L125 102.39L122.66 97.14H125.99L128.06 102.51L126.05 114H122.84ZM143.393 114V103.11C143.393 102.33 143.463 101.65 143.603 101.07C143.763 100.47 143.973 99.98 144.233 99.6H141.353V97.14H149.513V99.6H147.173C146.913 100.1 146.753 100.68 146.693 101.34C146.633 101.98 146.603 102.57 146.603 103.11V114H143.393ZM159.035 120V100.65L158.675 97.14H161.855L162.245 100.65V120H159.035ZM166.242 107.7V105.21V100.65L165.882 97.14H169.062L169.452 100.65V105.21L169.422 107.1L166.242 107.7ZM187.939 114H184.519L178.219 104.43L175.249 114H172.189L175.489 103.68L176.329 101.55L173.569 97.14H176.839L179.359 101.19L181.879 104.97L182.629 102.36L184.159 97.14H187.249L183.769 107.76L187.939 114ZM86.891 146.7V144.21V139.65L86.531 136.14H89.711L90.101 139.65V144.21L90.071 146.1L86.891 146.7ZM95.058 140.73L94.458 135.45L94.368 132.33H97.518L97.428 135.45L96.828 140.73H95.058ZM100.878 140.73L100.278 135.45L100.188 132.33H103.338L103.248 135.45L102.648 140.73H100.878ZM106.728 153.99L106.278 151.47L112.338 150.3C113.438 150.1 114.318 149.78 114.978 149.34C115.658 148.9 116.178 148.33 116.538 147.63C116.918 146.91 117.188 146.02 117.348 144.96C117.508 143.9 117.598 142.64 117.618 141.18C117.638 139.72 117.648 138.04 117.648 136.14H120.828C120.828 138.2 120.788 140.05 120.708 141.69C120.648 143.33 120.478 144.78 120.198 146.04C119.918 147.3 119.478 148.38 118.878 149.28C118.278 150.18 117.448 150.93 116.388 151.53C115.348 152.11 114.008 152.56 112.368 152.88L106.728 153.99ZM111.438 150.78L107.658 136.14H110.868L114.498 150.78H111.438ZM124.362 153V139.65L124.002 136.14H127.182L127.572 139.65V153H124.362ZM147.295 153V141.6C147.295 140.48 147.045 139.7 146.545 139.26C146.065 138.82 145.415 138.6 144.595 138.6H137.215V136.14H145.405C146.405 136.14 147.285 136.33 148.045 136.71C148.805 137.07 149.405 137.66 149.845 138.48C150.285 139.3 150.505 140.39 150.505 141.75V153H147.295ZM137.125 153V144.84L137.575 142.83H140.335V144.84V153H137.125ZM155.563 153.3L153.553 136.14H156.763L158.383 150.39C159.443 150.29 160.393 150.08 161.233 149.76C162.073 149.42 162.783 148.96 163.363 148.38C163.963 147.8 164.413 147.08 164.713 146.22C165.013 145.34 165.143 144.31 165.103 143.13V142.29C165.103 141.59 164.983 140.96 164.743 140.4C164.503 139.84 164.123 139.39 163.603 139.05C163.103 138.69 162.453 138.49 161.653 138.45L160.153 138.36L160.393 135.84L162.163 135.93C163.303 135.99 164.323 136.25 165.223 136.71C166.123 137.15 166.833 137.8 167.353 138.66C167.893 139.52 168.183 140.6 168.223 141.9L168.253 142.74C168.313 144.56 168.043 146.13 167.443 147.45C166.863 148.75 166.003 149.82 164.863 150.66C163.723 151.48 162.363 152.1 160.783 152.52C159.203 152.94 157.463 153.2 155.563 153.3ZM185.903 153H182.483L176.183 143.43L173.213 153H170.153L173.453 142.68L174.293 140.55L171.533 136.14H174.803L177.323 140.19L179.843 143.97L180.593 141.36L182.123 136.14H185.213L181.733 146.76L185.903 153ZM198.711 153V141.6C198.711 140.48 198.461 139.7 197.961 139.26C197.481 138.82 196.831 138.6 196.011 138.6H188.631V136.14H196.821C197.821 136.14 198.701 136.33 199.461 136.71C200.221 137.07 200.821 137.66 201.261 138.48C201.701 139.3 201.921 140.39 201.921 141.75V153H198.711ZM188.541 153V144.84L188.991 142.83H191.751V144.84V153H188.541ZM208.179 153L213.789 138.6H204.759V136.14H216.999V138.81L211.389 153H208.179ZM204.759 138.6V131.49H207.669V138.6H204.759ZM110.247 192V181.11C110.247 180.33 110.317 179.65 110.457 179.07C110.617 178.47 110.827 177.98 111.087 177.6H102.987V175.14H116.367V177.6H114.117C113.837 178.1 113.657 178.68 113.577 179.34C113.497 179.98 113.457 180.57 113.457 181.11V192H110.247ZM119.909 192V178.65L119.549 175.14H122.729L123.119 178.65V192H119.909ZM134.706 192V180.6C134.706 179.48 134.456 178.7 133.956 178.26C133.476 177.82 132.826 177.6 132.006 177.6H126.366V175.14H132.816C133.816 175.14 134.696 175.33 135.456 175.71C136.216 176.07 136.816 176.66 137.256 177.48C137.696 178.3 137.916 179.39 137.916 180.75V192H134.706ZM126.366 192V189.54H139.986V192H126.366ZM143.141 185.7V183.21V178.65L142.781 175.14H145.961L146.351 178.65V183.21L146.321 185.1L143.141 185.7ZM164.838 192H161.418L155.118 182.43L152.148 192H149.088L152.388 181.68L153.228 179.55L150.468 175.14H153.738L156.258 179.19L158.778 182.97L159.528 180.36L161.058 175.14H164.148L160.668 185.76L164.838 192ZM181.972 198V180.6C181.972 179.48 181.722 178.7 181.222 178.26C180.742 177.82 180.092 177.6 179.272 177.6H173.272V175.14H180.082C181.082 175.14 181.962 175.33 182.722 175.71C183.482 176.07 184.082 176.66 184.522 177.48C184.962 178.3 185.182 179.39 185.182 180.75V198H181.972ZM188.177 192V189.54H192.497C193.477 189.54 194.277 189.34 194.897 188.94C195.517 188.54 195.977 187.97 196.277 187.23C196.577 186.49 196.727 185.61 196.727 184.59V182.55C196.727 181.51 196.577 180.62 196.277 179.88C195.977 179.14 195.517 178.58 194.897 178.2C194.277 177.8 193.477 177.6 192.497 177.6H188.177V175.14H193.277C194.737 175.14 195.957 175.44 196.937 176.04C197.917 176.62 198.657 177.48 199.157 178.62C199.677 179.74 199.937 181.1 199.937 182.7V184.44C199.937 186.02 199.677 187.38 199.157 188.52C198.657 189.64 197.917 190.5 196.937 191.1C195.957 191.7 194.737 192 193.277 192H188.177ZM125.717 231V219.6C125.717 218.48 125.467 217.7 124.967 217.26C124.487 216.82 123.837 216.6 123.017 216.6H115.637V214.14H123.827C124.827 214.14 125.707 214.33 126.467 214.71C127.227 215.07 127.827 215.66 128.267 216.48C128.707 217.3 128.927 218.39 128.927 219.75V231H125.717ZM115.547 231V222.84L115.997 220.83H118.757V222.84V231H115.547ZM133.986 231.3L131.976 214.14H135.186L136.806 228.39C137.866 228.29 138.816 228.08 139.656 227.76C140.496 227.42 141.206 226.96 141.786 226.38C142.386 225.8 142.836 225.08 143.136 224.22C143.436 223.34 143.566 222.31 143.526 221.13V220.29C143.526 219.59 143.406 218.96 143.166 218.4C142.926 217.84 142.546 217.39 142.026 217.05C141.526 216.69 140.876 216.49 140.076 216.45L138.576 216.36L138.816 213.84L140.586 213.93C141.726 213.99 142.746 214.25 143.646 214.71C144.546 215.15 145.256 215.8 145.776 216.66C146.316 217.52 146.606 218.6 146.646 219.9L146.676 220.74C146.736 222.56 146.466 224.13 145.866 225.45C145.286 226.75 144.426 227.82 143.286 228.66C142.146 229.48 140.786 230.1 139.206 230.52C137.626 230.94 135.886 231.2 133.986 231.3ZM149.835 224.7V222.21V217.65L149.475 214.14H152.655L153.045 217.65V222.21L153.015 224.1L149.835 224.7ZM159.502 231L165.112 216.6H156.082V214.14H168.322V216.81L162.712 231H159.502ZM156.082 216.6V209.49H158.992V216.6H156.082ZM173.072 231.3L170.882 214.14H173.942L175.682 228.57C177.222 228.47 178.542 228.2 179.642 227.76C180.762 227.3 181.672 226.67 182.372 225.87C183.092 225.05 183.622 224.06 183.962 222.9C184.302 221.74 184.472 220.41 184.472 218.91L184.412 214.14H187.622L187.652 218.76C187.672 221.56 187.152 223.89 186.092 225.75C185.052 227.61 183.452 229.01 181.292 229.95C179.132 230.87 176.392 231.32 173.072 231.3ZM174.692 224.67L173.942 222.54C174.942 222.16 175.712 221.72 176.252 221.22C176.812 220.7 177.202 220.03 177.422 219.21C177.662 218.39 177.792 217.33 177.812 216.03V214.17H180.872L180.842 215.97C180.822 217.45 180.622 218.74 180.242 219.84C179.862 220.94 179.222 221.88 178.322 222.66C177.442 223.44 176.232 224.11 174.692 224.67ZM94.5387 270.45L94.2387 268.23C95.0387 268.15 95.6487 267.98 96.0687 267.72C96.4887 267.46 96.7787 267.1 96.9387 266.64C97.0987 266.18 97.1787 265.59 97.1787 264.87V253.14H105.279C106.279 253.14 107.159 253.33 107.919 253.71C108.699 254.07 109.299 254.66 109.719 255.48C110.159 256.3 110.379 257.39 110.379 258.75V270H107.169V258.6C107.169 257.48 106.929 256.7 106.449 256.26C105.969 255.82 105.309 255.6 104.469 255.6H100.389V264.51C100.389 265.83 100.179 266.91 99.7587 267.75C99.3587 268.59 98.7287 269.22 97.8687 269.64C97.0087 270.06 95.8987 270.33 94.5387 270.45ZM114.284 270V256.65L113.924 253.14H117.104L117.494 256.65V270H114.284ZM120.531 270V267.54H124.851C125.831 267.54 126.631 267.34 127.251 266.94C127.871 266.54 128.331 265.97 128.631 265.23C128.931 264.49 129.081 263.61 129.081 262.59V260.55C129.081 259.51 128.931 258.62 128.631 257.88C128.331 257.14 127.871 256.58 127.251 256.2C126.631 255.8 125.831 255.6 124.851 255.6H120.531V253.14H125.631C127.091 253.14 128.311 253.44 129.291 254.04C130.271 254.62 131.011 255.48 131.511 256.62C132.031 257.74 132.291 259.1 132.291 260.7V262.44C132.291 264.02 132.031 265.38 131.511 266.52C131.011 267.64 130.271 268.5 129.291 269.1C128.311 269.7 127.091 270 125.631 270H120.531ZM135.697 270V267.54H141.127C141.787 267.54 142.387 267.45 142.927 267.27C143.467 267.07 143.937 266.77 144.337 266.37C144.737 265.97 145.047 265.46 145.267 264.84C145.487 264.2 145.597 263.44 145.597 262.56V260.55C145.597 259.51 145.457 258.62 145.177 257.88C144.917 257.14 144.497 256.58 143.917 256.2C143.357 255.8 142.637 255.6 141.757 255.6H139.057L138.397 258.57C138.197 259.53 138.227 260.27 138.487 260.79C138.767 261.29 139.417 261.65 140.437 261.87L139.867 263.94C138.567 263.86 137.567 263.58 136.867 263.1C136.167 262.6 135.717 261.94 135.517 261.12C135.337 260.3 135.347 259.36 135.547 258.3L136.717 253.14H142.447C143.787 253.14 144.927 253.44 145.867 254.04C146.807 254.62 147.527 255.47 148.027 256.59C148.547 257.71 148.807 259.07 148.807 260.67V262.41C148.807 263.71 148.627 264.84 148.267 265.8C147.927 266.76 147.437 267.55 146.797 268.17C146.177 268.79 145.437 269.25 144.577 269.55C143.717 269.85 142.787 270 141.787 270H135.697ZM161.972 270V258.6C161.972 257.48 161.722 256.7 161.222 256.26C160.742 255.82 160.092 255.6 159.272 255.6H151.892V253.14H160.082C161.082 253.14 161.962 253.33 162.722 253.71C163.482 254.07 164.082 254.66 164.522 255.48C164.962 256.3 165.182 257.39 165.182 258.75V270H161.972ZM151.802 270V261.84L152.252 259.83H155.012V261.84V270H151.802ZM167.781 270.45L167.481 268.23C168.281 268.15 168.891 267.98 169.311 267.72C169.731 267.46 170.021 267.1 170.181 266.64C170.341 266.18 170.421 265.59 170.421 264.87V253.14H178.521C179.521 253.14 180.401 253.33 181.161 253.71C181.941 254.07 182.541 254.66 182.961 255.48C183.401 256.3 183.621 257.39 183.621 258.75V270H180.411V258.6C180.411 257.48 180.171 256.7 179.691 256.26C179.211 255.82 178.551 255.6 177.711 255.6H173.631V264.51C173.631 265.83 173.421 266.91 173.001 267.75C172.601 268.59 171.971 269.22 171.111 269.64C170.251 270.06 169.141 270.33 167.781 270.45ZM197.246 270V258.6C197.246 257.48 196.996 256.7 196.496 256.26C196.016 255.82 195.366 255.6 194.546 255.6H187.166V253.14H195.356C196.356 253.14 197.236 253.33 197.996 253.71C198.756 254.07 199.356 254.66 199.796 255.48C200.236 256.3 200.456 257.39 200.456 258.75V270H197.246ZM187.076 270V261.84L187.526 259.83H190.286V261.84V270H187.076ZM204.254 270V256.65L203.894 253.14H207.074L207.464 256.65V270H204.254Z" fill="white"/>
</g>
<defs>
<clipPath id="clip0_569_3091">
<rect width="308" height="301.886" fill="white"/>
</clipPath>
</defs>
</svg>
